G04 #@! TF.FileFunction,Legend,Top*
%FSLAX46Y46*%
G04 Gerber Fmt 4.6, Leading zero omitted, Abs format (unit mm)*
G04 Created by KiCad (PCBNEW 4.0.6-e0-6349~53~ubuntu16.04.1) date Thu May 25 23:24:03 2017*
%MOMM*%
%LPD*%
G01*
G04 APERTURE LIST*
%ADD10C,0.100000*%
%ADD11C,0.160000*%
%ADD12C,0.200000*%
%ADD13C,0.150000*%
%ADD14C,0.127000*%
%ADD15C,0.254000*%
%ADD16C,0.114300*%
%ADD17C,0.149860*%
%ADD18C,0.152400*%
%ADD19C,0.203200*%
G04 APERTURE END LIST*
D10*
D11*
X123742858Y-110992857D02*
X124200001Y-110992857D01*
X123914286Y-110592857D02*
X123914286Y-111621429D01*
X123971429Y-111735714D01*
X124085715Y-111792857D01*
X124200001Y-111792857D01*
X124485715Y-110992857D02*
X125114286Y-110992857D01*
X124485715Y-111792857D01*
X125114286Y-111792857D01*
X126314286Y-111221429D02*
X126257144Y-111164286D01*
X126142858Y-111107143D01*
X126028572Y-111107143D01*
X125914286Y-111164286D01*
X125857144Y-111221429D01*
X125800001Y-111335714D01*
X125800001Y-111450000D01*
X125857144Y-111564286D01*
X125914286Y-111621429D01*
X126028572Y-111678571D01*
X126142858Y-111678571D01*
X126257144Y-111621429D01*
X126314286Y-111564286D01*
X126314286Y-111107143D02*
X126314286Y-111564286D01*
X126371429Y-111621429D01*
X126428572Y-111621429D01*
X126542858Y-111564286D01*
X126600001Y-111450000D01*
X126600001Y-111164286D01*
X126485715Y-110992857D01*
X126314286Y-110878571D01*
X126085715Y-110821429D01*
X125857144Y-110878571D01*
X125685715Y-110992857D01*
X125571429Y-111164286D01*
X125514286Y-111392857D01*
X125571429Y-111621429D01*
X125685715Y-111792857D01*
X125857144Y-111907143D01*
X126085715Y-111964286D01*
X126314286Y-111907143D01*
X126485715Y-111792857D01*
X126942858Y-110992857D02*
X127400001Y-110992857D01*
X127114286Y-110592857D02*
X127114286Y-111621429D01*
X127171429Y-111735714D01*
X127285715Y-111792857D01*
X127400001Y-111792857D01*
X127800000Y-111792857D02*
X127800000Y-110992857D01*
X127800000Y-110592857D02*
X127742857Y-110650000D01*
X127800000Y-110707143D01*
X127857143Y-110650000D01*
X127800000Y-110592857D01*
X127800000Y-110707143D01*
X128257144Y-110992857D02*
X128885715Y-110992857D01*
X128257144Y-111792857D01*
X128885715Y-111792857D01*
X129800001Y-111735714D02*
X129685715Y-111792857D01*
X129457144Y-111792857D01*
X129342858Y-111735714D01*
X129285715Y-111621429D01*
X129285715Y-111164286D01*
X129342858Y-111050000D01*
X129457144Y-110992857D01*
X129685715Y-110992857D01*
X129800001Y-111050000D01*
X129857144Y-111164286D01*
X129857144Y-111278571D01*
X129285715Y-111392857D01*
X130885715Y-111792857D02*
X130885715Y-110592857D01*
X130885715Y-111735714D02*
X130771429Y-111792857D01*
X130542858Y-111792857D01*
X130428572Y-111735714D01*
X130371429Y-111678571D01*
X130314286Y-111564286D01*
X130314286Y-111221429D01*
X130371429Y-111107143D01*
X130428572Y-111050000D01*
X130542858Y-110992857D01*
X130771429Y-110992857D01*
X130885715Y-111050000D01*
X131457143Y-111678571D02*
X131514286Y-111735714D01*
X131457143Y-111792857D01*
X131400000Y-111735714D01*
X131457143Y-111678571D01*
X131457143Y-111792857D01*
X132028572Y-111792857D02*
X132028572Y-110992857D01*
X132028572Y-111107143D02*
X132085715Y-111050000D01*
X132200001Y-110992857D01*
X132371429Y-110992857D01*
X132485715Y-111050000D01*
X132542858Y-111164286D01*
X132542858Y-111792857D01*
X132542858Y-111164286D02*
X132600001Y-111050000D01*
X132714287Y-110992857D01*
X132885715Y-110992857D01*
X133000001Y-111050000D01*
X133057144Y-111164286D01*
X133057144Y-111792857D01*
X134085715Y-111735714D02*
X133971429Y-111792857D01*
X133742858Y-111792857D01*
X133628572Y-111735714D01*
X133571429Y-111621429D01*
X133571429Y-111164286D01*
X133628572Y-111050000D01*
X133742858Y-110992857D01*
X133971429Y-110992857D01*
X134085715Y-111050000D01*
X134142858Y-111164286D01*
X134142858Y-111278571D01*
X133571429Y-111392857D01*
D12*
X117428572Y-100057143D02*
X117485715Y-100000000D01*
X117600001Y-99942857D01*
X117885715Y-99942857D01*
X118000001Y-100000000D01*
X118057144Y-100057143D01*
X118114287Y-100171429D01*
X118114287Y-100285714D01*
X118057144Y-100457143D01*
X117371430Y-101142857D01*
X118114287Y-101142857D01*
X118628572Y-100685714D02*
X119542858Y-100685714D01*
X120114286Y-101142857D02*
X120114286Y-99942857D01*
X120571429Y-99942857D01*
X120685715Y-100000000D01*
X120742858Y-100057143D01*
X120800001Y-100171429D01*
X120800001Y-100342857D01*
X120742858Y-100457143D01*
X120685715Y-100514286D01*
X120571429Y-100571429D01*
X120114286Y-100571429D01*
X121314286Y-101142857D02*
X121314286Y-99942857D01*
X121828572Y-101142857D02*
X121828572Y-100514286D01*
X121771429Y-100400000D01*
X121657143Y-100342857D01*
X121485715Y-100342857D01*
X121371429Y-100400000D01*
X121314286Y-100457143D01*
X122914286Y-101142857D02*
X122914286Y-100514286D01*
X122857143Y-100400000D01*
X122742857Y-100342857D01*
X122514286Y-100342857D01*
X122400000Y-100400000D01*
X122914286Y-101085714D02*
X122800000Y-101142857D01*
X122514286Y-101142857D01*
X122400000Y-101085714D01*
X122342857Y-100971429D01*
X122342857Y-100857143D01*
X122400000Y-100742857D01*
X122514286Y-100685714D01*
X122800000Y-100685714D01*
X122914286Y-100628571D01*
X123428571Y-101085714D02*
X123542857Y-101142857D01*
X123771429Y-101142857D01*
X123885714Y-101085714D01*
X123942857Y-100971429D01*
X123942857Y-100914286D01*
X123885714Y-100800000D01*
X123771429Y-100742857D01*
X123600000Y-100742857D01*
X123485714Y-100685714D01*
X123428571Y-100571429D01*
X123428571Y-100514286D01*
X123485714Y-100400000D01*
X123600000Y-100342857D01*
X123771429Y-100342857D01*
X123885714Y-100400000D01*
X124914286Y-101085714D02*
X124800000Y-101142857D01*
X124571429Y-101142857D01*
X124457143Y-101085714D01*
X124400000Y-100971429D01*
X124400000Y-100514286D01*
X124457143Y-100400000D01*
X124571429Y-100342857D01*
X124800000Y-100342857D01*
X124914286Y-100400000D01*
X124971429Y-100514286D01*
X124971429Y-100628571D01*
X124400000Y-100742857D01*
X126400000Y-101142857D02*
X126400000Y-99942857D01*
X126800000Y-100800000D01*
X127200000Y-99942857D01*
X127200000Y-101142857D01*
X127942858Y-101142857D02*
X127828572Y-101085714D01*
X127771429Y-101028571D01*
X127714286Y-100914286D01*
X127714286Y-100571429D01*
X127771429Y-100457143D01*
X127828572Y-100400000D01*
X127942858Y-100342857D01*
X128114286Y-100342857D01*
X128228572Y-100400000D01*
X128285715Y-100457143D01*
X128342858Y-100571429D01*
X128342858Y-100914286D01*
X128285715Y-101028571D01*
X128228572Y-101085714D01*
X128114286Y-101142857D01*
X127942858Y-101142857D01*
X128685715Y-100342857D02*
X129142858Y-100342857D01*
X128857143Y-99942857D02*
X128857143Y-100971429D01*
X128914286Y-101085714D01*
X129028572Y-101142857D01*
X129142858Y-101142857D01*
X129714286Y-101142857D02*
X129600000Y-101085714D01*
X129542857Y-101028571D01*
X129485714Y-100914286D01*
X129485714Y-100571429D01*
X129542857Y-100457143D01*
X129600000Y-100400000D01*
X129714286Y-100342857D01*
X129885714Y-100342857D01*
X130000000Y-100400000D01*
X130057143Y-100457143D01*
X130114286Y-100571429D01*
X130114286Y-100914286D01*
X130057143Y-101028571D01*
X130000000Y-101085714D01*
X129885714Y-101142857D01*
X129714286Y-101142857D01*
X130628571Y-101142857D02*
X130628571Y-100342857D01*
X130628571Y-100571429D02*
X130685714Y-100457143D01*
X130742857Y-100400000D01*
X130857143Y-100342857D01*
X130971428Y-100342857D01*
X132285714Y-101142857D02*
X132285714Y-99942857D01*
X132571429Y-99942857D01*
X132742857Y-100000000D01*
X132857143Y-100114286D01*
X132914286Y-100228571D01*
X132971429Y-100457143D01*
X132971429Y-100628571D01*
X132914286Y-100857143D01*
X132857143Y-100971429D01*
X132742857Y-101085714D01*
X132571429Y-101142857D01*
X132285714Y-101142857D01*
X133485714Y-101142857D02*
X133485714Y-100342857D01*
X133485714Y-100571429D02*
X133542857Y-100457143D01*
X133600000Y-100400000D01*
X133714286Y-100342857D01*
X133828571Y-100342857D01*
X134228571Y-101142857D02*
X134228571Y-100342857D01*
X134228571Y-99942857D02*
X134171428Y-100000000D01*
X134228571Y-100057143D01*
X134285714Y-100000000D01*
X134228571Y-99942857D01*
X134228571Y-100057143D01*
X134685715Y-100342857D02*
X134971429Y-101142857D01*
X135257143Y-100342857D01*
X136171429Y-101085714D02*
X136057143Y-101142857D01*
X135828572Y-101142857D01*
X135714286Y-101085714D01*
X135657143Y-100971429D01*
X135657143Y-100514286D01*
X135714286Y-100400000D01*
X135828572Y-100342857D01*
X136057143Y-100342857D01*
X136171429Y-100400000D01*
X136228572Y-100514286D01*
X136228572Y-100628571D01*
X135657143Y-100742857D01*
X136742857Y-101142857D02*
X136742857Y-100342857D01*
X136742857Y-100571429D02*
X136800000Y-100457143D01*
X136857143Y-100400000D01*
X136971429Y-100342857D01*
X137085714Y-100342857D01*
X126616666Y-107983333D02*
X127416666Y-107983333D01*
X127016666Y-109383333D02*
X127016666Y-107983333D01*
X127883333Y-109383333D02*
X127883333Y-108450000D01*
X127883333Y-107983333D02*
X127816667Y-108050000D01*
X127883333Y-108116667D01*
X127950000Y-108050000D01*
X127883333Y-107983333D01*
X127883333Y-108116667D01*
X128416667Y-107983333D02*
X129350000Y-107983333D01*
X128416667Y-109383333D01*
X129350000Y-109383333D01*
X130416667Y-109316667D02*
X130283333Y-109383333D01*
X130016667Y-109383333D01*
X129883333Y-109316667D01*
X129816667Y-109183333D01*
X129816667Y-108650000D01*
X129883333Y-108516667D01*
X130016667Y-108450000D01*
X130283333Y-108450000D01*
X130416667Y-108516667D01*
X130483333Y-108650000D01*
X130483333Y-108783333D01*
X129816667Y-108916667D01*
X131683333Y-109383333D02*
X131683333Y-107983333D01*
X131683333Y-109316667D02*
X131550000Y-109383333D01*
X131283333Y-109383333D01*
X131150000Y-109316667D01*
X131083333Y-109250000D01*
X131016667Y-109116667D01*
X131016667Y-108716667D01*
X131083333Y-108583333D01*
X131150000Y-108516667D01*
X131283333Y-108450000D01*
X131550000Y-108450000D01*
X131683333Y-108516667D01*
X124571429Y-105714286D02*
X124742858Y-105771429D01*
X124800001Y-105828571D01*
X124857144Y-105942857D01*
X124857144Y-106114286D01*
X124800001Y-106228571D01*
X124742858Y-106285714D01*
X124628572Y-106342857D01*
X124171429Y-106342857D01*
X124171429Y-105142857D01*
X124571429Y-105142857D01*
X124685715Y-105200000D01*
X124742858Y-105257143D01*
X124800001Y-105371429D01*
X124800001Y-105485714D01*
X124742858Y-105600000D01*
X124685715Y-105657143D01*
X124571429Y-105714286D01*
X124171429Y-105714286D01*
X125600001Y-105771429D02*
X125600001Y-106342857D01*
X125200001Y-105142857D02*
X125600001Y-105771429D01*
X126000001Y-105142857D01*
X126400000Y-105885714D02*
X127314286Y-105885714D01*
X127885714Y-106342857D02*
X127885714Y-105142857D01*
X128571429Y-106342857D01*
X128571429Y-105142857D01*
X129828572Y-106228571D02*
X129771429Y-106285714D01*
X129600000Y-106342857D01*
X129485714Y-106342857D01*
X129314286Y-106285714D01*
X129200000Y-106171429D01*
X129142857Y-106057143D01*
X129085714Y-105828571D01*
X129085714Y-105657143D01*
X129142857Y-105428571D01*
X129200000Y-105314286D01*
X129314286Y-105200000D01*
X129485714Y-105142857D01*
X129600000Y-105142857D01*
X129771429Y-105200000D01*
X129828572Y-105257143D01*
X130342857Y-105885714D02*
X131257143Y-105885714D01*
X131771428Y-106285714D02*
X131942857Y-106342857D01*
X132228571Y-106342857D01*
X132342857Y-106285714D01*
X132400000Y-106228571D01*
X132457143Y-106114286D01*
X132457143Y-106000000D01*
X132400000Y-105885714D01*
X132342857Y-105828571D01*
X132228571Y-105771429D01*
X132000000Y-105714286D01*
X131885714Y-105657143D01*
X131828571Y-105600000D01*
X131771428Y-105485714D01*
X131771428Y-105371429D01*
X131828571Y-105257143D01*
X131885714Y-105200000D01*
X132000000Y-105142857D01*
X132285714Y-105142857D01*
X132457143Y-105200000D01*
X132914285Y-106000000D02*
X133485714Y-106000000D01*
X132800000Y-106342857D02*
X133200000Y-105142857D01*
X133600000Y-106342857D01*
X123350781Y-105750000D02*
G75*
G03X123350781Y-105750000I-1600781J0D01*
G01*
X121483333Y-106250000D02*
X121416667Y-106316667D01*
X121216667Y-106383333D01*
X121083333Y-106383333D01*
X120883333Y-106316667D01*
X120750000Y-106183333D01*
X120683333Y-106050000D01*
X120616667Y-105783333D01*
X120616667Y-105583333D01*
X120683333Y-105316667D01*
X120750000Y-105183333D01*
X120883333Y-105050000D01*
X121083333Y-104983333D01*
X121216667Y-104983333D01*
X121416667Y-105050000D01*
X121483333Y-105116667D01*
X122883333Y-106250000D02*
X122816667Y-106316667D01*
X122616667Y-106383333D01*
X122483333Y-106383333D01*
X122283333Y-106316667D01*
X122150000Y-106183333D01*
X122083333Y-106050000D01*
X122016667Y-105783333D01*
X122016667Y-105583333D01*
X122083333Y-105316667D01*
X122150000Y-105183333D01*
X122283333Y-105050000D01*
X122483333Y-104983333D01*
X122616667Y-104983333D01*
X122816667Y-105050000D01*
X122883333Y-105116667D01*
X122864286Y-76092857D02*
X123264286Y-77292857D01*
X123664286Y-76092857D01*
X124064285Y-77292857D02*
X124064285Y-76092857D01*
X124521428Y-76092857D01*
X124635714Y-76150000D01*
X124692857Y-76207143D01*
X124750000Y-76321429D01*
X124750000Y-76492857D01*
X124692857Y-76607143D01*
X124635714Y-76664286D01*
X124521428Y-76721429D01*
X124064285Y-76721429D01*
X125264285Y-77292857D02*
X125264285Y-76092857D01*
X125721428Y-76092857D01*
X125835714Y-76150000D01*
X125892857Y-76207143D01*
X125950000Y-76321429D01*
X125950000Y-76492857D01*
X125892857Y-76607143D01*
X125835714Y-76664286D01*
X125721428Y-76721429D01*
X125264285Y-76721429D01*
X126464285Y-77178571D02*
X126521428Y-77235714D01*
X126464285Y-77292857D01*
X126407142Y-77235714D01*
X126464285Y-77178571D01*
X126464285Y-77292857D01*
X126464285Y-76550000D02*
X126521428Y-76607143D01*
X126464285Y-76664286D01*
X126407142Y-76607143D01*
X126464285Y-76550000D01*
X126464285Y-76664286D01*
X127835715Y-76092857D02*
X128635715Y-76092857D01*
X128121429Y-77292857D01*
X129092857Y-77178571D02*
X129150000Y-77235714D01*
X129092857Y-77292857D01*
X129035714Y-77235714D01*
X129092857Y-77178571D01*
X129092857Y-77292857D01*
X130235715Y-76092857D02*
X129664286Y-76092857D01*
X129607143Y-76664286D01*
X129664286Y-76607143D01*
X129778572Y-76550000D01*
X130064286Y-76550000D01*
X130178572Y-76607143D01*
X130235715Y-76664286D01*
X130292858Y-76778571D01*
X130292858Y-77064286D01*
X130235715Y-77178571D01*
X130178572Y-77235714D01*
X130064286Y-77292857D01*
X129778572Y-77292857D01*
X129664286Y-77235714D01*
X129607143Y-77178571D01*
X130807143Y-76835714D02*
X131721429Y-76835714D01*
X132807143Y-76492857D02*
X132807143Y-77292857D01*
X132521429Y-76035714D02*
X132235714Y-76892857D01*
X132978572Y-76892857D01*
X133950000Y-76092857D02*
X133721429Y-76092857D01*
X133607143Y-76150000D01*
X133550000Y-76207143D01*
X133435714Y-76378571D01*
X133378571Y-76607143D01*
X133378571Y-77064286D01*
X133435714Y-77178571D01*
X133492857Y-77235714D01*
X133607143Y-77292857D01*
X133835714Y-77292857D01*
X133950000Y-77235714D01*
X134007143Y-77178571D01*
X134064286Y-77064286D01*
X134064286Y-76778571D01*
X134007143Y-76664286D01*
X133950000Y-76607143D01*
X133835714Y-76550000D01*
X133607143Y-76550000D01*
X133492857Y-76607143D01*
X133435714Y-76664286D01*
X133378571Y-76778571D01*
X134407143Y-76092857D02*
X134807143Y-77292857D01*
X135207143Y-76092857D01*
X122864286Y-78092857D02*
X123264286Y-79292857D01*
X123664286Y-78092857D01*
X124064285Y-79292857D02*
X124064285Y-78092857D01*
X124350000Y-78092857D01*
X124521428Y-78150000D01*
X124635714Y-78264286D01*
X124692857Y-78378571D01*
X124750000Y-78607143D01*
X124750000Y-78778571D01*
X124692857Y-79007143D01*
X124635714Y-79121429D01*
X124521428Y-79235714D01*
X124350000Y-79292857D01*
X124064285Y-79292857D01*
X125264285Y-79292857D02*
X125264285Y-78092857D01*
X125550000Y-78092857D01*
X125721428Y-78150000D01*
X125835714Y-78264286D01*
X125892857Y-78378571D01*
X125950000Y-78607143D01*
X125950000Y-78778571D01*
X125892857Y-79007143D01*
X125835714Y-79121429D01*
X125721428Y-79235714D01*
X125550000Y-79292857D01*
X125264285Y-79292857D01*
X126464285Y-79178571D02*
X126521428Y-79235714D01*
X126464285Y-79292857D01*
X126407142Y-79235714D01*
X126464285Y-79178571D01*
X126464285Y-79292857D01*
X126464285Y-78550000D02*
X126521428Y-78607143D01*
X126464285Y-78664286D01*
X126407142Y-78607143D01*
X126464285Y-78550000D01*
X126464285Y-78664286D01*
X128464286Y-78492857D02*
X128464286Y-79292857D01*
X128178572Y-78035714D02*
X127892857Y-78892857D01*
X128635715Y-78892857D01*
X129092857Y-79178571D02*
X129150000Y-79235714D01*
X129092857Y-79292857D01*
X129035714Y-79235714D01*
X129092857Y-79178571D01*
X129092857Y-79292857D01*
X130235715Y-78092857D02*
X129664286Y-78092857D01*
X129607143Y-78664286D01*
X129664286Y-78607143D01*
X129778572Y-78550000D01*
X130064286Y-78550000D01*
X130178572Y-78607143D01*
X130235715Y-78664286D01*
X130292858Y-78778571D01*
X130292858Y-79064286D01*
X130235715Y-79178571D01*
X130178572Y-79235714D01*
X130064286Y-79292857D01*
X129778572Y-79292857D01*
X129664286Y-79235714D01*
X129607143Y-79178571D01*
X130807143Y-78835714D02*
X131721429Y-78835714D01*
X132864286Y-78092857D02*
X132292857Y-78092857D01*
X132235714Y-78664286D01*
X132292857Y-78607143D01*
X132407143Y-78550000D01*
X132692857Y-78550000D01*
X132807143Y-78607143D01*
X132864286Y-78664286D01*
X132921429Y-78778571D01*
X132921429Y-79064286D01*
X132864286Y-79178571D01*
X132807143Y-79235714D01*
X132692857Y-79292857D01*
X132407143Y-79292857D01*
X132292857Y-79235714D01*
X132235714Y-79178571D01*
X133435714Y-79178571D02*
X133492857Y-79235714D01*
X133435714Y-79292857D01*
X133378571Y-79235714D01*
X133435714Y-79178571D01*
X133435714Y-79292857D01*
X134578572Y-78092857D02*
X134007143Y-78092857D01*
X133950000Y-78664286D01*
X134007143Y-78607143D01*
X134121429Y-78550000D01*
X134407143Y-78550000D01*
X134521429Y-78607143D01*
X134578572Y-78664286D01*
X134635715Y-78778571D01*
X134635715Y-79064286D01*
X134578572Y-79178571D01*
X134521429Y-79235714D01*
X134407143Y-79292857D01*
X134121429Y-79292857D01*
X134007143Y-79235714D01*
X133950000Y-79178571D01*
X134978572Y-78092857D02*
X135378572Y-79292857D01*
X135778572Y-78092857D01*
X134400001Y-73842857D02*
X134800001Y-75042857D01*
X135200001Y-73842857D01*
X135600000Y-75042857D02*
X135600000Y-73842857D01*
X136057143Y-73842857D01*
X136171429Y-73900000D01*
X136228572Y-73957143D01*
X136285715Y-74071429D01*
X136285715Y-74242857D01*
X136228572Y-74357143D01*
X136171429Y-74414286D01*
X136057143Y-74471429D01*
X135600000Y-74471429D01*
X136800000Y-75042857D02*
X136800000Y-73842857D01*
X137257143Y-73842857D01*
X137371429Y-73900000D01*
X137428572Y-73957143D01*
X137485715Y-74071429D01*
X137485715Y-74242857D01*
X137428572Y-74357143D01*
X137371429Y-74414286D01*
X137257143Y-74471429D01*
X136800000Y-74471429D01*
X135238096Y-61500000D02*
X135142858Y-61452381D01*
X135000001Y-61452381D01*
X134857143Y-61500000D01*
X134761905Y-61595238D01*
X134714286Y-61690476D01*
X134666667Y-61880952D01*
X134666667Y-62023810D01*
X134714286Y-62214286D01*
X134761905Y-62309524D01*
X134857143Y-62404762D01*
X135000001Y-62452381D01*
X135095239Y-62452381D01*
X135238096Y-62404762D01*
X135285715Y-62357143D01*
X135285715Y-62023810D01*
X135095239Y-62023810D01*
X135714286Y-62452381D02*
X135714286Y-61452381D01*
X136285715Y-62452381D01*
X136285715Y-61452381D01*
X136761905Y-62452381D02*
X136761905Y-61452381D01*
X137000000Y-61452381D01*
X137142858Y-61500000D01*
X137238096Y-61595238D01*
X137285715Y-61690476D01*
X137333334Y-61880952D01*
X137333334Y-62023810D01*
X137285715Y-62214286D01*
X137238096Y-62309524D01*
X137142858Y-62404762D01*
X137000000Y-62452381D01*
X136761905Y-62452381D01*
X53238096Y-61500000D02*
X53142858Y-61452381D01*
X53000001Y-61452381D01*
X52857143Y-61500000D01*
X52761905Y-61595238D01*
X52714286Y-61690476D01*
X52666667Y-61880952D01*
X52666667Y-62023810D01*
X52714286Y-62214286D01*
X52761905Y-62309524D01*
X52857143Y-62404762D01*
X53000001Y-62452381D01*
X53095239Y-62452381D01*
X53238096Y-62404762D01*
X53285715Y-62357143D01*
X53285715Y-62023810D01*
X53095239Y-62023810D01*
X53714286Y-62452381D02*
X53714286Y-61452381D01*
X54285715Y-62452381D01*
X54285715Y-61452381D01*
X54761905Y-62452381D02*
X54761905Y-61452381D01*
X55000000Y-61452381D01*
X55142858Y-61500000D01*
X55238096Y-61595238D01*
X55285715Y-61690476D01*
X55333334Y-61880952D01*
X55333334Y-62023810D01*
X55285715Y-62214286D01*
X55238096Y-62309524D01*
X55142858Y-62404762D01*
X55000000Y-62452381D01*
X54761905Y-62452381D01*
X52400001Y-73842857D02*
X52800001Y-75042857D01*
X53200001Y-73842857D01*
X53600000Y-75042857D02*
X53600000Y-73842857D01*
X54057143Y-73842857D01*
X54171429Y-73900000D01*
X54228572Y-73957143D01*
X54285715Y-74071429D01*
X54285715Y-74242857D01*
X54228572Y-74357143D01*
X54171429Y-74414286D01*
X54057143Y-74471429D01*
X53600000Y-74471429D01*
X54800000Y-75042857D02*
X54800000Y-73842857D01*
X55257143Y-73842857D01*
X55371429Y-73900000D01*
X55428572Y-73957143D01*
X55485715Y-74071429D01*
X55485715Y-74242857D01*
X55428572Y-74357143D01*
X55371429Y-74414286D01*
X55257143Y-74471429D01*
X54800000Y-74471429D01*
D13*
X50971429Y-86728571D02*
X50914286Y-86785714D01*
X50742857Y-86842857D01*
X50628571Y-86842857D01*
X50457143Y-86785714D01*
X50342857Y-86671429D01*
X50285714Y-86557143D01*
X50228571Y-86328571D01*
X50228571Y-86157143D01*
X50285714Y-85928571D01*
X50342857Y-85814286D01*
X50457143Y-85700000D01*
X50628571Y-85642857D01*
X50742857Y-85642857D01*
X50914286Y-85700000D01*
X50971429Y-85757143D01*
X52000000Y-86042857D02*
X52000000Y-86842857D01*
X51485714Y-86042857D02*
X51485714Y-86671429D01*
X51542857Y-86785714D01*
X51657143Y-86842857D01*
X51828571Y-86842857D01*
X51942857Y-86785714D01*
X52000000Y-86728571D01*
X52571428Y-86842857D02*
X52571428Y-86042857D01*
X52571428Y-86271429D02*
X52628571Y-86157143D01*
X52685714Y-86100000D01*
X52800000Y-86042857D01*
X52914285Y-86042857D01*
X53314285Y-86842857D02*
X53314285Y-86042857D01*
X53314285Y-86271429D02*
X53371428Y-86157143D01*
X53428571Y-86100000D01*
X53542857Y-86042857D01*
X53657142Y-86042857D01*
X54514285Y-86785714D02*
X54399999Y-86842857D01*
X54171428Y-86842857D01*
X54057142Y-86785714D01*
X53999999Y-86671429D01*
X53999999Y-86214286D01*
X54057142Y-86100000D01*
X54171428Y-86042857D01*
X54399999Y-86042857D01*
X54514285Y-86100000D01*
X54571428Y-86214286D01*
X54571428Y-86328571D01*
X53999999Y-86442857D01*
X55085713Y-86042857D02*
X55085713Y-86842857D01*
X55085713Y-86157143D02*
X55142856Y-86100000D01*
X55257142Y-86042857D01*
X55428570Y-86042857D01*
X55542856Y-86100000D01*
X55599999Y-86214286D01*
X55599999Y-86842857D01*
X55999999Y-86042857D02*
X56457142Y-86042857D01*
X56171427Y-85642857D02*
X56171427Y-86671429D01*
X56228570Y-86785714D01*
X56342856Y-86842857D01*
X56457142Y-86842857D01*
X50228571Y-88735714D02*
X50400000Y-88792857D01*
X50685714Y-88792857D01*
X50800000Y-88735714D01*
X50857143Y-88678571D01*
X50914286Y-88564286D01*
X50914286Y-88450000D01*
X50857143Y-88335714D01*
X50800000Y-88278571D01*
X50685714Y-88221429D01*
X50457143Y-88164286D01*
X50342857Y-88107143D01*
X50285714Y-88050000D01*
X50228571Y-87935714D01*
X50228571Y-87821429D01*
X50285714Y-87707143D01*
X50342857Y-87650000D01*
X50457143Y-87592857D01*
X50742857Y-87592857D01*
X50914286Y-87650000D01*
X51885714Y-88735714D02*
X51771428Y-88792857D01*
X51542857Y-88792857D01*
X51428571Y-88735714D01*
X51371428Y-88621429D01*
X51371428Y-88164286D01*
X51428571Y-88050000D01*
X51542857Y-87992857D01*
X51771428Y-87992857D01*
X51885714Y-88050000D01*
X51942857Y-88164286D01*
X51942857Y-88278571D01*
X51371428Y-88392857D01*
X52457142Y-87992857D02*
X52457142Y-88792857D01*
X52457142Y-88107143D02*
X52514285Y-88050000D01*
X52628571Y-87992857D01*
X52799999Y-87992857D01*
X52914285Y-88050000D01*
X52971428Y-88164286D01*
X52971428Y-88792857D01*
X53485713Y-88735714D02*
X53599999Y-88792857D01*
X53828571Y-88792857D01*
X53942856Y-88735714D01*
X53999999Y-88621429D01*
X53999999Y-88564286D01*
X53942856Y-88450000D01*
X53828571Y-88392857D01*
X53657142Y-88392857D01*
X53542856Y-88335714D01*
X53485713Y-88221429D01*
X53485713Y-88164286D01*
X53542856Y-88050000D01*
X53657142Y-87992857D01*
X53828571Y-87992857D01*
X53942856Y-88050000D01*
X54971428Y-88735714D02*
X54857142Y-88792857D01*
X54628571Y-88792857D01*
X54514285Y-88735714D01*
X54457142Y-88621429D01*
X54457142Y-88164286D01*
X54514285Y-88050000D01*
X54628571Y-87992857D01*
X54857142Y-87992857D01*
X54971428Y-88050000D01*
X55028571Y-88164286D01*
X55028571Y-88278571D01*
X54457142Y-88392857D01*
X50971429Y-90628571D02*
X50914286Y-90685714D01*
X50742857Y-90742857D01*
X50628571Y-90742857D01*
X50457143Y-90685714D01*
X50342857Y-90571429D01*
X50285714Y-90457143D01*
X50228571Y-90228571D01*
X50228571Y-90057143D01*
X50285714Y-89828571D01*
X50342857Y-89714286D01*
X50457143Y-89600000D01*
X50628571Y-89542857D01*
X50742857Y-89542857D01*
X50914286Y-89600000D01*
X50971429Y-89657143D01*
X51657143Y-90742857D02*
X51542857Y-90685714D01*
X51485714Y-90628571D01*
X51428571Y-90514286D01*
X51428571Y-90171429D01*
X51485714Y-90057143D01*
X51542857Y-90000000D01*
X51657143Y-89942857D01*
X51828571Y-89942857D01*
X51942857Y-90000000D01*
X52000000Y-90057143D01*
X52057143Y-90171429D01*
X52057143Y-90514286D01*
X52000000Y-90628571D01*
X51942857Y-90685714D01*
X51828571Y-90742857D01*
X51657143Y-90742857D01*
X52571428Y-89942857D02*
X52571428Y-90742857D01*
X52571428Y-90057143D02*
X52628571Y-90000000D01*
X52742857Y-89942857D01*
X52914285Y-89942857D01*
X53028571Y-90000000D01*
X53085714Y-90114286D01*
X53085714Y-90742857D01*
X53485714Y-89942857D02*
X53942857Y-89942857D01*
X53657142Y-89542857D02*
X53657142Y-90571429D01*
X53714285Y-90685714D01*
X53828571Y-90742857D01*
X53942857Y-90742857D01*
X54342856Y-90742857D02*
X54342856Y-89942857D01*
X54342856Y-90171429D02*
X54399999Y-90057143D01*
X54457142Y-90000000D01*
X54571428Y-89942857D01*
X54685713Y-89942857D01*
X55257142Y-90742857D02*
X55142856Y-90685714D01*
X55085713Y-90628571D01*
X55028570Y-90514286D01*
X55028570Y-90171429D01*
X55085713Y-90057143D01*
X55142856Y-90000000D01*
X55257142Y-89942857D01*
X55428570Y-89942857D01*
X55542856Y-90000000D01*
X55599999Y-90057143D01*
X55657142Y-90171429D01*
X55657142Y-90514286D01*
X55599999Y-90628571D01*
X55542856Y-90685714D01*
X55428570Y-90742857D01*
X55257142Y-90742857D01*
X56342856Y-90742857D02*
X56228570Y-90685714D01*
X56171427Y-90571429D01*
X56171427Y-89542857D01*
D12*
X61414286Y-80900000D02*
X61300000Y-80842857D01*
X61128571Y-80842857D01*
X60957143Y-80900000D01*
X60842857Y-81014286D01*
X60785714Y-81128571D01*
X60728571Y-81357143D01*
X60728571Y-81528571D01*
X60785714Y-81757143D01*
X60842857Y-81871429D01*
X60957143Y-81985714D01*
X61128571Y-82042857D01*
X61242857Y-82042857D01*
X61414286Y-81985714D01*
X61471429Y-81928571D01*
X61471429Y-81528571D01*
X61242857Y-81528571D01*
X61985714Y-82042857D02*
X61985714Y-80842857D01*
X62671429Y-82042857D01*
X62671429Y-80842857D01*
X63242857Y-82042857D02*
X63242857Y-80842857D01*
X63528572Y-80842857D01*
X63700000Y-80900000D01*
X63814286Y-81014286D01*
X63871429Y-81128571D01*
X63928572Y-81357143D01*
X63928572Y-81528571D01*
X63871429Y-81757143D01*
X63814286Y-81871429D01*
X63700000Y-81985714D01*
X63528572Y-82042857D01*
X63242857Y-82042857D01*
X62250000Y-78000000D02*
X62250000Y-77250000D01*
X62250000Y-88750000D02*
X62250000Y-85000000D01*
X60728571Y-79485714D02*
X60900000Y-79542857D01*
X61185714Y-79542857D01*
X61300000Y-79485714D01*
X61357143Y-79428571D01*
X61414286Y-79314286D01*
X61414286Y-79200000D01*
X61357143Y-79085714D01*
X61300000Y-79028571D01*
X61185714Y-78971429D01*
X60957143Y-78914286D01*
X60842857Y-78857143D01*
X60785714Y-78800000D01*
X60728571Y-78685714D01*
X60728571Y-78571429D01*
X60785714Y-78457143D01*
X60842857Y-78400000D01*
X60957143Y-78342857D01*
X61242857Y-78342857D01*
X61414286Y-78400000D01*
X61928571Y-79542857D02*
X61928571Y-78342857D01*
X61928571Y-78914286D02*
X62614286Y-78914286D01*
X62614286Y-79542857D02*
X62614286Y-78342857D01*
X63185714Y-79542857D02*
X63185714Y-78342857D01*
X63471429Y-78342857D01*
X63642857Y-78400000D01*
X63757143Y-78514286D01*
X63814286Y-78628571D01*
X63871429Y-78857143D01*
X63871429Y-79028571D01*
X63814286Y-79257143D01*
X63757143Y-79371429D01*
X63642857Y-79485714D01*
X63471429Y-79542857D01*
X63185714Y-79542857D01*
X64385714Y-79542857D02*
X64385714Y-78342857D01*
X65071429Y-79542857D01*
X65071429Y-78342857D01*
X61471429Y-84542857D02*
X61071429Y-83971429D01*
X60785714Y-84542857D02*
X60785714Y-83342857D01*
X61242857Y-83342857D01*
X61357143Y-83400000D01*
X61414286Y-83457143D01*
X61471429Y-83571429D01*
X61471429Y-83742857D01*
X61414286Y-83857143D01*
X61357143Y-83914286D01*
X61242857Y-83971429D01*
X60785714Y-83971429D01*
X62442857Y-84485714D02*
X62328571Y-84542857D01*
X62100000Y-84542857D01*
X61985714Y-84485714D01*
X61928571Y-84371429D01*
X61928571Y-83914286D01*
X61985714Y-83800000D01*
X62100000Y-83742857D01*
X62328571Y-83742857D01*
X62442857Y-83800000D01*
X62500000Y-83914286D01*
X62500000Y-84028571D01*
X61928571Y-84142857D01*
X62842857Y-83742857D02*
X63300000Y-83742857D01*
X63014285Y-84542857D02*
X63014285Y-83514286D01*
X63071428Y-83400000D01*
X63185714Y-83342857D01*
X63300000Y-83342857D01*
X64614285Y-84542857D02*
X64614285Y-83342857D01*
X65185714Y-83742857D02*
X65185714Y-84542857D01*
X65185714Y-83857143D02*
X65242857Y-83800000D01*
X65357143Y-83742857D01*
X65528571Y-83742857D01*
X65642857Y-83800000D01*
X65700000Y-83914286D01*
X65700000Y-84542857D01*
X135592857Y-116099999D02*
X136792857Y-115699999D01*
X135592857Y-115299999D01*
X136792857Y-114900000D02*
X135592857Y-114900000D01*
X135592857Y-114614285D01*
X135650000Y-114442857D01*
X135764286Y-114328571D01*
X135878571Y-114271428D01*
X136107143Y-114214285D01*
X136278571Y-114214285D01*
X136507143Y-114271428D01*
X136621429Y-114328571D01*
X136735714Y-114442857D01*
X136792857Y-114614285D01*
X136792857Y-114900000D01*
X136792857Y-113700000D02*
X135592857Y-113700000D01*
X135592857Y-113414285D01*
X135650000Y-113242857D01*
X135764286Y-113128571D01*
X135878571Y-113071428D01*
X136107143Y-113014285D01*
X136278571Y-113014285D01*
X136507143Y-113071428D01*
X136621429Y-113128571D01*
X136735714Y-113242857D01*
X136792857Y-113414285D01*
X136792857Y-113700000D01*
X133150000Y-115414285D02*
X133092857Y-115528571D01*
X133092857Y-115700000D01*
X133150000Y-115871428D01*
X133264286Y-115985714D01*
X133378571Y-116042857D01*
X133607143Y-116100000D01*
X133778571Y-116100000D01*
X134007143Y-116042857D01*
X134121429Y-115985714D01*
X134235714Y-115871428D01*
X134292857Y-115700000D01*
X134292857Y-115585714D01*
X134235714Y-115414285D01*
X134178571Y-115357142D01*
X133778571Y-115357142D01*
X133778571Y-115585714D01*
X134292857Y-114842857D02*
X133092857Y-114842857D01*
X134292857Y-114157142D01*
X133092857Y-114157142D01*
X134292857Y-113585714D02*
X133092857Y-113585714D01*
X133092857Y-113299999D01*
X133150000Y-113128571D01*
X133264286Y-113014285D01*
X133378571Y-112957142D01*
X133607143Y-112899999D01*
X133778571Y-112899999D01*
X134007143Y-112957142D01*
X134121429Y-113014285D01*
X134235714Y-113128571D01*
X134292857Y-113299999D01*
X134292857Y-113585714D01*
X117485714Y-66769048D02*
X116514286Y-66769048D01*
X117000000Y-66769048D02*
X117000000Y-65069048D01*
X116838095Y-65311905D01*
X116676190Y-65473810D01*
X116514286Y-65554762D01*
X102514286Y-65230952D02*
X102595238Y-65150000D01*
X102757143Y-65069048D01*
X103161905Y-65069048D01*
X103323809Y-65150000D01*
X103404762Y-65230952D01*
X103485714Y-65392857D01*
X103485714Y-65554762D01*
X103404762Y-65797619D01*
X102433333Y-66769048D01*
X103485714Y-66769048D01*
X72514286Y-65230952D02*
X72595238Y-65150000D01*
X72757143Y-65069048D01*
X73161905Y-65069048D01*
X73323809Y-65150000D01*
X73404762Y-65230952D01*
X73485714Y-65392857D01*
X73485714Y-65554762D01*
X73404762Y-65797619D01*
X72433333Y-66769048D01*
X73485714Y-66769048D01*
X87485714Y-66769048D02*
X86514286Y-66769048D01*
X87000000Y-66769048D02*
X87000000Y-65069048D01*
X86838095Y-65311905D01*
X86676190Y-65473810D01*
X86514286Y-65554762D01*
X84292857Y-116464286D02*
X83092857Y-116464286D01*
X83492857Y-115892857D02*
X84292857Y-115892857D01*
X83607143Y-115892857D02*
X83550000Y-115835714D01*
X83492857Y-115721428D01*
X83492857Y-115550000D01*
X83550000Y-115435714D01*
X83664286Y-115378571D01*
X84292857Y-115378571D01*
X83950000Y-113950000D02*
X83950000Y-113378571D01*
X84292857Y-114064285D02*
X83092857Y-113664285D01*
X84292857Y-113264285D01*
X83207143Y-112921429D02*
X83150000Y-112864286D01*
X83092857Y-112750000D01*
X83092857Y-112464286D01*
X83150000Y-112350000D01*
X83207143Y-112292857D01*
X83321429Y-112235714D01*
X83435714Y-112235714D01*
X83607143Y-112292857D01*
X84292857Y-112978571D01*
X84292857Y-112235714D01*
X81164286Y-116464286D02*
X81164286Y-116064286D01*
X81792857Y-115892857D02*
X81792857Y-116464286D01*
X80592857Y-116464286D01*
X80592857Y-115892857D01*
X80992857Y-115378572D02*
X81792857Y-115378572D01*
X81107143Y-115378572D02*
X81050000Y-115321429D01*
X80992857Y-115207143D01*
X80992857Y-115035715D01*
X81050000Y-114921429D01*
X81164286Y-114864286D01*
X81792857Y-114864286D01*
X81450000Y-113435715D02*
X81450000Y-112864286D01*
X81792857Y-113550000D02*
X80592857Y-113150000D01*
X81792857Y-112750000D01*
X79292857Y-116464286D02*
X78092857Y-116464286D01*
X78492857Y-115892857D02*
X79292857Y-115892857D01*
X78607143Y-115892857D02*
X78550000Y-115835714D01*
X78492857Y-115721428D01*
X78492857Y-115550000D01*
X78550000Y-115435714D01*
X78664286Y-115378571D01*
X79292857Y-115378571D01*
X78950000Y-113950000D02*
X78950000Y-113378571D01*
X79292857Y-114064285D02*
X78092857Y-113664285D01*
X79292857Y-113264285D01*
X79292857Y-112235714D02*
X79292857Y-112921429D01*
X79292857Y-112578571D02*
X78092857Y-112578571D01*
X78264286Y-112692857D01*
X78378571Y-112807143D01*
X78435714Y-112921429D01*
X76735714Y-116521429D02*
X76792857Y-116350000D01*
X76792857Y-116064286D01*
X76735714Y-115950000D01*
X76678571Y-115892857D01*
X76564286Y-115835714D01*
X76450000Y-115835714D01*
X76335714Y-115892857D01*
X76278571Y-115950000D01*
X76221429Y-116064286D01*
X76164286Y-116292857D01*
X76107143Y-116407143D01*
X76050000Y-116464286D01*
X75935714Y-116521429D01*
X75821429Y-116521429D01*
X75707143Y-116464286D01*
X75650000Y-116407143D01*
X75592857Y-116292857D01*
X75592857Y-116007143D01*
X75650000Y-115835714D01*
X76735714Y-114864286D02*
X76792857Y-114978572D01*
X76792857Y-115207143D01*
X76735714Y-115321429D01*
X76621429Y-115378572D01*
X76164286Y-115378572D01*
X76050000Y-115321429D01*
X75992857Y-115207143D01*
X75992857Y-114978572D01*
X76050000Y-114864286D01*
X76164286Y-114807143D01*
X76278571Y-114807143D01*
X76392857Y-115378572D01*
X75992857Y-114292858D02*
X76792857Y-114292858D01*
X76107143Y-114292858D02*
X76050000Y-114235715D01*
X75992857Y-114121429D01*
X75992857Y-113950001D01*
X76050000Y-113835715D01*
X76164286Y-113778572D01*
X76792857Y-113778572D01*
X76735714Y-113264287D02*
X76792857Y-113150001D01*
X76792857Y-112921429D01*
X76735714Y-112807144D01*
X76621429Y-112750001D01*
X76564286Y-112750001D01*
X76450000Y-112807144D01*
X76392857Y-112921429D01*
X76392857Y-113092858D01*
X76335714Y-113207144D01*
X76221429Y-113264287D01*
X76164286Y-113264287D01*
X76050000Y-113207144D01*
X75992857Y-113092858D01*
X75992857Y-112921429D01*
X76050000Y-112807144D01*
X76735714Y-111778572D02*
X76792857Y-111892858D01*
X76792857Y-112121429D01*
X76735714Y-112235715D01*
X76621429Y-112292858D01*
X76164286Y-112292858D01*
X76050000Y-112235715D01*
X75992857Y-112121429D01*
X75992857Y-111892858D01*
X76050000Y-111778572D01*
X76164286Y-111721429D01*
X76278571Y-111721429D01*
X76392857Y-112292858D01*
X76450000Y-110350001D02*
X76450000Y-109778572D01*
X76792857Y-110464286D02*
X75592857Y-110064286D01*
X76792857Y-109664286D01*
X107042857Y-116464286D02*
X105842857Y-116464286D01*
X106242857Y-115892857D02*
X107042857Y-115892857D01*
X106357143Y-115892857D02*
X106300000Y-115835714D01*
X106242857Y-115721428D01*
X106242857Y-115550000D01*
X106300000Y-115435714D01*
X106414286Y-115378571D01*
X107042857Y-115378571D01*
X106414286Y-113492857D02*
X106471429Y-113321428D01*
X106528571Y-113264285D01*
X106642857Y-113207142D01*
X106814286Y-113207142D01*
X106928571Y-113264285D01*
X106985714Y-113321428D01*
X107042857Y-113435714D01*
X107042857Y-113892857D01*
X105842857Y-113892857D01*
X105842857Y-113492857D01*
X105900000Y-113378571D01*
X105957143Y-113321428D01*
X106071429Y-113264285D01*
X106185714Y-113264285D01*
X106300000Y-113321428D01*
X106357143Y-113378571D01*
X106414286Y-113492857D01*
X106414286Y-113892857D01*
X107042857Y-112064285D02*
X107042857Y-112750000D01*
X107042857Y-112407142D02*
X105842857Y-112407142D01*
X106014286Y-112521428D01*
X106128571Y-112635714D01*
X106185714Y-112750000D01*
X108914286Y-116464286D02*
X108914286Y-116064286D01*
X109542857Y-115892857D02*
X109542857Y-116464286D01*
X108342857Y-116464286D01*
X108342857Y-115892857D01*
X108742857Y-115378572D02*
X109542857Y-115378572D01*
X108857143Y-115378572D02*
X108800000Y-115321429D01*
X108742857Y-115207143D01*
X108742857Y-115035715D01*
X108800000Y-114921429D01*
X108914286Y-114864286D01*
X109542857Y-114864286D01*
X108914286Y-112978572D02*
X108971429Y-112807143D01*
X109028571Y-112750000D01*
X109142857Y-112692857D01*
X109314286Y-112692857D01*
X109428571Y-112750000D01*
X109485714Y-112807143D01*
X109542857Y-112921429D01*
X109542857Y-113378572D01*
X108342857Y-113378572D01*
X108342857Y-112978572D01*
X108400000Y-112864286D01*
X108457143Y-112807143D01*
X108571429Y-112750000D01*
X108685714Y-112750000D01*
X108800000Y-112807143D01*
X108857143Y-112864286D01*
X108914286Y-112978572D01*
X108914286Y-113378572D01*
X112042857Y-116464286D02*
X110842857Y-116464286D01*
X111242857Y-115892857D02*
X112042857Y-115892857D01*
X111357143Y-115892857D02*
X111300000Y-115835714D01*
X111242857Y-115721428D01*
X111242857Y-115550000D01*
X111300000Y-115435714D01*
X111414286Y-115378571D01*
X112042857Y-115378571D01*
X111414286Y-113492857D02*
X111471429Y-113321428D01*
X111528571Y-113264285D01*
X111642857Y-113207142D01*
X111814286Y-113207142D01*
X111928571Y-113264285D01*
X111985714Y-113321428D01*
X112042857Y-113435714D01*
X112042857Y-113892857D01*
X110842857Y-113892857D01*
X110842857Y-113492857D01*
X110900000Y-113378571D01*
X110957143Y-113321428D01*
X111071429Y-113264285D01*
X111185714Y-113264285D01*
X111300000Y-113321428D01*
X111357143Y-113378571D01*
X111414286Y-113492857D01*
X111414286Y-113892857D01*
X110957143Y-112750000D02*
X110900000Y-112692857D01*
X110842857Y-112578571D01*
X110842857Y-112292857D01*
X110900000Y-112178571D01*
X110957143Y-112121428D01*
X111071429Y-112064285D01*
X111185714Y-112064285D01*
X111357143Y-112121428D01*
X112042857Y-112807142D01*
X112042857Y-112064285D01*
X114485714Y-116521429D02*
X114542857Y-116350000D01*
X114542857Y-116064286D01*
X114485714Y-115950000D01*
X114428571Y-115892857D01*
X114314286Y-115835714D01*
X114200000Y-115835714D01*
X114085714Y-115892857D01*
X114028571Y-115950000D01*
X113971429Y-116064286D01*
X113914286Y-116292857D01*
X113857143Y-116407143D01*
X113800000Y-116464286D01*
X113685714Y-116521429D01*
X113571429Y-116521429D01*
X113457143Y-116464286D01*
X113400000Y-116407143D01*
X113342857Y-116292857D01*
X113342857Y-116007143D01*
X113400000Y-115835714D01*
X114485714Y-114864286D02*
X114542857Y-114978572D01*
X114542857Y-115207143D01*
X114485714Y-115321429D01*
X114371429Y-115378572D01*
X113914286Y-115378572D01*
X113800000Y-115321429D01*
X113742857Y-115207143D01*
X113742857Y-114978572D01*
X113800000Y-114864286D01*
X113914286Y-114807143D01*
X114028571Y-114807143D01*
X114142857Y-115378572D01*
X113742857Y-114292858D02*
X114542857Y-114292858D01*
X113857143Y-114292858D02*
X113800000Y-114235715D01*
X113742857Y-114121429D01*
X113742857Y-113950001D01*
X113800000Y-113835715D01*
X113914286Y-113778572D01*
X114542857Y-113778572D01*
X114485714Y-113264287D02*
X114542857Y-113150001D01*
X114542857Y-112921429D01*
X114485714Y-112807144D01*
X114371429Y-112750001D01*
X114314286Y-112750001D01*
X114200000Y-112807144D01*
X114142857Y-112921429D01*
X114142857Y-113092858D01*
X114085714Y-113207144D01*
X113971429Y-113264287D01*
X113914286Y-113264287D01*
X113800000Y-113207144D01*
X113742857Y-113092858D01*
X113742857Y-112921429D01*
X113800000Y-112807144D01*
X114485714Y-111778572D02*
X114542857Y-111892858D01*
X114542857Y-112121429D01*
X114485714Y-112235715D01*
X114371429Y-112292858D01*
X113914286Y-112292858D01*
X113800000Y-112235715D01*
X113742857Y-112121429D01*
X113742857Y-111892858D01*
X113800000Y-111778572D01*
X113914286Y-111721429D01*
X114028571Y-111721429D01*
X114142857Y-112292858D01*
X113914286Y-109892858D02*
X113971429Y-109721429D01*
X114028571Y-109664286D01*
X114142857Y-109607143D01*
X114314286Y-109607143D01*
X114428571Y-109664286D01*
X114485714Y-109721429D01*
X114542857Y-109835715D01*
X114542857Y-110292858D01*
X113342857Y-110292858D01*
X113342857Y-109892858D01*
X113400000Y-109778572D01*
X113457143Y-109721429D01*
X113571429Y-109664286D01*
X113685714Y-109664286D01*
X113800000Y-109721429D01*
X113857143Y-109778572D01*
X113914286Y-109892858D01*
X113914286Y-110292858D01*
X53400000Y-115414285D02*
X53342857Y-115528571D01*
X53342857Y-115700000D01*
X53400000Y-115871428D01*
X53514286Y-115985714D01*
X53628571Y-116042857D01*
X53857143Y-116100000D01*
X54028571Y-116100000D01*
X54257143Y-116042857D01*
X54371429Y-115985714D01*
X54485714Y-115871428D01*
X54542857Y-115700000D01*
X54542857Y-115585714D01*
X54485714Y-115414285D01*
X54428571Y-115357142D01*
X54028571Y-115357142D01*
X54028571Y-115585714D01*
X54542857Y-114842857D02*
X53342857Y-114842857D01*
X54542857Y-114157142D01*
X53342857Y-114157142D01*
X54542857Y-113585714D02*
X53342857Y-113585714D01*
X53342857Y-113299999D01*
X53400000Y-113128571D01*
X53514286Y-113014285D01*
X53628571Y-112957142D01*
X53857143Y-112899999D01*
X54028571Y-112899999D01*
X54257143Y-112957142D01*
X54371429Y-113014285D01*
X54485714Y-113128571D01*
X54542857Y-113299999D01*
X54542857Y-113585714D01*
X55842857Y-116099999D02*
X57042857Y-115699999D01*
X55842857Y-115299999D01*
X57042857Y-114900000D02*
X55842857Y-114900000D01*
X55842857Y-114614285D01*
X55900000Y-114442857D01*
X56014286Y-114328571D01*
X56128571Y-114271428D01*
X56357143Y-114214285D01*
X56528571Y-114214285D01*
X56757143Y-114271428D01*
X56871429Y-114328571D01*
X56985714Y-114442857D01*
X57042857Y-114614285D01*
X57042857Y-114900000D01*
X57042857Y-113700000D02*
X55842857Y-113700000D01*
X55842857Y-113414285D01*
X55900000Y-113242857D01*
X56014286Y-113128571D01*
X56128571Y-113071428D01*
X56357143Y-113014285D01*
X56528571Y-113014285D01*
X56757143Y-113071428D01*
X56871429Y-113128571D01*
X56985714Y-113242857D01*
X57042857Y-113414285D01*
X57042857Y-113700000D01*
X120500000Y-74500000D02*
X120500000Y-91500000D01*
D13*
X113261500Y-83770000D02*
X113261500Y-81230000D01*
D10*
X117800000Y-81000000D02*
X115200000Y-81000000D01*
X117800000Y-84000000D02*
X115200000Y-84000000D01*
D13*
X106738500Y-81230000D02*
X106738500Y-83770000D01*
D10*
X102200000Y-84000000D02*
X104800000Y-84000000D01*
X102200000Y-81000000D02*
X104800000Y-81000000D01*
D13*
X100261500Y-88270000D02*
X100261500Y-85730000D01*
D10*
X104800000Y-85500000D02*
X102200000Y-85500000D01*
X104800000Y-88500000D02*
X102200000Y-88500000D01*
D13*
X83261500Y-83770000D02*
X83261500Y-81230000D01*
D10*
X87800000Y-81000000D02*
X85200000Y-81000000D01*
X87800000Y-84000000D02*
X85200000Y-84000000D01*
D13*
X76738500Y-81230000D02*
X76738500Y-83770000D01*
D10*
X72200000Y-84000000D02*
X74800000Y-84000000D01*
X72200000Y-81000000D02*
X74800000Y-81000000D01*
D13*
X70261500Y-88270000D02*
X70261500Y-85730000D01*
D10*
X74800000Y-85500000D02*
X72200000Y-85500000D01*
X74800000Y-88500000D02*
X72200000Y-88500000D01*
D13*
X89738500Y-85730000D02*
X89738500Y-88270000D01*
D10*
X85200000Y-88500000D02*
X87800000Y-88500000D01*
X85200000Y-85500000D02*
X87800000Y-85500000D01*
D13*
X119738500Y-85730000D02*
X119738500Y-88270000D01*
D10*
X115200000Y-88500000D02*
X117800000Y-88500000D01*
X115200000Y-85500000D02*
X117800000Y-85500000D01*
D14*
X104885000Y-109635000D02*
X103615000Y-109635000D01*
X104885000Y-108365000D02*
X103640400Y-108365000D01*
X104885000Y-107984000D02*
X104885000Y-110016000D01*
X104885000Y-110016000D02*
X103615000Y-110016000D01*
X103615000Y-110016000D02*
X103615000Y-107984000D01*
X103615000Y-107984000D02*
X104885000Y-107984000D01*
X77115000Y-101365000D02*
X78385000Y-101365000D01*
X77115000Y-102635000D02*
X78359600Y-102635000D01*
X77115000Y-103016000D02*
X77115000Y-100984000D01*
X77115000Y-100984000D02*
X78385000Y-100984000D01*
X78385000Y-100984000D02*
X78385000Y-103016000D01*
X78385000Y-103016000D02*
X77115000Y-103016000D01*
X63601500Y-73500380D02*
X63601500Y-74206500D01*
X63601500Y-74206500D02*
X64998500Y-74206500D01*
X64998500Y-74206500D02*
X64998500Y-73500380D01*
X63601500Y-71793500D02*
X63601500Y-72499620D01*
X63601500Y-71793500D02*
X64998500Y-71793500D01*
X64998500Y-71793500D02*
X64998500Y-72499620D01*
X64998500Y-75499620D02*
X64998500Y-74793500D01*
X64998500Y-74793500D02*
X63601500Y-74793500D01*
X63601500Y-74793500D02*
X63601500Y-75499620D01*
X64998500Y-77206500D02*
X64998500Y-76500380D01*
X64998500Y-77206500D02*
X63601500Y-77206500D01*
X63601500Y-77206500D02*
X63601500Y-76500380D01*
X93301500Y-73500380D02*
X93301500Y-74206500D01*
X93301500Y-74206500D02*
X94698500Y-74206500D01*
X94698500Y-74206500D02*
X94698500Y-73500380D01*
X93301500Y-71793500D02*
X93301500Y-72499620D01*
X93301500Y-71793500D02*
X94698500Y-71793500D01*
X94698500Y-71793500D02*
X94698500Y-72499620D01*
X94698500Y-75499620D02*
X94698500Y-74793500D01*
X94698500Y-74793500D02*
X93301500Y-74793500D01*
X93301500Y-74793500D02*
X93301500Y-75499620D01*
X94698500Y-77206500D02*
X94698500Y-76500380D01*
X94698500Y-77206500D02*
X93301500Y-77206500D01*
X93301500Y-77206500D02*
X93301500Y-76500380D01*
D15*
X90700000Y-92300000D02*
G75*
G03X90700000Y-92300000I-100000J0D01*
G01*
X90900000Y-92300000D02*
G75*
G03X90900000Y-92300000I-300000J0D01*
G01*
X91100000Y-92300000D02*
G75*
G03X91100000Y-92300000I-500000J0D01*
G01*
X90499120Y-90999000D02*
X100600700Y-90999000D01*
X89399300Y-92098820D02*
X89399300Y-107001000D01*
X89399300Y-92098820D02*
X90499120Y-90999000D01*
X100600700Y-90999000D02*
X100600700Y-107001000D01*
X100600700Y-107001000D02*
X89399300Y-107001000D01*
D14*
X70951000Y-73299980D02*
X70951000Y-78649220D01*
X67649000Y-78649220D02*
X67649000Y-73299980D01*
X67649000Y-73299980D02*
X70951000Y-73299980D01*
X67649000Y-78649220D02*
X70951000Y-78649220D01*
X68792000Y-78667000D02*
X68792000Y-78159000D01*
X68792000Y-78159000D02*
X69808000Y-78159000D01*
X69808000Y-78159000D02*
X69808000Y-78667000D01*
X100951000Y-73299980D02*
X100951000Y-78649220D01*
X97649000Y-78649220D02*
X97649000Y-73299980D01*
X97649000Y-73299980D02*
X100951000Y-73299980D01*
X97649000Y-78649220D02*
X100951000Y-78649220D01*
X98792000Y-78667000D02*
X98792000Y-78159000D01*
X98792000Y-78159000D02*
X99808000Y-78159000D01*
X99808000Y-78159000D02*
X99808000Y-78667000D01*
D13*
X140900000Y-69600000D02*
X139400000Y-69600000D01*
X139400000Y-69600000D02*
X139400000Y-71400000D01*
X139400000Y-71400000D02*
X140900000Y-71400000D01*
X140900000Y-64600000D02*
X139400000Y-64600000D01*
X139400000Y-64600000D02*
X139400000Y-66400000D01*
X139400000Y-66400000D02*
X140900000Y-66400000D01*
X140900000Y-62900000D02*
X140900000Y-73100000D01*
X140900000Y-73100000D02*
X131100000Y-73100000D01*
X131100000Y-73100000D02*
X131100000Y-62900000D01*
X131100000Y-62900000D02*
X140900000Y-62900000D01*
X81600000Y-61100000D02*
X81600000Y-62600000D01*
X81600000Y-62600000D02*
X83400000Y-62600000D01*
X83400000Y-62600000D02*
X83400000Y-61100000D01*
X76600000Y-61100000D02*
X76600000Y-62600000D01*
X76600000Y-62600000D02*
X78400000Y-62600000D01*
X78400000Y-62600000D02*
X78400000Y-61100000D01*
X74900000Y-61100000D02*
X85100000Y-61100000D01*
X85100000Y-61100000D02*
X85100000Y-70900000D01*
X85100000Y-70900000D02*
X74900000Y-70900000D01*
X74900000Y-70900000D02*
X74900000Y-61100000D01*
X111600000Y-61100000D02*
X111600000Y-62600000D01*
X111600000Y-62600000D02*
X113400000Y-62600000D01*
X113400000Y-62600000D02*
X113400000Y-61100000D01*
X106600000Y-61100000D02*
X106600000Y-62600000D01*
X106600000Y-62600000D02*
X108400000Y-62600000D01*
X108400000Y-62600000D02*
X108400000Y-61100000D01*
X104900000Y-61100000D02*
X115100000Y-61100000D01*
X115100000Y-61100000D02*
X115100000Y-70900000D01*
X115100000Y-70900000D02*
X104900000Y-70900000D01*
X104900000Y-70900000D02*
X104900000Y-61100000D01*
X49100000Y-66400000D02*
X50600000Y-66400000D01*
X50600000Y-66400000D02*
X50600000Y-64600000D01*
X50600000Y-64600000D02*
X49100000Y-64600000D01*
X49100000Y-71400000D02*
X50600000Y-71400000D01*
X50600000Y-71400000D02*
X50600000Y-69600000D01*
X50600000Y-69600000D02*
X49100000Y-69600000D01*
X49100000Y-73100000D02*
X49100000Y-62900000D01*
X49100000Y-62900000D02*
X58900000Y-62900000D01*
X58900000Y-62900000D02*
X58900000Y-73100000D01*
X58900000Y-73100000D02*
X49100000Y-73100000D01*
D14*
X66841200Y-79893600D02*
X66841200Y-80706400D01*
X67958800Y-80681000D02*
X67958800Y-79893600D01*
X68212800Y-80706400D02*
X66587200Y-80706400D01*
X66587200Y-80706400D02*
X66587200Y-79893600D01*
X66587200Y-79893600D02*
X68212800Y-79893600D01*
X68212800Y-79893600D02*
X68212800Y-80706400D01*
X96841200Y-79893600D02*
X96841200Y-80706400D01*
X97958800Y-80681000D02*
X97958800Y-79893600D01*
X98212800Y-80706400D02*
X96587200Y-80706400D01*
X96587200Y-80706400D02*
X96587200Y-79893600D01*
X96587200Y-79893600D02*
X98212800Y-79893600D01*
X98212800Y-79893600D02*
X98212800Y-80706400D01*
D13*
X108525000Y-78250000D02*
X108525000Y-76250000D01*
X106475000Y-76250000D02*
X106475000Y-78250000D01*
X78525000Y-78250000D02*
X78525000Y-76250000D01*
X76475000Y-76250000D02*
X76475000Y-78250000D01*
X137540000Y-128850000D02*
X137540000Y-120020000D01*
X135000000Y-128850000D02*
X137540000Y-128850000D01*
X135000000Y-120020000D02*
X135000000Y-128850000D01*
X135000000Y-120020000D02*
X137540000Y-120020000D01*
X132460000Y-120020000D02*
X135000000Y-120020000D01*
X132460000Y-120020000D02*
X135000000Y-128850000D01*
X132460000Y-128850000D02*
X135000000Y-120020000D01*
X132460000Y-120020000D02*
X132460000Y-128850000D01*
X132460000Y-128850000D02*
X135000000Y-128850000D01*
X135000000Y-128850000D02*
X135000000Y-120020000D01*
X57730000Y-82770000D02*
X57730000Y-85310000D01*
X48900000Y-82770000D02*
X48900000Y-85310000D01*
X48900000Y-85310000D02*
X57730000Y-85310000D01*
X48900000Y-82770000D02*
X57730000Y-82770000D01*
X48900000Y-80230000D02*
X48900000Y-82770000D01*
X57730000Y-80230000D02*
X48900000Y-80230000D01*
X57730000Y-80230000D02*
X57730000Y-82770000D01*
X57730000Y-77690000D02*
X57730000Y-80230000D01*
X57730000Y-77690000D02*
X48900000Y-80230000D01*
X48900000Y-77690000D02*
X57730000Y-80230000D01*
X57730000Y-77690000D02*
X48900000Y-77690000D01*
X48900000Y-77690000D02*
X48900000Y-80230000D01*
X48900000Y-80230000D02*
X57730000Y-80230000D01*
X115330000Y-128850000D02*
X115330000Y-120020000D01*
X112790000Y-128850000D02*
X115330000Y-128850000D01*
X112790000Y-120020000D02*
X115330000Y-120020000D01*
X110250000Y-120020000D02*
X112790000Y-120020000D01*
X110250000Y-128850000D02*
X112790000Y-128850000D01*
X112790000Y-128850000D02*
X112790000Y-120020000D01*
X110250000Y-128850000D02*
X110250000Y-120020000D01*
X107710000Y-128850000D02*
X110250000Y-128850000D01*
X107710000Y-120020000D02*
X107710000Y-128850000D01*
X107710000Y-120020000D02*
X110250000Y-120020000D01*
X105170000Y-120020000D02*
X107710000Y-120020000D01*
X105170000Y-120020000D02*
X107710000Y-128850000D01*
X105170000Y-128850000D02*
X107710000Y-120020000D01*
X105170000Y-120020000D02*
X105170000Y-128850000D01*
X105170000Y-128850000D02*
X107710000Y-128850000D01*
X107710000Y-128850000D02*
X107710000Y-120020000D01*
X85080000Y-128850000D02*
X85080000Y-120020000D01*
X82540000Y-128850000D02*
X85080000Y-128850000D01*
X82540000Y-120020000D02*
X85080000Y-120020000D01*
X80000000Y-120020000D02*
X82540000Y-120020000D01*
X80000000Y-128850000D02*
X82540000Y-128850000D01*
X82540000Y-128850000D02*
X82540000Y-120020000D01*
X80000000Y-128850000D02*
X80000000Y-120020000D01*
X77460000Y-128850000D02*
X80000000Y-128850000D01*
X77460000Y-120020000D02*
X77460000Y-128850000D01*
X77460000Y-120020000D02*
X80000000Y-120020000D01*
X74920000Y-120020000D02*
X77460000Y-120020000D01*
X74920000Y-120020000D02*
X77460000Y-128850000D01*
X74920000Y-128850000D02*
X77460000Y-120020000D01*
X74920000Y-120020000D02*
X74920000Y-128850000D01*
X74920000Y-128850000D02*
X77460000Y-128850000D01*
X77460000Y-128850000D02*
X77460000Y-120020000D01*
X57790000Y-128850000D02*
X57790000Y-120020000D01*
X55250000Y-128850000D02*
X57790000Y-128850000D01*
X55250000Y-120020000D02*
X55250000Y-128850000D01*
X55250000Y-120020000D02*
X57790000Y-120020000D01*
X52710000Y-120020000D02*
X55250000Y-120020000D01*
X52710000Y-120020000D02*
X55250000Y-128850000D01*
X52710000Y-128850000D02*
X55250000Y-120020000D01*
X52710000Y-120020000D02*
X52710000Y-128850000D01*
X52710000Y-128850000D02*
X55250000Y-128850000D01*
X55250000Y-128850000D02*
X55250000Y-120020000D01*
D12*
X122207143Y-93592857D02*
X122207143Y-94450000D01*
X122150001Y-94621429D01*
X122035715Y-94735714D01*
X121864286Y-94792857D01*
X121750001Y-94792857D01*
X123407144Y-94792857D02*
X122721429Y-94792857D01*
X123064287Y-94792857D02*
X123064287Y-93592857D01*
X122950001Y-93764286D01*
X122835715Y-93878571D01*
X122721429Y-93935714D01*
X124150001Y-93592857D02*
X124264286Y-93592857D01*
X124378572Y-93650000D01*
X124435715Y-93707143D01*
X124492858Y-93821429D01*
X124550001Y-94050000D01*
X124550001Y-94335714D01*
X124492858Y-94564286D01*
X124435715Y-94678571D01*
X124378572Y-94735714D01*
X124264286Y-94792857D01*
X124150001Y-94792857D01*
X124035715Y-94735714D01*
X123978572Y-94678571D01*
X123921429Y-94564286D01*
X123864286Y-94335714D01*
X123864286Y-94050000D01*
X123921429Y-93821429D01*
X123978572Y-93707143D01*
X124035715Y-93650000D01*
X124150001Y-93592857D01*
X125007143Y-93707143D02*
X125064286Y-93650000D01*
X125178572Y-93592857D01*
X125464286Y-93592857D01*
X125578572Y-93650000D01*
X125635715Y-93707143D01*
X125692858Y-93821429D01*
X125692858Y-93935714D01*
X125635715Y-94107143D01*
X124950001Y-94792857D01*
X125692858Y-94792857D01*
X63707143Y-91092857D02*
X63707143Y-91950000D01*
X63650001Y-92121429D01*
X63535715Y-92235714D01*
X63364286Y-92292857D01*
X63250001Y-92292857D01*
X64907144Y-92292857D02*
X64221429Y-92292857D01*
X64564287Y-92292857D02*
X64564287Y-91092857D01*
X64450001Y-91264286D01*
X64335715Y-91378571D01*
X64221429Y-91435714D01*
X65650001Y-91092857D02*
X65764286Y-91092857D01*
X65878572Y-91150000D01*
X65935715Y-91207143D01*
X65992858Y-91321429D01*
X66050001Y-91550000D01*
X66050001Y-91835714D01*
X65992858Y-92064286D01*
X65935715Y-92178571D01*
X65878572Y-92235714D01*
X65764286Y-92292857D01*
X65650001Y-92292857D01*
X65535715Y-92235714D01*
X65478572Y-92178571D01*
X65421429Y-92064286D01*
X65364286Y-91835714D01*
X65364286Y-91550000D01*
X65421429Y-91321429D01*
X65478572Y-91207143D01*
X65535715Y-91150000D01*
X65650001Y-91092857D01*
X67192858Y-92292857D02*
X66507143Y-92292857D01*
X66850001Y-92292857D02*
X66850001Y-91092857D01*
X66735715Y-91264286D01*
X66621429Y-91378571D01*
X66507143Y-91435714D01*
D13*
X114809524Y-80452381D02*
X114809524Y-79452381D01*
X115047619Y-79452381D01*
X115190477Y-79500000D01*
X115285715Y-79595238D01*
X115333334Y-79690476D01*
X115380953Y-79880952D01*
X115380953Y-80023810D01*
X115333334Y-80214286D01*
X115285715Y-80309524D01*
X115190477Y-80404762D01*
X115047619Y-80452381D01*
X114809524Y-80452381D01*
X116238096Y-79785714D02*
X116238096Y-80452381D01*
X116000000Y-79404762D02*
X115761905Y-80119048D01*
X116380953Y-80119048D01*
X116952381Y-79452381D02*
X117047620Y-79452381D01*
X117142858Y-79500000D01*
X117190477Y-79547619D01*
X117238096Y-79642857D01*
X117285715Y-79833333D01*
X117285715Y-80071429D01*
X117238096Y-80261905D01*
X117190477Y-80357143D01*
X117142858Y-80404762D01*
X117047620Y-80452381D01*
X116952381Y-80452381D01*
X116857143Y-80404762D01*
X116809524Y-80357143D01*
X116761905Y-80261905D01*
X116714286Y-80071429D01*
X116714286Y-79833333D01*
X116761905Y-79642857D01*
X116809524Y-79547619D01*
X116857143Y-79500000D01*
X116952381Y-79452381D01*
X118142858Y-79452381D02*
X117952381Y-79452381D01*
X117857143Y-79500000D01*
X117809524Y-79547619D01*
X117714286Y-79690476D01*
X117666667Y-79880952D01*
X117666667Y-80261905D01*
X117714286Y-80357143D01*
X117761905Y-80404762D01*
X117857143Y-80452381D01*
X118047620Y-80452381D01*
X118142858Y-80404762D01*
X118190477Y-80357143D01*
X118238096Y-80261905D01*
X118238096Y-80023810D01*
X118190477Y-79928571D01*
X118142858Y-79880952D01*
X118047620Y-79833333D01*
X117857143Y-79833333D01*
X117761905Y-79880952D01*
X117714286Y-79928571D01*
X117666667Y-80023810D01*
X101809524Y-80452381D02*
X101809524Y-79452381D01*
X102047619Y-79452381D01*
X102190477Y-79500000D01*
X102285715Y-79595238D01*
X102333334Y-79690476D01*
X102380953Y-79880952D01*
X102380953Y-80023810D01*
X102333334Y-80214286D01*
X102285715Y-80309524D01*
X102190477Y-80404762D01*
X102047619Y-80452381D01*
X101809524Y-80452381D01*
X103238096Y-79785714D02*
X103238096Y-80452381D01*
X103000000Y-79404762D02*
X102761905Y-80119048D01*
X103380953Y-80119048D01*
X103952381Y-79452381D02*
X104047620Y-79452381D01*
X104142858Y-79500000D01*
X104190477Y-79547619D01*
X104238096Y-79642857D01*
X104285715Y-79833333D01*
X104285715Y-80071429D01*
X104238096Y-80261905D01*
X104190477Y-80357143D01*
X104142858Y-80404762D01*
X104047620Y-80452381D01*
X103952381Y-80452381D01*
X103857143Y-80404762D01*
X103809524Y-80357143D01*
X103761905Y-80261905D01*
X103714286Y-80071429D01*
X103714286Y-79833333D01*
X103761905Y-79642857D01*
X103809524Y-79547619D01*
X103857143Y-79500000D01*
X103952381Y-79452381D01*
X104857143Y-79880952D02*
X104761905Y-79833333D01*
X104714286Y-79785714D01*
X104666667Y-79690476D01*
X104666667Y-79642857D01*
X104714286Y-79547619D01*
X104761905Y-79500000D01*
X104857143Y-79452381D01*
X105047620Y-79452381D01*
X105142858Y-79500000D01*
X105190477Y-79547619D01*
X105238096Y-79642857D01*
X105238096Y-79690476D01*
X105190477Y-79785714D01*
X105142858Y-79833333D01*
X105047620Y-79880952D01*
X104857143Y-79880952D01*
X104761905Y-79928571D01*
X104714286Y-79976190D01*
X104666667Y-80071429D01*
X104666667Y-80261905D01*
X104714286Y-80357143D01*
X104761905Y-80404762D01*
X104857143Y-80452381D01*
X105047620Y-80452381D01*
X105142858Y-80404762D01*
X105190477Y-80357143D01*
X105238096Y-80261905D01*
X105238096Y-80071429D01*
X105190477Y-79976190D01*
X105142858Y-79928571D01*
X105047620Y-79880952D01*
X101809524Y-89952381D02*
X101809524Y-88952381D01*
X102047619Y-88952381D01*
X102190477Y-89000000D01*
X102285715Y-89095238D01*
X102333334Y-89190476D01*
X102380953Y-89380952D01*
X102380953Y-89523810D01*
X102333334Y-89714286D01*
X102285715Y-89809524D01*
X102190477Y-89904762D01*
X102047619Y-89952381D01*
X101809524Y-89952381D01*
X103238096Y-89285714D02*
X103238096Y-89952381D01*
X103000000Y-88904762D02*
X102761905Y-89619048D01*
X103380953Y-89619048D01*
X103952381Y-88952381D02*
X104047620Y-88952381D01*
X104142858Y-89000000D01*
X104190477Y-89047619D01*
X104238096Y-89142857D01*
X104285715Y-89333333D01*
X104285715Y-89571429D01*
X104238096Y-89761905D01*
X104190477Y-89857143D01*
X104142858Y-89904762D01*
X104047620Y-89952381D01*
X103952381Y-89952381D01*
X103857143Y-89904762D01*
X103809524Y-89857143D01*
X103761905Y-89761905D01*
X103714286Y-89571429D01*
X103714286Y-89333333D01*
X103761905Y-89142857D01*
X103809524Y-89047619D01*
X103857143Y-89000000D01*
X103952381Y-88952381D01*
X104619048Y-88952381D02*
X105285715Y-88952381D01*
X104857143Y-89952381D01*
X84809524Y-80452381D02*
X84809524Y-79452381D01*
X85047619Y-79452381D01*
X85190477Y-79500000D01*
X85285715Y-79595238D01*
X85333334Y-79690476D01*
X85380953Y-79880952D01*
X85380953Y-80023810D01*
X85333334Y-80214286D01*
X85285715Y-80309524D01*
X85190477Y-80404762D01*
X85047619Y-80452381D01*
X84809524Y-80452381D01*
X86238096Y-79785714D02*
X86238096Y-80452381D01*
X86000000Y-79404762D02*
X85761905Y-80119048D01*
X86380953Y-80119048D01*
X86952381Y-79452381D02*
X87047620Y-79452381D01*
X87142858Y-79500000D01*
X87190477Y-79547619D01*
X87238096Y-79642857D01*
X87285715Y-79833333D01*
X87285715Y-80071429D01*
X87238096Y-80261905D01*
X87190477Y-80357143D01*
X87142858Y-80404762D01*
X87047620Y-80452381D01*
X86952381Y-80452381D01*
X86857143Y-80404762D01*
X86809524Y-80357143D01*
X86761905Y-80261905D01*
X86714286Y-80071429D01*
X86714286Y-79833333D01*
X86761905Y-79642857D01*
X86809524Y-79547619D01*
X86857143Y-79500000D01*
X86952381Y-79452381D01*
X87666667Y-79547619D02*
X87714286Y-79500000D01*
X87809524Y-79452381D01*
X88047620Y-79452381D01*
X88142858Y-79500000D01*
X88190477Y-79547619D01*
X88238096Y-79642857D01*
X88238096Y-79738095D01*
X88190477Y-79880952D01*
X87619048Y-80452381D01*
X88238096Y-80452381D01*
X71809524Y-80452381D02*
X71809524Y-79452381D01*
X72047619Y-79452381D01*
X72190477Y-79500000D01*
X72285715Y-79595238D01*
X72333334Y-79690476D01*
X72380953Y-79880952D01*
X72380953Y-80023810D01*
X72333334Y-80214286D01*
X72285715Y-80309524D01*
X72190477Y-80404762D01*
X72047619Y-80452381D01*
X71809524Y-80452381D01*
X73238096Y-79785714D02*
X73238096Y-80452381D01*
X73000000Y-79404762D02*
X72761905Y-80119048D01*
X73380953Y-80119048D01*
X73952381Y-79452381D02*
X74047620Y-79452381D01*
X74142858Y-79500000D01*
X74190477Y-79547619D01*
X74238096Y-79642857D01*
X74285715Y-79833333D01*
X74285715Y-80071429D01*
X74238096Y-80261905D01*
X74190477Y-80357143D01*
X74142858Y-80404762D01*
X74047620Y-80452381D01*
X73952381Y-80452381D01*
X73857143Y-80404762D01*
X73809524Y-80357143D01*
X73761905Y-80261905D01*
X73714286Y-80071429D01*
X73714286Y-79833333D01*
X73761905Y-79642857D01*
X73809524Y-79547619D01*
X73857143Y-79500000D01*
X73952381Y-79452381D01*
X75142858Y-79785714D02*
X75142858Y-80452381D01*
X74904762Y-79404762D02*
X74666667Y-80119048D01*
X75285715Y-80119048D01*
X71809524Y-89952381D02*
X71809524Y-88952381D01*
X72047619Y-88952381D01*
X72190477Y-89000000D01*
X72285715Y-89095238D01*
X72333334Y-89190476D01*
X72380953Y-89380952D01*
X72380953Y-89523810D01*
X72333334Y-89714286D01*
X72285715Y-89809524D01*
X72190477Y-89904762D01*
X72047619Y-89952381D01*
X71809524Y-89952381D01*
X73238096Y-89285714D02*
X73238096Y-89952381D01*
X73000000Y-88904762D02*
X72761905Y-89619048D01*
X73380953Y-89619048D01*
X73952381Y-88952381D02*
X74047620Y-88952381D01*
X74142858Y-89000000D01*
X74190477Y-89047619D01*
X74238096Y-89142857D01*
X74285715Y-89333333D01*
X74285715Y-89571429D01*
X74238096Y-89761905D01*
X74190477Y-89857143D01*
X74142858Y-89904762D01*
X74047620Y-89952381D01*
X73952381Y-89952381D01*
X73857143Y-89904762D01*
X73809524Y-89857143D01*
X73761905Y-89761905D01*
X73714286Y-89571429D01*
X73714286Y-89333333D01*
X73761905Y-89142857D01*
X73809524Y-89047619D01*
X73857143Y-89000000D01*
X73952381Y-88952381D01*
X74619048Y-88952381D02*
X75238096Y-88952381D01*
X74904762Y-89333333D01*
X75047620Y-89333333D01*
X75142858Y-89380952D01*
X75190477Y-89428571D01*
X75238096Y-89523810D01*
X75238096Y-89761905D01*
X75190477Y-89857143D01*
X75142858Y-89904762D01*
X75047620Y-89952381D01*
X74761905Y-89952381D01*
X74666667Y-89904762D01*
X74619048Y-89857143D01*
X85059524Y-89952381D02*
X85059524Y-88952381D01*
X85297619Y-88952381D01*
X85440477Y-89000000D01*
X85535715Y-89095238D01*
X85583334Y-89190476D01*
X85630953Y-89380952D01*
X85630953Y-89523810D01*
X85583334Y-89714286D01*
X85535715Y-89809524D01*
X85440477Y-89904762D01*
X85297619Y-89952381D01*
X85059524Y-89952381D01*
X86488096Y-89285714D02*
X86488096Y-89952381D01*
X86250000Y-88904762D02*
X86011905Y-89619048D01*
X86630953Y-89619048D01*
X87202381Y-88952381D02*
X87297620Y-88952381D01*
X87392858Y-89000000D01*
X87440477Y-89047619D01*
X87488096Y-89142857D01*
X87535715Y-89333333D01*
X87535715Y-89571429D01*
X87488096Y-89761905D01*
X87440477Y-89857143D01*
X87392858Y-89904762D01*
X87297620Y-89952381D01*
X87202381Y-89952381D01*
X87107143Y-89904762D01*
X87059524Y-89857143D01*
X87011905Y-89761905D01*
X86964286Y-89571429D01*
X86964286Y-89333333D01*
X87011905Y-89142857D01*
X87059524Y-89047619D01*
X87107143Y-89000000D01*
X87202381Y-88952381D01*
X88488096Y-89952381D02*
X87916667Y-89952381D01*
X88202381Y-89952381D02*
X88202381Y-88952381D01*
X88107143Y-89095238D01*
X88011905Y-89190476D01*
X87916667Y-89238095D01*
X114809524Y-89952381D02*
X114809524Y-88952381D01*
X115047619Y-88952381D01*
X115190477Y-89000000D01*
X115285715Y-89095238D01*
X115333334Y-89190476D01*
X115380953Y-89380952D01*
X115380953Y-89523810D01*
X115333334Y-89714286D01*
X115285715Y-89809524D01*
X115190477Y-89904762D01*
X115047619Y-89952381D01*
X114809524Y-89952381D01*
X116238096Y-89285714D02*
X116238096Y-89952381D01*
X116000000Y-88904762D02*
X115761905Y-89619048D01*
X116380953Y-89619048D01*
X116952381Y-88952381D02*
X117047620Y-88952381D01*
X117142858Y-89000000D01*
X117190477Y-89047619D01*
X117238096Y-89142857D01*
X117285715Y-89333333D01*
X117285715Y-89571429D01*
X117238096Y-89761905D01*
X117190477Y-89857143D01*
X117142858Y-89904762D01*
X117047620Y-89952381D01*
X116952381Y-89952381D01*
X116857143Y-89904762D01*
X116809524Y-89857143D01*
X116761905Y-89761905D01*
X116714286Y-89571429D01*
X116714286Y-89333333D01*
X116761905Y-89142857D01*
X116809524Y-89047619D01*
X116857143Y-89000000D01*
X116952381Y-88952381D01*
X118190477Y-88952381D02*
X117714286Y-88952381D01*
X117666667Y-89428571D01*
X117714286Y-89380952D01*
X117809524Y-89333333D01*
X118047620Y-89333333D01*
X118142858Y-89380952D01*
X118190477Y-89428571D01*
X118238096Y-89523810D01*
X118238096Y-89761905D01*
X118190477Y-89857143D01*
X118142858Y-89904762D01*
X118047620Y-89952381D01*
X117809524Y-89952381D01*
X117714286Y-89904762D01*
X117666667Y-89857143D01*
D11*
X106000000Y-109783333D02*
X106033333Y-109816667D01*
X106066667Y-109916667D01*
X106066667Y-109983333D01*
X106033333Y-110083333D01*
X105966667Y-110150000D01*
X105900000Y-110183333D01*
X105766667Y-110216667D01*
X105666667Y-110216667D01*
X105533333Y-110183333D01*
X105466667Y-110150000D01*
X105400000Y-110083333D01*
X105366667Y-109983333D01*
X105366667Y-109916667D01*
X105400000Y-109816667D01*
X105433333Y-109783333D01*
X105600000Y-109183333D02*
X106066667Y-109183333D01*
X105333333Y-109350000D02*
X105833333Y-109516667D01*
X105833333Y-109083333D01*
X105366667Y-108683333D02*
X105366667Y-108616666D01*
X105400000Y-108550000D01*
X105433333Y-108516666D01*
X105500000Y-108483333D01*
X105633333Y-108450000D01*
X105800000Y-108450000D01*
X105933333Y-108483333D01*
X106000000Y-108516666D01*
X106033333Y-108550000D01*
X106066667Y-108616666D01*
X106066667Y-108683333D01*
X106033333Y-108750000D01*
X106000000Y-108783333D01*
X105933333Y-108816666D01*
X105800000Y-108850000D01*
X105633333Y-108850000D01*
X105500000Y-108816666D01*
X105433333Y-108783333D01*
X105400000Y-108750000D01*
X105366667Y-108683333D01*
X106066667Y-107783333D02*
X106066667Y-108183333D01*
X106066667Y-107983333D02*
X105366667Y-107983333D01*
X105466667Y-108049999D01*
X105533333Y-108116666D01*
X105566667Y-108183333D01*
X76500000Y-102783333D02*
X76533333Y-102816667D01*
X76566667Y-102916667D01*
X76566667Y-102983333D01*
X76533333Y-103083333D01*
X76466667Y-103150000D01*
X76400000Y-103183333D01*
X76266667Y-103216667D01*
X76166667Y-103216667D01*
X76033333Y-103183333D01*
X75966667Y-103150000D01*
X75900000Y-103083333D01*
X75866667Y-102983333D01*
X75866667Y-102916667D01*
X75900000Y-102816667D01*
X75933333Y-102783333D01*
X76100000Y-102183333D02*
X76566667Y-102183333D01*
X75833333Y-102350000D02*
X76333333Y-102516667D01*
X76333333Y-102083333D01*
X75866667Y-101683333D02*
X75866667Y-101616666D01*
X75900000Y-101550000D01*
X75933333Y-101516666D01*
X76000000Y-101483333D01*
X76133333Y-101450000D01*
X76300000Y-101450000D01*
X76433333Y-101483333D01*
X76500000Y-101516666D01*
X76533333Y-101550000D01*
X76566667Y-101616666D01*
X76566667Y-101683333D01*
X76533333Y-101750000D01*
X76500000Y-101783333D01*
X76433333Y-101816666D01*
X76300000Y-101850000D01*
X76133333Y-101850000D01*
X76000000Y-101816666D01*
X75933333Y-101783333D01*
X75900000Y-101750000D01*
X75866667Y-101683333D01*
X75933333Y-101183333D02*
X75900000Y-101149999D01*
X75866667Y-101083333D01*
X75866667Y-100916666D01*
X75900000Y-100849999D01*
X75933333Y-100816666D01*
X76000000Y-100783333D01*
X76066667Y-100783333D01*
X76166667Y-100816666D01*
X76566667Y-101216666D01*
X76566667Y-100783333D01*
D16*
X62976362Y-73511629D02*
X62738086Y-73664029D01*
X62976362Y-73772886D02*
X62475982Y-73772886D01*
X62475982Y-73598714D01*
X62499810Y-73555172D01*
X62523638Y-73533400D01*
X62571293Y-73511629D01*
X62642776Y-73511629D01*
X62690431Y-73533400D01*
X62714259Y-73555172D01*
X62738086Y-73598714D01*
X62738086Y-73772886D01*
X62642776Y-73119743D02*
X62976362Y-73119743D01*
X62452155Y-73228600D02*
X62809569Y-73337457D01*
X62809569Y-73054429D01*
X62475982Y-72793171D02*
X62475982Y-72749628D01*
X62499810Y-72706085D01*
X62523638Y-72684314D01*
X62571293Y-72662543D01*
X62666603Y-72640771D01*
X62785741Y-72640771D01*
X62881052Y-72662543D01*
X62928707Y-72684314D01*
X62952535Y-72706085D01*
X62976362Y-72749628D01*
X62976362Y-72793171D01*
X62952535Y-72836714D01*
X62928707Y-72858485D01*
X62881052Y-72880257D01*
X62785741Y-72902028D01*
X62666603Y-72902028D01*
X62571293Y-72880257D01*
X62523638Y-72858485D01*
X62499810Y-72836714D01*
X62475982Y-72793171D01*
X62475982Y-72488371D02*
X62475982Y-72205342D01*
X62666603Y-72357742D01*
X62666603Y-72292428D01*
X62690431Y-72248885D01*
X62714259Y-72227114D01*
X62761914Y-72205342D01*
X62881052Y-72205342D01*
X62928707Y-72227114D01*
X62952535Y-72248885D01*
X62976362Y-72292428D01*
X62976362Y-72423056D01*
X62952535Y-72466599D01*
X62928707Y-72488371D01*
X62976362Y-76511629D02*
X62738086Y-76664029D01*
X62976362Y-76772886D02*
X62475982Y-76772886D01*
X62475982Y-76598714D01*
X62499810Y-76555172D01*
X62523638Y-76533400D01*
X62571293Y-76511629D01*
X62642776Y-76511629D01*
X62690431Y-76533400D01*
X62714259Y-76555172D01*
X62738086Y-76598714D01*
X62738086Y-76772886D01*
X62642776Y-76119743D02*
X62976362Y-76119743D01*
X62452155Y-76228600D02*
X62809569Y-76337457D01*
X62809569Y-76054429D01*
X62475982Y-75793171D02*
X62475982Y-75749628D01*
X62499810Y-75706085D01*
X62523638Y-75684314D01*
X62571293Y-75662543D01*
X62666603Y-75640771D01*
X62785741Y-75640771D01*
X62881052Y-75662543D01*
X62928707Y-75684314D01*
X62952535Y-75706085D01*
X62976362Y-75749628D01*
X62976362Y-75793171D01*
X62952535Y-75836714D01*
X62928707Y-75858485D01*
X62881052Y-75880257D01*
X62785741Y-75902028D01*
X62666603Y-75902028D01*
X62571293Y-75880257D01*
X62523638Y-75858485D01*
X62499810Y-75836714D01*
X62475982Y-75793171D01*
X62642776Y-75248885D02*
X62976362Y-75248885D01*
X62452155Y-75357742D02*
X62809569Y-75466599D01*
X62809569Y-75183571D01*
X92726362Y-73511629D02*
X92488086Y-73664029D01*
X92726362Y-73772886D02*
X92225982Y-73772886D01*
X92225982Y-73598714D01*
X92249810Y-73555172D01*
X92273638Y-73533400D01*
X92321293Y-73511629D01*
X92392776Y-73511629D01*
X92440431Y-73533400D01*
X92464259Y-73555172D01*
X92488086Y-73598714D01*
X92488086Y-73772886D01*
X92392776Y-73119743D02*
X92726362Y-73119743D01*
X92202155Y-73228600D02*
X92559569Y-73337457D01*
X92559569Y-73054429D01*
X92225982Y-72793171D02*
X92225982Y-72749628D01*
X92249810Y-72706085D01*
X92273638Y-72684314D01*
X92321293Y-72662543D01*
X92416603Y-72640771D01*
X92535741Y-72640771D01*
X92631052Y-72662543D01*
X92678707Y-72684314D01*
X92702535Y-72706085D01*
X92726362Y-72749628D01*
X92726362Y-72793171D01*
X92702535Y-72836714D01*
X92678707Y-72858485D01*
X92631052Y-72880257D01*
X92535741Y-72902028D01*
X92416603Y-72902028D01*
X92321293Y-72880257D01*
X92273638Y-72858485D01*
X92249810Y-72836714D01*
X92225982Y-72793171D01*
X92225982Y-72227114D02*
X92225982Y-72444828D01*
X92464259Y-72466599D01*
X92440431Y-72444828D01*
X92416603Y-72401285D01*
X92416603Y-72292428D01*
X92440431Y-72248885D01*
X92464259Y-72227114D01*
X92511914Y-72205342D01*
X92631052Y-72205342D01*
X92678707Y-72227114D01*
X92702535Y-72248885D01*
X92726362Y-72292428D01*
X92726362Y-72401285D01*
X92702535Y-72444828D01*
X92678707Y-72466599D01*
X92726362Y-76511629D02*
X92488086Y-76664029D01*
X92726362Y-76772886D02*
X92225982Y-76772886D01*
X92225982Y-76598714D01*
X92249810Y-76555172D01*
X92273638Y-76533400D01*
X92321293Y-76511629D01*
X92392776Y-76511629D01*
X92440431Y-76533400D01*
X92464259Y-76555172D01*
X92488086Y-76598714D01*
X92488086Y-76772886D01*
X92392776Y-76119743D02*
X92726362Y-76119743D01*
X92202155Y-76228600D02*
X92559569Y-76337457D01*
X92559569Y-76054429D01*
X92225982Y-75793171D02*
X92225982Y-75749628D01*
X92249810Y-75706085D01*
X92273638Y-75684314D01*
X92321293Y-75662543D01*
X92416603Y-75640771D01*
X92535741Y-75640771D01*
X92631052Y-75662543D01*
X92678707Y-75684314D01*
X92702535Y-75706085D01*
X92726362Y-75749628D01*
X92726362Y-75793171D01*
X92702535Y-75836714D01*
X92678707Y-75858485D01*
X92631052Y-75880257D01*
X92535741Y-75902028D01*
X92416603Y-75902028D01*
X92321293Y-75880257D01*
X92273638Y-75858485D01*
X92249810Y-75836714D01*
X92225982Y-75793171D01*
X92225982Y-75248885D02*
X92225982Y-75335971D01*
X92249810Y-75379514D01*
X92273638Y-75401285D01*
X92345120Y-75444828D01*
X92440431Y-75466599D01*
X92631052Y-75466599D01*
X92678707Y-75444828D01*
X92702535Y-75423056D01*
X92726362Y-75379514D01*
X92726362Y-75292428D01*
X92702535Y-75248885D01*
X92678707Y-75227114D01*
X92631052Y-75205342D01*
X92511914Y-75205342D01*
X92464259Y-75227114D01*
X92440431Y-75248885D01*
X92416603Y-75292428D01*
X92416603Y-75379514D01*
X92440431Y-75423056D01*
X92464259Y-75444828D01*
X92511914Y-75466599D01*
D17*
X98215486Y-108089669D02*
X98215486Y-108696245D01*
X98251167Y-108767607D01*
X98286848Y-108803288D01*
X98358210Y-108838969D01*
X98500933Y-108838969D01*
X98572295Y-108803288D01*
X98607976Y-108767607D01*
X98643657Y-108696245D01*
X98643657Y-108089669D01*
X99321595Y-108339436D02*
X99321595Y-108838969D01*
X99143191Y-108053988D02*
X98964786Y-108589202D01*
X99428638Y-108589202D01*
X99856810Y-108089669D02*
X99928171Y-108089669D01*
X99999533Y-108125350D01*
X100035214Y-108161031D01*
X100070895Y-108232393D01*
X100106576Y-108375117D01*
X100106576Y-108553521D01*
X100070895Y-108696245D01*
X100035214Y-108767607D01*
X99999533Y-108803288D01*
X99928171Y-108838969D01*
X99856810Y-108838969D01*
X99785448Y-108803288D01*
X99749767Y-108767607D01*
X99714086Y-108696245D01*
X99678405Y-108553521D01*
X99678405Y-108375117D01*
X99714086Y-108232393D01*
X99749767Y-108161031D01*
X99785448Y-108125350D01*
X99856810Y-108089669D01*
X100820195Y-108838969D02*
X100392024Y-108838969D01*
X100606110Y-108838969D02*
X100606110Y-108089669D01*
X100534748Y-108196712D01*
X100463386Y-108268074D01*
X100392024Y-108303755D01*
X90161498Y-108838969D02*
X89804689Y-108838969D01*
X89804689Y-108089669D01*
X90375584Y-108161031D02*
X90411265Y-108125350D01*
X90482627Y-108089669D01*
X90661031Y-108089669D01*
X90732393Y-108125350D01*
X90768074Y-108161031D01*
X90803755Y-108232393D01*
X90803755Y-108303755D01*
X90768074Y-108410798D01*
X90339903Y-108838969D01*
X90803755Y-108838969D01*
X91160565Y-108838969D02*
X91303289Y-108838969D01*
X91374650Y-108803288D01*
X91410331Y-108767607D01*
X91481693Y-108660564D01*
X91517374Y-108517840D01*
X91517374Y-108232393D01*
X91481693Y-108161031D01*
X91446012Y-108125350D01*
X91374650Y-108089669D01*
X91231927Y-108089669D01*
X91160565Y-108125350D01*
X91124884Y-108161031D01*
X91089203Y-108232393D01*
X91089203Y-108410798D01*
X91124884Y-108482160D01*
X91160565Y-108517840D01*
X91231927Y-108553521D01*
X91374650Y-108553521D01*
X91446012Y-108517840D01*
X91481693Y-108482160D01*
X91517374Y-108410798D01*
X91945546Y-108410798D02*
X91874184Y-108375117D01*
X91838503Y-108339436D01*
X91802822Y-108268074D01*
X91802822Y-108232393D01*
X91838503Y-108161031D01*
X91874184Y-108125350D01*
X91945546Y-108089669D01*
X92088269Y-108089669D01*
X92159631Y-108125350D01*
X92195312Y-108161031D01*
X92230993Y-108232393D01*
X92230993Y-108268074D01*
X92195312Y-108339436D01*
X92159631Y-108375117D01*
X92088269Y-108410798D01*
X91945546Y-108410798D01*
X91874184Y-108446479D01*
X91838503Y-108482160D01*
X91802822Y-108553521D01*
X91802822Y-108696245D01*
X91838503Y-108767607D01*
X91874184Y-108803288D01*
X91945546Y-108838969D01*
X92088269Y-108838969D01*
X92159631Y-108803288D01*
X92195312Y-108767607D01*
X92230993Y-108696245D01*
X92230993Y-108553521D01*
X92195312Y-108482160D01*
X92159631Y-108446479D01*
X92088269Y-108410798D01*
D18*
X67290572Y-71624071D02*
X67290572Y-72549357D01*
X67345000Y-72658214D01*
X67399429Y-72712643D01*
X67508286Y-72767071D01*
X67726000Y-72767071D01*
X67834858Y-72712643D01*
X67889286Y-72658214D01*
X67943715Y-72549357D01*
X67943715Y-71624071D01*
X68977858Y-72005071D02*
X68977858Y-72767071D01*
X68705715Y-71569643D02*
X68433572Y-72386071D01*
X69141144Y-72386071D01*
X69794286Y-71624071D02*
X69903143Y-71624071D01*
X70012000Y-71678500D01*
X70066429Y-71732929D01*
X70120858Y-71841786D01*
X70175286Y-72059500D01*
X70175286Y-72331643D01*
X70120858Y-72549357D01*
X70066429Y-72658214D01*
X70012000Y-72712643D01*
X69903143Y-72767071D01*
X69794286Y-72767071D01*
X69685429Y-72712643D01*
X69631000Y-72658214D01*
X69576572Y-72549357D01*
X69522143Y-72331643D01*
X69522143Y-72059500D01*
X69576572Y-71841786D01*
X69631000Y-71732929D01*
X69685429Y-71678500D01*
X69794286Y-71624071D01*
X70610714Y-71732929D02*
X70665143Y-71678500D01*
X70774000Y-71624071D01*
X71046143Y-71624071D01*
X71155000Y-71678500D01*
X71209429Y-71732929D01*
X71263857Y-71841786D01*
X71263857Y-71950643D01*
X71209429Y-72113929D01*
X70556286Y-72767071D01*
X71263857Y-72767071D01*
X99290572Y-71624071D02*
X99290572Y-72549357D01*
X99345000Y-72658214D01*
X99399429Y-72712643D01*
X99508286Y-72767071D01*
X99726000Y-72767071D01*
X99834858Y-72712643D01*
X99889286Y-72658214D01*
X99943715Y-72549357D01*
X99943715Y-71624071D01*
X100977858Y-72005071D02*
X100977858Y-72767071D01*
X100705715Y-71569643D02*
X100433572Y-72386071D01*
X101141144Y-72386071D01*
X101794286Y-71624071D02*
X101903143Y-71624071D01*
X102012000Y-71678500D01*
X102066429Y-71732929D01*
X102120858Y-71841786D01*
X102175286Y-72059500D01*
X102175286Y-72331643D01*
X102120858Y-72549357D01*
X102066429Y-72658214D01*
X102012000Y-72712643D01*
X101903143Y-72767071D01*
X101794286Y-72767071D01*
X101685429Y-72712643D01*
X101631000Y-72658214D01*
X101576572Y-72549357D01*
X101522143Y-72331643D01*
X101522143Y-72059500D01*
X101576572Y-71841786D01*
X101631000Y-71732929D01*
X101685429Y-71678500D01*
X101794286Y-71624071D01*
X102556286Y-71624071D02*
X103263857Y-71624071D01*
X102882857Y-72059500D01*
X103046143Y-72059500D01*
X103155000Y-72113929D01*
X103209429Y-72168357D01*
X103263857Y-72277214D01*
X103263857Y-72549357D01*
X103209429Y-72658214D01*
X103155000Y-72712643D01*
X103046143Y-72767071D01*
X102719571Y-72767071D01*
X102610714Y-72712643D01*
X102556286Y-72658214D01*
D13*
X128059524Y-74702381D02*
X128059524Y-73702381D01*
X128440477Y-73702381D01*
X128535715Y-73750000D01*
X128583334Y-73797619D01*
X128630953Y-73892857D01*
X128630953Y-74035714D01*
X128583334Y-74130952D01*
X128535715Y-74178571D01*
X128440477Y-74226190D01*
X128059524Y-74226190D01*
X129583334Y-74702381D02*
X129011905Y-74702381D01*
X129297619Y-74702381D02*
X129297619Y-73702381D01*
X129202381Y-73845238D01*
X129107143Y-73940476D01*
X129011905Y-73988095D01*
X130202381Y-73702381D02*
X130297620Y-73702381D01*
X130392858Y-73750000D01*
X130440477Y-73797619D01*
X130488096Y-73892857D01*
X130535715Y-74083333D01*
X130535715Y-74321429D01*
X130488096Y-74511905D01*
X130440477Y-74607143D01*
X130392858Y-74654762D01*
X130297620Y-74702381D01*
X130202381Y-74702381D01*
X130107143Y-74654762D01*
X130059524Y-74607143D01*
X130011905Y-74511905D01*
X129964286Y-74321429D01*
X129964286Y-74083333D01*
X130011905Y-73892857D01*
X130059524Y-73797619D01*
X130107143Y-73750000D01*
X130202381Y-73702381D01*
X131488096Y-74702381D02*
X130916667Y-74702381D01*
X131202381Y-74702381D02*
X131202381Y-73702381D01*
X131107143Y-73845238D01*
X131011905Y-73940476D01*
X130916667Y-73988095D01*
X124071428Y-62452381D02*
X124071428Y-61452381D01*
X124404762Y-62166667D01*
X124738095Y-61452381D01*
X124738095Y-62452381D01*
X125357142Y-62452381D02*
X125261904Y-62404762D01*
X125214285Y-62357143D01*
X125166666Y-62261905D01*
X125166666Y-61976190D01*
X125214285Y-61880952D01*
X125261904Y-61833333D01*
X125357142Y-61785714D01*
X125500000Y-61785714D01*
X125595238Y-61833333D01*
X125642857Y-61880952D01*
X125690476Y-61976190D01*
X125690476Y-62261905D01*
X125642857Y-62357143D01*
X125595238Y-62404762D01*
X125500000Y-62452381D01*
X125357142Y-62452381D01*
X125976190Y-61785714D02*
X126357142Y-61785714D01*
X126119047Y-61452381D02*
X126119047Y-62309524D01*
X126166666Y-62404762D01*
X126261904Y-62452381D01*
X126357142Y-62452381D01*
X126833333Y-62452381D02*
X126738095Y-62404762D01*
X126690476Y-62357143D01*
X126642857Y-62261905D01*
X126642857Y-61976190D01*
X126690476Y-61880952D01*
X126738095Y-61833333D01*
X126833333Y-61785714D01*
X126976191Y-61785714D01*
X127071429Y-61833333D01*
X127119048Y-61880952D01*
X127166667Y-61976190D01*
X127166667Y-62261905D01*
X127119048Y-62357143D01*
X127071429Y-62404762D01*
X126976191Y-62452381D01*
X126833333Y-62452381D01*
X127595238Y-62452381D02*
X127595238Y-61785714D01*
X127595238Y-61976190D02*
X127642857Y-61880952D01*
X127690476Y-61833333D01*
X127785714Y-61785714D01*
X127880953Y-61785714D01*
X128976191Y-62452381D02*
X128976191Y-61452381D01*
X129357144Y-61452381D01*
X129452382Y-61500000D01*
X129500001Y-61547619D01*
X129547620Y-61642857D01*
X129547620Y-61785714D01*
X129500001Y-61880952D01*
X129452382Y-61928571D01*
X129357144Y-61976190D01*
X128976191Y-61976190D01*
X130119048Y-62452381D02*
X130023810Y-62404762D01*
X129976191Y-62357143D01*
X129928572Y-62261905D01*
X129928572Y-61976190D01*
X129976191Y-61880952D01*
X130023810Y-61833333D01*
X130119048Y-61785714D01*
X130261906Y-61785714D01*
X130357144Y-61833333D01*
X130404763Y-61880952D01*
X130452382Y-61976190D01*
X130452382Y-62261905D01*
X130404763Y-62357143D01*
X130357144Y-62404762D01*
X130261906Y-62452381D01*
X130119048Y-62452381D01*
X130785715Y-61785714D02*
X130976191Y-62452381D01*
X131166668Y-61976190D01*
X131357144Y-62452381D01*
X131547620Y-61785714D01*
X132309525Y-62404762D02*
X132214287Y-62452381D01*
X132023810Y-62452381D01*
X131928572Y-62404762D01*
X131880953Y-62309524D01*
X131880953Y-61928571D01*
X131928572Y-61833333D01*
X132023810Y-61785714D01*
X132214287Y-61785714D01*
X132309525Y-61833333D01*
X132357144Y-61928571D01*
X132357144Y-62023810D01*
X131880953Y-62119048D01*
X132785715Y-62452381D02*
X132785715Y-61785714D01*
X132785715Y-61976190D02*
X132833334Y-61880952D01*
X132880953Y-61833333D01*
X132976191Y-61785714D01*
X133071430Y-61785714D01*
X86309524Y-62952381D02*
X86309524Y-61952381D01*
X86690477Y-61952381D01*
X86785715Y-62000000D01*
X86833334Y-62047619D01*
X86880953Y-62142857D01*
X86880953Y-62285714D01*
X86833334Y-62380952D01*
X86785715Y-62428571D01*
X86690477Y-62476190D01*
X86309524Y-62476190D01*
X87833334Y-62952381D02*
X87261905Y-62952381D01*
X87547619Y-62952381D02*
X87547619Y-61952381D01*
X87452381Y-62095238D01*
X87357143Y-62190476D01*
X87261905Y-62238095D01*
X88452381Y-61952381D02*
X88547620Y-61952381D01*
X88642858Y-62000000D01*
X88690477Y-62047619D01*
X88738096Y-62142857D01*
X88785715Y-62333333D01*
X88785715Y-62571429D01*
X88738096Y-62761905D01*
X88690477Y-62857143D01*
X88642858Y-62904762D01*
X88547620Y-62952381D01*
X88452381Y-62952381D01*
X88357143Y-62904762D01*
X88309524Y-62857143D01*
X88261905Y-62761905D01*
X88214286Y-62571429D01*
X88214286Y-62333333D01*
X88261905Y-62142857D01*
X88309524Y-62047619D01*
X88357143Y-62000000D01*
X88452381Y-61952381D01*
X89261905Y-62952381D02*
X89452381Y-62952381D01*
X89547620Y-62904762D01*
X89595239Y-62857143D01*
X89690477Y-62714286D01*
X89738096Y-62523810D01*
X89738096Y-62142857D01*
X89690477Y-62047619D01*
X89642858Y-62000000D01*
X89547620Y-61952381D01*
X89357143Y-61952381D01*
X89261905Y-62000000D01*
X89214286Y-62047619D01*
X89166667Y-62142857D01*
X89166667Y-62380952D01*
X89214286Y-62476190D01*
X89261905Y-62523810D01*
X89357143Y-62571429D01*
X89547620Y-62571429D01*
X89642858Y-62523810D01*
X89690477Y-62476190D01*
X89738096Y-62380952D01*
X68190476Y-62952381D02*
X68190476Y-61952381D01*
X68571429Y-61952381D01*
X68666667Y-62000000D01*
X68714286Y-62047619D01*
X68761905Y-62142857D01*
X68761905Y-62285714D01*
X68714286Y-62380952D01*
X68666667Y-62428571D01*
X68571429Y-62476190D01*
X68190476Y-62476190D01*
X69190476Y-62952381D02*
X69190476Y-61952381D01*
X69619048Y-62952381D02*
X69619048Y-62428571D01*
X69571429Y-62333333D01*
X69476191Y-62285714D01*
X69333333Y-62285714D01*
X69238095Y-62333333D01*
X69190476Y-62380952D01*
X70523810Y-62952381D02*
X70523810Y-62428571D01*
X70476191Y-62333333D01*
X70380953Y-62285714D01*
X70190476Y-62285714D01*
X70095238Y-62333333D01*
X70523810Y-62904762D02*
X70428572Y-62952381D01*
X70190476Y-62952381D01*
X70095238Y-62904762D01*
X70047619Y-62809524D01*
X70047619Y-62714286D01*
X70095238Y-62619048D01*
X70190476Y-62571429D01*
X70428572Y-62571429D01*
X70523810Y-62523810D01*
X70952381Y-62904762D02*
X71047619Y-62952381D01*
X71238095Y-62952381D01*
X71333334Y-62904762D01*
X71380953Y-62809524D01*
X71380953Y-62761905D01*
X71333334Y-62666667D01*
X71238095Y-62619048D01*
X71095238Y-62619048D01*
X71000000Y-62571429D01*
X70952381Y-62476190D01*
X70952381Y-62428571D01*
X71000000Y-62333333D01*
X71095238Y-62285714D01*
X71238095Y-62285714D01*
X71333334Y-62333333D01*
X72190477Y-62904762D02*
X72095239Y-62952381D01*
X71904762Y-62952381D01*
X71809524Y-62904762D01*
X71761905Y-62809524D01*
X71761905Y-62428571D01*
X71809524Y-62333333D01*
X71904762Y-62285714D01*
X72095239Y-62285714D01*
X72190477Y-62333333D01*
X72238096Y-62428571D01*
X72238096Y-62523810D01*
X71761905Y-62619048D01*
X73380953Y-62666667D02*
X73857144Y-62666667D01*
X73285715Y-62952381D02*
X73619048Y-61952381D01*
X73952382Y-62952381D01*
X116309524Y-62952381D02*
X116309524Y-61952381D01*
X116690477Y-61952381D01*
X116785715Y-62000000D01*
X116833334Y-62047619D01*
X116880953Y-62142857D01*
X116880953Y-62285714D01*
X116833334Y-62380952D01*
X116785715Y-62428571D01*
X116690477Y-62476190D01*
X116309524Y-62476190D01*
X117833334Y-62952381D02*
X117261905Y-62952381D01*
X117547619Y-62952381D02*
X117547619Y-61952381D01*
X117452381Y-62095238D01*
X117357143Y-62190476D01*
X117261905Y-62238095D01*
X118785715Y-62952381D02*
X118214286Y-62952381D01*
X118500000Y-62952381D02*
X118500000Y-61952381D01*
X118404762Y-62095238D01*
X118309524Y-62190476D01*
X118214286Y-62238095D01*
X119404762Y-61952381D02*
X119500001Y-61952381D01*
X119595239Y-62000000D01*
X119642858Y-62047619D01*
X119690477Y-62142857D01*
X119738096Y-62333333D01*
X119738096Y-62571429D01*
X119690477Y-62761905D01*
X119642858Y-62857143D01*
X119595239Y-62904762D01*
X119500001Y-62952381D01*
X119404762Y-62952381D01*
X119309524Y-62904762D01*
X119261905Y-62857143D01*
X119214286Y-62761905D01*
X119166667Y-62571429D01*
X119166667Y-62333333D01*
X119214286Y-62142857D01*
X119261905Y-62047619D01*
X119309524Y-62000000D01*
X119404762Y-61952381D01*
X98119047Y-62952381D02*
X98119047Y-61952381D01*
X98500000Y-61952381D01*
X98595238Y-62000000D01*
X98642857Y-62047619D01*
X98690476Y-62142857D01*
X98690476Y-62285714D01*
X98642857Y-62380952D01*
X98595238Y-62428571D01*
X98500000Y-62476190D01*
X98119047Y-62476190D01*
X99119047Y-62952381D02*
X99119047Y-61952381D01*
X99547619Y-62952381D02*
X99547619Y-62428571D01*
X99500000Y-62333333D01*
X99404762Y-62285714D01*
X99261904Y-62285714D01*
X99166666Y-62333333D01*
X99119047Y-62380952D01*
X100452381Y-62952381D02*
X100452381Y-62428571D01*
X100404762Y-62333333D01*
X100309524Y-62285714D01*
X100119047Y-62285714D01*
X100023809Y-62333333D01*
X100452381Y-62904762D02*
X100357143Y-62952381D01*
X100119047Y-62952381D01*
X100023809Y-62904762D01*
X99976190Y-62809524D01*
X99976190Y-62714286D01*
X100023809Y-62619048D01*
X100119047Y-62571429D01*
X100357143Y-62571429D01*
X100452381Y-62523810D01*
X100880952Y-62904762D02*
X100976190Y-62952381D01*
X101166666Y-62952381D01*
X101261905Y-62904762D01*
X101309524Y-62809524D01*
X101309524Y-62761905D01*
X101261905Y-62666667D01*
X101166666Y-62619048D01*
X101023809Y-62619048D01*
X100928571Y-62571429D01*
X100880952Y-62476190D01*
X100880952Y-62428571D01*
X100928571Y-62333333D01*
X101023809Y-62285714D01*
X101166666Y-62285714D01*
X101261905Y-62333333D01*
X102119048Y-62904762D02*
X102023810Y-62952381D01*
X101833333Y-62952381D01*
X101738095Y-62904762D01*
X101690476Y-62809524D01*
X101690476Y-62428571D01*
X101738095Y-62333333D01*
X101833333Y-62285714D01*
X102023810Y-62285714D01*
X102119048Y-62333333D01*
X102166667Y-62428571D01*
X102166667Y-62523810D01*
X101690476Y-62619048D01*
X103690477Y-62428571D02*
X103833334Y-62476190D01*
X103880953Y-62523810D01*
X103928572Y-62619048D01*
X103928572Y-62761905D01*
X103880953Y-62857143D01*
X103833334Y-62904762D01*
X103738096Y-62952381D01*
X103357143Y-62952381D01*
X103357143Y-61952381D01*
X103690477Y-61952381D01*
X103785715Y-62000000D01*
X103833334Y-62047619D01*
X103880953Y-62142857D01*
X103880953Y-62238095D01*
X103833334Y-62333333D01*
X103785715Y-62380952D01*
X103690477Y-62428571D01*
X103357143Y-62428571D01*
X57809524Y-74702381D02*
X57809524Y-73702381D01*
X58190477Y-73702381D01*
X58285715Y-73750000D01*
X58333334Y-73797619D01*
X58380953Y-73892857D01*
X58380953Y-74035714D01*
X58333334Y-74130952D01*
X58285715Y-74178571D01*
X58190477Y-74226190D01*
X57809524Y-74226190D01*
X59333334Y-74702381D02*
X58761905Y-74702381D01*
X59047619Y-74702381D02*
X59047619Y-73702381D01*
X58952381Y-73845238D01*
X58857143Y-73940476D01*
X58761905Y-73988095D01*
X60285715Y-74702381D02*
X59714286Y-74702381D01*
X60000000Y-74702381D02*
X60000000Y-73702381D01*
X59904762Y-73845238D01*
X59809524Y-73940476D01*
X59714286Y-73988095D01*
X61190477Y-73702381D02*
X60714286Y-73702381D01*
X60666667Y-74178571D01*
X60714286Y-74130952D01*
X60809524Y-74083333D01*
X61047620Y-74083333D01*
X61142858Y-74130952D01*
X61190477Y-74178571D01*
X61238096Y-74273810D01*
X61238096Y-74511905D01*
X61190477Y-74607143D01*
X61142858Y-74654762D01*
X61047620Y-74702381D01*
X60809524Y-74702381D01*
X60714286Y-74654762D01*
X60666667Y-74607143D01*
X57571428Y-62452381D02*
X57571428Y-61452381D01*
X57904762Y-62166667D01*
X58238095Y-61452381D01*
X58238095Y-62452381D01*
X58857142Y-62452381D02*
X58761904Y-62404762D01*
X58714285Y-62357143D01*
X58666666Y-62261905D01*
X58666666Y-61976190D01*
X58714285Y-61880952D01*
X58761904Y-61833333D01*
X58857142Y-61785714D01*
X59000000Y-61785714D01*
X59095238Y-61833333D01*
X59142857Y-61880952D01*
X59190476Y-61976190D01*
X59190476Y-62261905D01*
X59142857Y-62357143D01*
X59095238Y-62404762D01*
X59000000Y-62452381D01*
X58857142Y-62452381D01*
X59476190Y-61785714D02*
X59857142Y-61785714D01*
X59619047Y-61452381D02*
X59619047Y-62309524D01*
X59666666Y-62404762D01*
X59761904Y-62452381D01*
X59857142Y-62452381D01*
X60333333Y-62452381D02*
X60238095Y-62404762D01*
X60190476Y-62357143D01*
X60142857Y-62261905D01*
X60142857Y-61976190D01*
X60190476Y-61880952D01*
X60238095Y-61833333D01*
X60333333Y-61785714D01*
X60476191Y-61785714D01*
X60571429Y-61833333D01*
X60619048Y-61880952D01*
X60666667Y-61976190D01*
X60666667Y-62261905D01*
X60619048Y-62357143D01*
X60571429Y-62404762D01*
X60476191Y-62452381D01*
X60333333Y-62452381D01*
X61095238Y-62452381D02*
X61095238Y-61785714D01*
X61095238Y-61976190D02*
X61142857Y-61880952D01*
X61190476Y-61833333D01*
X61285714Y-61785714D01*
X61380953Y-61785714D01*
X62476191Y-62452381D02*
X62476191Y-61452381D01*
X62857144Y-61452381D01*
X62952382Y-61500000D01*
X63000001Y-61547619D01*
X63047620Y-61642857D01*
X63047620Y-61785714D01*
X63000001Y-61880952D01*
X62952382Y-61928571D01*
X62857144Y-61976190D01*
X62476191Y-61976190D01*
X63619048Y-62452381D02*
X63523810Y-62404762D01*
X63476191Y-62357143D01*
X63428572Y-62261905D01*
X63428572Y-61976190D01*
X63476191Y-61880952D01*
X63523810Y-61833333D01*
X63619048Y-61785714D01*
X63761906Y-61785714D01*
X63857144Y-61833333D01*
X63904763Y-61880952D01*
X63952382Y-61976190D01*
X63952382Y-62261905D01*
X63904763Y-62357143D01*
X63857144Y-62404762D01*
X63761906Y-62452381D01*
X63619048Y-62452381D01*
X64285715Y-61785714D02*
X64476191Y-62452381D01*
X64666668Y-61976190D01*
X64857144Y-62452381D01*
X65047620Y-61785714D01*
X65809525Y-62404762D02*
X65714287Y-62452381D01*
X65523810Y-62452381D01*
X65428572Y-62404762D01*
X65380953Y-62309524D01*
X65380953Y-61928571D01*
X65428572Y-61833333D01*
X65523810Y-61785714D01*
X65714287Y-61785714D01*
X65809525Y-61833333D01*
X65857144Y-61928571D01*
X65857144Y-62023810D01*
X65380953Y-62119048D01*
X66285715Y-62452381D02*
X66285715Y-61785714D01*
X66285715Y-61976190D02*
X66333334Y-61880952D01*
X66380953Y-61833333D01*
X66476191Y-61785714D01*
X66571430Y-61785714D01*
D11*
X66466667Y-82000000D02*
X66433333Y-82033333D01*
X66333333Y-82066667D01*
X66266667Y-82066667D01*
X66166667Y-82033333D01*
X66100000Y-81966667D01*
X66066667Y-81900000D01*
X66033333Y-81766667D01*
X66033333Y-81666667D01*
X66066667Y-81533333D01*
X66100000Y-81466667D01*
X66166667Y-81400000D01*
X66266667Y-81366667D01*
X66333333Y-81366667D01*
X66433333Y-81400000D01*
X66466667Y-81433333D01*
X67066667Y-81600000D02*
X67066667Y-82066667D01*
X66900000Y-81333333D02*
X66733333Y-81833333D01*
X67166667Y-81833333D01*
X67566667Y-81366667D02*
X67633334Y-81366667D01*
X67700000Y-81400000D01*
X67733334Y-81433333D01*
X67766667Y-81500000D01*
X67800000Y-81633333D01*
X67800000Y-81800000D01*
X67766667Y-81933333D01*
X67733334Y-82000000D01*
X67700000Y-82033333D01*
X67633334Y-82066667D01*
X67566667Y-82066667D01*
X67500000Y-82033333D01*
X67466667Y-82000000D01*
X67433334Y-81933333D01*
X67400000Y-81800000D01*
X67400000Y-81633333D01*
X67433334Y-81500000D01*
X67466667Y-81433333D01*
X67500000Y-81400000D01*
X67566667Y-81366667D01*
X68033334Y-81366667D02*
X68466667Y-81366667D01*
X68233334Y-81633333D01*
X68333334Y-81633333D01*
X68400001Y-81666667D01*
X68433334Y-81700000D01*
X68466667Y-81766667D01*
X68466667Y-81933333D01*
X68433334Y-82000000D01*
X68400001Y-82033333D01*
X68333334Y-82066667D01*
X68133334Y-82066667D01*
X68066667Y-82033333D01*
X68033334Y-82000000D01*
X96466667Y-82000000D02*
X96433333Y-82033333D01*
X96333333Y-82066667D01*
X96266667Y-82066667D01*
X96166667Y-82033333D01*
X96100000Y-81966667D01*
X96066667Y-81900000D01*
X96033333Y-81766667D01*
X96033333Y-81666667D01*
X96066667Y-81533333D01*
X96100000Y-81466667D01*
X96166667Y-81400000D01*
X96266667Y-81366667D01*
X96333333Y-81366667D01*
X96433333Y-81400000D01*
X96466667Y-81433333D01*
X97066667Y-81600000D02*
X97066667Y-82066667D01*
X96900000Y-81333333D02*
X96733333Y-81833333D01*
X97166667Y-81833333D01*
X97566667Y-81366667D02*
X97633334Y-81366667D01*
X97700000Y-81400000D01*
X97733334Y-81433333D01*
X97766667Y-81500000D01*
X97800000Y-81633333D01*
X97800000Y-81800000D01*
X97766667Y-81933333D01*
X97733334Y-82000000D01*
X97700000Y-82033333D01*
X97633334Y-82066667D01*
X97566667Y-82066667D01*
X97500000Y-82033333D01*
X97466667Y-82000000D01*
X97433334Y-81933333D01*
X97400000Y-81800000D01*
X97400000Y-81633333D01*
X97433334Y-81500000D01*
X97466667Y-81433333D01*
X97500000Y-81400000D01*
X97566667Y-81366667D01*
X98400001Y-81600000D02*
X98400001Y-82066667D01*
X98233334Y-81333333D02*
X98066667Y-81833333D01*
X98500001Y-81833333D01*
D13*
X110252381Y-78369047D02*
X109776190Y-78702381D01*
X110252381Y-78940476D02*
X109252381Y-78940476D01*
X109252381Y-78559523D01*
X109300000Y-78464285D01*
X109347619Y-78416666D01*
X109442857Y-78369047D01*
X109585714Y-78369047D01*
X109680952Y-78416666D01*
X109728571Y-78464285D01*
X109776190Y-78559523D01*
X109776190Y-78940476D01*
X109585714Y-77511904D02*
X110252381Y-77511904D01*
X109204762Y-77750000D02*
X109919048Y-77988095D01*
X109919048Y-77369047D01*
X109252381Y-76797619D02*
X109252381Y-76702380D01*
X109300000Y-76607142D01*
X109347619Y-76559523D01*
X109442857Y-76511904D01*
X109633333Y-76464285D01*
X109871429Y-76464285D01*
X110061905Y-76511904D01*
X110157143Y-76559523D01*
X110204762Y-76607142D01*
X110252381Y-76702380D01*
X110252381Y-76797619D01*
X110204762Y-76892857D01*
X110157143Y-76940476D01*
X110061905Y-76988095D01*
X109871429Y-77035714D01*
X109633333Y-77035714D01*
X109442857Y-76988095D01*
X109347619Y-76940476D01*
X109300000Y-76892857D01*
X109252381Y-76797619D01*
X110252381Y-75511904D02*
X110252381Y-76083333D01*
X110252381Y-75797619D02*
X109252381Y-75797619D01*
X109395238Y-75892857D01*
X109490476Y-75988095D01*
X109538095Y-76083333D01*
X80252381Y-78369047D02*
X79776190Y-78702381D01*
X80252381Y-78940476D02*
X79252381Y-78940476D01*
X79252381Y-78559523D01*
X79300000Y-78464285D01*
X79347619Y-78416666D01*
X79442857Y-78369047D01*
X79585714Y-78369047D01*
X79680952Y-78416666D01*
X79728571Y-78464285D01*
X79776190Y-78559523D01*
X79776190Y-78940476D01*
X79585714Y-77511904D02*
X80252381Y-77511904D01*
X79204762Y-77750000D02*
X79919048Y-77988095D01*
X79919048Y-77369047D01*
X79252381Y-76797619D02*
X79252381Y-76702380D01*
X79300000Y-76607142D01*
X79347619Y-76559523D01*
X79442857Y-76511904D01*
X79633333Y-76464285D01*
X79871429Y-76464285D01*
X80061905Y-76511904D01*
X80157143Y-76559523D01*
X80204762Y-76607142D01*
X80252381Y-76702380D01*
X80252381Y-76797619D01*
X80204762Y-76892857D01*
X80157143Y-76940476D01*
X80061905Y-76988095D01*
X79871429Y-77035714D01*
X79633333Y-77035714D01*
X79442857Y-76988095D01*
X79347619Y-76940476D01*
X79300000Y-76892857D01*
X79252381Y-76797619D01*
X79347619Y-76083333D02*
X79300000Y-76035714D01*
X79252381Y-75940476D01*
X79252381Y-75702380D01*
X79300000Y-75607142D01*
X79347619Y-75559523D01*
X79442857Y-75511904D01*
X79538095Y-75511904D01*
X79680952Y-75559523D01*
X80252381Y-76130952D01*
X80252381Y-75511904D01*
D19*
X131324524Y-124146905D02*
X130054524Y-124146905D01*
X130054524Y-123663096D01*
X130115000Y-123542143D01*
X130175476Y-123481667D01*
X130296429Y-123421191D01*
X130477857Y-123421191D01*
X130598810Y-123481667D01*
X130659286Y-123542143D01*
X130719762Y-123663096D01*
X130719762Y-124146905D01*
X131324524Y-122211667D02*
X131324524Y-122937381D01*
X131324524Y-122574524D02*
X130054524Y-122574524D01*
X130235952Y-122695476D01*
X130356905Y-122816429D01*
X130417381Y-122937381D01*
X131324524Y-121002143D02*
X131324524Y-121727857D01*
X131324524Y-121365000D02*
X130054524Y-121365000D01*
X130235952Y-121485952D01*
X130356905Y-121606905D01*
X130417381Y-121727857D01*
X130054524Y-119913571D02*
X130054524Y-120155476D01*
X130115000Y-120276428D01*
X130175476Y-120336905D01*
X130356905Y-120457857D01*
X130598810Y-120518333D01*
X131082619Y-120518333D01*
X131203571Y-120457857D01*
X131264048Y-120397381D01*
X131324524Y-120276428D01*
X131324524Y-120034524D01*
X131264048Y-119913571D01*
X131203571Y-119853095D01*
X131082619Y-119792619D01*
X130780238Y-119792619D01*
X130659286Y-119853095D01*
X130598810Y-119913571D01*
X130538333Y-120034524D01*
X130538333Y-120276428D01*
X130598810Y-120397381D01*
X130659286Y-120457857D01*
X130780238Y-120518333D01*
X120351429Y-127574524D02*
X119746667Y-127574524D01*
X119746667Y-126304524D01*
X120956191Y-127574524D02*
X120835238Y-127514048D01*
X120774762Y-127453571D01*
X120714286Y-127332619D01*
X120714286Y-126969762D01*
X120774762Y-126848810D01*
X120835238Y-126788333D01*
X120956191Y-126727857D01*
X121137619Y-126727857D01*
X121258571Y-126788333D01*
X121319048Y-126848810D01*
X121379524Y-126969762D01*
X121379524Y-127332619D01*
X121319048Y-127453571D01*
X121258571Y-127514048D01*
X121137619Y-127574524D01*
X120956191Y-127574524D01*
X122468096Y-126727857D02*
X122468096Y-127755952D01*
X122407619Y-127876905D01*
X122347143Y-127937381D01*
X122226191Y-127997857D01*
X122044762Y-127997857D01*
X121923810Y-127937381D01*
X122468096Y-127514048D02*
X122347143Y-127574524D01*
X122105239Y-127574524D01*
X121984286Y-127514048D01*
X121923810Y-127453571D01*
X121863334Y-127332619D01*
X121863334Y-126969762D01*
X121923810Y-126848810D01*
X121984286Y-126788333D01*
X122105239Y-126727857D01*
X122347143Y-126727857D01*
X122468096Y-126788333D01*
X123072858Y-127574524D02*
X123072858Y-126727857D01*
X123072858Y-126304524D02*
X123012382Y-126365000D01*
X123072858Y-126425476D01*
X123133334Y-126365000D01*
X123072858Y-126304524D01*
X123072858Y-126425476D01*
X124221906Y-127514048D02*
X124100953Y-127574524D01*
X123859049Y-127574524D01*
X123738096Y-127514048D01*
X123677620Y-127453571D01*
X123617144Y-127332619D01*
X123617144Y-126969762D01*
X123677620Y-126848810D01*
X123738096Y-126788333D01*
X123859049Y-126727857D01*
X124100953Y-126727857D01*
X124221906Y-126788333D01*
X125733810Y-127574524D02*
X125733810Y-126304524D01*
X126217619Y-126304524D01*
X126338572Y-126365000D01*
X126399048Y-126425476D01*
X126459524Y-126546429D01*
X126459524Y-126727857D01*
X126399048Y-126848810D01*
X126338572Y-126909286D01*
X126217619Y-126969762D01*
X125733810Y-126969762D01*
X127185239Y-127574524D02*
X127064286Y-127514048D01*
X127003810Y-127453571D01*
X126943334Y-127332619D01*
X126943334Y-126969762D01*
X127003810Y-126848810D01*
X127064286Y-126788333D01*
X127185239Y-126727857D01*
X127366667Y-126727857D01*
X127487619Y-126788333D01*
X127548096Y-126848810D01*
X127608572Y-126969762D01*
X127608572Y-127332619D01*
X127548096Y-127453571D01*
X127487619Y-127514048D01*
X127366667Y-127574524D01*
X127185239Y-127574524D01*
X128031906Y-126727857D02*
X128273810Y-127574524D01*
X128515715Y-126969762D01*
X128757620Y-127574524D01*
X128999525Y-126727857D01*
X129967143Y-127514048D02*
X129846191Y-127574524D01*
X129604286Y-127574524D01*
X129483334Y-127514048D01*
X129422858Y-127393095D01*
X129422858Y-126909286D01*
X129483334Y-126788333D01*
X129604286Y-126727857D01*
X129846191Y-126727857D01*
X129967143Y-126788333D01*
X130027620Y-126909286D01*
X130027620Y-127030238D01*
X129422858Y-127151190D01*
X130571905Y-127574524D02*
X130571905Y-126727857D01*
X130571905Y-126969762D02*
X130632381Y-126848810D01*
X130692857Y-126788333D01*
X130813810Y-126727857D01*
X130934762Y-126727857D01*
X50353095Y-77074524D02*
X50353095Y-75804524D01*
X50836904Y-75804524D01*
X50957857Y-75865000D01*
X51018333Y-75925476D01*
X51078809Y-76046429D01*
X51078809Y-76227857D01*
X51018333Y-76348810D01*
X50957857Y-76409286D01*
X50836904Y-76469762D01*
X50353095Y-76469762D01*
X52288333Y-77074524D02*
X51562619Y-77074524D01*
X51925476Y-77074524D02*
X51925476Y-75804524D01*
X51804524Y-75985952D01*
X51683571Y-76106905D01*
X51562619Y-76167381D01*
X53497857Y-77074524D02*
X52772143Y-77074524D01*
X53135000Y-77074524D02*
X53135000Y-75804524D01*
X53014048Y-75985952D01*
X52893095Y-76106905D01*
X52772143Y-76167381D01*
X53921191Y-75804524D02*
X54767857Y-75804524D01*
X54223572Y-77074524D01*
X104074524Y-124146905D02*
X102804524Y-124146905D01*
X102804524Y-123663096D01*
X102865000Y-123542143D01*
X102925476Y-123481667D01*
X103046429Y-123421191D01*
X103227857Y-123421191D01*
X103348810Y-123481667D01*
X103409286Y-123542143D01*
X103469762Y-123663096D01*
X103469762Y-124146905D01*
X104074524Y-122211667D02*
X104074524Y-122937381D01*
X104074524Y-122574524D02*
X102804524Y-122574524D01*
X102985952Y-122695476D01*
X103106905Y-122816429D01*
X103167381Y-122937381D01*
X102804524Y-121425476D02*
X102804524Y-121304524D01*
X102865000Y-121183572D01*
X102925476Y-121123095D01*
X103046429Y-121062619D01*
X103288333Y-121002143D01*
X103590714Y-121002143D01*
X103832619Y-121062619D01*
X103953571Y-121123095D01*
X104014048Y-121183572D01*
X104074524Y-121304524D01*
X104074524Y-121425476D01*
X104014048Y-121546429D01*
X103953571Y-121606905D01*
X103832619Y-121667381D01*
X103590714Y-121727857D01*
X103288333Y-121727857D01*
X103046429Y-121667381D01*
X102925476Y-121606905D01*
X102865000Y-121546429D01*
X102804524Y-121425476D01*
X103227857Y-119913571D02*
X104074524Y-119913571D01*
X102744048Y-120215952D02*
X103651190Y-120518333D01*
X103651190Y-119732143D01*
X96841191Y-127574524D02*
X96841191Y-126304524D01*
X97325000Y-126304524D01*
X97445953Y-126365000D01*
X97506429Y-126425476D01*
X97566905Y-126546429D01*
X97566905Y-126727857D01*
X97506429Y-126848810D01*
X97445953Y-126909286D01*
X97325000Y-126969762D01*
X96841191Y-126969762D01*
X98111191Y-127574524D02*
X98111191Y-126304524D01*
X98655477Y-127574524D02*
X98655477Y-126909286D01*
X98595000Y-126788333D01*
X98474048Y-126727857D01*
X98292620Y-126727857D01*
X98171667Y-126788333D01*
X98111191Y-126848810D01*
X99804525Y-127574524D02*
X99804525Y-126909286D01*
X99744048Y-126788333D01*
X99623096Y-126727857D01*
X99381191Y-126727857D01*
X99260239Y-126788333D01*
X99804525Y-127514048D02*
X99683572Y-127574524D01*
X99381191Y-127574524D01*
X99260239Y-127514048D01*
X99199763Y-127393095D01*
X99199763Y-127272143D01*
X99260239Y-127151190D01*
X99381191Y-127090714D01*
X99683572Y-127090714D01*
X99804525Y-127030238D01*
X100348811Y-127514048D02*
X100469763Y-127574524D01*
X100711668Y-127574524D01*
X100832620Y-127514048D01*
X100893096Y-127393095D01*
X100893096Y-127332619D01*
X100832620Y-127211667D01*
X100711668Y-127151190D01*
X100530239Y-127151190D01*
X100409287Y-127090714D01*
X100348811Y-126969762D01*
X100348811Y-126909286D01*
X100409287Y-126788333D01*
X100530239Y-126727857D01*
X100711668Y-126727857D01*
X100832620Y-126788333D01*
X101921191Y-127514048D02*
X101800239Y-127574524D01*
X101558334Y-127574524D01*
X101437382Y-127514048D01*
X101376906Y-127393095D01*
X101376906Y-126909286D01*
X101437382Y-126788333D01*
X101558334Y-126727857D01*
X101800239Y-126727857D01*
X101921191Y-126788333D01*
X101981668Y-126909286D01*
X101981668Y-127030238D01*
X101376906Y-127151190D01*
X103916905Y-126909286D02*
X104098334Y-126969762D01*
X104158810Y-127030238D01*
X104219286Y-127151190D01*
X104219286Y-127332619D01*
X104158810Y-127453571D01*
X104098334Y-127514048D01*
X103977381Y-127574524D01*
X103493572Y-127574524D01*
X103493572Y-126304524D01*
X103916905Y-126304524D01*
X104037858Y-126365000D01*
X104098334Y-126425476D01*
X104158810Y-126546429D01*
X104158810Y-126667381D01*
X104098334Y-126788333D01*
X104037858Y-126848810D01*
X103916905Y-126909286D01*
X103493572Y-126909286D01*
X74074524Y-124146905D02*
X72804524Y-124146905D01*
X72804524Y-123663096D01*
X72865000Y-123542143D01*
X72925476Y-123481667D01*
X73046429Y-123421191D01*
X73227857Y-123421191D01*
X73348810Y-123481667D01*
X73409286Y-123542143D01*
X73469762Y-123663096D01*
X73469762Y-124146905D01*
X74074524Y-122211667D02*
X74074524Y-122937381D01*
X74074524Y-122574524D02*
X72804524Y-122574524D01*
X72985952Y-122695476D01*
X73106905Y-122816429D01*
X73167381Y-122937381D01*
X72804524Y-121425476D02*
X72804524Y-121304524D01*
X72865000Y-121183572D01*
X72925476Y-121123095D01*
X73046429Y-121062619D01*
X73288333Y-121002143D01*
X73590714Y-121002143D01*
X73832619Y-121062619D01*
X73953571Y-121123095D01*
X74014048Y-121183572D01*
X74074524Y-121304524D01*
X74074524Y-121425476D01*
X74014048Y-121546429D01*
X73953571Y-121606905D01*
X73832619Y-121667381D01*
X73590714Y-121727857D01*
X73288333Y-121727857D01*
X73046429Y-121667381D01*
X72925476Y-121606905D01*
X72865000Y-121546429D01*
X72804524Y-121425476D01*
X72804524Y-120578809D02*
X72804524Y-119792619D01*
X73288333Y-120215952D01*
X73288333Y-120034524D01*
X73348810Y-119913571D01*
X73409286Y-119853095D01*
X73530238Y-119792619D01*
X73832619Y-119792619D01*
X73953571Y-119853095D01*
X74014048Y-119913571D01*
X74074524Y-120034524D01*
X74074524Y-120397381D01*
X74014048Y-120518333D01*
X73953571Y-120578809D01*
X66431905Y-127574524D02*
X66431905Y-126304524D01*
X66915714Y-126304524D01*
X67036667Y-126365000D01*
X67097143Y-126425476D01*
X67157619Y-126546429D01*
X67157619Y-126727857D01*
X67097143Y-126848810D01*
X67036667Y-126909286D01*
X66915714Y-126969762D01*
X66431905Y-126969762D01*
X67701905Y-127574524D02*
X67701905Y-126304524D01*
X68246191Y-127574524D02*
X68246191Y-126909286D01*
X68185714Y-126788333D01*
X68064762Y-126727857D01*
X67883334Y-126727857D01*
X67762381Y-126788333D01*
X67701905Y-126848810D01*
X69395239Y-127574524D02*
X69395239Y-126909286D01*
X69334762Y-126788333D01*
X69213810Y-126727857D01*
X68971905Y-126727857D01*
X68850953Y-126788333D01*
X69395239Y-127514048D02*
X69274286Y-127574524D01*
X68971905Y-127574524D01*
X68850953Y-127514048D01*
X68790477Y-127393095D01*
X68790477Y-127272143D01*
X68850953Y-127151190D01*
X68971905Y-127090714D01*
X69274286Y-127090714D01*
X69395239Y-127030238D01*
X69939525Y-127514048D02*
X70060477Y-127574524D01*
X70302382Y-127574524D01*
X70423334Y-127514048D01*
X70483810Y-127393095D01*
X70483810Y-127332619D01*
X70423334Y-127211667D01*
X70302382Y-127151190D01*
X70120953Y-127151190D01*
X70000001Y-127090714D01*
X69939525Y-126969762D01*
X69939525Y-126909286D01*
X70000001Y-126788333D01*
X70120953Y-126727857D01*
X70302382Y-126727857D01*
X70423334Y-126788333D01*
X71511905Y-127514048D02*
X71390953Y-127574524D01*
X71149048Y-127574524D01*
X71028096Y-127514048D01*
X70967620Y-127393095D01*
X70967620Y-126909286D01*
X71028096Y-126788333D01*
X71149048Y-126727857D01*
X71390953Y-126727857D01*
X71511905Y-126788333D01*
X71572382Y-126909286D01*
X71572382Y-127030238D01*
X70967620Y-127151190D01*
X73023810Y-127211667D02*
X73628572Y-127211667D01*
X72902857Y-127574524D02*
X73326191Y-126304524D01*
X73749524Y-127574524D01*
X51574524Y-124146905D02*
X50304524Y-124146905D01*
X50304524Y-123663096D01*
X50365000Y-123542143D01*
X50425476Y-123481667D01*
X50546429Y-123421191D01*
X50727857Y-123421191D01*
X50848810Y-123481667D01*
X50909286Y-123542143D01*
X50969762Y-123663096D01*
X50969762Y-124146905D01*
X51574524Y-122211667D02*
X51574524Y-122937381D01*
X51574524Y-122574524D02*
X50304524Y-122574524D01*
X50485952Y-122695476D01*
X50606905Y-122816429D01*
X50667381Y-122937381D01*
X50304524Y-121425476D02*
X50304524Y-121304524D01*
X50365000Y-121183572D01*
X50425476Y-121123095D01*
X50546429Y-121062619D01*
X50788333Y-121002143D01*
X51090714Y-121002143D01*
X51332619Y-121062619D01*
X51453571Y-121123095D01*
X51514048Y-121183572D01*
X51574524Y-121304524D01*
X51574524Y-121425476D01*
X51514048Y-121546429D01*
X51453571Y-121606905D01*
X51332619Y-121667381D01*
X51090714Y-121727857D01*
X50788333Y-121727857D01*
X50546429Y-121667381D01*
X50425476Y-121606905D01*
X50365000Y-121546429D01*
X50304524Y-121425476D01*
X50425476Y-120518333D02*
X50365000Y-120457857D01*
X50304524Y-120336905D01*
X50304524Y-120034524D01*
X50365000Y-119913571D01*
X50425476Y-119853095D01*
X50546429Y-119792619D01*
X50667381Y-119792619D01*
X50848810Y-119853095D01*
X51574524Y-120578809D01*
X51574524Y-119792619D01*
X59601429Y-117574524D02*
X58996667Y-117574524D01*
X58996667Y-116304524D01*
X60206191Y-117574524D02*
X60085238Y-117514048D01*
X60024762Y-117453571D01*
X59964286Y-117332619D01*
X59964286Y-116969762D01*
X60024762Y-116848810D01*
X60085238Y-116788333D01*
X60206191Y-116727857D01*
X60387619Y-116727857D01*
X60508571Y-116788333D01*
X60569048Y-116848810D01*
X60629524Y-116969762D01*
X60629524Y-117332619D01*
X60569048Y-117453571D01*
X60508571Y-117514048D01*
X60387619Y-117574524D01*
X60206191Y-117574524D01*
X61718096Y-116727857D02*
X61718096Y-117755952D01*
X61657619Y-117876905D01*
X61597143Y-117937381D01*
X61476191Y-117997857D01*
X61294762Y-117997857D01*
X61173810Y-117937381D01*
X61718096Y-117514048D02*
X61597143Y-117574524D01*
X61355239Y-117574524D01*
X61234286Y-117514048D01*
X61173810Y-117453571D01*
X61113334Y-117332619D01*
X61113334Y-116969762D01*
X61173810Y-116848810D01*
X61234286Y-116788333D01*
X61355239Y-116727857D01*
X61597143Y-116727857D01*
X61718096Y-116788333D01*
X62322858Y-117574524D02*
X62322858Y-116727857D01*
X62322858Y-116304524D02*
X62262382Y-116365000D01*
X62322858Y-116425476D01*
X62383334Y-116365000D01*
X62322858Y-116304524D01*
X62322858Y-116425476D01*
X63471906Y-117514048D02*
X63350953Y-117574524D01*
X63109049Y-117574524D01*
X62988096Y-117514048D01*
X62927620Y-117453571D01*
X62867144Y-117332619D01*
X62867144Y-116969762D01*
X62927620Y-116848810D01*
X62988096Y-116788333D01*
X63109049Y-116727857D01*
X63350953Y-116727857D01*
X63471906Y-116788333D01*
X64983810Y-117574524D02*
X64983810Y-116304524D01*
X65467619Y-116304524D01*
X65588572Y-116365000D01*
X65649048Y-116425476D01*
X65709524Y-116546429D01*
X65709524Y-116727857D01*
X65649048Y-116848810D01*
X65588572Y-116909286D01*
X65467619Y-116969762D01*
X64983810Y-116969762D01*
X66435239Y-117574524D02*
X66314286Y-117514048D01*
X66253810Y-117453571D01*
X66193334Y-117332619D01*
X66193334Y-116969762D01*
X66253810Y-116848810D01*
X66314286Y-116788333D01*
X66435239Y-116727857D01*
X66616667Y-116727857D01*
X66737619Y-116788333D01*
X66798096Y-116848810D01*
X66858572Y-116969762D01*
X66858572Y-117332619D01*
X66798096Y-117453571D01*
X66737619Y-117514048D01*
X66616667Y-117574524D01*
X66435239Y-117574524D01*
X67281906Y-116727857D02*
X67523810Y-117574524D01*
X67765715Y-116969762D01*
X68007620Y-117574524D01*
X68249525Y-116727857D01*
X69217143Y-117514048D02*
X69096191Y-117574524D01*
X68854286Y-117574524D01*
X68733334Y-117514048D01*
X68672858Y-117393095D01*
X68672858Y-116909286D01*
X68733334Y-116788333D01*
X68854286Y-116727857D01*
X69096191Y-116727857D01*
X69217143Y-116788333D01*
X69277620Y-116909286D01*
X69277620Y-117030238D01*
X68672858Y-117151190D01*
X69821905Y-117574524D02*
X69821905Y-116727857D01*
X69821905Y-116969762D02*
X69882381Y-116848810D01*
X69942857Y-116788333D01*
X70063810Y-116727857D01*
X70184762Y-116727857D01*
M02*
