M48
INCH,TZ
T1C0.016
T2C0.020
T3C0.024
T4C0.032
T5C0.040
T6C0.055
T7C0.138
%
G90
G05
T1
X26969Y-29331
X26969Y-30217
X27362Y-32382
X27362Y-32874
X27559Y-29331
X27559Y-30217
X28051Y-33366
X29724Y-29134
X30118Y-44291
X31496Y-24803
X31496Y-25591
X31496Y-26378
X31496Y-27165
X31496Y-27953
X31496Y-29134
X31496Y-30217
X31496Y-32087
X31496Y-32677
X31496Y-33268
X31496Y-35236
X31496Y-35925
X31496Y-36614
X31496Y-37303
X31496Y-37992
X31496Y-44291
X32480Y-44291
X33760Y-44291
X33858Y-36024
X33858Y-36614
X33858Y-37205
X33858Y-37795
X34449Y-36024
X34941Y-33366
X35039Y-36024
X35630Y-32185
X35630Y-32776
X35630Y-33366
X38780Y-29331
X38780Y-30217
X39173Y-32185
X39173Y-32776
X39173Y-33366
X39370Y-29331
X39370Y-30217
X39862Y-33366
X39862Y-36024
X40354Y-36024
X40945Y-36024
X40945Y-36614
X40945Y-37205
X40945Y-37795
X41142Y-44291
X41535Y-29134
X42421Y-44291
X43307Y-24803
X43307Y-25591
X43307Y-26378
X43307Y-27165
X43307Y-27953
X43307Y-29134
X43307Y-30217
X43307Y-32087
X43307Y-32677
X43307Y-33268
X43307Y-35236
X43307Y-35925
X43307Y-36614
X43307Y-37303
X43307Y-37992
X43406Y-44291
X44685Y-44291
X46752Y-33366
X47441Y-32185
X47441Y-32776
X47441Y-33366
T2
X25787Y-32677
X26181Y-33957
X26181Y-34547
X26280Y-32677
X26772Y-33957
X26772Y-34547
X29025Y-29675
X36811Y-30709
X36909Y-31496
X37106Y-33957
X37106Y-34547
X37205Y-30709
X37402Y-31496
X37697Y-33957
X37697Y-34547
X38681Y-28445
X40157Y-45276
X40837Y-29675
X48917Y-33957
X48917Y-34547
X49508Y-33957
X49508Y-34547
T3
X35039Y-46063
X35630Y-46063
X36220Y-46063
X36417Y-37500
X36417Y-38091
X36417Y-38681
X36417Y-39272
X36417Y-39862
X36417Y-40453
X36811Y-46063
X36909Y-36220
X36909Y-36811
X36909Y-37500
X36909Y-38091
X36909Y-38681
X36909Y-39272
X36909Y-39862
X36909Y-40453
X36909Y-41142
X36909Y-41732
X37402Y-36220
X37402Y-36811
X37402Y-37500
X37402Y-38091
X37402Y-38681
X37402Y-39272
X37402Y-39862
X37402Y-40453
X37402Y-41142
X37402Y-41732
X37402Y-46063
X37894Y-36220
X37894Y-36811
X37894Y-37500
X37894Y-38091
X37894Y-38681
X37894Y-39272
X37894Y-39862
X37894Y-40453
X37894Y-41142
X37894Y-41732
X37992Y-46063
X38386Y-37500
X38386Y-38091
X38386Y-38681
X38386Y-39272
X38386Y-39862
X38386Y-40453
X38583Y-46063
X39173Y-46063
X39764Y-46063
T4
X24508Y-27657
X24508Y-35531
X47441Y-28701
X47441Y-36614
T5
X21252Y-46752
X22252Y-46752
X23228Y-31087
X23228Y-32087
X23228Y-33087
X29996Y-46752
X30996Y-46752
X31996Y-46752
X32996Y-46752
X41906Y-46752
X42906Y-46752
X43906Y-46752
X44906Y-46752
X52650Y-46752
X53650Y-46752
T6
X21260Y-25787
X21260Y-27756
X30512Y-25984
X32480Y-25984
X42323Y-25984
X44291Y-25984
X53543Y-25787
X53543Y-27756
T7
X25984Y-26378
X25984Y-48031
X48819Y-26378
X48917Y-48031
T0
M30
