G04 #@! TF.FileFunction,Soldermask,Top*
%FSLAX46Y46*%
G04 Gerber Fmt 4.6, Leading zero omitted, Abs format (unit mm)*
G04 Created by KiCad (PCBNEW 4.0.6-e0-6349~53~ubuntu16.04.1) date Thu May 25 23:24:03 2017*
%MOMM*%
%LPD*%
G01*
G04 APERTURE LIST*
%ADD10C,0.100000*%
%ADD11C,1.998980*%
%ADD12R,1.400000X2.100000*%
%ADD13R,1.498600X1.300480*%
%ADD14R,1.143000X0.635000*%
%ADD15R,1.699260X0.759460*%
%ADD16R,6.398260X9.999980*%
%ADD17R,3.398520X16.098520*%
%ADD18R,1.399540X0.599440*%
%ADD19R,2.799080X4.000500*%
%ADD20O,4.200000X2.100000*%
%ADD21O,2.100000X4.200000*%
%ADD22R,0.899160X1.000760*%
%ADD23R,1.600000X1.000000*%
%ADD24R,2.032000X2.032000*%
%ADD25O,2.032000X2.032000*%
%ADD26R,2.032000X1.727200*%
%ADD27O,2.032000X1.727200*%
%ADD28R,1.727200X2.032000*%
%ADD29O,1.727200X2.032000*%
G04 APERTURE END LIST*
D10*
D11*
X120500000Y-93000000D03*
X120500000Y-72900000D03*
X62250000Y-90250000D03*
X62250000Y-70250000D03*
D12*
X118700000Y-82500000D03*
X114300000Y-82500000D03*
X101300000Y-82500000D03*
X105700000Y-82500000D03*
X105700000Y-87000000D03*
X101300000Y-87000000D03*
X88700000Y-82500000D03*
X84300000Y-82500000D03*
X71300000Y-82500000D03*
X75700000Y-82500000D03*
X75700000Y-87000000D03*
X71300000Y-87000000D03*
X84300000Y-87000000D03*
X88700000Y-87000000D03*
X114300000Y-87000000D03*
X118700000Y-87000000D03*
D13*
X104250000Y-109952500D03*
X104250000Y-108047500D03*
X77750000Y-101047500D03*
X77750000Y-102952500D03*
D14*
X64300000Y-73762000D03*
X64300000Y-72238000D03*
X64300000Y-75238000D03*
X64300000Y-76762000D03*
X94000000Y-73762000D03*
X94000000Y-72238000D03*
X94000000Y-75238000D03*
X94000000Y-76762000D03*
D15*
X88154700Y-93285000D03*
X88152160Y-94555000D03*
X88152160Y-95825000D03*
X88152160Y-97095000D03*
X88152160Y-98365000D03*
X88152160Y-99635000D03*
X88152160Y-100905000D03*
X88152160Y-102175000D03*
D16*
X95000000Y-99000000D03*
D15*
X88154700Y-104715000D03*
X88152160Y-103445000D03*
X101847840Y-104715000D03*
X101847840Y-103445000D03*
X101847840Y-102175000D03*
X101847840Y-100905000D03*
X101847840Y-99635000D03*
X101847840Y-98365000D03*
X101847840Y-97095000D03*
X101847840Y-95825000D03*
X101847840Y-94555000D03*
X101845300Y-93285000D03*
D17*
X95000000Y-99000000D03*
D18*
X66633000Y-77905000D03*
X71967000Y-77905000D03*
X66633000Y-76635000D03*
X66633000Y-75365000D03*
X66633000Y-74095000D03*
X71967000Y-76635000D03*
X71967000Y-75365000D03*
X71967000Y-74095000D03*
D19*
X69300000Y-76000000D03*
D18*
X96633000Y-77905000D03*
X101967000Y-77905000D03*
X96633000Y-76635000D03*
X96633000Y-75365000D03*
X96633000Y-74095000D03*
X101967000Y-76635000D03*
X101967000Y-75365000D03*
X101967000Y-74095000D03*
D19*
X99300000Y-76000000D03*
D20*
X136000000Y-65500000D03*
X136000000Y-70500000D03*
D21*
X77500000Y-66000000D03*
X82500000Y-66000000D03*
X107500000Y-66000000D03*
X112500000Y-66000000D03*
D20*
X54000000Y-70500000D03*
X54000000Y-65500000D03*
D22*
X66648160Y-80300000D03*
X68151840Y-80300000D03*
X96648160Y-80300000D03*
X98151840Y-80300000D03*
D23*
X107500000Y-75750000D03*
X107500000Y-78750000D03*
X77500000Y-75750000D03*
X77500000Y-78750000D03*
D24*
X133730000Y-118750000D03*
D25*
X136270000Y-118750000D03*
D26*
X59000000Y-78960000D03*
D27*
X59000000Y-81500000D03*
X59000000Y-84040000D03*
D28*
X106440000Y-118750000D03*
D29*
X108980000Y-118750000D03*
X111520000Y-118750000D03*
X114060000Y-118750000D03*
D28*
X76190000Y-118750000D03*
D29*
X78730000Y-118750000D03*
X81270000Y-118750000D03*
X83810000Y-118750000D03*
D24*
X53980000Y-118750000D03*
D25*
X56520000Y-118750000D03*
M02*
