G04 #@! TF.FileFunction,Copper,L2,Bot,Signal*
%FSLAX46Y46*%
G04 Gerber Fmt 4.6, Leading zero omitted, Abs format (unit mm)*
G04 Created by KiCad (PCBNEW 4.0.6-e0-6349~53~ubuntu16.04.1) date Thu May 25 23:24:03 2017*
%MOMM*%
%LPD*%
G01*
G04 APERTURE LIST*
%ADD10C,0.100000*%
%ADD11C,1.998980*%
%ADD12O,4.200000X2.100000*%
%ADD13O,2.100000X4.200000*%
%ADD14R,2.032000X2.032000*%
%ADD15O,2.032000X2.032000*%
%ADD16R,2.032000X1.727200*%
%ADD17O,2.032000X1.727200*%
%ADD18R,1.727200X2.032000*%
%ADD19O,1.727200X2.032000*%
%ADD20C,0.600000*%
%ADD21C,0.800000*%
%ADD22C,0.914000*%
%ADD23C,0.254000*%
%ADD24C,0.508000*%
%ADD25C,0.758000*%
%ADD26C,1.200000*%
%ADD27C,1.524000*%
%ADD28C,3.000000*%
%ADD29C,0.200000*%
G04 APERTURE END LIST*
D10*
D11*
X120500000Y-93000000D03*
X120500000Y-72900000D03*
X62250000Y-90250000D03*
X62250000Y-70250000D03*
D12*
X136000000Y-65500000D03*
X136000000Y-70500000D03*
D13*
X77500000Y-66000000D03*
X82500000Y-66000000D03*
X107500000Y-66000000D03*
X112500000Y-66000000D03*
D12*
X54000000Y-70500000D03*
X54000000Y-65500000D03*
D14*
X133730000Y-118750000D03*
D15*
X136270000Y-118750000D03*
D16*
X59000000Y-78960000D03*
D17*
X59000000Y-81500000D03*
X59000000Y-84040000D03*
D18*
X106440000Y-118750000D03*
D19*
X108980000Y-118750000D03*
X111520000Y-118750000D03*
X114060000Y-118750000D03*
D18*
X76190000Y-118750000D03*
D19*
X78730000Y-118750000D03*
X81270000Y-118750000D03*
X83810000Y-118750000D03*
D14*
X53980000Y-118750000D03*
D15*
X56520000Y-118750000D03*
D20*
X113500000Y-112500000D03*
X104500000Y-112500000D03*
X107750000Y-112500000D03*
X110250000Y-112500000D03*
X80000000Y-112500000D03*
X82500000Y-112500000D03*
X85750000Y-112500000D03*
X76500000Y-112500000D03*
D21*
X96250000Y-104500000D03*
X95000000Y-104500000D03*
X93750000Y-104500000D03*
X96250000Y-106000000D03*
X95000000Y-106000000D03*
X93750000Y-106000000D03*
X93750000Y-95250000D03*
X92500000Y-95250000D03*
X96250000Y-93500000D03*
X95000000Y-93500000D03*
X93750000Y-93500000D03*
X96250000Y-92000000D03*
X95000000Y-92000000D03*
X93750000Y-92000000D03*
X95000000Y-95250000D03*
X96250000Y-95250000D03*
X97500000Y-95250000D03*
X97500000Y-96750000D03*
X97500000Y-98250000D03*
X97500000Y-99750000D03*
X97500000Y-101250000D03*
X97500000Y-102750000D03*
X96250000Y-102750000D03*
X95000000Y-102750000D03*
X93750000Y-102750000D03*
X92500000Y-102750000D03*
X92500000Y-101250000D03*
X93750000Y-101250000D03*
X95000000Y-101250000D03*
X96250000Y-101250000D03*
X96250000Y-99750000D03*
X95000000Y-99750000D03*
X93750000Y-99750000D03*
X92500000Y-99750000D03*
X92500000Y-98250000D03*
X93750000Y-98250000D03*
X95000000Y-98250000D03*
X96250000Y-98250000D03*
X96250000Y-96750000D03*
X95000000Y-96750000D03*
X93750000Y-96750000D03*
X92500000Y-96750000D03*
D20*
X80000000Y-83000000D03*
X80000000Y-84500000D03*
X80000000Y-81500000D03*
X80000000Y-76750000D03*
X80000000Y-89500000D03*
X80000000Y-91250000D03*
X80000000Y-93000000D03*
X80000000Y-94750000D03*
X80000000Y-96500000D03*
X80000000Y-74000000D03*
X80000000Y-63000000D03*
X80000000Y-65000000D03*
X80000000Y-67000000D03*
X80000000Y-69000000D03*
X80000000Y-71000000D03*
X110000000Y-96500000D03*
X110000000Y-94750000D03*
X110000000Y-93000000D03*
X110000000Y-91250000D03*
X110000000Y-89500000D03*
X110000000Y-84500000D03*
X110000000Y-83000000D03*
X110000000Y-71000000D03*
X110000000Y-69000000D03*
X110000000Y-67000000D03*
X110000000Y-65000000D03*
X110000000Y-63000000D03*
X110000000Y-76750000D03*
X110000000Y-81500000D03*
X105500000Y-74000000D03*
X110000000Y-74000000D03*
X75500000Y-74000000D03*
X70000000Y-76750000D03*
X68500000Y-76750000D03*
X68500000Y-74500000D03*
X70000000Y-74500000D03*
X100000000Y-74500000D03*
X98500000Y-74500000D03*
X98500000Y-76750000D03*
X100000000Y-76750000D03*
X88750000Y-84750000D03*
X90500000Y-84750000D03*
X90500000Y-83250000D03*
X90500000Y-81750000D03*
X101250000Y-84750000D03*
X99500000Y-84750000D03*
X99500000Y-83250000D03*
X99500000Y-81750000D03*
X120500000Y-81750000D03*
X120500000Y-83250000D03*
X120500000Y-84750000D03*
X118750000Y-84750000D03*
X71250000Y-84750000D03*
X69500000Y-83500000D03*
X69500000Y-82250000D03*
X86000000Y-94500000D03*
X86000000Y-96000000D03*
X86000000Y-93000000D03*
X86000000Y-91500000D03*
X87500000Y-91500000D03*
X89000000Y-91500000D03*
X104000000Y-94500000D03*
X104000000Y-96000000D03*
X104000000Y-93000000D03*
X104000000Y-91500000D03*
X102500000Y-91500000D03*
X101250000Y-91500000D03*
D21*
X95000000Y-117000000D03*
X89000000Y-117000000D03*
X90500000Y-117000000D03*
X92000000Y-117000000D03*
X93500000Y-117000000D03*
X101000000Y-117000000D03*
X99500000Y-117000000D03*
X98000000Y-117000000D03*
X96500000Y-117000000D03*
D22*
X95000000Y-80000000D03*
X102000000Y-115000000D03*
X66750000Y-83000000D03*
X65500000Y-83000000D03*
X93750000Y-80000000D03*
X95750000Y-87750000D03*
X94250000Y-87750000D03*
X94250000Y-86250000D03*
X95750000Y-86250000D03*
X68000000Y-86250000D03*
X66500000Y-86250000D03*
X66500000Y-87750000D03*
X68000000Y-87750000D03*
X125750000Y-86250000D03*
X124250000Y-86250000D03*
X124250000Y-87750000D03*
X125750000Y-87750000D03*
X93500000Y-78000000D03*
X94500000Y-78000000D03*
X103725000Y-75375000D03*
X73723500Y-75374500D03*
X98250000Y-72250000D03*
D23*
X110250000Y-112500000D02*
X107750000Y-112500000D01*
X104500000Y-112500000D02*
X107750000Y-112500000D01*
X113500000Y-112500000D02*
X110250000Y-112500000D01*
X80000000Y-112500000D02*
X76500000Y-112500000D01*
X85750000Y-112500000D02*
X82500000Y-112500000D01*
X80000000Y-112500000D02*
X82500000Y-112500000D01*
D24*
X93750000Y-102750000D02*
X93750000Y-104500000D01*
X95000000Y-104500000D02*
X96250000Y-104500000D01*
X96250000Y-106000000D02*
X95000000Y-106000000D01*
X93750000Y-95250000D02*
X92500000Y-95250000D01*
X93750000Y-95250000D02*
X93750000Y-93500000D01*
X95000000Y-93500000D02*
X96250000Y-93500000D01*
X96250000Y-92000000D02*
X95000000Y-92000000D01*
D25*
X93750000Y-95250000D02*
X95000000Y-95250000D01*
X96250000Y-95250000D02*
X97500000Y-95250000D01*
X97500000Y-96750000D02*
X97500000Y-98250000D01*
X97500000Y-99750000D02*
X97500000Y-101250000D01*
X97500000Y-102750000D02*
X96250000Y-102750000D01*
X95000000Y-102750000D02*
X93750000Y-102750000D01*
X92500000Y-102750000D02*
X92500000Y-101250000D01*
X93750000Y-101250000D02*
X95000000Y-101250000D01*
X96250000Y-101250000D02*
X96250000Y-99750000D01*
X95000000Y-99750000D02*
X93750000Y-99750000D01*
X92500000Y-99750000D02*
X92500000Y-98250000D01*
X93750000Y-98250000D02*
X95000000Y-98250000D01*
X96250000Y-98250000D02*
X96250000Y-96750000D01*
X95000000Y-96750000D02*
X93750000Y-96750000D01*
X59152400Y-81540000D02*
X59292400Y-81400000D01*
X59000000Y-81540000D02*
X59152400Y-81540000D01*
D23*
X80000000Y-83000000D02*
X80000000Y-84500000D01*
X80000000Y-83000000D02*
X80000000Y-84500000D01*
X80000000Y-81500000D02*
X80000000Y-83000000D01*
X80000000Y-89500000D02*
X80000000Y-91250000D01*
X80000000Y-93000000D02*
X80000000Y-94750000D01*
X80000000Y-65000000D02*
X80000000Y-63000000D01*
X80000000Y-69000000D02*
X80000000Y-67000000D01*
X110000000Y-93000000D02*
X110000000Y-94750000D01*
X110000000Y-89500000D02*
X110000000Y-91250000D01*
X110000000Y-83000000D02*
X110000000Y-84500000D01*
X110000000Y-83000000D02*
X110000000Y-84500000D01*
X110000000Y-81500000D02*
X110000000Y-83000000D01*
X110000000Y-69000000D02*
X110000000Y-67000000D01*
X110000000Y-65000000D02*
X110000000Y-63000000D01*
X110000000Y-74000000D02*
X105500000Y-74000000D01*
X80000000Y-74000000D02*
X75500000Y-74000000D01*
X68500000Y-76750000D02*
X70000000Y-76750000D01*
X70000000Y-74500000D02*
X68500000Y-74500000D01*
X100000000Y-74500000D02*
X98500000Y-74500000D01*
X98500000Y-76750000D02*
X100000000Y-76750000D01*
X88750000Y-84750000D02*
X90500000Y-84750000D01*
X90500000Y-83250000D02*
X90500000Y-81750000D01*
X101250000Y-84750000D02*
X99500000Y-84750000D01*
X99500000Y-83250000D02*
X99500000Y-81750000D01*
X120500000Y-83250000D02*
X120500000Y-81750000D01*
X118750000Y-84750000D02*
X120500000Y-84750000D01*
X71250000Y-84750000D02*
X70250000Y-84750000D01*
X70250000Y-84750000D02*
X69500000Y-84000000D01*
X69500000Y-84000000D02*
X69500000Y-83500000D01*
X86000000Y-94500000D02*
X86000000Y-96000000D01*
X86000000Y-93000000D02*
X86000000Y-91500000D01*
X87500000Y-91500000D02*
X89000000Y-91500000D01*
X104000000Y-94500000D02*
X104000000Y-96000000D01*
X104000000Y-93000000D02*
X104000000Y-91500000D01*
X102500000Y-91500000D02*
X101250000Y-91500000D01*
X92000000Y-117000000D02*
X90500000Y-117000000D01*
X101000000Y-117000000D02*
X93500000Y-117000000D01*
X98000000Y-117000000D02*
X99500000Y-117000000D01*
X96500000Y-117000000D02*
X95000000Y-117000000D01*
D26*
X56500000Y-91000000D02*
X56520000Y-91020000D01*
X56520000Y-91020000D02*
X56520000Y-115000000D01*
X64500000Y-83000000D02*
X56500000Y-91000000D01*
X136250000Y-115000000D02*
X136250000Y-119000000D01*
X125000000Y-80000000D02*
X134250000Y-80000000D01*
X136250000Y-82000000D02*
X136250000Y-115000000D01*
X134250000Y-80000000D02*
X136250000Y-82000000D01*
X65500000Y-83000000D02*
X66750000Y-83000000D01*
X93750000Y-80000000D02*
X95000000Y-80000000D01*
X123750000Y-80000000D02*
X125000000Y-80000000D01*
X123000000Y-80000000D02*
X123750000Y-80000000D01*
X95000000Y-80000000D02*
X123750000Y-80000000D01*
X125146295Y-80000000D02*
X125000000Y-80000000D01*
X56520000Y-115000000D02*
X102000000Y-115000000D01*
X56520000Y-118750000D02*
X56520000Y-115000000D01*
X66750000Y-83000000D02*
X69750000Y-80000000D01*
X69750000Y-80000000D02*
X93103705Y-80000000D01*
X93103705Y-80000000D02*
X93750000Y-80000000D01*
X136250000Y-119000000D02*
X136270000Y-118750000D01*
X102000000Y-115000000D02*
X136250000Y-115000000D01*
X64500000Y-83000000D02*
X65500000Y-83000000D01*
D27*
X95000000Y-87750000D02*
X95750000Y-87750000D01*
X94250000Y-87750000D02*
X95000000Y-87750000D01*
X95000000Y-86250000D02*
X94250000Y-86250000D01*
X95750000Y-86250000D02*
X95000000Y-86250000D01*
X95000000Y-87000000D02*
X95000000Y-86250000D01*
X95000000Y-87750000D02*
X95000000Y-87000000D01*
X67250000Y-87750000D02*
X67250000Y-86250000D01*
X68000000Y-86250000D02*
X67250000Y-86250000D01*
X67250000Y-86250000D02*
X66500000Y-86250000D01*
X66500000Y-87750000D02*
X67250000Y-87750000D01*
X67400000Y-87750000D02*
X68000000Y-87750000D01*
X67250000Y-87750000D02*
X67400000Y-87750000D01*
X67400000Y-87000000D02*
X67400000Y-87750000D01*
X67200000Y-87000000D02*
X67400000Y-87000000D01*
D28*
X95000000Y-87000000D02*
X67200000Y-87000000D01*
X125000000Y-87000000D02*
X95750000Y-87000000D01*
D27*
X125000000Y-87750000D02*
X125000000Y-87000000D01*
X125000000Y-87000000D02*
X125000000Y-86250000D01*
X125750000Y-86250000D02*
X125000000Y-86250000D01*
X125000000Y-86250000D02*
X124250000Y-86250000D01*
X124250000Y-87750000D02*
X125000000Y-87750000D01*
X125000000Y-87750000D02*
X125750000Y-87750000D01*
D25*
X63600000Y-81400000D02*
X61000000Y-84000000D01*
X89103705Y-78000000D02*
X67000000Y-78000000D01*
X63600000Y-81400000D02*
X67000000Y-78000000D01*
X61000000Y-84000000D02*
X59040000Y-84000000D01*
X59040000Y-84000000D02*
X59000000Y-84040000D01*
X93500000Y-78000000D02*
X94500000Y-78000000D01*
X92853705Y-78000000D02*
X93500000Y-78000000D01*
X89000000Y-78000000D02*
X92853705Y-78000000D01*
D24*
X59000000Y-78960000D02*
X59000000Y-76460000D01*
X103724500Y-75374500D02*
X103725000Y-75375000D01*
X73723500Y-75374500D02*
X103724500Y-75374500D01*
X73723500Y-75374500D02*
X60085500Y-75374500D01*
X60085500Y-75374500D02*
X59000000Y-76460000D01*
D25*
X119170000Y-72920000D02*
X118500000Y-72250000D01*
X118500000Y-72250000D02*
X98250000Y-72250000D01*
X120500000Y-72920000D02*
X119170000Y-72920000D01*
D23*
G36*
X96623000Y-88623000D02*
X93377000Y-88623000D01*
X93377000Y-85377000D01*
X96623000Y-85377000D01*
X96623000Y-88623000D01*
X96623000Y-88623000D01*
G37*
X96623000Y-88623000D02*
X93377000Y-88623000D01*
X93377000Y-85377000D01*
X96623000Y-85377000D01*
X96623000Y-88623000D01*
G36*
X68873000Y-88623000D02*
X65627000Y-88623000D01*
X65627000Y-85377000D01*
X68873000Y-85377000D01*
X68873000Y-88623000D01*
X68873000Y-88623000D01*
G37*
X68873000Y-88623000D02*
X65627000Y-88623000D01*
X65627000Y-85377000D01*
X68873000Y-85377000D01*
X68873000Y-88623000D01*
D29*
G36*
X126650000Y-88650000D02*
X123350000Y-88650000D01*
X123350000Y-85350000D01*
X126650000Y-85350000D01*
X126650000Y-88650000D01*
X126650000Y-88650000D01*
G37*
X126650000Y-88650000D02*
X123350000Y-88650000D01*
X123350000Y-85350000D01*
X126650000Y-85350000D01*
X126650000Y-88650000D01*
D23*
G36*
X135123000Y-113873000D02*
X127377000Y-113873000D01*
X127377000Y-89377000D01*
X127377000Y-84623000D01*
X122623000Y-84623000D01*
X122623000Y-84973000D01*
X97377000Y-84973000D01*
X97377000Y-84623000D01*
X92623000Y-84623000D01*
X92623000Y-84973000D01*
X69627000Y-84973000D01*
X69627000Y-84623000D01*
X64873000Y-84623000D01*
X64873000Y-89377000D01*
X69627000Y-89377000D01*
X69627000Y-89027000D01*
X92623000Y-89027000D01*
X92623000Y-89377000D01*
X97377000Y-89377000D01*
X97377000Y-89027000D01*
X122623000Y-89027000D01*
X122623000Y-89377000D01*
X127377000Y-89377000D01*
X127377000Y-113873000D01*
X122026555Y-113873000D01*
X122026555Y-92850320D01*
X121968409Y-92556661D01*
X121854332Y-92279889D01*
X121688669Y-92030545D01*
X121477729Y-91818128D01*
X121229549Y-91650728D01*
X120953579Y-91534721D01*
X120660334Y-91474527D01*
X120360981Y-91472437D01*
X120066923Y-91528531D01*
X119789361Y-91640674D01*
X119538867Y-91804592D01*
X119324983Y-92014044D01*
X119155854Y-92261050D01*
X119037924Y-92536202D01*
X118975683Y-92829020D01*
X118971504Y-93128351D01*
X119025544Y-93422794D01*
X119135746Y-93701132D01*
X119297911Y-93952764D01*
X119505864Y-94168105D01*
X119751684Y-94338954D01*
X120026006Y-94458803D01*
X120318383Y-94523086D01*
X120617677Y-94529355D01*
X120912490Y-94477372D01*
X121191590Y-94369116D01*
X121444348Y-94208711D01*
X121661137Y-94002266D01*
X121833697Y-93757646D01*
X121955458Y-93484166D01*
X122021781Y-93192246D01*
X122026555Y-92850320D01*
X122026555Y-113873000D01*
X102000000Y-113873000D01*
X97377000Y-113873000D01*
X69627000Y-113873000D01*
X63776555Y-113873000D01*
X63776555Y-90100320D01*
X63718409Y-89806661D01*
X63604332Y-89529889D01*
X63438669Y-89280545D01*
X63227729Y-89068128D01*
X62979549Y-88900728D01*
X62703579Y-88784721D01*
X62410334Y-88724527D01*
X62110981Y-88722437D01*
X61816923Y-88778531D01*
X61539361Y-88890674D01*
X61288867Y-89054592D01*
X61074983Y-89264044D01*
X60905854Y-89511050D01*
X60787924Y-89786202D01*
X60725683Y-90079020D01*
X60721504Y-90378351D01*
X60775544Y-90672794D01*
X60885746Y-90951132D01*
X61047911Y-91202764D01*
X61255864Y-91418105D01*
X61501684Y-91588954D01*
X61776006Y-91708803D01*
X62068383Y-91773086D01*
X62367677Y-91779355D01*
X62662490Y-91727372D01*
X62941590Y-91619116D01*
X63194348Y-91458711D01*
X63411137Y-91252266D01*
X63583697Y-91007646D01*
X63705458Y-90734166D01*
X63771781Y-90442246D01*
X63776555Y-90100320D01*
X63776555Y-113873000D01*
X57647000Y-113873000D01*
X57647000Y-91446818D01*
X64966818Y-84127000D01*
X65500000Y-84127000D01*
X66750000Y-84127000D01*
X66853558Y-84116845D01*
X66957313Y-84107768D01*
X66963005Y-84106114D01*
X66968902Y-84105536D01*
X67068499Y-84075465D01*
X67168532Y-84046404D01*
X67173798Y-84043674D01*
X67179466Y-84041963D01*
X67271356Y-83993104D01*
X67363808Y-83945181D01*
X67368437Y-83941485D01*
X67373672Y-83938702D01*
X67454365Y-83872890D01*
X67535705Y-83807958D01*
X67543949Y-83799827D01*
X67544123Y-83799686D01*
X67544255Y-83799525D01*
X67546909Y-83796909D01*
X70216818Y-81127000D01*
X93103705Y-81127000D01*
X93750000Y-81127000D01*
X95000000Y-81127000D01*
X123000000Y-81127000D01*
X123750000Y-81127000D01*
X125000000Y-81127000D01*
X125146295Y-81127000D01*
X133783182Y-81127000D01*
X135123000Y-82466818D01*
X135123000Y-113873000D01*
X135123000Y-113873000D01*
G37*
X135123000Y-113873000D02*
X127377000Y-113873000D01*
X127377000Y-89377000D01*
X127377000Y-84623000D01*
X122623000Y-84623000D01*
X122623000Y-84973000D01*
X97377000Y-84973000D01*
X97377000Y-84623000D01*
X92623000Y-84623000D01*
X92623000Y-84973000D01*
X69627000Y-84973000D01*
X69627000Y-84623000D01*
X64873000Y-84623000D01*
X64873000Y-89377000D01*
X69627000Y-89377000D01*
X69627000Y-89027000D01*
X92623000Y-89027000D01*
X92623000Y-89377000D01*
X97377000Y-89377000D01*
X97377000Y-89027000D01*
X122623000Y-89027000D01*
X122623000Y-89377000D01*
X127377000Y-89377000D01*
X127377000Y-113873000D01*
X122026555Y-113873000D01*
X122026555Y-92850320D01*
X121968409Y-92556661D01*
X121854332Y-92279889D01*
X121688669Y-92030545D01*
X121477729Y-91818128D01*
X121229549Y-91650728D01*
X120953579Y-91534721D01*
X120660334Y-91474527D01*
X120360981Y-91472437D01*
X120066923Y-91528531D01*
X119789361Y-91640674D01*
X119538867Y-91804592D01*
X119324983Y-92014044D01*
X119155854Y-92261050D01*
X119037924Y-92536202D01*
X118975683Y-92829020D01*
X118971504Y-93128351D01*
X119025544Y-93422794D01*
X119135746Y-93701132D01*
X119297911Y-93952764D01*
X119505864Y-94168105D01*
X119751684Y-94338954D01*
X120026006Y-94458803D01*
X120318383Y-94523086D01*
X120617677Y-94529355D01*
X120912490Y-94477372D01*
X121191590Y-94369116D01*
X121444348Y-94208711D01*
X121661137Y-94002266D01*
X121833697Y-93757646D01*
X121955458Y-93484166D01*
X122021781Y-93192246D01*
X122026555Y-92850320D01*
X122026555Y-113873000D01*
X102000000Y-113873000D01*
X97377000Y-113873000D01*
X69627000Y-113873000D01*
X63776555Y-113873000D01*
X63776555Y-90100320D01*
X63718409Y-89806661D01*
X63604332Y-89529889D01*
X63438669Y-89280545D01*
X63227729Y-89068128D01*
X62979549Y-88900728D01*
X62703579Y-88784721D01*
X62410334Y-88724527D01*
X62110981Y-88722437D01*
X61816923Y-88778531D01*
X61539361Y-88890674D01*
X61288867Y-89054592D01*
X61074983Y-89264044D01*
X60905854Y-89511050D01*
X60787924Y-89786202D01*
X60725683Y-90079020D01*
X60721504Y-90378351D01*
X60775544Y-90672794D01*
X60885746Y-90951132D01*
X61047911Y-91202764D01*
X61255864Y-91418105D01*
X61501684Y-91588954D01*
X61776006Y-91708803D01*
X62068383Y-91773086D01*
X62367677Y-91779355D01*
X62662490Y-91727372D01*
X62941590Y-91619116D01*
X63194348Y-91458711D01*
X63411137Y-91252266D01*
X63583697Y-91007646D01*
X63705458Y-90734166D01*
X63771781Y-90442246D01*
X63776555Y-90100320D01*
X63776555Y-113873000D01*
X57647000Y-113873000D01*
X57647000Y-91446818D01*
X64966818Y-84127000D01*
X65500000Y-84127000D01*
X66750000Y-84127000D01*
X66853558Y-84116845D01*
X66957313Y-84107768D01*
X66963005Y-84106114D01*
X66968902Y-84105536D01*
X67068499Y-84075465D01*
X67168532Y-84046404D01*
X67173798Y-84043674D01*
X67179466Y-84041963D01*
X67271356Y-83993104D01*
X67363808Y-83945181D01*
X67368437Y-83941485D01*
X67373672Y-83938702D01*
X67454365Y-83872890D01*
X67535705Y-83807958D01*
X67543949Y-83799827D01*
X67544123Y-83799686D01*
X67544255Y-83799525D01*
X67546909Y-83796909D01*
X70216818Y-81127000D01*
X93103705Y-81127000D01*
X93750000Y-81127000D01*
X95000000Y-81127000D01*
X123000000Y-81127000D01*
X123750000Y-81127000D01*
X125000000Y-81127000D01*
X125146295Y-81127000D01*
X133783182Y-81127000D01*
X135123000Y-82466818D01*
X135123000Y-113873000D01*
G36*
X140423000Y-126971781D02*
X140393185Y-127275855D01*
X140313071Y-127541206D01*
X140182942Y-127785943D01*
X140007754Y-128000744D01*
X139794185Y-128177425D01*
X139550365Y-128309258D01*
X139285576Y-128391224D01*
X138983258Y-128423000D01*
X138664730Y-128423000D01*
X138664730Y-65981528D01*
X138664730Y-65018472D01*
X138574918Y-64749281D01*
X138399159Y-64466209D01*
X138171553Y-64222865D01*
X137900846Y-64028601D01*
X137597442Y-63890882D01*
X137273000Y-63815000D01*
X136223000Y-63815000D01*
X136223000Y-65277000D01*
X138559871Y-65277000D01*
X138664730Y-65018472D01*
X138664730Y-65981528D01*
X138559871Y-65723000D01*
X136223000Y-65723000D01*
X136223000Y-67185000D01*
X137273000Y-67185000D01*
X137597442Y-67109118D01*
X137900846Y-66971399D01*
X138171553Y-66777135D01*
X138399159Y-66533791D01*
X138574918Y-66250719D01*
X138664730Y-65981528D01*
X138664730Y-128423000D01*
X138639673Y-128423000D01*
X138639673Y-70511009D01*
X138611778Y-70204500D01*
X138524880Y-69909245D01*
X138382288Y-69636493D01*
X138189434Y-69396631D01*
X137953664Y-69198796D01*
X137683957Y-69050524D01*
X137390588Y-68957461D01*
X137084729Y-68923154D01*
X137062711Y-68923000D01*
X135777000Y-68923000D01*
X135777000Y-67185000D01*
X135777000Y-65723000D01*
X135777000Y-65277000D01*
X135777000Y-63815000D01*
X134727000Y-63815000D01*
X134402558Y-63890882D01*
X134099154Y-64028601D01*
X133828447Y-64222865D01*
X133600841Y-64466209D01*
X133425082Y-64749281D01*
X133335270Y-65018472D01*
X133440129Y-65277000D01*
X135777000Y-65277000D01*
X135777000Y-65723000D01*
X133440129Y-65723000D01*
X133335270Y-65981528D01*
X133425082Y-66250719D01*
X133600841Y-66533791D01*
X133828447Y-66777135D01*
X134099154Y-66971399D01*
X134402558Y-67109118D01*
X134727000Y-67185000D01*
X135777000Y-67185000D01*
X135777000Y-68923000D01*
X134937289Y-68923000D01*
X134630981Y-68953034D01*
X134336341Y-69041991D01*
X134064591Y-69186483D01*
X133826081Y-69381007D01*
X133629897Y-69618153D01*
X133483511Y-69888888D01*
X133392499Y-70182900D01*
X133360327Y-70488991D01*
X133388222Y-70795500D01*
X133475120Y-71090755D01*
X133617712Y-71363507D01*
X133810566Y-71603369D01*
X134046336Y-71801204D01*
X134316043Y-71949476D01*
X134609412Y-72042539D01*
X134915271Y-72076846D01*
X134937289Y-72077000D01*
X137062711Y-72077000D01*
X137369019Y-72046966D01*
X137663659Y-71958009D01*
X137935409Y-71813517D01*
X138173919Y-71618993D01*
X138370103Y-71381847D01*
X138516489Y-71111112D01*
X138607501Y-70817100D01*
X138639673Y-70511009D01*
X138639673Y-128423000D01*
X137820428Y-128423000D01*
X137820428Y-118760772D01*
X137793135Y-118460871D01*
X137708111Y-118171982D01*
X137568593Y-117905110D01*
X137379897Y-117670419D01*
X137377000Y-117667988D01*
X137377000Y-115000000D01*
X137377000Y-82000000D01*
X137366845Y-81896441D01*
X137357768Y-81792687D01*
X137356114Y-81786994D01*
X137355536Y-81781098D01*
X137325465Y-81681500D01*
X137296404Y-81581468D01*
X137293674Y-81576201D01*
X137291963Y-81570534D01*
X137243104Y-81478643D01*
X137195181Y-81386192D01*
X137191485Y-81381562D01*
X137188702Y-81376328D01*
X137122890Y-81295634D01*
X137057958Y-81214295D01*
X137049827Y-81206050D01*
X137049686Y-81205877D01*
X137049525Y-81205744D01*
X137046909Y-81203091D01*
X135046909Y-79203091D01*
X134966525Y-79137063D01*
X134886718Y-79070097D01*
X134881521Y-79067240D01*
X134876945Y-79063481D01*
X134785285Y-79014333D01*
X134693973Y-78964134D01*
X134688317Y-78962339D01*
X134683101Y-78959543D01*
X134583611Y-78929126D01*
X134484316Y-78897628D01*
X134478426Y-78896967D01*
X134472760Y-78895235D01*
X134369197Y-78884715D01*
X134265735Y-78873110D01*
X134254150Y-78873029D01*
X134253934Y-78873007D01*
X134253732Y-78873026D01*
X134250000Y-78873000D01*
X126277158Y-78873000D01*
X126277158Y-66776723D01*
X126190422Y-66338673D01*
X126020253Y-65925812D01*
X125773133Y-65553868D01*
X125458476Y-65237006D01*
X125088265Y-64987295D01*
X124676603Y-64814249D01*
X124239169Y-64724456D01*
X123792626Y-64721339D01*
X123353981Y-64805015D01*
X122939943Y-64972297D01*
X122566282Y-65216814D01*
X122247231Y-65529252D01*
X121994942Y-65897710D01*
X121819025Y-66308154D01*
X121726181Y-66744950D01*
X121719947Y-67191461D01*
X121800558Y-67630680D01*
X121964946Y-68045876D01*
X122206848Y-68421235D01*
X122517051Y-68742459D01*
X122883739Y-68997314D01*
X123292945Y-69176091D01*
X123729082Y-69271983D01*
X124175539Y-69281334D01*
X124615310Y-69203791D01*
X125031643Y-69042306D01*
X125408681Y-68803030D01*
X125732064Y-68495077D01*
X125989472Y-68130178D01*
X126171102Y-67722230D01*
X126270036Y-67286772D01*
X126277158Y-66776723D01*
X126277158Y-78873000D01*
X125146295Y-78873000D01*
X125000000Y-78873000D01*
X123750000Y-78873000D01*
X123000000Y-78873000D01*
X122026555Y-78873000D01*
X122026555Y-72750320D01*
X121968409Y-72456661D01*
X121854332Y-72179889D01*
X121688669Y-71930545D01*
X121477729Y-71718128D01*
X121229549Y-71550728D01*
X120953579Y-71434721D01*
X120660334Y-71374527D01*
X120360981Y-71372437D01*
X120066923Y-71428531D01*
X119789361Y-71540674D01*
X119538867Y-71704592D01*
X119385782Y-71854504D01*
X119140639Y-71609361D01*
X119075973Y-71556245D01*
X119011860Y-71502447D01*
X119007682Y-71500150D01*
X119004004Y-71497129D01*
X118930264Y-71457589D01*
X118856911Y-71417263D01*
X118852372Y-71415823D01*
X118848172Y-71413571D01*
X118768113Y-71389094D01*
X118688368Y-71363798D01*
X118683634Y-71363267D01*
X118679078Y-71361874D01*
X118595807Y-71353415D01*
X118512650Y-71344088D01*
X118503341Y-71344023D01*
X118503162Y-71344005D01*
X118502994Y-71344020D01*
X118500000Y-71344000D01*
X114077000Y-71344000D01*
X114077000Y-67062711D01*
X114077000Y-64937289D01*
X114046966Y-64630981D01*
X113958009Y-64336341D01*
X113813517Y-64064591D01*
X113618993Y-63826081D01*
X113381847Y-63629897D01*
X113111112Y-63483511D01*
X112817100Y-63392499D01*
X112511009Y-63360327D01*
X112204500Y-63388222D01*
X111909245Y-63475120D01*
X111636493Y-63617712D01*
X111396631Y-63810566D01*
X111198796Y-64046336D01*
X111050524Y-64316043D01*
X110957461Y-64609412D01*
X110923154Y-64915271D01*
X110923000Y-64937289D01*
X110923000Y-67062711D01*
X110953034Y-67369019D01*
X111041991Y-67663659D01*
X111186483Y-67935409D01*
X111381007Y-68173919D01*
X111618153Y-68370103D01*
X111888888Y-68516489D01*
X112182900Y-68607501D01*
X112488991Y-68639673D01*
X112795500Y-68611778D01*
X113090755Y-68524880D01*
X113363507Y-68382288D01*
X113603369Y-68189434D01*
X113801204Y-67953664D01*
X113949476Y-67683957D01*
X114042539Y-67390588D01*
X114076846Y-67084729D01*
X114077000Y-67062711D01*
X114077000Y-71344000D01*
X109077000Y-71344000D01*
X109077000Y-67062711D01*
X109077000Y-64937289D01*
X109046966Y-64630981D01*
X108958009Y-64336341D01*
X108813517Y-64064591D01*
X108618993Y-63826081D01*
X108381847Y-63629897D01*
X108111112Y-63483511D01*
X107817100Y-63392499D01*
X107511009Y-63360327D01*
X107204500Y-63388222D01*
X106909245Y-63475120D01*
X106636493Y-63617712D01*
X106396631Y-63810566D01*
X106198796Y-64046336D01*
X106050524Y-64316043D01*
X105957461Y-64609412D01*
X105923154Y-64915271D01*
X105923000Y-64937289D01*
X105923000Y-67062711D01*
X105953034Y-67369019D01*
X106041991Y-67663659D01*
X106186483Y-67935409D01*
X106381007Y-68173919D01*
X106618153Y-68370103D01*
X106888888Y-68516489D01*
X107182900Y-68607501D01*
X107488991Y-68639673D01*
X107795500Y-68611778D01*
X108090755Y-68524880D01*
X108363507Y-68382288D01*
X108603369Y-68189434D01*
X108801204Y-67953664D01*
X108949476Y-67683957D01*
X109042539Y-67390588D01*
X109076846Y-67084729D01*
X109077000Y-67062711D01*
X109077000Y-71344000D01*
X98634072Y-71344000D01*
X98542385Y-71305458D01*
X98353354Y-71266656D01*
X98160386Y-71265308D01*
X97970832Y-71301468D01*
X97791911Y-71373756D01*
X97630439Y-71479421D01*
X97492565Y-71614437D01*
X97383542Y-71773661D01*
X97307522Y-71951028D01*
X97267401Y-72139784D01*
X97264707Y-72332737D01*
X97299542Y-72522539D01*
X97370580Y-72701961D01*
X97475114Y-72864167D01*
X97609164Y-73002979D01*
X97767623Y-73113111D01*
X97944456Y-73190368D01*
X98132927Y-73231806D01*
X98325857Y-73235847D01*
X98515897Y-73202338D01*
X98635362Y-73156000D01*
X118124722Y-73156000D01*
X118529361Y-73560639D01*
X118594026Y-73613754D01*
X118658140Y-73667553D01*
X118662317Y-73669849D01*
X118665996Y-73672871D01*
X118739735Y-73712410D01*
X118813089Y-73752737D01*
X118817627Y-73754176D01*
X118821828Y-73756429D01*
X118901886Y-73780905D01*
X118981632Y-73806202D01*
X118986365Y-73806732D01*
X118990922Y-73808126D01*
X119074192Y-73816584D01*
X119157350Y-73825912D01*
X119166658Y-73825976D01*
X119166838Y-73825995D01*
X119167005Y-73825979D01*
X119170000Y-73826000D01*
X119280662Y-73826000D01*
X119297911Y-73852764D01*
X119505864Y-74068105D01*
X119751684Y-74238954D01*
X120026006Y-74358803D01*
X120318383Y-74423086D01*
X120617677Y-74429355D01*
X120912490Y-74377372D01*
X121191590Y-74269116D01*
X121444348Y-74108711D01*
X121661137Y-73902266D01*
X121833697Y-73657646D01*
X121955458Y-73384166D01*
X122021781Y-73092246D01*
X122026555Y-72750320D01*
X122026555Y-78873000D01*
X104709042Y-78873000D01*
X104709042Y-75278514D01*
X104671560Y-75089217D01*
X104598024Y-74910805D01*
X104491235Y-74750074D01*
X104355260Y-74613147D01*
X104195279Y-74505238D01*
X104017385Y-74430458D01*
X103828354Y-74391656D01*
X103635386Y-74390308D01*
X103445832Y-74426468D01*
X103266911Y-74498756D01*
X103122127Y-74593500D01*
X84077000Y-74593500D01*
X84077000Y-67062711D01*
X84077000Y-64937289D01*
X84046966Y-64630981D01*
X83958009Y-64336341D01*
X83813517Y-64064591D01*
X83618993Y-63826081D01*
X83381847Y-63629897D01*
X83111112Y-63483511D01*
X82817100Y-63392499D01*
X82511009Y-63360327D01*
X82204500Y-63388222D01*
X81909245Y-63475120D01*
X81636493Y-63617712D01*
X81396631Y-63810566D01*
X81198796Y-64046336D01*
X81050524Y-64316043D01*
X80957461Y-64609412D01*
X80923154Y-64915271D01*
X80923000Y-64937289D01*
X80923000Y-67062711D01*
X80953034Y-67369019D01*
X81041991Y-67663659D01*
X81186483Y-67935409D01*
X81381007Y-68173919D01*
X81618153Y-68370103D01*
X81888888Y-68516489D01*
X82182900Y-68607501D01*
X82488991Y-68639673D01*
X82795500Y-68611778D01*
X83090755Y-68524880D01*
X83363507Y-68382288D01*
X83603369Y-68189434D01*
X83801204Y-67953664D01*
X83949476Y-67683957D01*
X84042539Y-67390588D01*
X84076846Y-67084729D01*
X84077000Y-67062711D01*
X84077000Y-74593500D01*
X79077000Y-74593500D01*
X79077000Y-67062711D01*
X79077000Y-64937289D01*
X79046966Y-64630981D01*
X78958009Y-64336341D01*
X78813517Y-64064591D01*
X78618993Y-63826081D01*
X78381847Y-63629897D01*
X78111112Y-63483511D01*
X77817100Y-63392499D01*
X77511009Y-63360327D01*
X77204500Y-63388222D01*
X76909245Y-63475120D01*
X76636493Y-63617712D01*
X76396631Y-63810566D01*
X76198796Y-64046336D01*
X76050524Y-64316043D01*
X75957461Y-64609412D01*
X75923154Y-64915271D01*
X75923000Y-64937289D01*
X75923000Y-67062711D01*
X75953034Y-67369019D01*
X76041991Y-67663659D01*
X76186483Y-67935409D01*
X76381007Y-68173919D01*
X76618153Y-68370103D01*
X76888888Y-68516489D01*
X77182900Y-68607501D01*
X77488991Y-68639673D01*
X77795500Y-68611778D01*
X78090755Y-68524880D01*
X78363507Y-68382288D01*
X78603369Y-68189434D01*
X78801204Y-67953664D01*
X78949476Y-67683957D01*
X79042539Y-67390588D01*
X79076846Y-67084729D01*
X79077000Y-67062711D01*
X79077000Y-74593500D01*
X74325373Y-74593500D01*
X74193779Y-74504738D01*
X74015885Y-74429958D01*
X73826854Y-74391156D01*
X73633886Y-74389808D01*
X73444332Y-74425968D01*
X73265411Y-74498256D01*
X73119863Y-74593500D01*
X68277158Y-74593500D01*
X68277158Y-66776723D01*
X68190422Y-66338673D01*
X68020253Y-65925812D01*
X67773133Y-65553868D01*
X67458476Y-65237006D01*
X67088265Y-64987295D01*
X66676603Y-64814249D01*
X66239169Y-64724456D01*
X65792626Y-64721339D01*
X65353981Y-64805015D01*
X64939943Y-64972297D01*
X64566282Y-65216814D01*
X64247231Y-65529252D01*
X63994942Y-65897710D01*
X63819025Y-66308154D01*
X63726181Y-66744950D01*
X63719947Y-67191461D01*
X63800558Y-67630680D01*
X63964946Y-68045876D01*
X64206848Y-68421235D01*
X64517051Y-68742459D01*
X64883739Y-68997314D01*
X65292945Y-69176091D01*
X65729082Y-69271983D01*
X66175539Y-69281334D01*
X66615310Y-69203791D01*
X67031643Y-69042306D01*
X67408681Y-68803030D01*
X67732064Y-68495077D01*
X67989472Y-68130178D01*
X68171102Y-67722230D01*
X68270036Y-67286772D01*
X68277158Y-66776723D01*
X68277158Y-74593500D01*
X63776555Y-74593500D01*
X63776555Y-70100320D01*
X63718409Y-69806661D01*
X63604332Y-69529889D01*
X63438669Y-69280545D01*
X63227729Y-69068128D01*
X62979549Y-68900728D01*
X62703579Y-68784721D01*
X62410334Y-68724527D01*
X62110981Y-68722437D01*
X61816923Y-68778531D01*
X61539361Y-68890674D01*
X61288867Y-69054592D01*
X61074983Y-69264044D01*
X60905854Y-69511050D01*
X60787924Y-69786202D01*
X60725683Y-70079020D01*
X60721504Y-70378351D01*
X60775544Y-70672794D01*
X60885746Y-70951132D01*
X61047911Y-71202764D01*
X61255864Y-71418105D01*
X61501684Y-71588954D01*
X61776006Y-71708803D01*
X62068383Y-71773086D01*
X62367677Y-71779355D01*
X62662490Y-71727372D01*
X62941590Y-71619116D01*
X63194348Y-71458711D01*
X63411137Y-71252266D01*
X63583697Y-71007646D01*
X63705458Y-70734166D01*
X63771781Y-70442246D01*
X63776555Y-70100320D01*
X63776555Y-74593500D01*
X60085500Y-74593500D01*
X60013715Y-74600538D01*
X59941834Y-74606827D01*
X59937887Y-74607973D01*
X59933803Y-74608374D01*
X59864800Y-74629207D01*
X59795462Y-74649352D01*
X59791811Y-74651244D01*
X59787884Y-74652430D01*
X59724241Y-74686269D01*
X59660137Y-74719498D01*
X59656925Y-74722062D01*
X59653301Y-74723989D01*
X59597406Y-74769575D01*
X59541014Y-74814593D01*
X59535297Y-74820230D01*
X59535181Y-74820325D01*
X59535091Y-74820432D01*
X59533250Y-74822249D01*
X58447750Y-75907750D01*
X58401970Y-75963481D01*
X58355586Y-76018761D01*
X58353607Y-76022359D01*
X58351001Y-76025533D01*
X58316930Y-76089074D01*
X58282155Y-76152331D01*
X58280911Y-76156250D01*
X58278973Y-76159866D01*
X58257885Y-76228838D01*
X58236067Y-76297621D01*
X58235609Y-76301700D01*
X58234408Y-76305630D01*
X58227116Y-76377412D01*
X58219076Y-76449096D01*
X58219020Y-76457124D01*
X58219005Y-76457273D01*
X58219018Y-76457411D01*
X58219000Y-76460000D01*
X58219000Y-77569400D01*
X57932095Y-77569400D01*
X57830280Y-77589652D01*
X57734372Y-77629379D01*
X57648057Y-77687052D01*
X57574652Y-77760457D01*
X57516979Y-77846772D01*
X57477252Y-77942680D01*
X57457000Y-78044495D01*
X57457000Y-78148305D01*
X57457000Y-79875505D01*
X57477252Y-79977320D01*
X57516979Y-80073228D01*
X57574652Y-80159543D01*
X57648057Y-80232948D01*
X57734372Y-80290621D01*
X57830280Y-80330348D01*
X57908473Y-80345901D01*
X57782076Y-80451331D01*
X57597965Y-80679354D01*
X57461876Y-80938914D01*
X57418815Y-81047923D01*
X57526438Y-81277000D01*
X58777000Y-81277000D01*
X58777000Y-81257000D01*
X59223000Y-81257000D01*
X59223000Y-81277000D01*
X60473562Y-81277000D01*
X60581185Y-81047923D01*
X60538124Y-80938914D01*
X60402035Y-80679354D01*
X60217924Y-80451331D01*
X60091526Y-80345901D01*
X60169720Y-80330348D01*
X60265628Y-80290621D01*
X60351943Y-80232948D01*
X60425348Y-80159543D01*
X60483021Y-80073228D01*
X60522748Y-79977320D01*
X60543000Y-79875505D01*
X60543000Y-79771695D01*
X60543000Y-78044495D01*
X60522748Y-77942680D01*
X60483021Y-77846772D01*
X60425348Y-77760457D01*
X60351943Y-77687052D01*
X60265628Y-77629379D01*
X60169720Y-77589652D01*
X60067905Y-77569400D01*
X59964095Y-77569400D01*
X59781000Y-77569400D01*
X59781000Y-76783500D01*
X60409000Y-76155500D01*
X73122980Y-76155500D01*
X73241123Y-76237611D01*
X73417956Y-76314868D01*
X73606427Y-76356306D01*
X73799357Y-76360347D01*
X73989397Y-76326838D01*
X74169310Y-76257054D01*
X74329333Y-76155500D01*
X103123761Y-76155500D01*
X103242623Y-76238111D01*
X103419456Y-76315368D01*
X103607927Y-76356806D01*
X103800857Y-76360847D01*
X103990897Y-76327338D01*
X104170810Y-76257554D01*
X104333742Y-76154154D01*
X104473487Y-76021077D01*
X104584723Y-75863390D01*
X104663212Y-75687101D01*
X104705964Y-75498925D01*
X104709042Y-75278514D01*
X104709042Y-78873000D01*
X95000000Y-78873000D01*
X94960864Y-78873000D01*
X95108742Y-78779154D01*
X95248487Y-78646077D01*
X95359723Y-78488390D01*
X95438212Y-78312101D01*
X95480964Y-78123925D01*
X95484042Y-77903514D01*
X95446560Y-77714217D01*
X95373024Y-77535805D01*
X95266235Y-77375074D01*
X95130260Y-77238147D01*
X94970279Y-77130238D01*
X94792385Y-77055458D01*
X94603354Y-77016656D01*
X94410386Y-77015308D01*
X94220832Y-77051468D01*
X94115560Y-77094000D01*
X93884072Y-77094000D01*
X93792385Y-77055458D01*
X93603354Y-77016656D01*
X93410386Y-77015308D01*
X93220832Y-77051468D01*
X93115560Y-77094000D01*
X92853705Y-77094000D01*
X89103705Y-77094000D01*
X89000000Y-77094000D01*
X67000000Y-77094000D01*
X66916694Y-77102168D01*
X66833340Y-77109461D01*
X66828765Y-77110790D01*
X66824024Y-77111255D01*
X66743898Y-77135445D01*
X66663540Y-77158792D01*
X66659311Y-77160983D01*
X66654750Y-77162361D01*
X66580850Y-77201654D01*
X66506557Y-77240164D01*
X66502833Y-77243136D01*
X66498627Y-77245373D01*
X66433772Y-77298267D01*
X66368368Y-77350479D01*
X66361736Y-77357018D01*
X66361601Y-77357129D01*
X66361497Y-77357254D01*
X66359361Y-77359361D01*
X62959361Y-80759361D01*
X60624722Y-83094000D01*
X60175081Y-83094000D01*
X60153412Y-83067048D01*
X59945509Y-82892597D01*
X59826370Y-82827099D01*
X59992865Y-82736393D01*
X60217924Y-82548669D01*
X60402035Y-82320646D01*
X60538124Y-82061086D01*
X60581185Y-81952077D01*
X60473562Y-81723000D01*
X59223000Y-81723000D01*
X59223000Y-81743000D01*
X58777000Y-81743000D01*
X58777000Y-81723000D01*
X57526438Y-81723000D01*
X57418815Y-81952077D01*
X57461876Y-82061086D01*
X57597965Y-82320646D01*
X57782076Y-82548669D01*
X58007135Y-82736393D01*
X58173491Y-82827024D01*
X58070588Y-82881740D01*
X57860270Y-83053271D01*
X57687274Y-83262386D01*
X57558191Y-83501121D01*
X57477937Y-83760381D01*
X57449568Y-84030292D01*
X57474165Y-84300572D01*
X57550792Y-84560928D01*
X57676530Y-84801441D01*
X57846588Y-85012952D01*
X58054491Y-85187403D01*
X58292318Y-85318150D01*
X58551012Y-85400212D01*
X58820718Y-85430464D01*
X58840134Y-85430600D01*
X59159866Y-85430600D01*
X59429968Y-85404116D01*
X59689782Y-85325674D01*
X59929412Y-85198260D01*
X60139730Y-85026729D01*
X60239606Y-84906000D01*
X61000000Y-84906000D01*
X61000201Y-84905980D01*
X56664730Y-89241451D01*
X56664730Y-65981528D01*
X56664730Y-65018472D01*
X56574918Y-64749281D01*
X56399159Y-64466209D01*
X56171553Y-64222865D01*
X55900846Y-64028601D01*
X55597442Y-63890882D01*
X55273000Y-63815000D01*
X54223000Y-63815000D01*
X54223000Y-65277000D01*
X56559871Y-65277000D01*
X56664730Y-65018472D01*
X56664730Y-65981528D01*
X56559871Y-65723000D01*
X54223000Y-65723000D01*
X54223000Y-67185000D01*
X55273000Y-67185000D01*
X55597442Y-67109118D01*
X55900846Y-66971399D01*
X56171553Y-66777135D01*
X56399159Y-66533791D01*
X56574918Y-66250719D01*
X56664730Y-65981528D01*
X56664730Y-89241451D01*
X56639673Y-89266508D01*
X56639673Y-70511009D01*
X56611778Y-70204500D01*
X56524880Y-69909245D01*
X56382288Y-69636493D01*
X56189434Y-69396631D01*
X55953664Y-69198796D01*
X55683957Y-69050524D01*
X55390588Y-68957461D01*
X55084729Y-68923154D01*
X55062711Y-68923000D01*
X53777000Y-68923000D01*
X53777000Y-67185000D01*
X53777000Y-65723000D01*
X53777000Y-65277000D01*
X53777000Y-63815000D01*
X52727000Y-63815000D01*
X52402558Y-63890882D01*
X52099154Y-64028601D01*
X51828447Y-64222865D01*
X51600841Y-64466209D01*
X51425082Y-64749281D01*
X51335270Y-65018472D01*
X51440129Y-65277000D01*
X53777000Y-65277000D01*
X53777000Y-65723000D01*
X51440129Y-65723000D01*
X51335270Y-65981528D01*
X51425082Y-66250719D01*
X51600841Y-66533791D01*
X51828447Y-66777135D01*
X52099154Y-66971399D01*
X52402558Y-67109118D01*
X52727000Y-67185000D01*
X53777000Y-67185000D01*
X53777000Y-68923000D01*
X52937289Y-68923000D01*
X52630981Y-68953034D01*
X52336341Y-69041991D01*
X52064591Y-69186483D01*
X51826081Y-69381007D01*
X51629897Y-69618153D01*
X51483511Y-69888888D01*
X51392499Y-70182900D01*
X51360327Y-70488991D01*
X51388222Y-70795500D01*
X51475120Y-71090755D01*
X51617712Y-71363507D01*
X51810566Y-71603369D01*
X52046336Y-71801204D01*
X52316043Y-71949476D01*
X52609412Y-72042539D01*
X52915271Y-72076846D01*
X52937289Y-72077000D01*
X55062711Y-72077000D01*
X55369019Y-72046966D01*
X55663659Y-71958009D01*
X55935409Y-71813517D01*
X56173919Y-71618993D01*
X56370103Y-71381847D01*
X56516489Y-71111112D01*
X56607501Y-70817100D01*
X56639673Y-70511009D01*
X56639673Y-89266508D01*
X55703091Y-90203091D01*
X55635858Y-90284941D01*
X55567880Y-90366532D01*
X55565986Y-90370004D01*
X55563481Y-90373055D01*
X55513410Y-90466435D01*
X55462591Y-90559646D01*
X55461408Y-90563420D01*
X55459543Y-90566899D01*
X55428551Y-90668267D01*
X55396817Y-90769533D01*
X55396390Y-90773461D01*
X55395235Y-90777240D01*
X55384524Y-90882682D01*
X55373061Y-90988198D01*
X55373405Y-90992139D01*
X55373007Y-90996066D01*
X55382978Y-91101549D01*
X55392232Y-91207313D01*
X55393000Y-91209956D01*
X55393000Y-115000000D01*
X55393000Y-117235558D01*
X55296785Y-117171270D01*
X55181223Y-117123403D01*
X55058542Y-117099000D01*
X54361750Y-117099000D01*
X54203000Y-117257750D01*
X54203000Y-118527000D01*
X54223000Y-118527000D01*
X54223000Y-118973000D01*
X54203000Y-118973000D01*
X54203000Y-120242250D01*
X54361750Y-120401000D01*
X55058542Y-120401000D01*
X55181223Y-120376597D01*
X55296785Y-120328730D01*
X55400789Y-120259237D01*
X55489237Y-120170789D01*
X55558730Y-120066785D01*
X55593307Y-119983307D01*
X55640790Y-120023150D01*
X55904682Y-120168226D01*
X56191726Y-120259282D01*
X56490990Y-120292850D01*
X56512534Y-120293000D01*
X56527466Y-120293000D01*
X56827170Y-120263614D01*
X57115458Y-120176575D01*
X57381349Y-120035197D01*
X57614717Y-119844868D01*
X57806671Y-119612835D01*
X57949901Y-119347937D01*
X58038951Y-119060263D01*
X58070428Y-118760772D01*
X58043135Y-118460871D01*
X57958111Y-118171982D01*
X57818593Y-117905110D01*
X57647000Y-117691690D01*
X57647000Y-116127000D01*
X69627000Y-116127000D01*
X97377000Y-116127000D01*
X102000000Y-116127000D01*
X127377000Y-116127000D01*
X135123000Y-116127000D01*
X135123000Y-117222195D01*
X135046785Y-117171270D01*
X134931223Y-117123403D01*
X134808542Y-117099000D01*
X134111750Y-117099000D01*
X133953000Y-117257750D01*
X133953000Y-118527000D01*
X133973000Y-118527000D01*
X133973000Y-118973000D01*
X133953000Y-118973000D01*
X133953000Y-120242250D01*
X134111750Y-120401000D01*
X134808542Y-120401000D01*
X134931223Y-120376597D01*
X135046785Y-120328730D01*
X135150789Y-120259237D01*
X135239237Y-120170789D01*
X135308730Y-120066785D01*
X135343307Y-119983307D01*
X135390790Y-120023150D01*
X135654682Y-120168226D01*
X135941726Y-120259282D01*
X136240990Y-120292850D01*
X136262534Y-120293000D01*
X136277466Y-120293000D01*
X136577170Y-120263614D01*
X136865458Y-120176575D01*
X137131349Y-120035197D01*
X137364717Y-119844868D01*
X137556671Y-119612835D01*
X137699901Y-119347937D01*
X137788951Y-119060263D01*
X137820428Y-118760772D01*
X137820428Y-128423000D01*
X133507000Y-128423000D01*
X133507000Y-120242250D01*
X133507000Y-118973000D01*
X133507000Y-118527000D01*
X133507000Y-117257750D01*
X133348250Y-117099000D01*
X132651458Y-117099000D01*
X132528777Y-117123403D01*
X132413215Y-117171270D01*
X132309211Y-117240763D01*
X132220763Y-117329211D01*
X132151270Y-117433215D01*
X132103403Y-117548777D01*
X132079000Y-117671458D01*
X132079000Y-117796542D01*
X132079000Y-118368250D01*
X132237750Y-118527000D01*
X133507000Y-118527000D01*
X133507000Y-118973000D01*
X132237750Y-118973000D01*
X132079000Y-119131750D01*
X132079000Y-119703458D01*
X132079000Y-119828542D01*
X132103403Y-119951223D01*
X132151270Y-120066785D01*
X132220763Y-120170789D01*
X132309211Y-120259237D01*
X132413215Y-120328730D01*
X132528777Y-120376597D01*
X132651458Y-120401000D01*
X133348250Y-120401000D01*
X133507000Y-120242250D01*
X133507000Y-128423000D01*
X127377000Y-128423000D01*
X126527158Y-128423000D01*
X126527158Y-121776723D01*
X126440422Y-121338673D01*
X126270253Y-120925812D01*
X126023133Y-120553868D01*
X125708476Y-120237006D01*
X125338265Y-119987295D01*
X124926603Y-119814249D01*
X124489169Y-119724456D01*
X124042626Y-119721339D01*
X123603981Y-119805015D01*
X123189943Y-119972297D01*
X122816282Y-120216814D01*
X122497231Y-120529252D01*
X122244942Y-120897710D01*
X122069025Y-121308154D01*
X121976181Y-121744950D01*
X121969947Y-122191461D01*
X122050558Y-122630680D01*
X122214946Y-123045876D01*
X122456848Y-123421235D01*
X122767051Y-123742459D01*
X123133739Y-123997314D01*
X123542945Y-124176091D01*
X123979082Y-124271983D01*
X124425539Y-124281334D01*
X124865310Y-124203791D01*
X125281643Y-124042306D01*
X125658681Y-123803030D01*
X125982064Y-123495077D01*
X126239472Y-123130178D01*
X126421102Y-122722230D01*
X126520036Y-122286772D01*
X126527158Y-121776723D01*
X126527158Y-128423000D01*
X115450600Y-128423000D01*
X115450600Y-118909866D01*
X115450600Y-118590134D01*
X115424116Y-118320032D01*
X115345674Y-118060218D01*
X115218260Y-117820588D01*
X115046729Y-117610270D01*
X114837614Y-117437274D01*
X114598879Y-117308191D01*
X114339619Y-117227937D01*
X114069708Y-117199568D01*
X113799428Y-117224165D01*
X113539072Y-117300792D01*
X113298559Y-117426530D01*
X113087048Y-117596588D01*
X112912597Y-117804491D01*
X112789122Y-118029089D01*
X112678260Y-117820588D01*
X112506729Y-117610270D01*
X112297614Y-117437274D01*
X112058879Y-117308191D01*
X111799619Y-117227937D01*
X111529708Y-117199568D01*
X111259428Y-117224165D01*
X110999072Y-117300792D01*
X110758559Y-117426530D01*
X110547048Y-117596588D01*
X110372597Y-117804491D01*
X110249122Y-118029089D01*
X110138260Y-117820588D01*
X109966729Y-117610270D01*
X109757614Y-117437274D01*
X109518879Y-117308191D01*
X109259619Y-117227937D01*
X108989708Y-117199568D01*
X108719428Y-117224165D01*
X108459072Y-117300792D01*
X108218559Y-117426530D01*
X108007048Y-117596588D01*
X107832597Y-117804491D01*
X107830600Y-117808123D01*
X107830600Y-117682095D01*
X107810348Y-117580280D01*
X107770621Y-117484372D01*
X107712948Y-117398057D01*
X107639543Y-117324652D01*
X107553228Y-117266979D01*
X107457320Y-117227252D01*
X107355505Y-117207000D01*
X107251695Y-117207000D01*
X105524495Y-117207000D01*
X105422680Y-117227252D01*
X105326772Y-117266979D01*
X105240457Y-117324652D01*
X105167052Y-117398057D01*
X105109379Y-117484372D01*
X105069652Y-117580280D01*
X105049400Y-117682095D01*
X105049400Y-117785905D01*
X105049400Y-119817905D01*
X105069652Y-119919720D01*
X105109379Y-120015628D01*
X105167052Y-120101943D01*
X105240457Y-120175348D01*
X105326772Y-120233021D01*
X105422680Y-120272748D01*
X105524495Y-120293000D01*
X105628305Y-120293000D01*
X107355505Y-120293000D01*
X107457320Y-120272748D01*
X107553228Y-120233021D01*
X107639543Y-120175348D01*
X107712948Y-120101943D01*
X107770621Y-120015628D01*
X107810348Y-119919720D01*
X107830600Y-119817905D01*
X107830600Y-119714095D01*
X107830600Y-119690275D01*
X107993271Y-119889730D01*
X108202386Y-120062726D01*
X108441121Y-120191809D01*
X108700381Y-120272063D01*
X108970292Y-120300432D01*
X109240572Y-120275835D01*
X109500928Y-120199208D01*
X109741441Y-120073470D01*
X109952952Y-119903412D01*
X110127403Y-119695509D01*
X110250877Y-119470910D01*
X110361740Y-119679412D01*
X110533271Y-119889730D01*
X110742386Y-120062726D01*
X110981121Y-120191809D01*
X111240381Y-120272063D01*
X111510292Y-120300432D01*
X111780572Y-120275835D01*
X112040928Y-120199208D01*
X112281441Y-120073470D01*
X112492952Y-119903412D01*
X112667403Y-119695509D01*
X112790877Y-119470910D01*
X112901740Y-119679412D01*
X113073271Y-119889730D01*
X113282386Y-120062726D01*
X113521121Y-120191809D01*
X113780381Y-120272063D01*
X114050292Y-120300432D01*
X114320572Y-120275835D01*
X114580928Y-120199208D01*
X114821441Y-120073470D01*
X115032952Y-119903412D01*
X115207403Y-119695509D01*
X115338150Y-119457682D01*
X115420212Y-119198988D01*
X115450464Y-118929282D01*
X115450600Y-118909866D01*
X115450600Y-128423000D01*
X97377000Y-128423000D01*
X85200600Y-128423000D01*
X85200600Y-118909866D01*
X85200600Y-118590134D01*
X85174116Y-118320032D01*
X85095674Y-118060218D01*
X84968260Y-117820588D01*
X84796729Y-117610270D01*
X84587614Y-117437274D01*
X84348879Y-117308191D01*
X84089619Y-117227937D01*
X83819708Y-117199568D01*
X83549428Y-117224165D01*
X83289072Y-117300792D01*
X83048559Y-117426530D01*
X82837048Y-117596588D01*
X82662597Y-117804491D01*
X82539122Y-118029089D01*
X82428260Y-117820588D01*
X82256729Y-117610270D01*
X82047614Y-117437274D01*
X81808879Y-117308191D01*
X81549619Y-117227937D01*
X81279708Y-117199568D01*
X81009428Y-117224165D01*
X80749072Y-117300792D01*
X80508559Y-117426530D01*
X80297048Y-117596588D01*
X80122597Y-117804491D01*
X79999122Y-118029089D01*
X79888260Y-117820588D01*
X79716729Y-117610270D01*
X79507614Y-117437274D01*
X79268879Y-117308191D01*
X79009619Y-117227937D01*
X78739708Y-117199568D01*
X78469428Y-117224165D01*
X78209072Y-117300792D01*
X77968559Y-117426530D01*
X77757048Y-117596588D01*
X77582597Y-117804491D01*
X77580600Y-117808123D01*
X77580600Y-117682095D01*
X77560348Y-117580280D01*
X77520621Y-117484372D01*
X77462948Y-117398057D01*
X77389543Y-117324652D01*
X77303228Y-117266979D01*
X77207320Y-117227252D01*
X77105505Y-117207000D01*
X77001695Y-117207000D01*
X75274495Y-117207000D01*
X75172680Y-117227252D01*
X75076772Y-117266979D01*
X74990457Y-117324652D01*
X74917052Y-117398057D01*
X74859379Y-117484372D01*
X74819652Y-117580280D01*
X74799400Y-117682095D01*
X74799400Y-117785905D01*
X74799400Y-119817905D01*
X74819652Y-119919720D01*
X74859379Y-120015628D01*
X74917052Y-120101943D01*
X74990457Y-120175348D01*
X75076772Y-120233021D01*
X75172680Y-120272748D01*
X75274495Y-120293000D01*
X75378305Y-120293000D01*
X77105505Y-120293000D01*
X77207320Y-120272748D01*
X77303228Y-120233021D01*
X77389543Y-120175348D01*
X77462948Y-120101943D01*
X77520621Y-120015628D01*
X77560348Y-119919720D01*
X77580600Y-119817905D01*
X77580600Y-119714095D01*
X77580600Y-119690275D01*
X77743271Y-119889730D01*
X77952386Y-120062726D01*
X78191121Y-120191809D01*
X78450381Y-120272063D01*
X78720292Y-120300432D01*
X78990572Y-120275835D01*
X79250928Y-120199208D01*
X79491441Y-120073470D01*
X79702952Y-119903412D01*
X79877403Y-119695509D01*
X80000877Y-119470910D01*
X80111740Y-119679412D01*
X80283271Y-119889730D01*
X80492386Y-120062726D01*
X80731121Y-120191809D01*
X80990381Y-120272063D01*
X81260292Y-120300432D01*
X81530572Y-120275835D01*
X81790928Y-120199208D01*
X82031441Y-120073470D01*
X82242952Y-119903412D01*
X82417403Y-119695509D01*
X82540877Y-119470910D01*
X82651740Y-119679412D01*
X82823271Y-119889730D01*
X83032386Y-120062726D01*
X83271121Y-120191809D01*
X83530381Y-120272063D01*
X83800292Y-120300432D01*
X84070572Y-120275835D01*
X84330928Y-120199208D01*
X84571441Y-120073470D01*
X84782952Y-119903412D01*
X84957403Y-119695509D01*
X85088150Y-119457682D01*
X85170212Y-119198988D01*
X85200464Y-118929282D01*
X85200600Y-118909866D01*
X85200600Y-128423000D01*
X69627000Y-128423000D01*
X68277158Y-128423000D01*
X68277158Y-121776723D01*
X68190422Y-121338673D01*
X68020253Y-120925812D01*
X67773133Y-120553868D01*
X67458476Y-120237006D01*
X67088265Y-119987295D01*
X66676603Y-119814249D01*
X66239169Y-119724456D01*
X65792626Y-119721339D01*
X65353981Y-119805015D01*
X64939943Y-119972297D01*
X64566282Y-120216814D01*
X64247231Y-120529252D01*
X63994942Y-120897710D01*
X63819025Y-121308154D01*
X63726181Y-121744950D01*
X63719947Y-122191461D01*
X63800558Y-122630680D01*
X63964946Y-123045876D01*
X64206848Y-123421235D01*
X64517051Y-123742459D01*
X64883739Y-123997314D01*
X65292945Y-124176091D01*
X65729082Y-124271983D01*
X66175539Y-124281334D01*
X66615310Y-124203791D01*
X67031643Y-124042306D01*
X67408681Y-123803030D01*
X67732064Y-123495077D01*
X67989472Y-123130178D01*
X68171102Y-122722230D01*
X68270036Y-122286772D01*
X68277158Y-121776723D01*
X68277158Y-128423000D01*
X53757000Y-128423000D01*
X53757000Y-120242250D01*
X53757000Y-118973000D01*
X53757000Y-118527000D01*
X53757000Y-117257750D01*
X53598250Y-117099000D01*
X52901458Y-117099000D01*
X52778777Y-117123403D01*
X52663215Y-117171270D01*
X52559211Y-117240763D01*
X52470763Y-117329211D01*
X52401270Y-117433215D01*
X52353403Y-117548777D01*
X52329000Y-117671458D01*
X52329000Y-117796542D01*
X52329000Y-118368250D01*
X52487750Y-118527000D01*
X53757000Y-118527000D01*
X53757000Y-118973000D01*
X52487750Y-118973000D01*
X52329000Y-119131750D01*
X52329000Y-119703458D01*
X52329000Y-119828542D01*
X52353403Y-119951223D01*
X52401270Y-120066785D01*
X52470763Y-120170789D01*
X52559211Y-120259237D01*
X52663215Y-120328730D01*
X52778777Y-120376597D01*
X52901458Y-120401000D01*
X53598250Y-120401000D01*
X53757000Y-120242250D01*
X53757000Y-128423000D01*
X51028218Y-128423000D01*
X50724144Y-128393185D01*
X50458793Y-128313071D01*
X50214056Y-128182942D01*
X49999255Y-128007754D01*
X49822574Y-127794185D01*
X49690741Y-127550365D01*
X49608775Y-127285576D01*
X49577000Y-126983258D01*
X49577000Y-63028218D01*
X49606815Y-62724140D01*
X49686928Y-62458792D01*
X49817056Y-62214056D01*
X49992244Y-61999255D01*
X50205817Y-61822572D01*
X50449635Y-61690740D01*
X50714424Y-61608775D01*
X51016741Y-61577000D01*
X138971781Y-61577000D01*
X139275859Y-61606815D01*
X139541207Y-61686928D01*
X139785943Y-61817056D01*
X140000744Y-61992244D01*
X140177427Y-62205817D01*
X140309259Y-62449635D01*
X140391224Y-62714424D01*
X140423000Y-63016741D01*
X140423000Y-126971781D01*
X140423000Y-126971781D01*
G37*
X140423000Y-126971781D02*
X140393185Y-127275855D01*
X140313071Y-127541206D01*
X140182942Y-127785943D01*
X140007754Y-128000744D01*
X139794185Y-128177425D01*
X139550365Y-128309258D01*
X139285576Y-128391224D01*
X138983258Y-128423000D01*
X138664730Y-128423000D01*
X138664730Y-65981528D01*
X138664730Y-65018472D01*
X138574918Y-64749281D01*
X138399159Y-64466209D01*
X138171553Y-64222865D01*
X137900846Y-64028601D01*
X137597442Y-63890882D01*
X137273000Y-63815000D01*
X136223000Y-63815000D01*
X136223000Y-65277000D01*
X138559871Y-65277000D01*
X138664730Y-65018472D01*
X138664730Y-65981528D01*
X138559871Y-65723000D01*
X136223000Y-65723000D01*
X136223000Y-67185000D01*
X137273000Y-67185000D01*
X137597442Y-67109118D01*
X137900846Y-66971399D01*
X138171553Y-66777135D01*
X138399159Y-66533791D01*
X138574918Y-66250719D01*
X138664730Y-65981528D01*
X138664730Y-128423000D01*
X138639673Y-128423000D01*
X138639673Y-70511009D01*
X138611778Y-70204500D01*
X138524880Y-69909245D01*
X138382288Y-69636493D01*
X138189434Y-69396631D01*
X137953664Y-69198796D01*
X137683957Y-69050524D01*
X137390588Y-68957461D01*
X137084729Y-68923154D01*
X137062711Y-68923000D01*
X135777000Y-68923000D01*
X135777000Y-67185000D01*
X135777000Y-65723000D01*
X135777000Y-65277000D01*
X135777000Y-63815000D01*
X134727000Y-63815000D01*
X134402558Y-63890882D01*
X134099154Y-64028601D01*
X133828447Y-64222865D01*
X133600841Y-64466209D01*
X133425082Y-64749281D01*
X133335270Y-65018472D01*
X133440129Y-65277000D01*
X135777000Y-65277000D01*
X135777000Y-65723000D01*
X133440129Y-65723000D01*
X133335270Y-65981528D01*
X133425082Y-66250719D01*
X133600841Y-66533791D01*
X133828447Y-66777135D01*
X134099154Y-66971399D01*
X134402558Y-67109118D01*
X134727000Y-67185000D01*
X135777000Y-67185000D01*
X135777000Y-68923000D01*
X134937289Y-68923000D01*
X134630981Y-68953034D01*
X134336341Y-69041991D01*
X134064591Y-69186483D01*
X133826081Y-69381007D01*
X133629897Y-69618153D01*
X133483511Y-69888888D01*
X133392499Y-70182900D01*
X133360327Y-70488991D01*
X133388222Y-70795500D01*
X133475120Y-71090755D01*
X133617712Y-71363507D01*
X133810566Y-71603369D01*
X134046336Y-71801204D01*
X134316043Y-71949476D01*
X134609412Y-72042539D01*
X134915271Y-72076846D01*
X134937289Y-72077000D01*
X137062711Y-72077000D01*
X137369019Y-72046966D01*
X137663659Y-71958009D01*
X137935409Y-71813517D01*
X138173919Y-71618993D01*
X138370103Y-71381847D01*
X138516489Y-71111112D01*
X138607501Y-70817100D01*
X138639673Y-70511009D01*
X138639673Y-128423000D01*
X137820428Y-128423000D01*
X137820428Y-118760772D01*
X137793135Y-118460871D01*
X137708111Y-118171982D01*
X137568593Y-117905110D01*
X137379897Y-117670419D01*
X137377000Y-117667988D01*
X137377000Y-115000000D01*
X137377000Y-82000000D01*
X137366845Y-81896441D01*
X137357768Y-81792687D01*
X137356114Y-81786994D01*
X137355536Y-81781098D01*
X137325465Y-81681500D01*
X137296404Y-81581468D01*
X137293674Y-81576201D01*
X137291963Y-81570534D01*
X137243104Y-81478643D01*
X137195181Y-81386192D01*
X137191485Y-81381562D01*
X137188702Y-81376328D01*
X137122890Y-81295634D01*
X137057958Y-81214295D01*
X137049827Y-81206050D01*
X137049686Y-81205877D01*
X137049525Y-81205744D01*
X137046909Y-81203091D01*
X135046909Y-79203091D01*
X134966525Y-79137063D01*
X134886718Y-79070097D01*
X134881521Y-79067240D01*
X134876945Y-79063481D01*
X134785285Y-79014333D01*
X134693973Y-78964134D01*
X134688317Y-78962339D01*
X134683101Y-78959543D01*
X134583611Y-78929126D01*
X134484316Y-78897628D01*
X134478426Y-78896967D01*
X134472760Y-78895235D01*
X134369197Y-78884715D01*
X134265735Y-78873110D01*
X134254150Y-78873029D01*
X134253934Y-78873007D01*
X134253732Y-78873026D01*
X134250000Y-78873000D01*
X126277158Y-78873000D01*
X126277158Y-66776723D01*
X126190422Y-66338673D01*
X126020253Y-65925812D01*
X125773133Y-65553868D01*
X125458476Y-65237006D01*
X125088265Y-64987295D01*
X124676603Y-64814249D01*
X124239169Y-64724456D01*
X123792626Y-64721339D01*
X123353981Y-64805015D01*
X122939943Y-64972297D01*
X122566282Y-65216814D01*
X122247231Y-65529252D01*
X121994942Y-65897710D01*
X121819025Y-66308154D01*
X121726181Y-66744950D01*
X121719947Y-67191461D01*
X121800558Y-67630680D01*
X121964946Y-68045876D01*
X122206848Y-68421235D01*
X122517051Y-68742459D01*
X122883739Y-68997314D01*
X123292945Y-69176091D01*
X123729082Y-69271983D01*
X124175539Y-69281334D01*
X124615310Y-69203791D01*
X125031643Y-69042306D01*
X125408681Y-68803030D01*
X125732064Y-68495077D01*
X125989472Y-68130178D01*
X126171102Y-67722230D01*
X126270036Y-67286772D01*
X126277158Y-66776723D01*
X126277158Y-78873000D01*
X125146295Y-78873000D01*
X125000000Y-78873000D01*
X123750000Y-78873000D01*
X123000000Y-78873000D01*
X122026555Y-78873000D01*
X122026555Y-72750320D01*
X121968409Y-72456661D01*
X121854332Y-72179889D01*
X121688669Y-71930545D01*
X121477729Y-71718128D01*
X121229549Y-71550728D01*
X120953579Y-71434721D01*
X120660334Y-71374527D01*
X120360981Y-71372437D01*
X120066923Y-71428531D01*
X119789361Y-71540674D01*
X119538867Y-71704592D01*
X119385782Y-71854504D01*
X119140639Y-71609361D01*
X119075973Y-71556245D01*
X119011860Y-71502447D01*
X119007682Y-71500150D01*
X119004004Y-71497129D01*
X118930264Y-71457589D01*
X118856911Y-71417263D01*
X118852372Y-71415823D01*
X118848172Y-71413571D01*
X118768113Y-71389094D01*
X118688368Y-71363798D01*
X118683634Y-71363267D01*
X118679078Y-71361874D01*
X118595807Y-71353415D01*
X118512650Y-71344088D01*
X118503341Y-71344023D01*
X118503162Y-71344005D01*
X118502994Y-71344020D01*
X118500000Y-71344000D01*
X114077000Y-71344000D01*
X114077000Y-67062711D01*
X114077000Y-64937289D01*
X114046966Y-64630981D01*
X113958009Y-64336341D01*
X113813517Y-64064591D01*
X113618993Y-63826081D01*
X113381847Y-63629897D01*
X113111112Y-63483511D01*
X112817100Y-63392499D01*
X112511009Y-63360327D01*
X112204500Y-63388222D01*
X111909245Y-63475120D01*
X111636493Y-63617712D01*
X111396631Y-63810566D01*
X111198796Y-64046336D01*
X111050524Y-64316043D01*
X110957461Y-64609412D01*
X110923154Y-64915271D01*
X110923000Y-64937289D01*
X110923000Y-67062711D01*
X110953034Y-67369019D01*
X111041991Y-67663659D01*
X111186483Y-67935409D01*
X111381007Y-68173919D01*
X111618153Y-68370103D01*
X111888888Y-68516489D01*
X112182900Y-68607501D01*
X112488991Y-68639673D01*
X112795500Y-68611778D01*
X113090755Y-68524880D01*
X113363507Y-68382288D01*
X113603369Y-68189434D01*
X113801204Y-67953664D01*
X113949476Y-67683957D01*
X114042539Y-67390588D01*
X114076846Y-67084729D01*
X114077000Y-67062711D01*
X114077000Y-71344000D01*
X109077000Y-71344000D01*
X109077000Y-67062711D01*
X109077000Y-64937289D01*
X109046966Y-64630981D01*
X108958009Y-64336341D01*
X108813517Y-64064591D01*
X108618993Y-63826081D01*
X108381847Y-63629897D01*
X108111112Y-63483511D01*
X107817100Y-63392499D01*
X107511009Y-63360327D01*
X107204500Y-63388222D01*
X106909245Y-63475120D01*
X106636493Y-63617712D01*
X106396631Y-63810566D01*
X106198796Y-64046336D01*
X106050524Y-64316043D01*
X105957461Y-64609412D01*
X105923154Y-64915271D01*
X105923000Y-64937289D01*
X105923000Y-67062711D01*
X105953034Y-67369019D01*
X106041991Y-67663659D01*
X106186483Y-67935409D01*
X106381007Y-68173919D01*
X106618153Y-68370103D01*
X106888888Y-68516489D01*
X107182900Y-68607501D01*
X107488991Y-68639673D01*
X107795500Y-68611778D01*
X108090755Y-68524880D01*
X108363507Y-68382288D01*
X108603369Y-68189434D01*
X108801204Y-67953664D01*
X108949476Y-67683957D01*
X109042539Y-67390588D01*
X109076846Y-67084729D01*
X109077000Y-67062711D01*
X109077000Y-71344000D01*
X98634072Y-71344000D01*
X98542385Y-71305458D01*
X98353354Y-71266656D01*
X98160386Y-71265308D01*
X97970832Y-71301468D01*
X97791911Y-71373756D01*
X97630439Y-71479421D01*
X97492565Y-71614437D01*
X97383542Y-71773661D01*
X97307522Y-71951028D01*
X97267401Y-72139784D01*
X97264707Y-72332737D01*
X97299542Y-72522539D01*
X97370580Y-72701961D01*
X97475114Y-72864167D01*
X97609164Y-73002979D01*
X97767623Y-73113111D01*
X97944456Y-73190368D01*
X98132927Y-73231806D01*
X98325857Y-73235847D01*
X98515897Y-73202338D01*
X98635362Y-73156000D01*
X118124722Y-73156000D01*
X118529361Y-73560639D01*
X118594026Y-73613754D01*
X118658140Y-73667553D01*
X118662317Y-73669849D01*
X118665996Y-73672871D01*
X118739735Y-73712410D01*
X118813089Y-73752737D01*
X118817627Y-73754176D01*
X118821828Y-73756429D01*
X118901886Y-73780905D01*
X118981632Y-73806202D01*
X118986365Y-73806732D01*
X118990922Y-73808126D01*
X119074192Y-73816584D01*
X119157350Y-73825912D01*
X119166658Y-73825976D01*
X119166838Y-73825995D01*
X119167005Y-73825979D01*
X119170000Y-73826000D01*
X119280662Y-73826000D01*
X119297911Y-73852764D01*
X119505864Y-74068105D01*
X119751684Y-74238954D01*
X120026006Y-74358803D01*
X120318383Y-74423086D01*
X120617677Y-74429355D01*
X120912490Y-74377372D01*
X121191590Y-74269116D01*
X121444348Y-74108711D01*
X121661137Y-73902266D01*
X121833697Y-73657646D01*
X121955458Y-73384166D01*
X122021781Y-73092246D01*
X122026555Y-72750320D01*
X122026555Y-78873000D01*
X104709042Y-78873000D01*
X104709042Y-75278514D01*
X104671560Y-75089217D01*
X104598024Y-74910805D01*
X104491235Y-74750074D01*
X104355260Y-74613147D01*
X104195279Y-74505238D01*
X104017385Y-74430458D01*
X103828354Y-74391656D01*
X103635386Y-74390308D01*
X103445832Y-74426468D01*
X103266911Y-74498756D01*
X103122127Y-74593500D01*
X84077000Y-74593500D01*
X84077000Y-67062711D01*
X84077000Y-64937289D01*
X84046966Y-64630981D01*
X83958009Y-64336341D01*
X83813517Y-64064591D01*
X83618993Y-63826081D01*
X83381847Y-63629897D01*
X83111112Y-63483511D01*
X82817100Y-63392499D01*
X82511009Y-63360327D01*
X82204500Y-63388222D01*
X81909245Y-63475120D01*
X81636493Y-63617712D01*
X81396631Y-63810566D01*
X81198796Y-64046336D01*
X81050524Y-64316043D01*
X80957461Y-64609412D01*
X80923154Y-64915271D01*
X80923000Y-64937289D01*
X80923000Y-67062711D01*
X80953034Y-67369019D01*
X81041991Y-67663659D01*
X81186483Y-67935409D01*
X81381007Y-68173919D01*
X81618153Y-68370103D01*
X81888888Y-68516489D01*
X82182900Y-68607501D01*
X82488991Y-68639673D01*
X82795500Y-68611778D01*
X83090755Y-68524880D01*
X83363507Y-68382288D01*
X83603369Y-68189434D01*
X83801204Y-67953664D01*
X83949476Y-67683957D01*
X84042539Y-67390588D01*
X84076846Y-67084729D01*
X84077000Y-67062711D01*
X84077000Y-74593500D01*
X79077000Y-74593500D01*
X79077000Y-67062711D01*
X79077000Y-64937289D01*
X79046966Y-64630981D01*
X78958009Y-64336341D01*
X78813517Y-64064591D01*
X78618993Y-63826081D01*
X78381847Y-63629897D01*
X78111112Y-63483511D01*
X77817100Y-63392499D01*
X77511009Y-63360327D01*
X77204500Y-63388222D01*
X76909245Y-63475120D01*
X76636493Y-63617712D01*
X76396631Y-63810566D01*
X76198796Y-64046336D01*
X76050524Y-64316043D01*
X75957461Y-64609412D01*
X75923154Y-64915271D01*
X75923000Y-64937289D01*
X75923000Y-67062711D01*
X75953034Y-67369019D01*
X76041991Y-67663659D01*
X76186483Y-67935409D01*
X76381007Y-68173919D01*
X76618153Y-68370103D01*
X76888888Y-68516489D01*
X77182900Y-68607501D01*
X77488991Y-68639673D01*
X77795500Y-68611778D01*
X78090755Y-68524880D01*
X78363507Y-68382288D01*
X78603369Y-68189434D01*
X78801204Y-67953664D01*
X78949476Y-67683957D01*
X79042539Y-67390588D01*
X79076846Y-67084729D01*
X79077000Y-67062711D01*
X79077000Y-74593500D01*
X74325373Y-74593500D01*
X74193779Y-74504738D01*
X74015885Y-74429958D01*
X73826854Y-74391156D01*
X73633886Y-74389808D01*
X73444332Y-74425968D01*
X73265411Y-74498256D01*
X73119863Y-74593500D01*
X68277158Y-74593500D01*
X68277158Y-66776723D01*
X68190422Y-66338673D01*
X68020253Y-65925812D01*
X67773133Y-65553868D01*
X67458476Y-65237006D01*
X67088265Y-64987295D01*
X66676603Y-64814249D01*
X66239169Y-64724456D01*
X65792626Y-64721339D01*
X65353981Y-64805015D01*
X64939943Y-64972297D01*
X64566282Y-65216814D01*
X64247231Y-65529252D01*
X63994942Y-65897710D01*
X63819025Y-66308154D01*
X63726181Y-66744950D01*
X63719947Y-67191461D01*
X63800558Y-67630680D01*
X63964946Y-68045876D01*
X64206848Y-68421235D01*
X64517051Y-68742459D01*
X64883739Y-68997314D01*
X65292945Y-69176091D01*
X65729082Y-69271983D01*
X66175539Y-69281334D01*
X66615310Y-69203791D01*
X67031643Y-69042306D01*
X67408681Y-68803030D01*
X67732064Y-68495077D01*
X67989472Y-68130178D01*
X68171102Y-67722230D01*
X68270036Y-67286772D01*
X68277158Y-66776723D01*
X68277158Y-74593500D01*
X63776555Y-74593500D01*
X63776555Y-70100320D01*
X63718409Y-69806661D01*
X63604332Y-69529889D01*
X63438669Y-69280545D01*
X63227729Y-69068128D01*
X62979549Y-68900728D01*
X62703579Y-68784721D01*
X62410334Y-68724527D01*
X62110981Y-68722437D01*
X61816923Y-68778531D01*
X61539361Y-68890674D01*
X61288867Y-69054592D01*
X61074983Y-69264044D01*
X60905854Y-69511050D01*
X60787924Y-69786202D01*
X60725683Y-70079020D01*
X60721504Y-70378351D01*
X60775544Y-70672794D01*
X60885746Y-70951132D01*
X61047911Y-71202764D01*
X61255864Y-71418105D01*
X61501684Y-71588954D01*
X61776006Y-71708803D01*
X62068383Y-71773086D01*
X62367677Y-71779355D01*
X62662490Y-71727372D01*
X62941590Y-71619116D01*
X63194348Y-71458711D01*
X63411137Y-71252266D01*
X63583697Y-71007646D01*
X63705458Y-70734166D01*
X63771781Y-70442246D01*
X63776555Y-70100320D01*
X63776555Y-74593500D01*
X60085500Y-74593500D01*
X60013715Y-74600538D01*
X59941834Y-74606827D01*
X59937887Y-74607973D01*
X59933803Y-74608374D01*
X59864800Y-74629207D01*
X59795462Y-74649352D01*
X59791811Y-74651244D01*
X59787884Y-74652430D01*
X59724241Y-74686269D01*
X59660137Y-74719498D01*
X59656925Y-74722062D01*
X59653301Y-74723989D01*
X59597406Y-74769575D01*
X59541014Y-74814593D01*
X59535297Y-74820230D01*
X59535181Y-74820325D01*
X59535091Y-74820432D01*
X59533250Y-74822249D01*
X58447750Y-75907750D01*
X58401970Y-75963481D01*
X58355586Y-76018761D01*
X58353607Y-76022359D01*
X58351001Y-76025533D01*
X58316930Y-76089074D01*
X58282155Y-76152331D01*
X58280911Y-76156250D01*
X58278973Y-76159866D01*
X58257885Y-76228838D01*
X58236067Y-76297621D01*
X58235609Y-76301700D01*
X58234408Y-76305630D01*
X58227116Y-76377412D01*
X58219076Y-76449096D01*
X58219020Y-76457124D01*
X58219005Y-76457273D01*
X58219018Y-76457411D01*
X58219000Y-76460000D01*
X58219000Y-77569400D01*
X57932095Y-77569400D01*
X57830280Y-77589652D01*
X57734372Y-77629379D01*
X57648057Y-77687052D01*
X57574652Y-77760457D01*
X57516979Y-77846772D01*
X57477252Y-77942680D01*
X57457000Y-78044495D01*
X57457000Y-78148305D01*
X57457000Y-79875505D01*
X57477252Y-79977320D01*
X57516979Y-80073228D01*
X57574652Y-80159543D01*
X57648057Y-80232948D01*
X57734372Y-80290621D01*
X57830280Y-80330348D01*
X57908473Y-80345901D01*
X57782076Y-80451331D01*
X57597965Y-80679354D01*
X57461876Y-80938914D01*
X57418815Y-81047923D01*
X57526438Y-81277000D01*
X58777000Y-81277000D01*
X58777000Y-81257000D01*
X59223000Y-81257000D01*
X59223000Y-81277000D01*
X60473562Y-81277000D01*
X60581185Y-81047923D01*
X60538124Y-80938914D01*
X60402035Y-80679354D01*
X60217924Y-80451331D01*
X60091526Y-80345901D01*
X60169720Y-80330348D01*
X60265628Y-80290621D01*
X60351943Y-80232948D01*
X60425348Y-80159543D01*
X60483021Y-80073228D01*
X60522748Y-79977320D01*
X60543000Y-79875505D01*
X60543000Y-79771695D01*
X60543000Y-78044495D01*
X60522748Y-77942680D01*
X60483021Y-77846772D01*
X60425348Y-77760457D01*
X60351943Y-77687052D01*
X60265628Y-77629379D01*
X60169720Y-77589652D01*
X60067905Y-77569400D01*
X59964095Y-77569400D01*
X59781000Y-77569400D01*
X59781000Y-76783500D01*
X60409000Y-76155500D01*
X73122980Y-76155500D01*
X73241123Y-76237611D01*
X73417956Y-76314868D01*
X73606427Y-76356306D01*
X73799357Y-76360347D01*
X73989397Y-76326838D01*
X74169310Y-76257054D01*
X74329333Y-76155500D01*
X103123761Y-76155500D01*
X103242623Y-76238111D01*
X103419456Y-76315368D01*
X103607927Y-76356806D01*
X103800857Y-76360847D01*
X103990897Y-76327338D01*
X104170810Y-76257554D01*
X104333742Y-76154154D01*
X104473487Y-76021077D01*
X104584723Y-75863390D01*
X104663212Y-75687101D01*
X104705964Y-75498925D01*
X104709042Y-75278514D01*
X104709042Y-78873000D01*
X95000000Y-78873000D01*
X94960864Y-78873000D01*
X95108742Y-78779154D01*
X95248487Y-78646077D01*
X95359723Y-78488390D01*
X95438212Y-78312101D01*
X95480964Y-78123925D01*
X95484042Y-77903514D01*
X95446560Y-77714217D01*
X95373024Y-77535805D01*
X95266235Y-77375074D01*
X95130260Y-77238147D01*
X94970279Y-77130238D01*
X94792385Y-77055458D01*
X94603354Y-77016656D01*
X94410386Y-77015308D01*
X94220832Y-77051468D01*
X94115560Y-77094000D01*
X93884072Y-77094000D01*
X93792385Y-77055458D01*
X93603354Y-77016656D01*
X93410386Y-77015308D01*
X93220832Y-77051468D01*
X93115560Y-77094000D01*
X92853705Y-77094000D01*
X89103705Y-77094000D01*
X89000000Y-77094000D01*
X67000000Y-77094000D01*
X66916694Y-77102168D01*
X66833340Y-77109461D01*
X66828765Y-77110790D01*
X66824024Y-77111255D01*
X66743898Y-77135445D01*
X66663540Y-77158792D01*
X66659311Y-77160983D01*
X66654750Y-77162361D01*
X66580850Y-77201654D01*
X66506557Y-77240164D01*
X66502833Y-77243136D01*
X66498627Y-77245373D01*
X66433772Y-77298267D01*
X66368368Y-77350479D01*
X66361736Y-77357018D01*
X66361601Y-77357129D01*
X66361497Y-77357254D01*
X66359361Y-77359361D01*
X62959361Y-80759361D01*
X60624722Y-83094000D01*
X60175081Y-83094000D01*
X60153412Y-83067048D01*
X59945509Y-82892597D01*
X59826370Y-82827099D01*
X59992865Y-82736393D01*
X60217924Y-82548669D01*
X60402035Y-82320646D01*
X60538124Y-82061086D01*
X60581185Y-81952077D01*
X60473562Y-81723000D01*
X59223000Y-81723000D01*
X59223000Y-81743000D01*
X58777000Y-81743000D01*
X58777000Y-81723000D01*
X57526438Y-81723000D01*
X57418815Y-81952077D01*
X57461876Y-82061086D01*
X57597965Y-82320646D01*
X57782076Y-82548669D01*
X58007135Y-82736393D01*
X58173491Y-82827024D01*
X58070588Y-82881740D01*
X57860270Y-83053271D01*
X57687274Y-83262386D01*
X57558191Y-83501121D01*
X57477937Y-83760381D01*
X57449568Y-84030292D01*
X57474165Y-84300572D01*
X57550792Y-84560928D01*
X57676530Y-84801441D01*
X57846588Y-85012952D01*
X58054491Y-85187403D01*
X58292318Y-85318150D01*
X58551012Y-85400212D01*
X58820718Y-85430464D01*
X58840134Y-85430600D01*
X59159866Y-85430600D01*
X59429968Y-85404116D01*
X59689782Y-85325674D01*
X59929412Y-85198260D01*
X60139730Y-85026729D01*
X60239606Y-84906000D01*
X61000000Y-84906000D01*
X61000201Y-84905980D01*
X56664730Y-89241451D01*
X56664730Y-65981528D01*
X56664730Y-65018472D01*
X56574918Y-64749281D01*
X56399159Y-64466209D01*
X56171553Y-64222865D01*
X55900846Y-64028601D01*
X55597442Y-63890882D01*
X55273000Y-63815000D01*
X54223000Y-63815000D01*
X54223000Y-65277000D01*
X56559871Y-65277000D01*
X56664730Y-65018472D01*
X56664730Y-65981528D01*
X56559871Y-65723000D01*
X54223000Y-65723000D01*
X54223000Y-67185000D01*
X55273000Y-67185000D01*
X55597442Y-67109118D01*
X55900846Y-66971399D01*
X56171553Y-66777135D01*
X56399159Y-66533791D01*
X56574918Y-66250719D01*
X56664730Y-65981528D01*
X56664730Y-89241451D01*
X56639673Y-89266508D01*
X56639673Y-70511009D01*
X56611778Y-70204500D01*
X56524880Y-69909245D01*
X56382288Y-69636493D01*
X56189434Y-69396631D01*
X55953664Y-69198796D01*
X55683957Y-69050524D01*
X55390588Y-68957461D01*
X55084729Y-68923154D01*
X55062711Y-68923000D01*
X53777000Y-68923000D01*
X53777000Y-67185000D01*
X53777000Y-65723000D01*
X53777000Y-65277000D01*
X53777000Y-63815000D01*
X52727000Y-63815000D01*
X52402558Y-63890882D01*
X52099154Y-64028601D01*
X51828447Y-64222865D01*
X51600841Y-64466209D01*
X51425082Y-64749281D01*
X51335270Y-65018472D01*
X51440129Y-65277000D01*
X53777000Y-65277000D01*
X53777000Y-65723000D01*
X51440129Y-65723000D01*
X51335270Y-65981528D01*
X51425082Y-66250719D01*
X51600841Y-66533791D01*
X51828447Y-66777135D01*
X52099154Y-66971399D01*
X52402558Y-67109118D01*
X52727000Y-67185000D01*
X53777000Y-67185000D01*
X53777000Y-68923000D01*
X52937289Y-68923000D01*
X52630981Y-68953034D01*
X52336341Y-69041991D01*
X52064591Y-69186483D01*
X51826081Y-69381007D01*
X51629897Y-69618153D01*
X51483511Y-69888888D01*
X51392499Y-70182900D01*
X51360327Y-70488991D01*
X51388222Y-70795500D01*
X51475120Y-71090755D01*
X51617712Y-71363507D01*
X51810566Y-71603369D01*
X52046336Y-71801204D01*
X52316043Y-71949476D01*
X52609412Y-72042539D01*
X52915271Y-72076846D01*
X52937289Y-72077000D01*
X55062711Y-72077000D01*
X55369019Y-72046966D01*
X55663659Y-71958009D01*
X55935409Y-71813517D01*
X56173919Y-71618993D01*
X56370103Y-71381847D01*
X56516489Y-71111112D01*
X56607501Y-70817100D01*
X56639673Y-70511009D01*
X56639673Y-89266508D01*
X55703091Y-90203091D01*
X55635858Y-90284941D01*
X55567880Y-90366532D01*
X55565986Y-90370004D01*
X55563481Y-90373055D01*
X55513410Y-90466435D01*
X55462591Y-90559646D01*
X55461408Y-90563420D01*
X55459543Y-90566899D01*
X55428551Y-90668267D01*
X55396817Y-90769533D01*
X55396390Y-90773461D01*
X55395235Y-90777240D01*
X55384524Y-90882682D01*
X55373061Y-90988198D01*
X55373405Y-90992139D01*
X55373007Y-90996066D01*
X55382978Y-91101549D01*
X55392232Y-91207313D01*
X55393000Y-91209956D01*
X55393000Y-115000000D01*
X55393000Y-117235558D01*
X55296785Y-117171270D01*
X55181223Y-117123403D01*
X55058542Y-117099000D01*
X54361750Y-117099000D01*
X54203000Y-117257750D01*
X54203000Y-118527000D01*
X54223000Y-118527000D01*
X54223000Y-118973000D01*
X54203000Y-118973000D01*
X54203000Y-120242250D01*
X54361750Y-120401000D01*
X55058542Y-120401000D01*
X55181223Y-120376597D01*
X55296785Y-120328730D01*
X55400789Y-120259237D01*
X55489237Y-120170789D01*
X55558730Y-120066785D01*
X55593307Y-119983307D01*
X55640790Y-120023150D01*
X55904682Y-120168226D01*
X56191726Y-120259282D01*
X56490990Y-120292850D01*
X56512534Y-120293000D01*
X56527466Y-120293000D01*
X56827170Y-120263614D01*
X57115458Y-120176575D01*
X57381349Y-120035197D01*
X57614717Y-119844868D01*
X57806671Y-119612835D01*
X57949901Y-119347937D01*
X58038951Y-119060263D01*
X58070428Y-118760772D01*
X58043135Y-118460871D01*
X57958111Y-118171982D01*
X57818593Y-117905110D01*
X57647000Y-117691690D01*
X57647000Y-116127000D01*
X69627000Y-116127000D01*
X97377000Y-116127000D01*
X102000000Y-116127000D01*
X127377000Y-116127000D01*
X135123000Y-116127000D01*
X135123000Y-117222195D01*
X135046785Y-117171270D01*
X134931223Y-117123403D01*
X134808542Y-117099000D01*
X134111750Y-117099000D01*
X133953000Y-117257750D01*
X133953000Y-118527000D01*
X133973000Y-118527000D01*
X133973000Y-118973000D01*
X133953000Y-118973000D01*
X133953000Y-120242250D01*
X134111750Y-120401000D01*
X134808542Y-120401000D01*
X134931223Y-120376597D01*
X135046785Y-120328730D01*
X135150789Y-120259237D01*
X135239237Y-120170789D01*
X135308730Y-120066785D01*
X135343307Y-119983307D01*
X135390790Y-120023150D01*
X135654682Y-120168226D01*
X135941726Y-120259282D01*
X136240990Y-120292850D01*
X136262534Y-120293000D01*
X136277466Y-120293000D01*
X136577170Y-120263614D01*
X136865458Y-120176575D01*
X137131349Y-120035197D01*
X137364717Y-119844868D01*
X137556671Y-119612835D01*
X137699901Y-119347937D01*
X137788951Y-119060263D01*
X137820428Y-118760772D01*
X137820428Y-128423000D01*
X133507000Y-128423000D01*
X133507000Y-120242250D01*
X133507000Y-118973000D01*
X133507000Y-118527000D01*
X133507000Y-117257750D01*
X133348250Y-117099000D01*
X132651458Y-117099000D01*
X132528777Y-117123403D01*
X132413215Y-117171270D01*
X132309211Y-117240763D01*
X132220763Y-117329211D01*
X132151270Y-117433215D01*
X132103403Y-117548777D01*
X132079000Y-117671458D01*
X132079000Y-117796542D01*
X132079000Y-118368250D01*
X132237750Y-118527000D01*
X133507000Y-118527000D01*
X133507000Y-118973000D01*
X132237750Y-118973000D01*
X132079000Y-119131750D01*
X132079000Y-119703458D01*
X132079000Y-119828542D01*
X132103403Y-119951223D01*
X132151270Y-120066785D01*
X132220763Y-120170789D01*
X132309211Y-120259237D01*
X132413215Y-120328730D01*
X132528777Y-120376597D01*
X132651458Y-120401000D01*
X133348250Y-120401000D01*
X133507000Y-120242250D01*
X133507000Y-128423000D01*
X127377000Y-128423000D01*
X126527158Y-128423000D01*
X126527158Y-121776723D01*
X126440422Y-121338673D01*
X126270253Y-120925812D01*
X126023133Y-120553868D01*
X125708476Y-120237006D01*
X125338265Y-119987295D01*
X124926603Y-119814249D01*
X124489169Y-119724456D01*
X124042626Y-119721339D01*
X123603981Y-119805015D01*
X123189943Y-119972297D01*
X122816282Y-120216814D01*
X122497231Y-120529252D01*
X122244942Y-120897710D01*
X122069025Y-121308154D01*
X121976181Y-121744950D01*
X121969947Y-122191461D01*
X122050558Y-122630680D01*
X122214946Y-123045876D01*
X122456848Y-123421235D01*
X122767051Y-123742459D01*
X123133739Y-123997314D01*
X123542945Y-124176091D01*
X123979082Y-124271983D01*
X124425539Y-124281334D01*
X124865310Y-124203791D01*
X125281643Y-124042306D01*
X125658681Y-123803030D01*
X125982064Y-123495077D01*
X126239472Y-123130178D01*
X126421102Y-122722230D01*
X126520036Y-122286772D01*
X126527158Y-121776723D01*
X126527158Y-128423000D01*
X115450600Y-128423000D01*
X115450600Y-118909866D01*
X115450600Y-118590134D01*
X115424116Y-118320032D01*
X115345674Y-118060218D01*
X115218260Y-117820588D01*
X115046729Y-117610270D01*
X114837614Y-117437274D01*
X114598879Y-117308191D01*
X114339619Y-117227937D01*
X114069708Y-117199568D01*
X113799428Y-117224165D01*
X113539072Y-117300792D01*
X113298559Y-117426530D01*
X113087048Y-117596588D01*
X112912597Y-117804491D01*
X112789122Y-118029089D01*
X112678260Y-117820588D01*
X112506729Y-117610270D01*
X112297614Y-117437274D01*
X112058879Y-117308191D01*
X111799619Y-117227937D01*
X111529708Y-117199568D01*
X111259428Y-117224165D01*
X110999072Y-117300792D01*
X110758559Y-117426530D01*
X110547048Y-117596588D01*
X110372597Y-117804491D01*
X110249122Y-118029089D01*
X110138260Y-117820588D01*
X109966729Y-117610270D01*
X109757614Y-117437274D01*
X109518879Y-117308191D01*
X109259619Y-117227937D01*
X108989708Y-117199568D01*
X108719428Y-117224165D01*
X108459072Y-117300792D01*
X108218559Y-117426530D01*
X108007048Y-117596588D01*
X107832597Y-117804491D01*
X107830600Y-117808123D01*
X107830600Y-117682095D01*
X107810348Y-117580280D01*
X107770621Y-117484372D01*
X107712948Y-117398057D01*
X107639543Y-117324652D01*
X107553228Y-117266979D01*
X107457320Y-117227252D01*
X107355505Y-117207000D01*
X107251695Y-117207000D01*
X105524495Y-117207000D01*
X105422680Y-117227252D01*
X105326772Y-117266979D01*
X105240457Y-117324652D01*
X105167052Y-117398057D01*
X105109379Y-117484372D01*
X105069652Y-117580280D01*
X105049400Y-117682095D01*
X105049400Y-117785905D01*
X105049400Y-119817905D01*
X105069652Y-119919720D01*
X105109379Y-120015628D01*
X105167052Y-120101943D01*
X105240457Y-120175348D01*
X105326772Y-120233021D01*
X105422680Y-120272748D01*
X105524495Y-120293000D01*
X105628305Y-120293000D01*
X107355505Y-120293000D01*
X107457320Y-120272748D01*
X107553228Y-120233021D01*
X107639543Y-120175348D01*
X107712948Y-120101943D01*
X107770621Y-120015628D01*
X107810348Y-119919720D01*
X107830600Y-119817905D01*
X107830600Y-119714095D01*
X107830600Y-119690275D01*
X107993271Y-119889730D01*
X108202386Y-120062726D01*
X108441121Y-120191809D01*
X108700381Y-120272063D01*
X108970292Y-120300432D01*
X109240572Y-120275835D01*
X109500928Y-120199208D01*
X109741441Y-120073470D01*
X109952952Y-119903412D01*
X110127403Y-119695509D01*
X110250877Y-119470910D01*
X110361740Y-119679412D01*
X110533271Y-119889730D01*
X110742386Y-120062726D01*
X110981121Y-120191809D01*
X111240381Y-120272063D01*
X111510292Y-120300432D01*
X111780572Y-120275835D01*
X112040928Y-120199208D01*
X112281441Y-120073470D01*
X112492952Y-119903412D01*
X112667403Y-119695509D01*
X112790877Y-119470910D01*
X112901740Y-119679412D01*
X113073271Y-119889730D01*
X113282386Y-120062726D01*
X113521121Y-120191809D01*
X113780381Y-120272063D01*
X114050292Y-120300432D01*
X114320572Y-120275835D01*
X114580928Y-120199208D01*
X114821441Y-120073470D01*
X115032952Y-119903412D01*
X115207403Y-119695509D01*
X115338150Y-119457682D01*
X115420212Y-119198988D01*
X115450464Y-118929282D01*
X115450600Y-118909866D01*
X115450600Y-128423000D01*
X97377000Y-128423000D01*
X85200600Y-128423000D01*
X85200600Y-118909866D01*
X85200600Y-118590134D01*
X85174116Y-118320032D01*
X85095674Y-118060218D01*
X84968260Y-117820588D01*
X84796729Y-117610270D01*
X84587614Y-117437274D01*
X84348879Y-117308191D01*
X84089619Y-117227937D01*
X83819708Y-117199568D01*
X83549428Y-117224165D01*
X83289072Y-117300792D01*
X83048559Y-117426530D01*
X82837048Y-117596588D01*
X82662597Y-117804491D01*
X82539122Y-118029089D01*
X82428260Y-117820588D01*
X82256729Y-117610270D01*
X82047614Y-117437274D01*
X81808879Y-117308191D01*
X81549619Y-117227937D01*
X81279708Y-117199568D01*
X81009428Y-117224165D01*
X80749072Y-117300792D01*
X80508559Y-117426530D01*
X80297048Y-117596588D01*
X80122597Y-117804491D01*
X79999122Y-118029089D01*
X79888260Y-117820588D01*
X79716729Y-117610270D01*
X79507614Y-117437274D01*
X79268879Y-117308191D01*
X79009619Y-117227937D01*
X78739708Y-117199568D01*
X78469428Y-117224165D01*
X78209072Y-117300792D01*
X77968559Y-117426530D01*
X77757048Y-117596588D01*
X77582597Y-117804491D01*
X77580600Y-117808123D01*
X77580600Y-117682095D01*
X77560348Y-117580280D01*
X77520621Y-117484372D01*
X77462948Y-117398057D01*
X77389543Y-117324652D01*
X77303228Y-117266979D01*
X77207320Y-117227252D01*
X77105505Y-117207000D01*
X77001695Y-117207000D01*
X75274495Y-117207000D01*
X75172680Y-117227252D01*
X75076772Y-117266979D01*
X74990457Y-117324652D01*
X74917052Y-117398057D01*
X74859379Y-117484372D01*
X74819652Y-117580280D01*
X74799400Y-117682095D01*
X74799400Y-117785905D01*
X74799400Y-119817905D01*
X74819652Y-119919720D01*
X74859379Y-120015628D01*
X74917052Y-120101943D01*
X74990457Y-120175348D01*
X75076772Y-120233021D01*
X75172680Y-120272748D01*
X75274495Y-120293000D01*
X75378305Y-120293000D01*
X77105505Y-120293000D01*
X77207320Y-120272748D01*
X77303228Y-120233021D01*
X77389543Y-120175348D01*
X77462948Y-120101943D01*
X77520621Y-120015628D01*
X77560348Y-119919720D01*
X77580600Y-119817905D01*
X77580600Y-119714095D01*
X77580600Y-119690275D01*
X77743271Y-119889730D01*
X77952386Y-120062726D01*
X78191121Y-120191809D01*
X78450381Y-120272063D01*
X78720292Y-120300432D01*
X78990572Y-120275835D01*
X79250928Y-120199208D01*
X79491441Y-120073470D01*
X79702952Y-119903412D01*
X79877403Y-119695509D01*
X80000877Y-119470910D01*
X80111740Y-119679412D01*
X80283271Y-119889730D01*
X80492386Y-120062726D01*
X80731121Y-120191809D01*
X80990381Y-120272063D01*
X81260292Y-120300432D01*
X81530572Y-120275835D01*
X81790928Y-120199208D01*
X82031441Y-120073470D01*
X82242952Y-119903412D01*
X82417403Y-119695509D01*
X82540877Y-119470910D01*
X82651740Y-119679412D01*
X82823271Y-119889730D01*
X83032386Y-120062726D01*
X83271121Y-120191809D01*
X83530381Y-120272063D01*
X83800292Y-120300432D01*
X84070572Y-120275835D01*
X84330928Y-120199208D01*
X84571441Y-120073470D01*
X84782952Y-119903412D01*
X84957403Y-119695509D01*
X85088150Y-119457682D01*
X85170212Y-119198988D01*
X85200464Y-118929282D01*
X85200600Y-118909866D01*
X85200600Y-128423000D01*
X69627000Y-128423000D01*
X68277158Y-128423000D01*
X68277158Y-121776723D01*
X68190422Y-121338673D01*
X68020253Y-120925812D01*
X67773133Y-120553868D01*
X67458476Y-120237006D01*
X67088265Y-119987295D01*
X66676603Y-119814249D01*
X66239169Y-119724456D01*
X65792626Y-119721339D01*
X65353981Y-119805015D01*
X64939943Y-119972297D01*
X64566282Y-120216814D01*
X64247231Y-120529252D01*
X63994942Y-120897710D01*
X63819025Y-121308154D01*
X63726181Y-121744950D01*
X63719947Y-122191461D01*
X63800558Y-122630680D01*
X63964946Y-123045876D01*
X64206848Y-123421235D01*
X64517051Y-123742459D01*
X64883739Y-123997314D01*
X65292945Y-124176091D01*
X65729082Y-124271983D01*
X66175539Y-124281334D01*
X66615310Y-124203791D01*
X67031643Y-124042306D01*
X67408681Y-123803030D01*
X67732064Y-123495077D01*
X67989472Y-123130178D01*
X68171102Y-122722230D01*
X68270036Y-122286772D01*
X68277158Y-121776723D01*
X68277158Y-128423000D01*
X53757000Y-128423000D01*
X53757000Y-120242250D01*
X53757000Y-118973000D01*
X53757000Y-118527000D01*
X53757000Y-117257750D01*
X53598250Y-117099000D01*
X52901458Y-117099000D01*
X52778777Y-117123403D01*
X52663215Y-117171270D01*
X52559211Y-117240763D01*
X52470763Y-117329211D01*
X52401270Y-117433215D01*
X52353403Y-117548777D01*
X52329000Y-117671458D01*
X52329000Y-117796542D01*
X52329000Y-118368250D01*
X52487750Y-118527000D01*
X53757000Y-118527000D01*
X53757000Y-118973000D01*
X52487750Y-118973000D01*
X52329000Y-119131750D01*
X52329000Y-119703458D01*
X52329000Y-119828542D01*
X52353403Y-119951223D01*
X52401270Y-120066785D01*
X52470763Y-120170789D01*
X52559211Y-120259237D01*
X52663215Y-120328730D01*
X52778777Y-120376597D01*
X52901458Y-120401000D01*
X53598250Y-120401000D01*
X53757000Y-120242250D01*
X53757000Y-128423000D01*
X51028218Y-128423000D01*
X50724144Y-128393185D01*
X50458793Y-128313071D01*
X50214056Y-128182942D01*
X49999255Y-128007754D01*
X49822574Y-127794185D01*
X49690741Y-127550365D01*
X49608775Y-127285576D01*
X49577000Y-126983258D01*
X49577000Y-63028218D01*
X49606815Y-62724140D01*
X49686928Y-62458792D01*
X49817056Y-62214056D01*
X49992244Y-61999255D01*
X50205817Y-61822572D01*
X50449635Y-61690740D01*
X50714424Y-61608775D01*
X51016741Y-61577000D01*
X138971781Y-61577000D01*
X139275859Y-61606815D01*
X139541207Y-61686928D01*
X139785943Y-61817056D01*
X140000744Y-61992244D01*
X140177427Y-62205817D01*
X140309259Y-62449635D01*
X140391224Y-62714424D01*
X140423000Y-63016741D01*
X140423000Y-126971781D01*
M02*
