G04 #@! TF.FileFunction,Copper,L1,Top,Signal*
%FSLAX46Y46*%
G04 Gerber Fmt 4.6, Leading zero omitted, Abs format (unit mm)*
G04 Created by KiCad (PCBNEW 4.0.6-e0-6349~53~ubuntu16.04.1) date Thu May 25 23:24:03 2017*
%MOMM*%
%LPD*%
G01*
G04 APERTURE LIST*
%ADD10C,0.100000*%
%ADD11C,1.998980*%
%ADD12R,1.400000X2.100000*%
%ADD13R,1.498600X1.300480*%
%ADD14R,1.143000X0.635000*%
%ADD15R,1.699260X0.759460*%
%ADD16R,6.398260X9.999980*%
%ADD17R,3.398520X16.098520*%
%ADD18R,1.399540X0.599440*%
%ADD19R,2.799080X4.000500*%
%ADD20O,4.200000X2.100000*%
%ADD21O,2.100000X4.200000*%
%ADD22R,0.899160X1.000760*%
%ADD23R,1.600000X1.000000*%
%ADD24R,2.032000X2.032000*%
%ADD25O,2.032000X2.032000*%
%ADD26R,2.032000X1.727200*%
%ADD27O,2.032000X1.727200*%
%ADD28R,1.727200X2.032000*%
%ADD29O,1.727200X2.032000*%
%ADD30C,0.600000*%
%ADD31C,0.800000*%
%ADD32C,0.914000*%
%ADD33C,0.254000*%
%ADD34C,0.508000*%
%ADD35C,0.758000*%
%ADD36C,1.200000*%
%ADD37C,3.000000*%
%ADD38C,1.016000*%
%ADD39C,1.400000*%
%ADD40C,1.524000*%
%ADD41C,0.381000*%
G04 APERTURE END LIST*
D10*
D11*
X120500000Y-93000000D03*
X120500000Y-72900000D03*
X62250000Y-90250000D03*
X62250000Y-70250000D03*
D12*
X118700000Y-82500000D03*
X114300000Y-82500000D03*
X101300000Y-82500000D03*
X105700000Y-82500000D03*
X105700000Y-87000000D03*
X101300000Y-87000000D03*
X88700000Y-82500000D03*
X84300000Y-82500000D03*
X71300000Y-82500000D03*
X75700000Y-82500000D03*
X75700000Y-87000000D03*
X71300000Y-87000000D03*
X84300000Y-87000000D03*
X88700000Y-87000000D03*
X114300000Y-87000000D03*
X118700000Y-87000000D03*
D13*
X104250000Y-109952500D03*
X104250000Y-108047500D03*
X77750000Y-101047500D03*
X77750000Y-102952500D03*
D14*
X64300000Y-73762000D03*
X64300000Y-72238000D03*
X64300000Y-75238000D03*
X64300000Y-76762000D03*
X94000000Y-73762000D03*
X94000000Y-72238000D03*
X94000000Y-75238000D03*
X94000000Y-76762000D03*
D15*
X88154700Y-93285000D03*
X88152160Y-94555000D03*
X88152160Y-95825000D03*
X88152160Y-97095000D03*
X88152160Y-98365000D03*
X88152160Y-99635000D03*
X88152160Y-100905000D03*
X88152160Y-102175000D03*
D16*
X95000000Y-99000000D03*
D15*
X88154700Y-104715000D03*
X88152160Y-103445000D03*
X101847840Y-104715000D03*
X101847840Y-103445000D03*
X101847840Y-102175000D03*
X101847840Y-100905000D03*
X101847840Y-99635000D03*
X101847840Y-98365000D03*
X101847840Y-97095000D03*
X101847840Y-95825000D03*
X101847840Y-94555000D03*
X101845300Y-93285000D03*
D17*
X95000000Y-99000000D03*
D18*
X66633000Y-77905000D03*
X71967000Y-77905000D03*
X66633000Y-76635000D03*
X66633000Y-75365000D03*
X66633000Y-74095000D03*
X71967000Y-76635000D03*
X71967000Y-75365000D03*
X71967000Y-74095000D03*
D19*
X69300000Y-76000000D03*
D18*
X96633000Y-77905000D03*
X101967000Y-77905000D03*
X96633000Y-76635000D03*
X96633000Y-75365000D03*
X96633000Y-74095000D03*
X101967000Y-76635000D03*
X101967000Y-75365000D03*
X101967000Y-74095000D03*
D19*
X99300000Y-76000000D03*
D20*
X136000000Y-65500000D03*
X136000000Y-70500000D03*
D21*
X77500000Y-66000000D03*
X82500000Y-66000000D03*
X107500000Y-66000000D03*
X112500000Y-66000000D03*
D20*
X54000000Y-70500000D03*
X54000000Y-65500000D03*
D22*
X66648160Y-80300000D03*
X68151840Y-80300000D03*
X96648160Y-80300000D03*
X98151840Y-80300000D03*
D23*
X107500000Y-75750000D03*
X107500000Y-78750000D03*
X77500000Y-75750000D03*
X77500000Y-78750000D03*
D24*
X133730000Y-118750000D03*
D25*
X136270000Y-118750000D03*
D26*
X59000000Y-78960000D03*
D27*
X59000000Y-81500000D03*
X59000000Y-84040000D03*
D28*
X106440000Y-118750000D03*
D29*
X108980000Y-118750000D03*
X111520000Y-118750000D03*
X114060000Y-118750000D03*
D28*
X76190000Y-118750000D03*
D29*
X78730000Y-118750000D03*
X81270000Y-118750000D03*
X83810000Y-118750000D03*
D24*
X53980000Y-118750000D03*
D25*
X56520000Y-118750000D03*
D30*
X113500000Y-112500000D03*
X104500000Y-112500000D03*
X107750000Y-112500000D03*
X110250000Y-112500000D03*
X80000000Y-112500000D03*
X82500000Y-112500000D03*
X85750000Y-112500000D03*
X76500000Y-112500000D03*
D31*
X96250000Y-104500000D03*
X95000000Y-104500000D03*
X93750000Y-104500000D03*
X96250000Y-106000000D03*
X95000000Y-106000000D03*
X93750000Y-106000000D03*
X93750000Y-95250000D03*
X92500000Y-95250000D03*
X96250000Y-93500000D03*
X95000000Y-93500000D03*
X93750000Y-93500000D03*
X96250000Y-92000000D03*
X95000000Y-92000000D03*
X93750000Y-92000000D03*
X95000000Y-95250000D03*
X96250000Y-95250000D03*
X97500000Y-95250000D03*
X97500000Y-96750000D03*
X97500000Y-98250000D03*
X97500000Y-99750000D03*
X97500000Y-101250000D03*
X97500000Y-102750000D03*
X96250000Y-102750000D03*
X95000000Y-102750000D03*
X93750000Y-102750000D03*
X92500000Y-102750000D03*
X92500000Y-101250000D03*
X93750000Y-101250000D03*
X95000000Y-101250000D03*
X96250000Y-101250000D03*
X96250000Y-99750000D03*
X95000000Y-99750000D03*
X93750000Y-99750000D03*
X92500000Y-99750000D03*
X92500000Y-98250000D03*
X93750000Y-98250000D03*
X95000000Y-98250000D03*
X96250000Y-98250000D03*
X96250000Y-96750000D03*
X95000000Y-96750000D03*
X93750000Y-96750000D03*
X92500000Y-96750000D03*
D30*
X80000000Y-83000000D03*
X80000000Y-84500000D03*
X80000000Y-81500000D03*
X80000000Y-76750000D03*
X80000000Y-89500000D03*
X80000000Y-91250000D03*
X80000000Y-93000000D03*
X80000000Y-94750000D03*
X80000000Y-96500000D03*
X80000000Y-74000000D03*
X80000000Y-63000000D03*
X80000000Y-65000000D03*
X80000000Y-67000000D03*
X80000000Y-69000000D03*
X80000000Y-71000000D03*
X110000000Y-96500000D03*
X110000000Y-94750000D03*
X110000000Y-93000000D03*
X110000000Y-91250000D03*
X110000000Y-89500000D03*
X110000000Y-84500000D03*
X110000000Y-83000000D03*
X110000000Y-71000000D03*
X110000000Y-69000000D03*
X110000000Y-67000000D03*
X110000000Y-65000000D03*
X110000000Y-63000000D03*
X110000000Y-76750000D03*
X110000000Y-81500000D03*
X105500000Y-74000000D03*
X110000000Y-74000000D03*
X75500000Y-74000000D03*
X70000000Y-76750000D03*
X68500000Y-76750000D03*
X68500000Y-74500000D03*
X70000000Y-74500000D03*
X100000000Y-74500000D03*
X98500000Y-74500000D03*
X98500000Y-76750000D03*
X100000000Y-76750000D03*
X88750000Y-84750000D03*
X90500000Y-84750000D03*
X90500000Y-83250000D03*
X90500000Y-81750000D03*
X101250000Y-84750000D03*
X99500000Y-84750000D03*
X99500000Y-83250000D03*
X99500000Y-81750000D03*
X120500000Y-81750000D03*
X120500000Y-83250000D03*
X120500000Y-84750000D03*
X118750000Y-84750000D03*
X71250000Y-84750000D03*
X69500000Y-83500000D03*
X69500000Y-82250000D03*
X86000000Y-94500000D03*
X86000000Y-96000000D03*
X86000000Y-93000000D03*
X86000000Y-91500000D03*
X87500000Y-91500000D03*
X89000000Y-91500000D03*
X104000000Y-94500000D03*
X104000000Y-96000000D03*
X104000000Y-93000000D03*
X104000000Y-91500000D03*
X102500000Y-91500000D03*
X101250000Y-91500000D03*
D31*
X95000000Y-117000000D03*
X89000000Y-117000000D03*
X90500000Y-117000000D03*
X92000000Y-117000000D03*
X93500000Y-117000000D03*
X101000000Y-117000000D03*
X99500000Y-117000000D03*
X98000000Y-117000000D03*
X96500000Y-117000000D03*
D32*
X95000000Y-80000000D03*
X102000000Y-115000000D03*
X66750000Y-83000000D03*
X65500000Y-83000000D03*
X93750000Y-80000000D03*
X95750000Y-87750000D03*
X94250000Y-87750000D03*
X94250000Y-86250000D03*
X95750000Y-86250000D03*
X68000000Y-86250000D03*
X66500000Y-86250000D03*
X66500000Y-87750000D03*
X68000000Y-87750000D03*
X125750000Y-86250000D03*
X124250000Y-86250000D03*
X124250000Y-87750000D03*
X125750000Y-87750000D03*
X93500000Y-78000000D03*
X94500000Y-78000000D03*
X103725000Y-75375000D03*
X73723500Y-75374500D03*
X98250000Y-72250000D03*
D33*
X104250000Y-112250000D02*
X104500000Y-112500000D01*
X104250000Y-112250000D02*
X104250000Y-109952500D01*
X76500000Y-112500000D02*
X76500000Y-106750000D01*
X76500000Y-106750000D02*
X77750000Y-105500000D01*
X77750000Y-105500000D02*
X77750000Y-102952500D01*
X88154700Y-104715000D02*
X88154700Y-110095300D01*
X88154700Y-110095300D02*
X85750000Y-112500000D01*
D34*
X93750000Y-104500000D02*
X95000000Y-104500000D01*
X96250000Y-104500000D02*
X96250000Y-106000000D01*
X95000000Y-106000000D02*
X93750000Y-106000000D01*
X92500000Y-95250000D02*
X95000000Y-99000000D01*
X93750000Y-93500000D02*
X95000000Y-93500000D01*
X96250000Y-93500000D02*
X96250000Y-92000000D01*
X95000000Y-92000000D02*
X93750000Y-92000000D01*
D35*
X95000000Y-95250000D02*
X96250000Y-95250000D01*
X97500000Y-95250000D02*
X97500000Y-96750000D01*
X97500000Y-98250000D02*
X97500000Y-99750000D01*
X97500000Y-101250000D02*
X97500000Y-102750000D01*
X96250000Y-102750000D02*
X95000000Y-102750000D01*
X93750000Y-102750000D02*
X92500000Y-102750000D01*
X92500000Y-101250000D02*
X93750000Y-101250000D01*
X95000000Y-101250000D02*
X96250000Y-101250000D01*
X96250000Y-99750000D02*
X95000000Y-99750000D01*
X93750000Y-99750000D02*
X92500000Y-99750000D01*
X92500000Y-98250000D02*
X93750000Y-98250000D01*
X95000000Y-98250000D02*
X96250000Y-98250000D01*
X96250000Y-96750000D02*
X95000000Y-96750000D01*
X93750000Y-96750000D02*
X92500000Y-96750000D01*
D33*
X80000000Y-84500000D02*
X80000000Y-83000000D01*
X80000000Y-76750000D02*
X80000000Y-74000000D01*
X80000000Y-76750000D02*
X80000000Y-81500000D01*
X80000000Y-91250000D02*
X80000000Y-93000000D01*
X80000000Y-94750000D02*
X80000000Y-96500000D01*
X80000000Y-84500000D02*
X80000000Y-89500000D01*
X80000000Y-63000000D02*
X80000000Y-74000000D01*
X80000000Y-67000000D02*
X80000000Y-65000000D01*
X80000000Y-71000000D02*
X80000000Y-69000000D01*
X110000000Y-84500000D02*
X110000000Y-89500000D01*
X110000000Y-94750000D02*
X110000000Y-96500000D01*
X110000000Y-91250000D02*
X110000000Y-93000000D01*
X110000000Y-84500000D02*
X110000000Y-83000000D01*
X110000000Y-76750000D02*
X110000000Y-74000000D01*
X110000000Y-71000000D02*
X110000000Y-69000000D01*
X110000000Y-67000000D02*
X110000000Y-65000000D01*
X110000000Y-63000000D02*
X110000000Y-74000000D01*
X110000000Y-76750000D02*
X110000000Y-81500000D01*
X105500000Y-74000000D02*
X105405000Y-74095000D01*
X105405000Y-74095000D02*
X101967000Y-74095000D01*
X75500000Y-74000000D02*
X72062000Y-74000000D01*
X70000000Y-76750000D02*
X69300000Y-76000000D01*
X68500000Y-74500000D02*
X68500000Y-76750000D01*
X70405000Y-74095000D02*
X70000000Y-74500000D01*
X71967000Y-74095000D02*
X70405000Y-74095000D01*
X101967000Y-74095000D02*
X100405000Y-74095000D01*
X100405000Y-74095000D02*
X100000000Y-74500000D01*
X98500000Y-74500000D02*
X98500000Y-76750000D01*
X100000000Y-76750000D02*
X99300000Y-76000000D01*
X88700000Y-84700000D02*
X88750000Y-84750000D01*
X90500000Y-84750000D02*
X90500000Y-83250000D01*
X88700000Y-82500000D02*
X88700000Y-84700000D01*
X101300000Y-84700000D02*
X101250000Y-84750000D01*
X99500000Y-84750000D02*
X99500000Y-83250000D01*
X101300000Y-82500000D02*
X101300000Y-84700000D01*
X118700000Y-82500000D02*
X118700000Y-84700000D01*
X120500000Y-84750000D02*
X120500000Y-83250000D01*
X118700000Y-84700000D02*
X118750000Y-84750000D01*
X71300000Y-84700000D02*
X71250000Y-84750000D01*
X69500000Y-83500000D02*
X69500000Y-82250000D01*
X71300000Y-82500000D02*
X71300000Y-84700000D01*
X86055000Y-94555000D02*
X86000000Y-94500000D01*
X86000000Y-96000000D02*
X86000000Y-93000000D01*
X86000000Y-91500000D02*
X87500000Y-91500000D01*
X88152160Y-94555000D02*
X86055000Y-94555000D01*
X103945000Y-94555000D02*
X104000000Y-94500000D01*
X104000000Y-96000000D02*
X104000000Y-93000000D01*
X104000000Y-91500000D02*
X102500000Y-91500000D01*
X101847840Y-94555000D02*
X103945000Y-94555000D01*
X90500000Y-117000000D02*
X89000000Y-117000000D01*
X93500000Y-117000000D02*
X92000000Y-117000000D01*
X99500000Y-117000000D02*
X101000000Y-117000000D01*
X96500000Y-117000000D02*
X98000000Y-117000000D01*
X95000000Y-99000000D02*
X95000000Y-117000000D01*
D35*
X95300000Y-80300000D02*
X95000000Y-80000000D01*
X96648160Y-80300000D02*
X95300000Y-80300000D01*
X104250000Y-108047500D02*
X102952500Y-108047500D01*
X102000000Y-109000000D02*
X102000000Y-115000000D01*
X102952500Y-108047500D02*
X102000000Y-109000000D01*
X66648160Y-80300000D02*
X66648160Y-82898160D01*
X66648160Y-82898160D02*
X66750000Y-83000000D01*
D36*
X65500000Y-83000000D02*
X66750000Y-83000000D01*
D35*
X104250000Y-108047500D02*
X104250000Y-104239530D01*
X104250000Y-104239530D02*
X103455470Y-103445000D01*
X103455470Y-103445000D02*
X101847840Y-103445000D01*
D34*
X66633000Y-80284840D02*
X66648160Y-80300000D01*
X66633000Y-77905000D02*
X66633000Y-80284840D01*
X96633000Y-80284840D02*
X96648160Y-80300000D01*
X96633000Y-77905000D02*
X96633000Y-80284840D01*
D36*
X95000000Y-80000000D02*
X93750000Y-80000000D01*
D37*
X136000000Y-70500000D02*
X136000000Y-83750000D01*
X132750000Y-87000000D02*
X125750000Y-87000000D01*
X136000000Y-83750000D02*
X132750000Y-87000000D01*
X54000000Y-71000000D02*
X54000000Y-84500000D01*
X56469062Y-86969062D02*
X66500000Y-86969062D01*
X54000000Y-84500000D02*
X56469062Y-86969062D01*
D38*
X77750000Y-101047500D02*
X70047500Y-101047500D01*
X68000000Y-99000000D02*
X68000000Y-87750000D01*
X70047500Y-101047500D02*
X68000000Y-99000000D01*
D35*
X83115000Y-99635000D02*
X81702500Y-101047500D01*
X81702500Y-101047500D02*
X77750000Y-101047500D01*
X88152160Y-99635000D02*
X83115000Y-99635000D01*
D39*
X70800000Y-87000000D02*
X68600000Y-87000000D01*
X89200000Y-87000000D02*
X93600000Y-87000000D01*
X100800000Y-87000000D02*
X96400000Y-87000000D01*
D40*
X95750000Y-87750000D02*
X95750000Y-86250000D01*
D39*
X94219062Y-87000000D02*
X94250000Y-86969062D01*
D40*
X94250000Y-86969062D02*
X94250000Y-87750000D01*
X94250000Y-86250000D02*
X94250000Y-86969062D01*
X66500000Y-86250000D02*
X66500000Y-86969062D01*
X66500000Y-86969062D02*
X66500000Y-87750000D01*
X68000000Y-87750000D02*
X68000000Y-86250000D01*
D39*
X124219062Y-87000000D02*
X124250000Y-86969062D01*
X119200000Y-87000000D02*
X124219062Y-87000000D01*
D40*
X124250000Y-86250000D02*
X124250000Y-86969062D01*
X124250000Y-86969062D02*
X124250000Y-87750000D01*
D39*
X124219062Y-87000000D02*
X124250000Y-86969062D01*
D40*
X125750000Y-87750000D02*
X125750000Y-87000000D01*
X125750000Y-87000000D02*
X125750000Y-86250000D01*
D39*
X119200000Y-87000000D02*
X123600000Y-87000000D01*
X124219062Y-87000000D02*
X124250000Y-86969062D01*
X77500000Y-66000000D02*
X77500000Y-74038369D01*
X77500000Y-75500000D02*
X77500000Y-73938369D01*
D33*
X77000000Y-75350000D02*
X77000000Y-75874000D01*
D41*
X73435000Y-76635000D02*
X71967000Y-76635000D01*
X77365000Y-76750000D02*
X73550000Y-76750000D01*
X77500000Y-76615000D02*
X77365000Y-76750000D01*
X73550000Y-76750000D02*
X73435000Y-76635000D01*
X77500000Y-75600000D02*
X77500000Y-76615000D01*
D39*
X107500000Y-65274000D02*
X107500000Y-75100000D01*
D41*
X103435000Y-76635000D02*
X101967000Y-76635000D01*
X103550000Y-76750000D02*
X103435000Y-76635000D01*
X107365000Y-76750000D02*
X103550000Y-76750000D01*
X107500000Y-76615000D02*
X107365000Y-76750000D01*
X107500000Y-75726000D02*
X107500000Y-76615000D01*
D35*
X64300000Y-76900000D02*
X64300000Y-80700000D01*
X64300000Y-80700000D02*
X60960000Y-84040000D01*
X60960000Y-84040000D02*
X59000000Y-84040000D01*
X94500000Y-78000000D02*
X93982551Y-78000000D01*
X93982551Y-78000000D02*
X93500000Y-78000000D01*
D34*
X94000000Y-77982551D02*
X93982551Y-78000000D01*
X94000000Y-76762000D02*
X94000000Y-77982551D01*
D41*
X66633000Y-76635000D02*
X64427000Y-76635000D01*
X64427000Y-76635000D02*
X64300000Y-76762000D01*
X94127000Y-76635000D02*
X94000000Y-76762000D01*
X96633000Y-76635000D02*
X94127000Y-76635000D01*
D34*
X94412500Y-78000000D02*
X94500000Y-78000000D01*
X101967000Y-75365000D02*
X103715000Y-75365000D01*
X103715000Y-75365000D02*
X103725000Y-75375000D01*
X73714000Y-75365000D02*
X73723500Y-75374500D01*
X71967000Y-75365000D02*
X73714000Y-75365000D01*
D41*
X64300000Y-72238000D02*
X66038000Y-72238000D01*
X66633000Y-72833000D02*
X66633000Y-74095000D01*
X66038000Y-72238000D02*
X66633000Y-72833000D01*
D34*
X63250000Y-70250000D02*
X64300000Y-71300000D01*
X64300000Y-71300000D02*
X64300000Y-72238000D01*
X62250000Y-70250000D02*
X63250000Y-70250000D01*
D35*
X88152160Y-103445000D02*
X86544530Y-103445000D01*
X86544530Y-103445000D02*
X83810000Y-106179530D01*
X83810000Y-106179530D02*
X83810000Y-118750000D01*
X88152160Y-100905000D02*
X84595000Y-100905000D01*
X84595000Y-100905000D02*
X78730000Y-106770000D01*
X78730000Y-106770000D02*
X78730000Y-118750000D01*
X88152160Y-102175000D02*
X85575000Y-102175000D01*
X85575000Y-102175000D02*
X81270000Y-106480000D01*
X81270000Y-106480000D02*
X81270000Y-118750000D01*
D34*
X98250000Y-72250000D02*
X98238000Y-72238000D01*
X94012000Y-72250000D02*
X94000000Y-72238000D01*
X96633000Y-72274647D02*
X96608353Y-72250000D01*
X96633000Y-74095000D02*
X96633000Y-72274647D01*
X96608353Y-72250000D02*
X94012000Y-72250000D01*
X98250000Y-72250000D02*
X96608353Y-72250000D01*
D35*
X101847840Y-99635000D02*
X105635000Y-99635000D01*
X111520000Y-105520000D02*
X111520000Y-118750000D01*
X105635000Y-99635000D02*
X111520000Y-105520000D01*
X101847840Y-102175000D02*
X104175000Y-102175000D01*
X104175000Y-102175000D02*
X106440000Y-104440000D01*
X106440000Y-104440000D02*
X106440000Y-118750000D01*
X101847840Y-100905000D02*
X104905000Y-100905000D01*
X104905000Y-100905000D02*
X108980000Y-104980000D01*
X108980000Y-104980000D02*
X108980000Y-118750000D01*
D39*
X84000000Y-82500000D02*
X82700000Y-82500000D01*
X82700000Y-82500000D02*
X82500000Y-82300000D01*
X82500000Y-82300000D02*
X82500000Y-82264050D01*
D35*
X82595000Y-97095000D02*
X88152160Y-97095000D01*
X82500000Y-97000000D02*
X82595000Y-97095000D01*
D39*
X82500000Y-65750000D02*
X82500000Y-82264050D01*
X82500000Y-82264050D02*
X82500000Y-86975309D01*
D36*
X82500000Y-86100000D02*
X82500000Y-86975309D01*
X82600000Y-86000000D02*
X82500000Y-86100000D01*
X82514050Y-82250000D02*
X82500000Y-82264050D01*
D39*
X82500000Y-88350882D02*
X82500000Y-96750000D01*
X82500000Y-86975309D02*
X82500000Y-88350882D01*
X82500000Y-87200000D02*
X82500000Y-88350882D01*
X82700000Y-87000000D02*
X82500000Y-87200000D01*
X84000000Y-87000000D02*
X82700000Y-87000000D01*
D35*
X101847840Y-98365000D02*
X112365000Y-98365000D01*
D39*
X112500000Y-66000000D02*
X112500000Y-82204435D01*
X112500000Y-87000000D02*
X112500000Y-98000000D01*
X112500000Y-85943991D02*
X112500000Y-87000000D01*
X112500000Y-82204435D02*
X112500000Y-85943991D01*
D36*
X112556009Y-86000000D02*
X112500000Y-85943991D01*
X112500000Y-82204435D02*
X112500000Y-82204435D01*
X112545565Y-82250000D02*
X112500000Y-82204435D01*
D39*
X112500000Y-82500000D02*
X112500000Y-82204435D01*
X112795565Y-82500000D02*
X112500000Y-82204435D01*
X114300000Y-82500000D02*
X112795565Y-82500000D01*
X114300000Y-87000000D02*
X112500000Y-87000000D01*
D41*
X64300000Y-73762000D02*
X64300000Y-75238000D01*
X64427000Y-75365000D02*
X64300000Y-75238000D01*
X66633000Y-75365000D02*
X64427000Y-75365000D01*
X94127000Y-75365000D02*
X94000000Y-75238000D01*
X96633000Y-75365000D02*
X94127000Y-75365000D01*
X94000000Y-73762000D02*
X94000000Y-75238000D01*
D35*
X107500000Y-97000000D02*
X107405000Y-97095000D01*
X107405000Y-97095000D02*
X101847840Y-97095000D01*
D33*
X101667000Y-77905000D02*
X101672000Y-77900000D01*
D39*
X107500000Y-79000000D02*
X107500000Y-82256015D01*
X107500000Y-87000000D02*
X107500000Y-96750000D01*
X107500000Y-86047151D02*
X107500000Y-87000000D01*
X107500000Y-82256015D02*
X107500000Y-86047151D01*
D36*
X107500000Y-82256015D02*
X107500000Y-82256015D01*
X107493985Y-82250000D02*
X107500000Y-82256015D01*
X107452849Y-86000000D02*
X107500000Y-86047151D01*
D39*
X107256015Y-82500000D02*
X107500000Y-82256015D01*
X106000000Y-82500000D02*
X107256015Y-82500000D01*
X106000000Y-87000000D02*
X107500000Y-87000000D01*
D41*
X103395000Y-77905000D02*
X101967000Y-77905000D01*
X103550000Y-77750000D02*
X103395000Y-77905000D01*
X107365000Y-77750000D02*
X103550000Y-77750000D01*
X107500000Y-77885000D02*
X107365000Y-77750000D01*
X107500000Y-78774000D02*
X107500000Y-77885000D01*
D35*
X77615000Y-98365000D02*
X88152160Y-98365000D01*
X77500000Y-98250000D02*
X77615000Y-98365000D01*
D39*
X77500000Y-96000000D02*
X77500000Y-98000000D01*
X77500000Y-79000000D02*
X77500000Y-82142717D01*
X77500000Y-82142717D02*
X77500000Y-85759207D01*
D36*
X77500000Y-82150000D02*
X77500000Y-82142717D01*
X77400000Y-82250000D02*
X77500000Y-82150000D01*
X77500000Y-85900000D02*
X77500000Y-85759207D01*
X77400000Y-86000000D02*
X77500000Y-85900000D01*
D39*
X77500000Y-85759207D02*
X77500000Y-87083920D01*
X77500000Y-87083920D02*
X77500000Y-96250000D01*
X77500000Y-82300000D02*
X77500000Y-82142717D01*
X77300000Y-82500000D02*
X77500000Y-82300000D01*
X76000000Y-82500000D02*
X77300000Y-82500000D01*
X77416080Y-87000000D02*
X76000000Y-87000000D01*
X77500000Y-87083920D02*
X77416080Y-87000000D01*
D41*
X73395000Y-77905000D02*
X71967000Y-77905000D01*
X73550000Y-77750000D02*
X73395000Y-77905000D01*
X77365000Y-77750000D02*
X73550000Y-77750000D01*
X77500000Y-77885000D02*
X77365000Y-77750000D01*
X77500000Y-79000000D02*
X77500000Y-77885000D01*
D35*
X62250000Y-101500000D02*
X76190000Y-115440000D01*
X76190000Y-115440000D02*
X76190000Y-118750000D01*
X62250000Y-90250000D02*
X62250000Y-101500000D01*
X120500000Y-93000000D02*
X120500000Y-117500000D01*
X119250000Y-118750000D02*
X114060000Y-118750000D01*
X120500000Y-117500000D02*
X119250000Y-118750000D01*
D33*
G36*
X96623000Y-88623000D02*
X93377000Y-88623000D01*
X93377000Y-85377000D01*
X96623000Y-85377000D01*
X96623000Y-88623000D01*
X96623000Y-88623000D01*
G37*
X96623000Y-88623000D02*
X93377000Y-88623000D01*
X93377000Y-85377000D01*
X96623000Y-85377000D01*
X96623000Y-88623000D01*
G36*
X68873000Y-88623000D02*
X65627000Y-88623000D01*
X65627000Y-85377000D01*
X68873000Y-85377000D01*
X68873000Y-88623000D01*
X68873000Y-88623000D01*
G37*
X68873000Y-88623000D02*
X65627000Y-88623000D01*
X65627000Y-85377000D01*
X68873000Y-85377000D01*
X68873000Y-88623000D01*
G36*
X126623000Y-88623000D02*
X123377000Y-88623000D01*
X123377000Y-85377000D01*
X126623000Y-85377000D01*
X126623000Y-88623000D01*
X126623000Y-88623000D01*
G37*
X126623000Y-88623000D02*
X123377000Y-88623000D01*
X123377000Y-85377000D01*
X126623000Y-85377000D01*
X126623000Y-88623000D01*
G36*
X80370425Y-106410852D02*
X80364088Y-106467350D01*
X80364023Y-106476658D01*
X80364005Y-106476838D01*
X80364020Y-106477005D01*
X80364000Y-106480000D01*
X80364000Y-117542757D01*
X80297048Y-117596588D01*
X80122597Y-117804491D01*
X79999122Y-118029089D01*
X79888260Y-117820588D01*
X79716729Y-117610270D01*
X79636000Y-117543484D01*
X79636000Y-107145277D01*
X80370425Y-106410852D01*
X80370425Y-106410852D01*
G37*
X80370425Y-106410852D02*
X80364088Y-106467350D01*
X80364023Y-106476658D01*
X80364005Y-106476838D01*
X80364020Y-106477005D01*
X80364000Y-106480000D01*
X80364000Y-117542757D01*
X80297048Y-117596588D01*
X80122597Y-117804491D01*
X79999122Y-118029089D01*
X79888260Y-117820588D01*
X79716729Y-117610270D01*
X79636000Y-117543484D01*
X79636000Y-107145277D01*
X80370425Y-106410852D01*
G36*
X82909102Y-106122175D02*
X82904088Y-106166880D01*
X82904023Y-106176188D01*
X82904005Y-106176368D01*
X82904020Y-106176535D01*
X82904000Y-106179530D01*
X82904000Y-117542757D01*
X82837048Y-117596588D01*
X82662597Y-117804491D01*
X82539122Y-118029089D01*
X82428260Y-117820588D01*
X82256729Y-117610270D01*
X82176000Y-117543484D01*
X82176000Y-106855277D01*
X82909102Y-106122175D01*
X82909102Y-106122175D01*
G37*
X82909102Y-106122175D02*
X82904088Y-106166880D01*
X82904023Y-106176188D01*
X82904005Y-106176368D01*
X82904020Y-106176535D01*
X82904000Y-106179530D01*
X82904000Y-117542757D01*
X82837048Y-117596588D01*
X82662597Y-117804491D01*
X82539122Y-118029089D01*
X82428260Y-117820588D01*
X82256729Y-117610270D01*
X82176000Y-117543484D01*
X82176000Y-106855277D01*
X82909102Y-106122175D01*
G36*
X83677722Y-100541000D02*
X79134300Y-105084422D01*
X79134300Y-103665282D01*
X79134300Y-103334250D01*
X78975550Y-103175500D01*
X77973000Y-103175500D01*
X77973000Y-104078990D01*
X78131750Y-104237740D01*
X78436758Y-104237740D01*
X78561842Y-104237740D01*
X78684523Y-104213337D01*
X78800085Y-104165470D01*
X78904089Y-104095977D01*
X78992537Y-104007529D01*
X79062030Y-103903525D01*
X79109897Y-103787963D01*
X79134300Y-103665282D01*
X79134300Y-105084422D01*
X78089361Y-106129361D01*
X78036245Y-106194026D01*
X77982447Y-106258140D01*
X77980150Y-106262317D01*
X77977129Y-106265996D01*
X77937589Y-106339735D01*
X77897263Y-106413089D01*
X77895823Y-106417627D01*
X77893571Y-106421828D01*
X77869094Y-106501886D01*
X77843798Y-106581632D01*
X77843267Y-106586365D01*
X77841874Y-106590922D01*
X77833415Y-106674192D01*
X77824088Y-106757350D01*
X77824023Y-106766658D01*
X77824005Y-106766838D01*
X77824020Y-106767005D01*
X77824000Y-106770000D01*
X77824000Y-117542757D01*
X77757048Y-117596588D01*
X77582597Y-117804491D01*
X77580600Y-117808123D01*
X77580600Y-117682095D01*
X77560348Y-117580280D01*
X77527000Y-117499772D01*
X77527000Y-104078990D01*
X77527000Y-103175500D01*
X76524450Y-103175500D01*
X76365700Y-103334250D01*
X76365700Y-103665282D01*
X76390103Y-103787963D01*
X76437970Y-103903525D01*
X76507463Y-104007529D01*
X76595911Y-104095977D01*
X76699915Y-104165470D01*
X76815477Y-104213337D01*
X76938158Y-104237740D01*
X77063242Y-104237740D01*
X77368250Y-104237740D01*
X77527000Y-104078990D01*
X77527000Y-117499772D01*
X77520621Y-117484372D01*
X77462948Y-117398057D01*
X77389543Y-117324652D01*
X77303228Y-117266979D01*
X77207320Y-117227252D01*
X77105505Y-117207000D01*
X77096000Y-117207000D01*
X77096000Y-115440000D01*
X77087831Y-115356694D01*
X77080539Y-115273340D01*
X77079209Y-115268765D01*
X77078745Y-115264024D01*
X77054554Y-115183898D01*
X77031208Y-115103540D01*
X77029016Y-115099311D01*
X77027639Y-115094750D01*
X76988345Y-115020850D01*
X76949836Y-114946557D01*
X76946863Y-114942833D01*
X76944627Y-114938627D01*
X76891732Y-114873772D01*
X76839521Y-114808368D01*
X76832981Y-114801736D01*
X76832871Y-114801601D01*
X76832745Y-114801497D01*
X76830639Y-114799361D01*
X69627000Y-107595722D01*
X63156000Y-101124722D01*
X63156000Y-91483047D01*
X63194348Y-91458711D01*
X63411137Y-91252266D01*
X63583697Y-91007646D01*
X63705458Y-90734166D01*
X63771781Y-90442246D01*
X63776555Y-90100320D01*
X63718409Y-89806661D01*
X63604332Y-89529889D01*
X63438669Y-89280545D01*
X63227729Y-89068128D01*
X63120887Y-88996062D01*
X64873000Y-88996062D01*
X64873000Y-89377000D01*
X66965000Y-89377000D01*
X66965000Y-99000000D01*
X66974332Y-99095186D01*
X66982662Y-99190389D01*
X66984179Y-99195612D01*
X66984711Y-99201033D01*
X67012350Y-99292578D01*
X67039017Y-99384366D01*
X67041522Y-99389199D01*
X67043095Y-99394408D01*
X67087965Y-99478796D01*
X67131976Y-99563701D01*
X67135372Y-99567955D01*
X67137927Y-99572760D01*
X67198326Y-99646817D01*
X67257997Y-99721566D01*
X67265471Y-99729146D01*
X67265594Y-99729296D01*
X67265732Y-99729410D01*
X67268144Y-99731856D01*
X69315644Y-101779355D01*
X69389524Y-101840040D01*
X69462759Y-101901492D01*
X69467526Y-101904113D01*
X69471734Y-101907569D01*
X69555994Y-101952749D01*
X69627000Y-101991784D01*
X69639770Y-101998805D01*
X69644959Y-102000451D01*
X69649754Y-102003022D01*
X69741113Y-102030953D01*
X69832311Y-102059883D01*
X69837725Y-102060490D01*
X69842925Y-102062080D01*
X69937971Y-102071734D01*
X70033049Y-102082399D01*
X70043692Y-102082473D01*
X70043886Y-102082493D01*
X70044065Y-102082475D01*
X70047500Y-102082500D01*
X76404408Y-102082500D01*
X76390103Y-102117037D01*
X76365700Y-102239718D01*
X76365700Y-102570750D01*
X76524450Y-102729500D01*
X77527000Y-102729500D01*
X77527000Y-102709500D01*
X77973000Y-102709500D01*
X77973000Y-102729500D01*
X78975550Y-102729500D01*
X79134300Y-102570750D01*
X79134300Y-102239718D01*
X79109897Y-102117037D01*
X79062030Y-102001475D01*
X79029974Y-101953500D01*
X81702500Y-101953500D01*
X81785805Y-101945331D01*
X81869160Y-101938039D01*
X81873734Y-101936709D01*
X81878476Y-101936245D01*
X81958601Y-101912054D01*
X82038960Y-101888708D01*
X82043188Y-101886516D01*
X82047750Y-101885139D01*
X82121649Y-101845845D01*
X82195943Y-101807336D01*
X82199666Y-101804363D01*
X82203873Y-101802127D01*
X82268727Y-101749232D01*
X82334132Y-101697021D01*
X82340763Y-101690481D01*
X82340899Y-101690371D01*
X82341002Y-101690245D01*
X82343139Y-101688139D01*
X83490278Y-100541000D01*
X83677722Y-100541000D01*
X83677722Y-100541000D01*
G37*
X83677722Y-100541000D02*
X79134300Y-105084422D01*
X79134300Y-103665282D01*
X79134300Y-103334250D01*
X78975550Y-103175500D01*
X77973000Y-103175500D01*
X77973000Y-104078990D01*
X78131750Y-104237740D01*
X78436758Y-104237740D01*
X78561842Y-104237740D01*
X78684523Y-104213337D01*
X78800085Y-104165470D01*
X78904089Y-104095977D01*
X78992537Y-104007529D01*
X79062030Y-103903525D01*
X79109897Y-103787963D01*
X79134300Y-103665282D01*
X79134300Y-105084422D01*
X78089361Y-106129361D01*
X78036245Y-106194026D01*
X77982447Y-106258140D01*
X77980150Y-106262317D01*
X77977129Y-106265996D01*
X77937589Y-106339735D01*
X77897263Y-106413089D01*
X77895823Y-106417627D01*
X77893571Y-106421828D01*
X77869094Y-106501886D01*
X77843798Y-106581632D01*
X77843267Y-106586365D01*
X77841874Y-106590922D01*
X77833415Y-106674192D01*
X77824088Y-106757350D01*
X77824023Y-106766658D01*
X77824005Y-106766838D01*
X77824020Y-106767005D01*
X77824000Y-106770000D01*
X77824000Y-117542757D01*
X77757048Y-117596588D01*
X77582597Y-117804491D01*
X77580600Y-117808123D01*
X77580600Y-117682095D01*
X77560348Y-117580280D01*
X77527000Y-117499772D01*
X77527000Y-104078990D01*
X77527000Y-103175500D01*
X76524450Y-103175500D01*
X76365700Y-103334250D01*
X76365700Y-103665282D01*
X76390103Y-103787963D01*
X76437970Y-103903525D01*
X76507463Y-104007529D01*
X76595911Y-104095977D01*
X76699915Y-104165470D01*
X76815477Y-104213337D01*
X76938158Y-104237740D01*
X77063242Y-104237740D01*
X77368250Y-104237740D01*
X77527000Y-104078990D01*
X77527000Y-117499772D01*
X77520621Y-117484372D01*
X77462948Y-117398057D01*
X77389543Y-117324652D01*
X77303228Y-117266979D01*
X77207320Y-117227252D01*
X77105505Y-117207000D01*
X77096000Y-117207000D01*
X77096000Y-115440000D01*
X77087831Y-115356694D01*
X77080539Y-115273340D01*
X77079209Y-115268765D01*
X77078745Y-115264024D01*
X77054554Y-115183898D01*
X77031208Y-115103540D01*
X77029016Y-115099311D01*
X77027639Y-115094750D01*
X76988345Y-115020850D01*
X76949836Y-114946557D01*
X76946863Y-114942833D01*
X76944627Y-114938627D01*
X76891732Y-114873772D01*
X76839521Y-114808368D01*
X76832981Y-114801736D01*
X76832871Y-114801601D01*
X76832745Y-114801497D01*
X76830639Y-114799361D01*
X69627000Y-107595722D01*
X63156000Y-101124722D01*
X63156000Y-91483047D01*
X63194348Y-91458711D01*
X63411137Y-91252266D01*
X63583697Y-91007646D01*
X63705458Y-90734166D01*
X63771781Y-90442246D01*
X63776555Y-90100320D01*
X63718409Y-89806661D01*
X63604332Y-89529889D01*
X63438669Y-89280545D01*
X63227729Y-89068128D01*
X63120887Y-88996062D01*
X64873000Y-88996062D01*
X64873000Y-89377000D01*
X66965000Y-89377000D01*
X66965000Y-99000000D01*
X66974332Y-99095186D01*
X66982662Y-99190389D01*
X66984179Y-99195612D01*
X66984711Y-99201033D01*
X67012350Y-99292578D01*
X67039017Y-99384366D01*
X67041522Y-99389199D01*
X67043095Y-99394408D01*
X67087965Y-99478796D01*
X67131976Y-99563701D01*
X67135372Y-99567955D01*
X67137927Y-99572760D01*
X67198326Y-99646817D01*
X67257997Y-99721566D01*
X67265471Y-99729146D01*
X67265594Y-99729296D01*
X67265732Y-99729410D01*
X67268144Y-99731856D01*
X69315644Y-101779355D01*
X69389524Y-101840040D01*
X69462759Y-101901492D01*
X69467526Y-101904113D01*
X69471734Y-101907569D01*
X69555994Y-101952749D01*
X69627000Y-101991784D01*
X69639770Y-101998805D01*
X69644959Y-102000451D01*
X69649754Y-102003022D01*
X69741113Y-102030953D01*
X69832311Y-102059883D01*
X69837725Y-102060490D01*
X69842925Y-102062080D01*
X69937971Y-102071734D01*
X70033049Y-102082399D01*
X70043692Y-102082473D01*
X70043886Y-102082493D01*
X70044065Y-102082475D01*
X70047500Y-102082500D01*
X76404408Y-102082500D01*
X76390103Y-102117037D01*
X76365700Y-102239718D01*
X76365700Y-102570750D01*
X76524450Y-102729500D01*
X77527000Y-102729500D01*
X77527000Y-102709500D01*
X77973000Y-102709500D01*
X77973000Y-102729500D01*
X78975550Y-102729500D01*
X79134300Y-102570750D01*
X79134300Y-102239718D01*
X79109897Y-102117037D01*
X79062030Y-102001475D01*
X79029974Y-101953500D01*
X81702500Y-101953500D01*
X81785805Y-101945331D01*
X81869160Y-101938039D01*
X81873734Y-101936709D01*
X81878476Y-101936245D01*
X81958601Y-101912054D01*
X82038960Y-101888708D01*
X82043188Y-101886516D01*
X82047750Y-101885139D01*
X82121649Y-101845845D01*
X82195943Y-101807336D01*
X82199666Y-101804363D01*
X82203873Y-101802127D01*
X82268727Y-101749232D01*
X82334132Y-101697021D01*
X82340763Y-101690481D01*
X82340899Y-101690371D01*
X82341002Y-101690245D01*
X82343139Y-101688139D01*
X83490278Y-100541000D01*
X83677722Y-100541000D01*
G36*
X108074000Y-117542757D02*
X108007048Y-117596588D01*
X107832597Y-117804491D01*
X107830600Y-117808123D01*
X107830600Y-117682095D01*
X107810348Y-117580280D01*
X107770621Y-117484372D01*
X107712948Y-117398057D01*
X107639543Y-117324652D01*
X107553228Y-117266979D01*
X107457320Y-117227252D01*
X107355505Y-117207000D01*
X107346000Y-117207000D01*
X107346000Y-104627278D01*
X108074000Y-105355278D01*
X108074000Y-117542757D01*
X108074000Y-117542757D01*
G37*
X108074000Y-117542757D02*
X108007048Y-117596588D01*
X107832597Y-117804491D01*
X107830600Y-117808123D01*
X107830600Y-117682095D01*
X107810348Y-117580280D01*
X107770621Y-117484372D01*
X107712948Y-117398057D01*
X107639543Y-117324652D01*
X107553228Y-117266979D01*
X107457320Y-117227252D01*
X107355505Y-117207000D01*
X107346000Y-117207000D01*
X107346000Y-104627278D01*
X108074000Y-105355278D01*
X108074000Y-117542757D01*
G36*
X110614000Y-117542757D02*
X110547048Y-117596588D01*
X110372597Y-117804491D01*
X110249122Y-118029089D01*
X110138260Y-117820588D01*
X109966729Y-117610270D01*
X109886000Y-117543484D01*
X109886000Y-105167278D01*
X110614000Y-105895278D01*
X110614000Y-117542757D01*
X110614000Y-117542757D01*
G37*
X110614000Y-117542757D02*
X110547048Y-117596588D01*
X110372597Y-117804491D01*
X110249122Y-118029089D01*
X110138260Y-117820588D01*
X109966729Y-117610270D01*
X109886000Y-117543484D01*
X109886000Y-105167278D01*
X110614000Y-105895278D01*
X110614000Y-117542757D01*
G36*
X140423000Y-126971781D02*
X140393185Y-127275855D01*
X140313071Y-127541206D01*
X140182942Y-127785943D01*
X140007754Y-128000744D01*
X139794185Y-128177425D01*
X139550365Y-128309258D01*
X139285576Y-128391224D01*
X138983258Y-128423000D01*
X138664730Y-128423000D01*
X138664730Y-65981528D01*
X138664730Y-65018472D01*
X138574918Y-64749281D01*
X138399159Y-64466209D01*
X138171553Y-64222865D01*
X137900846Y-64028601D01*
X137597442Y-63890882D01*
X137273000Y-63815000D01*
X136223000Y-63815000D01*
X136223000Y-65277000D01*
X138559871Y-65277000D01*
X138664730Y-65018472D01*
X138664730Y-65981528D01*
X138559871Y-65723000D01*
X136223000Y-65723000D01*
X136223000Y-67185000D01*
X137273000Y-67185000D01*
X137597442Y-67109118D01*
X137900846Y-66971399D01*
X138171553Y-66777135D01*
X138399159Y-66533791D01*
X138574918Y-66250719D01*
X138664730Y-65981528D01*
X138664730Y-128423000D01*
X138639673Y-128423000D01*
X138639673Y-70511009D01*
X138611778Y-70204500D01*
X138524880Y-69909245D01*
X138382288Y-69636493D01*
X138189434Y-69396631D01*
X137953664Y-69198796D01*
X137683957Y-69050524D01*
X137390588Y-68957461D01*
X137286023Y-68945732D01*
X137133484Y-68819541D01*
X136785494Y-68631383D01*
X136407585Y-68514401D01*
X136014151Y-68473049D01*
X135777000Y-68494631D01*
X135777000Y-67185000D01*
X135777000Y-65723000D01*
X135777000Y-65277000D01*
X135777000Y-63815000D01*
X134727000Y-63815000D01*
X134402558Y-63890882D01*
X134099154Y-64028601D01*
X133828447Y-64222865D01*
X133600841Y-64466209D01*
X133425082Y-64749281D01*
X133335270Y-65018472D01*
X133440129Y-65277000D01*
X135777000Y-65277000D01*
X135777000Y-65723000D01*
X133440129Y-65723000D01*
X133335270Y-65981528D01*
X133425082Y-66250719D01*
X133600841Y-66533791D01*
X133828447Y-66777135D01*
X134099154Y-66971399D01*
X134402558Y-67109118D01*
X134727000Y-67185000D01*
X135777000Y-67185000D01*
X135777000Y-68494631D01*
X135620178Y-68508904D01*
X135240672Y-68620598D01*
X134890089Y-68803879D01*
X134714799Y-68944815D01*
X134630981Y-68953034D01*
X134336341Y-69041991D01*
X134064591Y-69186483D01*
X133826081Y-69381007D01*
X133629897Y-69618153D01*
X133483511Y-69888888D01*
X133392499Y-70182900D01*
X133360327Y-70488991D01*
X133388222Y-70795500D01*
X133475120Y-71090755D01*
X133617712Y-71363507D01*
X133810566Y-71603369D01*
X133973000Y-71739667D01*
X133973000Y-82910389D01*
X131910389Y-84973000D01*
X127377000Y-84973000D01*
X127377000Y-84623000D01*
X126277158Y-84623000D01*
X126277158Y-66776723D01*
X126190422Y-66338673D01*
X126020253Y-65925812D01*
X125773133Y-65553868D01*
X125458476Y-65237006D01*
X125088265Y-64987295D01*
X124676603Y-64814249D01*
X124239169Y-64724456D01*
X123792626Y-64721339D01*
X123353981Y-64805015D01*
X122939943Y-64972297D01*
X122566282Y-65216814D01*
X122247231Y-65529252D01*
X121994942Y-65897710D01*
X121819025Y-66308154D01*
X121726181Y-66744950D01*
X121719947Y-67191461D01*
X121800558Y-67630680D01*
X121964946Y-68045876D01*
X122206848Y-68421235D01*
X122517051Y-68742459D01*
X122883739Y-68997314D01*
X123292945Y-69176091D01*
X123729082Y-69271983D01*
X124175539Y-69281334D01*
X124615310Y-69203791D01*
X125031643Y-69042306D01*
X125408681Y-68803030D01*
X125732064Y-68495077D01*
X125989472Y-68130178D01*
X126171102Y-67722230D01*
X126270036Y-67286772D01*
X126277158Y-66776723D01*
X126277158Y-84623000D01*
X122623000Y-84623000D01*
X122623000Y-85773000D01*
X122026555Y-85773000D01*
X122026555Y-72750320D01*
X121968409Y-72456661D01*
X121854332Y-72179889D01*
X121688669Y-71930545D01*
X121477729Y-71718128D01*
X121229549Y-71550728D01*
X120953579Y-71434721D01*
X120660334Y-71374527D01*
X120360981Y-71372437D01*
X120066923Y-71428531D01*
X119789361Y-71540674D01*
X119538867Y-71704592D01*
X119324983Y-71914044D01*
X119155854Y-72161050D01*
X119037924Y-72436202D01*
X118975683Y-72729020D01*
X118971504Y-73028351D01*
X119025544Y-73322794D01*
X119135746Y-73601132D01*
X119297911Y-73852764D01*
X119505864Y-74068105D01*
X119751684Y-74238954D01*
X120026006Y-74358803D01*
X120318383Y-74423086D01*
X120617677Y-74429355D01*
X120912490Y-74377372D01*
X121191590Y-74269116D01*
X121444348Y-74108711D01*
X121661137Y-73902266D01*
X121833697Y-73657646D01*
X121955458Y-73384166D01*
X122021781Y-73092246D01*
X122026555Y-72750320D01*
X122026555Y-85773000D01*
X120035000Y-85773000D01*
X120035000Y-83612542D01*
X120035000Y-83487458D01*
X120035000Y-82881750D01*
X120035000Y-82118250D01*
X120035000Y-81512542D01*
X120035000Y-81387458D01*
X120010597Y-81264777D01*
X119962730Y-81149215D01*
X119893237Y-81045211D01*
X119804789Y-80956763D01*
X119700785Y-80887270D01*
X119585223Y-80839403D01*
X119462542Y-80815000D01*
X119081750Y-80815000D01*
X118923000Y-80973750D01*
X118923000Y-82277000D01*
X119876250Y-82277000D01*
X120035000Y-82118250D01*
X120035000Y-82881750D01*
X119876250Y-82723000D01*
X118923000Y-82723000D01*
X118923000Y-84026250D01*
X119081750Y-84185000D01*
X119462542Y-84185000D01*
X119585223Y-84160597D01*
X119700785Y-84112730D01*
X119804789Y-84043237D01*
X119893237Y-83954789D01*
X119962730Y-83850785D01*
X120010597Y-83735223D01*
X120035000Y-83612542D01*
X120035000Y-85773000D01*
X119897104Y-85773000D01*
X119867021Y-85700372D01*
X119809348Y-85614057D01*
X119735943Y-85540652D01*
X119649628Y-85482979D01*
X119553720Y-85443252D01*
X119451905Y-85423000D01*
X119348095Y-85423000D01*
X118477000Y-85423000D01*
X118477000Y-84026250D01*
X118477000Y-82723000D01*
X118477000Y-82277000D01*
X118477000Y-80973750D01*
X118318250Y-80815000D01*
X117937458Y-80815000D01*
X117814777Y-80839403D01*
X117699215Y-80887270D01*
X117595211Y-80956763D01*
X117506763Y-81045211D01*
X117437270Y-81149215D01*
X117389403Y-81264777D01*
X117365000Y-81387458D01*
X117365000Y-81512542D01*
X117365000Y-82118250D01*
X117523750Y-82277000D01*
X118477000Y-82277000D01*
X118477000Y-82723000D01*
X117523750Y-82723000D01*
X117365000Y-82881750D01*
X117365000Y-83487458D01*
X117365000Y-83612542D01*
X117389403Y-83735223D01*
X117437270Y-83850785D01*
X117506763Y-83954789D01*
X117595211Y-84043237D01*
X117699215Y-84112730D01*
X117814777Y-84160597D01*
X117937458Y-84185000D01*
X118318250Y-84185000D01*
X118477000Y-84026250D01*
X118477000Y-85423000D01*
X117948095Y-85423000D01*
X117846280Y-85443252D01*
X117750372Y-85482979D01*
X117664057Y-85540652D01*
X117590652Y-85614057D01*
X117532979Y-85700372D01*
X117493252Y-85796280D01*
X117473000Y-85898095D01*
X117473000Y-86001905D01*
X117473000Y-88101905D01*
X117493252Y-88203720D01*
X117532979Y-88299628D01*
X117590652Y-88385943D01*
X117664057Y-88459348D01*
X117750372Y-88517021D01*
X117846280Y-88556748D01*
X117948095Y-88577000D01*
X118051905Y-88577000D01*
X119451905Y-88577000D01*
X119553720Y-88556748D01*
X119649628Y-88517021D01*
X119735943Y-88459348D01*
X119809348Y-88385943D01*
X119867021Y-88299628D01*
X119897104Y-88227000D01*
X122623000Y-88227000D01*
X122623000Y-89377000D01*
X127377000Y-89377000D01*
X127377000Y-89027000D01*
X132750000Y-89027000D01*
X132936331Y-89008730D01*
X133122869Y-88992410D01*
X133133105Y-88989436D01*
X133143713Y-88988396D01*
X133322999Y-88934266D01*
X133502763Y-88882040D01*
X133512221Y-88877137D01*
X133522430Y-88874055D01*
X133687795Y-88786128D01*
X133853983Y-88699985D01*
X133862312Y-88693335D01*
X133871725Y-88688331D01*
X134016864Y-88569958D01*
X134163154Y-88453177D01*
X134177981Y-88438555D01*
X134178294Y-88438300D01*
X134178533Y-88438010D01*
X134183305Y-88433305D01*
X137433305Y-85183306D01*
X137552132Y-85038642D01*
X137672505Y-84895188D01*
X137677640Y-84885845D01*
X137684405Y-84877611D01*
X137772885Y-84712596D01*
X137863087Y-84548520D01*
X137866309Y-84538362D01*
X137871347Y-84528967D01*
X137926100Y-84349876D01*
X137982705Y-84171437D01*
X137983892Y-84160846D01*
X137987010Y-84150651D01*
X138005937Y-83964313D01*
X138026802Y-83778301D01*
X138026947Y-83757471D01*
X138026988Y-83757075D01*
X138026953Y-83756705D01*
X138027000Y-83750000D01*
X138027000Y-71738817D01*
X138173919Y-71618993D01*
X138370103Y-71381847D01*
X138516489Y-71111112D01*
X138607501Y-70817100D01*
X138639673Y-70511009D01*
X138639673Y-128423000D01*
X137820428Y-128423000D01*
X137820428Y-118760772D01*
X137793135Y-118460871D01*
X137708111Y-118171982D01*
X137568593Y-117905110D01*
X137379897Y-117670419D01*
X137149210Y-117476850D01*
X136885318Y-117331774D01*
X136598274Y-117240718D01*
X136299010Y-117207150D01*
X136277466Y-117207000D01*
X136262534Y-117207000D01*
X135962830Y-117236386D01*
X135674542Y-117323425D01*
X135408651Y-117464803D01*
X135343741Y-117517741D01*
X135308730Y-117433215D01*
X135239237Y-117329211D01*
X135150789Y-117240763D01*
X135046785Y-117171270D01*
X134931223Y-117123403D01*
X134808542Y-117099000D01*
X134111750Y-117099000D01*
X133953000Y-117257750D01*
X133953000Y-118527000D01*
X133973000Y-118527000D01*
X133973000Y-118973000D01*
X133953000Y-118973000D01*
X133953000Y-120242250D01*
X134111750Y-120401000D01*
X134808542Y-120401000D01*
X134931223Y-120376597D01*
X135046785Y-120328730D01*
X135150789Y-120259237D01*
X135239237Y-120170789D01*
X135308730Y-120066785D01*
X135343307Y-119983307D01*
X135390790Y-120023150D01*
X135654682Y-120168226D01*
X135941726Y-120259282D01*
X136240990Y-120292850D01*
X136262534Y-120293000D01*
X136277466Y-120293000D01*
X136577170Y-120263614D01*
X136865458Y-120176575D01*
X137131349Y-120035197D01*
X137364717Y-119844868D01*
X137556671Y-119612835D01*
X137699901Y-119347937D01*
X137788951Y-119060263D01*
X137820428Y-118760772D01*
X137820428Y-128423000D01*
X133507000Y-128423000D01*
X133507000Y-120242250D01*
X133507000Y-118973000D01*
X133507000Y-118527000D01*
X133507000Y-117257750D01*
X133348250Y-117099000D01*
X132651458Y-117099000D01*
X132528777Y-117123403D01*
X132413215Y-117171270D01*
X132309211Y-117240763D01*
X132220763Y-117329211D01*
X132151270Y-117433215D01*
X132103403Y-117548777D01*
X132079000Y-117671458D01*
X132079000Y-117796542D01*
X132079000Y-118368250D01*
X132237750Y-118527000D01*
X133507000Y-118527000D01*
X133507000Y-118973000D01*
X132237750Y-118973000D01*
X132079000Y-119131750D01*
X132079000Y-119703458D01*
X132079000Y-119828542D01*
X132103403Y-119951223D01*
X132151270Y-120066785D01*
X132220763Y-120170789D01*
X132309211Y-120259237D01*
X132413215Y-120328730D01*
X132528777Y-120376597D01*
X132651458Y-120401000D01*
X133348250Y-120401000D01*
X133507000Y-120242250D01*
X133507000Y-128423000D01*
X127377000Y-128423000D01*
X126527158Y-128423000D01*
X126527158Y-121776723D01*
X126440422Y-121338673D01*
X126270253Y-120925812D01*
X126023133Y-120553868D01*
X125708476Y-120237006D01*
X125338265Y-119987295D01*
X124926603Y-119814249D01*
X124489169Y-119724456D01*
X124042626Y-119721339D01*
X123603981Y-119805015D01*
X123189943Y-119972297D01*
X122816282Y-120216814D01*
X122497231Y-120529252D01*
X122244942Y-120897710D01*
X122069025Y-121308154D01*
X122026555Y-121507959D01*
X122026555Y-92850320D01*
X121968409Y-92556661D01*
X121854332Y-92279889D01*
X121688669Y-92030545D01*
X121477729Y-91818128D01*
X121229549Y-91650728D01*
X120953579Y-91534721D01*
X120660334Y-91474527D01*
X120360981Y-91472437D01*
X120066923Y-91528531D01*
X119789361Y-91640674D01*
X119538867Y-91804592D01*
X119324983Y-92014044D01*
X119155854Y-92261050D01*
X119037924Y-92536202D01*
X118975683Y-92829020D01*
X118971504Y-93128351D01*
X119025544Y-93422794D01*
X119135746Y-93701132D01*
X119297911Y-93952764D01*
X119505864Y-94168105D01*
X119594000Y-94229360D01*
X119594000Y-117124722D01*
X118874722Y-117844000D01*
X115230708Y-117844000D01*
X115218260Y-117820588D01*
X115046729Y-117610270D01*
X114837614Y-117437274D01*
X114598879Y-117308191D01*
X114339619Y-117227937D01*
X114069708Y-117199568D01*
X113799428Y-117224165D01*
X113539072Y-117300792D01*
X113298559Y-117426530D01*
X113087048Y-117596588D01*
X112912597Y-117804491D01*
X112789122Y-118029089D01*
X112678260Y-117820588D01*
X112506729Y-117610270D01*
X112426000Y-117543484D01*
X112426000Y-105520000D01*
X112417836Y-105436744D01*
X112410540Y-105353340D01*
X112409209Y-105348760D01*
X112408745Y-105344024D01*
X112384566Y-105263940D01*
X112361208Y-105183540D01*
X112359016Y-105179311D01*
X112357639Y-105174750D01*
X112318345Y-105100850D01*
X112279836Y-105026557D01*
X112276863Y-105022833D01*
X112274627Y-105018627D01*
X112221737Y-104953778D01*
X112169522Y-104888369D01*
X112162981Y-104881736D01*
X112162871Y-104881601D01*
X112162745Y-104881497D01*
X112160639Y-104879361D01*
X106552277Y-99271000D01*
X112365000Y-99271000D01*
X112540976Y-99253745D01*
X112689307Y-99208961D01*
X112729917Y-99205266D01*
X112959642Y-99137655D01*
X113171860Y-99026710D01*
X113358487Y-98876658D01*
X113512414Y-98693215D01*
X113627779Y-98483367D01*
X113700187Y-98255108D01*
X113726880Y-98017132D01*
X113727000Y-98000000D01*
X113727000Y-88577000D01*
X115051905Y-88577000D01*
X115153720Y-88556748D01*
X115249628Y-88517021D01*
X115335943Y-88459348D01*
X115409348Y-88385943D01*
X115467021Y-88299628D01*
X115506748Y-88203720D01*
X115527000Y-88101905D01*
X115527000Y-87998095D01*
X115527000Y-85898095D01*
X115506748Y-85796280D01*
X115467021Y-85700372D01*
X115409348Y-85614057D01*
X115335943Y-85540652D01*
X115249628Y-85482979D01*
X115153720Y-85443252D01*
X115051905Y-85423000D01*
X114948095Y-85423000D01*
X113727000Y-85423000D01*
X113727000Y-84077000D01*
X115051905Y-84077000D01*
X115153720Y-84056748D01*
X115249628Y-84017021D01*
X115335943Y-83959348D01*
X115409348Y-83885943D01*
X115467021Y-83799628D01*
X115506748Y-83703720D01*
X115527000Y-83601905D01*
X115527000Y-83498095D01*
X115527000Y-81398095D01*
X115506748Y-81296280D01*
X115467021Y-81200372D01*
X115409348Y-81114057D01*
X115335943Y-81040652D01*
X115249628Y-80982979D01*
X115153720Y-80943252D01*
X115051905Y-80923000D01*
X114948095Y-80923000D01*
X113727000Y-80923000D01*
X113727000Y-68042096D01*
X113801204Y-67953664D01*
X113949476Y-67683957D01*
X114042539Y-67390588D01*
X114076846Y-67084729D01*
X114077000Y-67062711D01*
X114077000Y-64937289D01*
X114046966Y-64630981D01*
X113958009Y-64336341D01*
X113813517Y-64064591D01*
X113618993Y-63826081D01*
X113381847Y-63629897D01*
X113111112Y-63483511D01*
X112817100Y-63392499D01*
X112511009Y-63360327D01*
X112204500Y-63388222D01*
X111909245Y-63475120D01*
X111636493Y-63617712D01*
X111396631Y-63810566D01*
X111198796Y-64046336D01*
X111050524Y-64316043D01*
X110957461Y-64609412D01*
X110923154Y-64915271D01*
X110923000Y-64937289D01*
X110923000Y-67062711D01*
X110953034Y-67369019D01*
X111041991Y-67663659D01*
X111186483Y-67935409D01*
X111273000Y-68041489D01*
X111273000Y-82204435D01*
X111273000Y-82500000D01*
X111273000Y-85943991D01*
X111273000Y-87000000D01*
X111273000Y-97459000D01*
X108499168Y-97459000D01*
X108512414Y-97443215D01*
X108627779Y-97233367D01*
X108700187Y-97005108D01*
X108726880Y-96767132D01*
X108727000Y-96750000D01*
X108727000Y-87000000D01*
X108727000Y-86047151D01*
X108727000Y-82256015D01*
X108727000Y-79559524D01*
X108767021Y-79499628D01*
X108806748Y-79403720D01*
X108827000Y-79301905D01*
X108827000Y-79198095D01*
X108827000Y-78198095D01*
X108806748Y-78096280D01*
X108767021Y-78000372D01*
X108709348Y-77914057D01*
X108635943Y-77840652D01*
X108549628Y-77782979D01*
X108453720Y-77743252D01*
X108351905Y-77723000D01*
X108248095Y-77723000D01*
X108197000Y-77723000D01*
X108184687Y-77682217D01*
X108166189Y-77618543D01*
X108164451Y-77615191D01*
X108163362Y-77611582D01*
X108132272Y-77553111D01*
X108101747Y-77494222D01*
X108099390Y-77491270D01*
X108097621Y-77487942D01*
X108055768Y-77436625D01*
X108014384Y-77384784D01*
X108009204Y-77379532D01*
X108009117Y-77379425D01*
X108009017Y-77379342D01*
X108007349Y-77377651D01*
X107879698Y-77250000D01*
X108007349Y-77122349D01*
X108049409Y-77071143D01*
X108092019Y-77020364D01*
X108093837Y-77017055D01*
X108096231Y-77014142D01*
X108127548Y-76955736D01*
X108159480Y-76897653D01*
X108160620Y-76894058D01*
X108162404Y-76890732D01*
X108181776Y-76827365D01*
X108197753Y-76777000D01*
X108351905Y-76777000D01*
X108453720Y-76756748D01*
X108549628Y-76717021D01*
X108635943Y-76659348D01*
X108709348Y-76585943D01*
X108767021Y-76499628D01*
X108806748Y-76403720D01*
X108827000Y-76301905D01*
X108827000Y-76198095D01*
X108827000Y-75198095D01*
X108806748Y-75096280D01*
X108767021Y-75000372D01*
X108727000Y-74940475D01*
X108727000Y-68042096D01*
X108801204Y-67953664D01*
X108949476Y-67683957D01*
X109042539Y-67390588D01*
X109076846Y-67084729D01*
X109077000Y-67062711D01*
X109077000Y-64937289D01*
X109046966Y-64630981D01*
X108958009Y-64336341D01*
X108813517Y-64064591D01*
X108618993Y-63826081D01*
X108381847Y-63629897D01*
X108111112Y-63483511D01*
X107817100Y-63392499D01*
X107511009Y-63360327D01*
X107204500Y-63388222D01*
X106909245Y-63475120D01*
X106636493Y-63617712D01*
X106396631Y-63810566D01*
X106198796Y-64046336D01*
X106050524Y-64316043D01*
X105957461Y-64609412D01*
X105923154Y-64915271D01*
X105923000Y-64937289D01*
X105923000Y-67062711D01*
X105953034Y-67369019D01*
X106041991Y-67663659D01*
X106186483Y-67935409D01*
X106273000Y-68041489D01*
X106273000Y-74940475D01*
X106232979Y-75000372D01*
X106193252Y-75096280D01*
X106173000Y-75198095D01*
X106173000Y-75301905D01*
X106173000Y-76032500D01*
X104461491Y-76032500D01*
X104473487Y-76021077D01*
X104584723Y-75863390D01*
X104663212Y-75687101D01*
X104705964Y-75498925D01*
X104709042Y-75278514D01*
X104671560Y-75089217D01*
X104598024Y-74910805D01*
X104491235Y-74750074D01*
X104355260Y-74613147D01*
X104195279Y-74505238D01*
X104017385Y-74430458D01*
X103828354Y-74391656D01*
X103635386Y-74390308D01*
X103445832Y-74426468D01*
X103295841Y-74487067D01*
X103301770Y-74457262D01*
X103301770Y-74403610D01*
X103301770Y-73786390D01*
X103301770Y-73732738D01*
X103277367Y-73610057D01*
X103229500Y-73494495D01*
X103160007Y-73390491D01*
X103071559Y-73302043D01*
X102967555Y-73232550D01*
X102851993Y-73184683D01*
X102729312Y-73160280D01*
X102604228Y-73160280D01*
X102348750Y-73160280D01*
X102190000Y-73319030D01*
X102190000Y-73945140D01*
X103143020Y-73945140D01*
X103301770Y-73786390D01*
X103301770Y-74403610D01*
X103143020Y-74244860D01*
X102190000Y-74244860D01*
X102190000Y-74338000D01*
X101744000Y-74338000D01*
X101744000Y-74244860D01*
X101744000Y-73945140D01*
X101744000Y-73319030D01*
X101585250Y-73160280D01*
X101329772Y-73160280D01*
X101204688Y-73160280D01*
X101082007Y-73184683D01*
X100966445Y-73232550D01*
X100862441Y-73302043D01*
X100773993Y-73390491D01*
X100704500Y-73494495D01*
X100656633Y-73610057D01*
X100632230Y-73732738D01*
X100632230Y-73786390D01*
X100790980Y-73945140D01*
X101744000Y-73945140D01*
X101744000Y-74244860D01*
X100790980Y-74244860D01*
X100632230Y-74403610D01*
X100632230Y-74457262D01*
X100656633Y-74579943D01*
X100704500Y-74695505D01*
X100773993Y-74799509D01*
X100797258Y-74822774D01*
X100760482Y-74911560D01*
X100740230Y-75013375D01*
X100740230Y-75117185D01*
X100740230Y-75716625D01*
X100760482Y-75818440D01*
X100800209Y-75914348D01*
X100857439Y-76000000D01*
X100800209Y-76085652D01*
X100760482Y-76181560D01*
X100740230Y-76283375D01*
X100740230Y-76387185D01*
X100740230Y-76986625D01*
X100760482Y-77088440D01*
X100800209Y-77184348D01*
X100857439Y-77270000D01*
X100800209Y-77355652D01*
X100760482Y-77451560D01*
X100740230Y-77553375D01*
X100740230Y-77657185D01*
X100740230Y-78256625D01*
X100760482Y-78358440D01*
X100800209Y-78454348D01*
X100857882Y-78540663D01*
X100931287Y-78614068D01*
X101017602Y-78671741D01*
X101113510Y-78711468D01*
X101215325Y-78731720D01*
X101319135Y-78731720D01*
X102718675Y-78731720D01*
X102820490Y-78711468D01*
X102916398Y-78671741D01*
X102990093Y-78622500D01*
X103395000Y-78622500D01*
X103460982Y-78616030D01*
X103526985Y-78610256D01*
X103530609Y-78609203D01*
X103534363Y-78608835D01*
X103597782Y-78589687D01*
X103661457Y-78571189D01*
X103664808Y-78569451D01*
X103668418Y-78568362D01*
X103726928Y-78537251D01*
X103785778Y-78506746D01*
X103788725Y-78504392D01*
X103792058Y-78502621D01*
X103835120Y-78467500D01*
X106173000Y-78467500D01*
X106173000Y-79301905D01*
X106193252Y-79403720D01*
X106232979Y-79499628D01*
X106273000Y-79559524D01*
X106273000Y-80923000D01*
X104948095Y-80923000D01*
X104846280Y-80943252D01*
X104750372Y-80982979D01*
X104664057Y-81040652D01*
X104590652Y-81114057D01*
X104532979Y-81200372D01*
X104493252Y-81296280D01*
X104473000Y-81398095D01*
X104473000Y-81501905D01*
X104473000Y-83601905D01*
X104493252Y-83703720D01*
X104532979Y-83799628D01*
X104590652Y-83885943D01*
X104664057Y-83959348D01*
X104750372Y-84017021D01*
X104846280Y-84056748D01*
X104948095Y-84077000D01*
X105051905Y-84077000D01*
X106273000Y-84077000D01*
X106273000Y-85423000D01*
X104948095Y-85423000D01*
X104846280Y-85443252D01*
X104750372Y-85482979D01*
X104664057Y-85540652D01*
X104590652Y-85614057D01*
X104532979Y-85700372D01*
X104493252Y-85796280D01*
X104473000Y-85898095D01*
X104473000Y-86001905D01*
X104473000Y-88101905D01*
X104493252Y-88203720D01*
X104532979Y-88299628D01*
X104590652Y-88385943D01*
X104664057Y-88459348D01*
X104750372Y-88517021D01*
X104846280Y-88556748D01*
X104948095Y-88577000D01*
X105051905Y-88577000D01*
X106273000Y-88577000D01*
X106273000Y-96189000D01*
X103224470Y-96189000D01*
X103224470Y-96152825D01*
X103224470Y-95393365D01*
X103208471Y-95312932D01*
X103260200Y-95235515D01*
X103308067Y-95119953D01*
X103332470Y-94997272D01*
X103332470Y-94903615D01*
X103332470Y-94206385D01*
X103332470Y-94112728D01*
X103308067Y-93990047D01*
X103277782Y-93916933D01*
X103305527Y-93849953D01*
X103329930Y-93727272D01*
X103329930Y-93633615D01*
X103329930Y-92936385D01*
X103329930Y-92842728D01*
X103305527Y-92720047D01*
X103257660Y-92604485D01*
X103188167Y-92500481D01*
X103099719Y-92412033D01*
X102995715Y-92342540D01*
X102880153Y-92294673D01*
X102757472Y-92270270D01*
X102635000Y-92270270D01*
X102635000Y-83612542D01*
X102635000Y-83487458D01*
X102635000Y-82881750D01*
X102635000Y-82118250D01*
X102635000Y-81512542D01*
X102635000Y-81387458D01*
X102610597Y-81264777D01*
X102562730Y-81149215D01*
X102493237Y-81045211D01*
X102404789Y-80956763D01*
X102300785Y-80887270D01*
X102185223Y-80839403D01*
X102062542Y-80815000D01*
X101681750Y-80815000D01*
X101523000Y-80973750D01*
X101523000Y-82277000D01*
X102476250Y-82277000D01*
X102635000Y-82118250D01*
X102635000Y-82881750D01*
X102476250Y-82723000D01*
X101523000Y-82723000D01*
X101523000Y-84026250D01*
X101681750Y-84185000D01*
X102062542Y-84185000D01*
X102185223Y-84160597D01*
X102300785Y-84112730D01*
X102404789Y-84043237D01*
X102493237Y-83954789D01*
X102562730Y-83850785D01*
X102610597Y-83735223D01*
X102635000Y-83612542D01*
X102635000Y-92270270D01*
X102632388Y-92270270D01*
X102527000Y-92270270D01*
X102527000Y-88101905D01*
X102527000Y-87998095D01*
X102527000Y-85898095D01*
X102506748Y-85796280D01*
X102467021Y-85700372D01*
X102409348Y-85614057D01*
X102335943Y-85540652D01*
X102249628Y-85482979D01*
X102153720Y-85443252D01*
X102051905Y-85423000D01*
X101948095Y-85423000D01*
X101077000Y-85423000D01*
X101077000Y-84026250D01*
X101077000Y-82723000D01*
X101077000Y-82277000D01*
X101077000Y-80973750D01*
X100918250Y-80815000D01*
X100537458Y-80815000D01*
X100414777Y-80839403D01*
X100299215Y-80887270D01*
X100195211Y-80956763D01*
X100106763Y-81045211D01*
X100037270Y-81149215D01*
X99989403Y-81264777D01*
X99965000Y-81387458D01*
X99965000Y-81512542D01*
X99965000Y-82118250D01*
X100123750Y-82277000D01*
X101077000Y-82277000D01*
X101077000Y-82723000D01*
X100123750Y-82723000D01*
X99965000Y-82881750D01*
X99965000Y-83487458D01*
X99965000Y-83612542D01*
X99989403Y-83735223D01*
X100037270Y-83850785D01*
X100106763Y-83954789D01*
X100195211Y-84043237D01*
X100299215Y-84112730D01*
X100414777Y-84160597D01*
X100537458Y-84185000D01*
X100918250Y-84185000D01*
X101077000Y-84026250D01*
X101077000Y-85423000D01*
X100548095Y-85423000D01*
X100446280Y-85443252D01*
X100350372Y-85482979D01*
X100264057Y-85540652D01*
X100190652Y-85614057D01*
X100132979Y-85700372D01*
X100102895Y-85773000D01*
X99236420Y-85773000D01*
X99236420Y-80862922D01*
X99236420Y-80737838D01*
X99236420Y-80681750D01*
X99236420Y-79918250D01*
X99236420Y-79862162D01*
X99236420Y-79737078D01*
X99234042Y-79725123D01*
X99234042Y-72153514D01*
X99196560Y-71964217D01*
X99123024Y-71785805D01*
X99016235Y-71625074D01*
X98880260Y-71488147D01*
X98720279Y-71380238D01*
X98542385Y-71305458D01*
X98353354Y-71266656D01*
X98160386Y-71265308D01*
X97970832Y-71301468D01*
X97791911Y-71373756D01*
X97646363Y-71469000D01*
X96608353Y-71469000D01*
X94844357Y-71469000D01*
X94821128Y-71453479D01*
X94725220Y-71413752D01*
X94623405Y-71393500D01*
X94519595Y-71393500D01*
X93376595Y-71393500D01*
X93274780Y-71413752D01*
X93178872Y-71453479D01*
X93092557Y-71511152D01*
X93019152Y-71584557D01*
X92961479Y-71670872D01*
X92921752Y-71766780D01*
X92901500Y-71868595D01*
X92901500Y-71972405D01*
X92901500Y-72607405D01*
X92921752Y-72709220D01*
X92961479Y-72805128D01*
X93019152Y-72891443D01*
X93092557Y-72964848D01*
X93145166Y-73000000D01*
X93092557Y-73035152D01*
X93019152Y-73108557D01*
X92961479Y-73194872D01*
X92921752Y-73290780D01*
X92901500Y-73392595D01*
X92901500Y-73496405D01*
X92901500Y-74131405D01*
X92921752Y-74233220D01*
X92961479Y-74329128D01*
X93019152Y-74415443D01*
X93092557Y-74488848D01*
X93109247Y-74500000D01*
X93092557Y-74511152D01*
X93019152Y-74584557D01*
X92961479Y-74670872D01*
X92921752Y-74766780D01*
X92901500Y-74868595D01*
X92901500Y-74972405D01*
X92901500Y-75607405D01*
X92921752Y-75709220D01*
X92961479Y-75805128D01*
X93019152Y-75891443D01*
X93092557Y-75964848D01*
X93145166Y-76000000D01*
X93092557Y-76035152D01*
X93019152Y-76108557D01*
X92961479Y-76194872D01*
X92921752Y-76290780D01*
X92901500Y-76392595D01*
X92901500Y-76496405D01*
X92901500Y-77131405D01*
X92916325Y-77205937D01*
X92880439Y-77229421D01*
X92742565Y-77364437D01*
X92633542Y-77523661D01*
X92557522Y-77701028D01*
X92517401Y-77889784D01*
X92514707Y-78082737D01*
X92549542Y-78272539D01*
X92620580Y-78451961D01*
X92725114Y-78614167D01*
X92859164Y-78752979D01*
X93017623Y-78863111D01*
X93194456Y-78940368D01*
X93307160Y-78965147D01*
X93126328Y-79061298D01*
X92955877Y-79200314D01*
X92815675Y-79369790D01*
X92711060Y-79563270D01*
X92646019Y-79773385D01*
X92623027Y-79992132D01*
X92642962Y-80211179D01*
X92705064Y-80422182D01*
X92806967Y-80617104D01*
X92944789Y-80788521D01*
X93113282Y-80929903D01*
X93306027Y-81035866D01*
X93515684Y-81102372D01*
X93734265Y-81126890D01*
X93750000Y-81127000D01*
X94932653Y-81127000D01*
X94943089Y-81132737D01*
X94947627Y-81134176D01*
X94951828Y-81136429D01*
X95031886Y-81160905D01*
X95111632Y-81186202D01*
X95116365Y-81186732D01*
X95120922Y-81188126D01*
X95204192Y-81196584D01*
X95287350Y-81205912D01*
X95296658Y-81205976D01*
X95296838Y-81205995D01*
X95297005Y-81205979D01*
X95300000Y-81206000D01*
X95858909Y-81206000D01*
X95862637Y-81209728D01*
X95948952Y-81267401D01*
X96044860Y-81307128D01*
X96146675Y-81327380D01*
X96250485Y-81327380D01*
X97149645Y-81327380D01*
X97251460Y-81307128D01*
X97293548Y-81289694D01*
X97297471Y-81293617D01*
X97401475Y-81363110D01*
X97517037Y-81410977D01*
X97639718Y-81435380D01*
X97770090Y-81435380D01*
X97928840Y-81276630D01*
X97928840Y-80523000D01*
X97908840Y-80523000D01*
X97908840Y-80077000D01*
X97928840Y-80077000D01*
X97928840Y-79323370D01*
X97770090Y-79164620D01*
X97639718Y-79164620D01*
X97517037Y-79189023D01*
X97414000Y-79231702D01*
X97414000Y-78725886D01*
X97486490Y-78711468D01*
X97582398Y-78671741D01*
X97668713Y-78614068D01*
X97742118Y-78540663D01*
X97799791Y-78454348D01*
X97839518Y-78358440D01*
X97859770Y-78256625D01*
X97859770Y-78152815D01*
X97859770Y-77553375D01*
X97839518Y-77451560D01*
X97799791Y-77355652D01*
X97742560Y-77270000D01*
X97799791Y-77184348D01*
X97839518Y-77088440D01*
X97859770Y-76986625D01*
X97859770Y-76882815D01*
X97859770Y-76283375D01*
X97839518Y-76181560D01*
X97799791Y-76085652D01*
X97742560Y-76000000D01*
X97799791Y-75914348D01*
X97839518Y-75818440D01*
X97859770Y-75716625D01*
X97859770Y-75612815D01*
X97859770Y-75013375D01*
X97839518Y-74911560D01*
X97799791Y-74815652D01*
X97742560Y-74730000D01*
X97799791Y-74644348D01*
X97839518Y-74548440D01*
X97859770Y-74446625D01*
X97859770Y-74342815D01*
X97859770Y-73743375D01*
X97839518Y-73641560D01*
X97799791Y-73545652D01*
X97742118Y-73459337D01*
X97668713Y-73385932D01*
X97582398Y-73328259D01*
X97486490Y-73288532D01*
X97414000Y-73274113D01*
X97414000Y-73031000D01*
X97649480Y-73031000D01*
X97767623Y-73113111D01*
X97944456Y-73190368D01*
X98132927Y-73231806D01*
X98325857Y-73235847D01*
X98515897Y-73202338D01*
X98695810Y-73132554D01*
X98858742Y-73029154D01*
X98998487Y-72896077D01*
X99109723Y-72738390D01*
X99188212Y-72562101D01*
X99230964Y-72373925D01*
X99234042Y-72153514D01*
X99234042Y-79725123D01*
X99212017Y-79614397D01*
X99164150Y-79498835D01*
X99094657Y-79394831D01*
X99006209Y-79306383D01*
X98902205Y-79236890D01*
X98786643Y-79189023D01*
X98663962Y-79164620D01*
X98533590Y-79164620D01*
X98374840Y-79323370D01*
X98374840Y-80077000D01*
X99077670Y-80077000D01*
X99236420Y-79918250D01*
X99236420Y-80681750D01*
X99077670Y-80523000D01*
X98374840Y-80523000D01*
X98374840Y-81276630D01*
X98533590Y-81435380D01*
X98663962Y-81435380D01*
X98786643Y-81410977D01*
X98902205Y-81363110D01*
X99006209Y-81293617D01*
X99094657Y-81205169D01*
X99164150Y-81101165D01*
X99212017Y-80985603D01*
X99236420Y-80862922D01*
X99236420Y-85773000D01*
X97377000Y-85773000D01*
X97377000Y-84623000D01*
X92623000Y-84623000D01*
X92623000Y-85773000D01*
X90035000Y-85773000D01*
X90035000Y-83612542D01*
X90035000Y-83487458D01*
X90035000Y-82881750D01*
X90035000Y-82118250D01*
X90035000Y-81512542D01*
X90035000Y-81387458D01*
X90010597Y-81264777D01*
X89962730Y-81149215D01*
X89893237Y-81045211D01*
X89804789Y-80956763D01*
X89700785Y-80887270D01*
X89585223Y-80839403D01*
X89462542Y-80815000D01*
X89081750Y-80815000D01*
X88923000Y-80973750D01*
X88923000Y-82277000D01*
X89876250Y-82277000D01*
X90035000Y-82118250D01*
X90035000Y-82881750D01*
X89876250Y-82723000D01*
X88923000Y-82723000D01*
X88923000Y-84026250D01*
X89081750Y-84185000D01*
X89462542Y-84185000D01*
X89585223Y-84160597D01*
X89700785Y-84112730D01*
X89804789Y-84043237D01*
X89893237Y-83954789D01*
X89962730Y-83850785D01*
X90010597Y-83735223D01*
X90035000Y-83612542D01*
X90035000Y-85773000D01*
X89897104Y-85773000D01*
X89867021Y-85700372D01*
X89809348Y-85614057D01*
X89735943Y-85540652D01*
X89649628Y-85482979D01*
X89553720Y-85443252D01*
X89451905Y-85423000D01*
X89348095Y-85423000D01*
X88477000Y-85423000D01*
X88477000Y-84026250D01*
X88477000Y-82723000D01*
X88477000Y-82277000D01*
X88477000Y-80973750D01*
X88318250Y-80815000D01*
X87937458Y-80815000D01*
X87814777Y-80839403D01*
X87699215Y-80887270D01*
X87595211Y-80956763D01*
X87506763Y-81045211D01*
X87437270Y-81149215D01*
X87389403Y-81264777D01*
X87365000Y-81387458D01*
X87365000Y-81512542D01*
X87365000Y-82118250D01*
X87523750Y-82277000D01*
X88477000Y-82277000D01*
X88477000Y-82723000D01*
X87523750Y-82723000D01*
X87365000Y-82881750D01*
X87365000Y-83487458D01*
X87365000Y-83612542D01*
X87389403Y-83735223D01*
X87437270Y-83850785D01*
X87506763Y-83954789D01*
X87595211Y-84043237D01*
X87699215Y-84112730D01*
X87814777Y-84160597D01*
X87937458Y-84185000D01*
X88318250Y-84185000D01*
X88477000Y-84026250D01*
X88477000Y-85423000D01*
X87948095Y-85423000D01*
X87846280Y-85443252D01*
X87750372Y-85482979D01*
X87664057Y-85540652D01*
X87590652Y-85614057D01*
X87532979Y-85700372D01*
X87493252Y-85796280D01*
X87473000Y-85898095D01*
X87473000Y-86001905D01*
X87473000Y-88101905D01*
X87493252Y-88203720D01*
X87532979Y-88299628D01*
X87590652Y-88385943D01*
X87664057Y-88459348D01*
X87750372Y-88517021D01*
X87846280Y-88556748D01*
X87948095Y-88577000D01*
X88051905Y-88577000D01*
X89451905Y-88577000D01*
X89553720Y-88556748D01*
X89649628Y-88517021D01*
X89735943Y-88459348D01*
X89809348Y-88385943D01*
X89867021Y-88299628D01*
X89897104Y-88227000D01*
X92623000Y-88227000D01*
X92623000Y-89377000D01*
X97377000Y-89377000D01*
X97377000Y-88227000D01*
X100102895Y-88227000D01*
X100132979Y-88299628D01*
X100190652Y-88385943D01*
X100264057Y-88459348D01*
X100350372Y-88517021D01*
X100446280Y-88556748D01*
X100548095Y-88577000D01*
X100651905Y-88577000D01*
X102051905Y-88577000D01*
X102153720Y-88556748D01*
X102249628Y-88517021D01*
X102335943Y-88459348D01*
X102409348Y-88385943D01*
X102467021Y-88299628D01*
X102506748Y-88203720D01*
X102527000Y-88101905D01*
X102527000Y-92270270D01*
X102227050Y-92270270D01*
X102068300Y-92429020D01*
X102068300Y-93095135D01*
X103171180Y-93095135D01*
X103329930Y-92936385D01*
X103329930Y-93633615D01*
X103171180Y-93474865D01*
X102068300Y-93474865D01*
X102068300Y-94140980D01*
X102070840Y-94143520D01*
X102070840Y-94365135D01*
X103173720Y-94365135D01*
X103332470Y-94206385D01*
X103332470Y-94903615D01*
X103173720Y-94744865D01*
X102070840Y-94744865D01*
X102070840Y-94798000D01*
X101624840Y-94798000D01*
X101624840Y-94744865D01*
X101624840Y-94365135D01*
X101624840Y-93699020D01*
X101622300Y-93696480D01*
X101622300Y-93474865D01*
X101622300Y-93095135D01*
X101622300Y-92429020D01*
X101463550Y-92270270D01*
X101058212Y-92270270D01*
X100933128Y-92270270D01*
X100810447Y-92294673D01*
X100694885Y-92342540D01*
X100590881Y-92412033D01*
X100502433Y-92500481D01*
X100432940Y-92604485D01*
X100385073Y-92720047D01*
X100360670Y-92842728D01*
X100360670Y-92936385D01*
X100519420Y-93095135D01*
X101622300Y-93095135D01*
X101622300Y-93474865D01*
X100519420Y-93474865D01*
X100360670Y-93633615D01*
X100360670Y-93727272D01*
X100385073Y-93849953D01*
X100415357Y-93923066D01*
X100387613Y-93990047D01*
X100363210Y-94112728D01*
X100363210Y-94206385D01*
X100521960Y-94365135D01*
X101624840Y-94365135D01*
X101624840Y-94744865D01*
X100521960Y-94744865D01*
X100363210Y-94903615D01*
X100363210Y-94997272D01*
X100387613Y-95119953D01*
X100435480Y-95235515D01*
X100487208Y-95312932D01*
X100471210Y-95393365D01*
X100471210Y-95497175D01*
X100471210Y-96256635D01*
X100491462Y-96358450D01*
X100531189Y-96454358D01*
X100534958Y-96460000D01*
X100531189Y-96465642D01*
X100491462Y-96561550D01*
X100471210Y-96663365D01*
X100471210Y-96767175D01*
X100471210Y-97526635D01*
X100491462Y-97628450D01*
X100531189Y-97724358D01*
X100534958Y-97730000D01*
X100531189Y-97735642D01*
X100491462Y-97831550D01*
X100471210Y-97933365D01*
X100471210Y-98037175D01*
X100471210Y-98796635D01*
X100491462Y-98898450D01*
X100531189Y-98994358D01*
X100534958Y-99000000D01*
X100531189Y-99005642D01*
X100491462Y-99101550D01*
X100471210Y-99203365D01*
X100471210Y-99307175D01*
X100471210Y-100066635D01*
X100491462Y-100168450D01*
X100531189Y-100264358D01*
X100534958Y-100270000D01*
X100531189Y-100275642D01*
X100491462Y-100371550D01*
X100471210Y-100473365D01*
X100471210Y-100577175D01*
X100471210Y-101336635D01*
X100491462Y-101438450D01*
X100531189Y-101534358D01*
X100534958Y-101540000D01*
X100531189Y-101545642D01*
X100491462Y-101641550D01*
X100471210Y-101743365D01*
X100471210Y-101847175D01*
X100471210Y-102606635D01*
X100491462Y-102708450D01*
X100531189Y-102804358D01*
X100534958Y-102810000D01*
X100531189Y-102815642D01*
X100491462Y-102911550D01*
X100471210Y-103013365D01*
X100471210Y-103117175D01*
X100471210Y-103876635D01*
X100487208Y-103957067D01*
X100435480Y-104034485D01*
X100387613Y-104150047D01*
X100363210Y-104272728D01*
X100363210Y-104366385D01*
X100521960Y-104525135D01*
X101624840Y-104525135D01*
X101624840Y-104472000D01*
X102070840Y-104472000D01*
X102070840Y-104525135D01*
X103173720Y-104525135D01*
X103214023Y-104484831D01*
X103344000Y-104614808D01*
X103344000Y-106891746D01*
X103332470Y-106896522D01*
X103332470Y-105157272D01*
X103332470Y-105063615D01*
X103173720Y-104904865D01*
X102070840Y-104904865D01*
X102070840Y-105570980D01*
X102229590Y-105729730D01*
X102634928Y-105729730D01*
X102760012Y-105729730D01*
X102882693Y-105705327D01*
X102998255Y-105657460D01*
X103102259Y-105587967D01*
X103190707Y-105499519D01*
X103260200Y-105395515D01*
X103308067Y-105279953D01*
X103332470Y-105157272D01*
X103332470Y-106896522D01*
X103251072Y-106930239D01*
X103164757Y-106987912D01*
X103091352Y-107061317D01*
X103037776Y-107141500D01*
X102952500Y-107141500D01*
X102869194Y-107149668D01*
X102785840Y-107156961D01*
X102781265Y-107158290D01*
X102776524Y-107158755D01*
X102696398Y-107182945D01*
X102616040Y-107206292D01*
X102611811Y-107208483D01*
X102607250Y-107209861D01*
X102533310Y-107249175D01*
X102459057Y-107287665D01*
X102455337Y-107290634D01*
X102451127Y-107292873D01*
X102386245Y-107345789D01*
X102320868Y-107397979D01*
X102314240Y-107404515D01*
X102314101Y-107404629D01*
X102313993Y-107404758D01*
X102311861Y-107406862D01*
X101624840Y-108093882D01*
X101624840Y-105570980D01*
X101624840Y-104904865D01*
X100521960Y-104904865D01*
X100363210Y-105063615D01*
X100363210Y-105157272D01*
X100387613Y-105279953D01*
X100435480Y-105395515D01*
X100504973Y-105499519D01*
X100593421Y-105587967D01*
X100697425Y-105657460D01*
X100812987Y-105705327D01*
X100935668Y-105729730D01*
X101060752Y-105729730D01*
X101466090Y-105729730D01*
X101624840Y-105570980D01*
X101624840Y-108093882D01*
X101359361Y-108359361D01*
X101306245Y-108424026D01*
X101252447Y-108488140D01*
X101250150Y-108492317D01*
X101247129Y-108495996D01*
X101207589Y-108569735D01*
X101167263Y-108643089D01*
X101165823Y-108647627D01*
X101163571Y-108651828D01*
X101139094Y-108731886D01*
X101113798Y-108811632D01*
X101113267Y-108816365D01*
X101111874Y-108820922D01*
X101103415Y-108904192D01*
X101094088Y-108987350D01*
X101094023Y-108996658D01*
X101094005Y-108996838D01*
X101094020Y-108997005D01*
X101094000Y-109000000D01*
X101094000Y-114615918D01*
X101057522Y-114701028D01*
X101017401Y-114889784D01*
X101014707Y-115082737D01*
X101049542Y-115272539D01*
X101120580Y-115451961D01*
X101225114Y-115614167D01*
X101359164Y-115752979D01*
X101517623Y-115863111D01*
X101694456Y-115940368D01*
X101882927Y-115981806D01*
X102075857Y-115985847D01*
X102265897Y-115952338D01*
X102445810Y-115882554D01*
X102608742Y-115779154D01*
X102748487Y-115646077D01*
X102859723Y-115488390D01*
X102938212Y-115312101D01*
X102980964Y-115123925D01*
X102984042Y-114903514D01*
X102946560Y-114714217D01*
X102906000Y-114615810D01*
X102906000Y-110826342D01*
X102937970Y-110903525D01*
X103007463Y-111007529D01*
X103095911Y-111095977D01*
X103199915Y-111165470D01*
X103315477Y-111213337D01*
X103438158Y-111237740D01*
X103563242Y-111237740D01*
X103868250Y-111237740D01*
X104027000Y-111078990D01*
X104027000Y-110175500D01*
X104007000Y-110175500D01*
X104007000Y-109729500D01*
X104027000Y-109729500D01*
X104027000Y-109709500D01*
X104473000Y-109709500D01*
X104473000Y-109729500D01*
X104493000Y-109729500D01*
X104493000Y-110175500D01*
X104473000Y-110175500D01*
X104473000Y-111078990D01*
X104631750Y-111237740D01*
X104936758Y-111237740D01*
X105061842Y-111237740D01*
X105184523Y-111213337D01*
X105300085Y-111165470D01*
X105404089Y-111095977D01*
X105492537Y-111007529D01*
X105534000Y-110945475D01*
X105534000Y-117207000D01*
X105524495Y-117207000D01*
X105422680Y-117227252D01*
X105326772Y-117266979D01*
X105240457Y-117324652D01*
X105167052Y-117398057D01*
X105109379Y-117484372D01*
X105069652Y-117580280D01*
X105049400Y-117682095D01*
X105049400Y-117785905D01*
X105049400Y-119817905D01*
X105069652Y-119919720D01*
X105109379Y-120015628D01*
X105167052Y-120101943D01*
X105240457Y-120175348D01*
X105326772Y-120233021D01*
X105422680Y-120272748D01*
X105524495Y-120293000D01*
X105628305Y-120293000D01*
X107355505Y-120293000D01*
X107457320Y-120272748D01*
X107553228Y-120233021D01*
X107639543Y-120175348D01*
X107712948Y-120101943D01*
X107770621Y-120015628D01*
X107810348Y-119919720D01*
X107830600Y-119817905D01*
X107830600Y-119714095D01*
X107830600Y-119690275D01*
X107993271Y-119889730D01*
X108202386Y-120062726D01*
X108441121Y-120191809D01*
X108700381Y-120272063D01*
X108970292Y-120300432D01*
X109240572Y-120275835D01*
X109500928Y-120199208D01*
X109741441Y-120073470D01*
X109952952Y-119903412D01*
X110127403Y-119695509D01*
X110250877Y-119470910D01*
X110361740Y-119679412D01*
X110533271Y-119889730D01*
X110742386Y-120062726D01*
X110981121Y-120191809D01*
X111240381Y-120272063D01*
X111510292Y-120300432D01*
X111780572Y-120275835D01*
X112040928Y-120199208D01*
X112281441Y-120073470D01*
X112492952Y-119903412D01*
X112667403Y-119695509D01*
X112790877Y-119470910D01*
X112901740Y-119679412D01*
X113073271Y-119889730D01*
X113282386Y-120062726D01*
X113521121Y-120191809D01*
X113780381Y-120272063D01*
X114050292Y-120300432D01*
X114320572Y-120275835D01*
X114580928Y-120199208D01*
X114821441Y-120073470D01*
X115032952Y-119903412D01*
X115207403Y-119695509D01*
X115229123Y-119656000D01*
X119250000Y-119656000D01*
X119333305Y-119647831D01*
X119416660Y-119640539D01*
X119421234Y-119639209D01*
X119425976Y-119638745D01*
X119506101Y-119614554D01*
X119586460Y-119591208D01*
X119590688Y-119589016D01*
X119595250Y-119587639D01*
X119669149Y-119548345D01*
X119743443Y-119509836D01*
X119747166Y-119506863D01*
X119751373Y-119504627D01*
X119816227Y-119451732D01*
X119881632Y-119399521D01*
X119888263Y-119392981D01*
X119888399Y-119392871D01*
X119888502Y-119392745D01*
X119890639Y-119390639D01*
X121140639Y-118140639D01*
X121193754Y-118075973D01*
X121247553Y-118011860D01*
X121249849Y-118007682D01*
X121252871Y-118004004D01*
X121292410Y-117930264D01*
X121332737Y-117856911D01*
X121334176Y-117852372D01*
X121336429Y-117848172D01*
X121360905Y-117768113D01*
X121386202Y-117688368D01*
X121386732Y-117683634D01*
X121388126Y-117679078D01*
X121396584Y-117595807D01*
X121405912Y-117512650D01*
X121405976Y-117503341D01*
X121405995Y-117503162D01*
X121405979Y-117502994D01*
X121406000Y-117500000D01*
X121406000Y-94233047D01*
X121444348Y-94208711D01*
X121661137Y-94002266D01*
X121833697Y-93757646D01*
X121955458Y-93484166D01*
X122021781Y-93192246D01*
X122026555Y-92850320D01*
X122026555Y-121507959D01*
X121976181Y-121744950D01*
X121969947Y-122191461D01*
X122050558Y-122630680D01*
X122214946Y-123045876D01*
X122456848Y-123421235D01*
X122767051Y-123742459D01*
X123133739Y-123997314D01*
X123542945Y-124176091D01*
X123979082Y-124271983D01*
X124425539Y-124281334D01*
X124865310Y-124203791D01*
X125281643Y-124042306D01*
X125658681Y-123803030D01*
X125982064Y-123495077D01*
X126239472Y-123130178D01*
X126421102Y-122722230D01*
X126520036Y-122286772D01*
X126527158Y-121776723D01*
X126527158Y-128423000D01*
X97377000Y-128423000D01*
X89639330Y-128423000D01*
X89639330Y-105157272D01*
X89639330Y-105063615D01*
X89639330Y-104366385D01*
X89639330Y-104272728D01*
X89639330Y-93727272D01*
X89639330Y-93633615D01*
X89639330Y-92936385D01*
X89639330Y-92842728D01*
X89614927Y-92720047D01*
X89567060Y-92604485D01*
X89497567Y-92500481D01*
X89409119Y-92412033D01*
X89305115Y-92342540D01*
X89189553Y-92294673D01*
X89066872Y-92270270D01*
X88941788Y-92270270D01*
X88536450Y-92270270D01*
X88377700Y-92429020D01*
X88377700Y-93095135D01*
X89480580Y-93095135D01*
X89639330Y-92936385D01*
X89639330Y-93633615D01*
X89480580Y-93474865D01*
X88377700Y-93474865D01*
X88377700Y-93696480D01*
X88375160Y-93699020D01*
X88375160Y-94365135D01*
X89478040Y-94365135D01*
X89636790Y-94206385D01*
X89636790Y-94112728D01*
X89612387Y-93990047D01*
X89584642Y-93923066D01*
X89614927Y-93849953D01*
X89639330Y-93727272D01*
X89639330Y-104272728D01*
X89614927Y-104150047D01*
X89567060Y-104034485D01*
X89513373Y-103954137D01*
X89528790Y-103876635D01*
X89528790Y-103772825D01*
X89528790Y-103013365D01*
X89508538Y-102911550D01*
X89468811Y-102815642D01*
X89465041Y-102810000D01*
X89468811Y-102804358D01*
X89508538Y-102708450D01*
X89528790Y-102606635D01*
X89528790Y-102502825D01*
X89528790Y-101743365D01*
X89508538Y-101641550D01*
X89468811Y-101545642D01*
X89465041Y-101540000D01*
X89468811Y-101534358D01*
X89508538Y-101438450D01*
X89528790Y-101336635D01*
X89528790Y-101232825D01*
X89528790Y-100473365D01*
X89508538Y-100371550D01*
X89468811Y-100275642D01*
X89465041Y-100270000D01*
X89468811Y-100264358D01*
X89508538Y-100168450D01*
X89528790Y-100066635D01*
X89528790Y-99962825D01*
X89528790Y-99203365D01*
X89508538Y-99101550D01*
X89468811Y-99005642D01*
X89465041Y-99000000D01*
X89468811Y-98994358D01*
X89508538Y-98898450D01*
X89528790Y-98796635D01*
X89528790Y-98692825D01*
X89528790Y-97933365D01*
X89508538Y-97831550D01*
X89468811Y-97735642D01*
X89465041Y-97730000D01*
X89468811Y-97724358D01*
X89508538Y-97628450D01*
X89528790Y-97526635D01*
X89528790Y-97422825D01*
X89528790Y-96663365D01*
X89508538Y-96561550D01*
X89468811Y-96465642D01*
X89465041Y-96460000D01*
X89468811Y-96454358D01*
X89508538Y-96358450D01*
X89528790Y-96256635D01*
X89528790Y-96152825D01*
X89528790Y-95393365D01*
X89512791Y-95312932D01*
X89564520Y-95235515D01*
X89612387Y-95119953D01*
X89636790Y-94997272D01*
X89636790Y-94903615D01*
X89478040Y-94744865D01*
X88375160Y-94744865D01*
X88375160Y-94798000D01*
X87931700Y-94798000D01*
X87931700Y-94140980D01*
X87931700Y-93474865D01*
X87931700Y-93095135D01*
X87931700Y-92429020D01*
X87772950Y-92270270D01*
X87367612Y-92270270D01*
X87242528Y-92270270D01*
X87119847Y-92294673D01*
X87004285Y-92342540D01*
X86900281Y-92412033D01*
X86811833Y-92500481D01*
X86742340Y-92604485D01*
X86694473Y-92720047D01*
X86670070Y-92842728D01*
X86670070Y-92936385D01*
X86828820Y-93095135D01*
X87931700Y-93095135D01*
X87931700Y-93474865D01*
X86828820Y-93474865D01*
X86670070Y-93633615D01*
X86670070Y-93727272D01*
X86694473Y-93849953D01*
X86722217Y-93916933D01*
X86691933Y-93990047D01*
X86667530Y-94112728D01*
X86667530Y-94206385D01*
X86826280Y-94365135D01*
X87929160Y-94365135D01*
X87929160Y-94143520D01*
X87931700Y-94140980D01*
X87931700Y-94798000D01*
X87929160Y-94798000D01*
X87929160Y-94744865D01*
X86826280Y-94744865D01*
X86667530Y-94903615D01*
X86667530Y-94997272D01*
X86691933Y-95119953D01*
X86739800Y-95235515D01*
X86791528Y-95312932D01*
X86775530Y-95393365D01*
X86775530Y-95497175D01*
X86775530Y-96189000D01*
X83727000Y-96189000D01*
X83727000Y-88577000D01*
X85051905Y-88577000D01*
X85153720Y-88556748D01*
X85249628Y-88517021D01*
X85335943Y-88459348D01*
X85409348Y-88385943D01*
X85467021Y-88299628D01*
X85506748Y-88203720D01*
X85527000Y-88101905D01*
X85527000Y-87998095D01*
X85527000Y-85898095D01*
X85506748Y-85796280D01*
X85467021Y-85700372D01*
X85409348Y-85614057D01*
X85335943Y-85540652D01*
X85249628Y-85482979D01*
X85153720Y-85443252D01*
X85051905Y-85423000D01*
X84948095Y-85423000D01*
X83727000Y-85423000D01*
X83727000Y-84077000D01*
X85051905Y-84077000D01*
X85153720Y-84056748D01*
X85249628Y-84017021D01*
X85335943Y-83959348D01*
X85409348Y-83885943D01*
X85467021Y-83799628D01*
X85506748Y-83703720D01*
X85527000Y-83601905D01*
X85527000Y-83498095D01*
X85527000Y-81398095D01*
X85506748Y-81296280D01*
X85467021Y-81200372D01*
X85409348Y-81114057D01*
X85335943Y-81040652D01*
X85249628Y-80982979D01*
X85153720Y-80943252D01*
X85051905Y-80923000D01*
X84948095Y-80923000D01*
X83727000Y-80923000D01*
X83727000Y-68042096D01*
X83801204Y-67953664D01*
X83949476Y-67683957D01*
X84042539Y-67390588D01*
X84076846Y-67084729D01*
X84077000Y-67062711D01*
X84077000Y-64937289D01*
X84046966Y-64630981D01*
X83958009Y-64336341D01*
X83813517Y-64064591D01*
X83618993Y-63826081D01*
X83381847Y-63629897D01*
X83111112Y-63483511D01*
X82817100Y-63392499D01*
X82511009Y-63360327D01*
X82204500Y-63388222D01*
X81909245Y-63475120D01*
X81636493Y-63617712D01*
X81396631Y-63810566D01*
X81198796Y-64046336D01*
X81050524Y-64316043D01*
X80957461Y-64609412D01*
X80923154Y-64915271D01*
X80923000Y-64937289D01*
X80923000Y-67062711D01*
X80953034Y-67369019D01*
X81041991Y-67663659D01*
X81186483Y-67935409D01*
X81273000Y-68041489D01*
X81273000Y-82264050D01*
X81273000Y-82300000D01*
X81273000Y-86975309D01*
X81273000Y-87200000D01*
X81273000Y-88350882D01*
X81273000Y-96750000D01*
X81296368Y-96988326D01*
X81365582Y-97217573D01*
X81478006Y-97429011D01*
X81502464Y-97459000D01*
X78727000Y-97459000D01*
X78727000Y-96250000D01*
X78727000Y-96000000D01*
X78727000Y-87083920D01*
X78727000Y-85759207D01*
X78727000Y-82300000D01*
X78727000Y-82142717D01*
X78727000Y-79559524D01*
X78767021Y-79499628D01*
X78806748Y-79403720D01*
X78827000Y-79301905D01*
X78827000Y-79198095D01*
X78827000Y-78198095D01*
X78806748Y-78096280D01*
X78767021Y-78000372D01*
X78709348Y-77914057D01*
X78635943Y-77840652D01*
X78549628Y-77782979D01*
X78453720Y-77743252D01*
X78351905Y-77723000D01*
X78248095Y-77723000D01*
X78197000Y-77723000D01*
X78184687Y-77682217D01*
X78166189Y-77618543D01*
X78164451Y-77615191D01*
X78163362Y-77611582D01*
X78132272Y-77553111D01*
X78101747Y-77494222D01*
X78099390Y-77491270D01*
X78097621Y-77487942D01*
X78055768Y-77436625D01*
X78014384Y-77384784D01*
X78009204Y-77379532D01*
X78009117Y-77379425D01*
X78009017Y-77379342D01*
X78007349Y-77377651D01*
X77879698Y-77250000D01*
X78007349Y-77122349D01*
X78049409Y-77071143D01*
X78092019Y-77020364D01*
X78093837Y-77017055D01*
X78096231Y-77014142D01*
X78127548Y-76955736D01*
X78159480Y-76897653D01*
X78160620Y-76894058D01*
X78162404Y-76890732D01*
X78181776Y-76827365D01*
X78197753Y-76777000D01*
X78351905Y-76777000D01*
X78453720Y-76756748D01*
X78549628Y-76717021D01*
X78635943Y-76659348D01*
X78709348Y-76585943D01*
X78767021Y-76499628D01*
X78806748Y-76403720D01*
X78827000Y-76301905D01*
X78827000Y-76198095D01*
X78827000Y-75198095D01*
X78806748Y-75096280D01*
X78767021Y-75000372D01*
X78727000Y-74940475D01*
X78727000Y-74038369D01*
X78727000Y-73938369D01*
X78727000Y-68042096D01*
X78801204Y-67953664D01*
X78949476Y-67683957D01*
X79042539Y-67390588D01*
X79076846Y-67084729D01*
X79077000Y-67062711D01*
X79077000Y-64937289D01*
X79046966Y-64630981D01*
X78958009Y-64336341D01*
X78813517Y-64064591D01*
X78618993Y-63826081D01*
X78381847Y-63629897D01*
X78111112Y-63483511D01*
X77817100Y-63392499D01*
X77511009Y-63360327D01*
X77204500Y-63388222D01*
X76909245Y-63475120D01*
X76636493Y-63617712D01*
X76396631Y-63810566D01*
X76198796Y-64046336D01*
X76050524Y-64316043D01*
X75957461Y-64609412D01*
X75923154Y-64915271D01*
X75923000Y-64937289D01*
X75923000Y-67062711D01*
X75953034Y-67369019D01*
X76041991Y-67663659D01*
X76186483Y-67935409D01*
X76273000Y-68041489D01*
X76273000Y-73938369D01*
X76273000Y-74038369D01*
X76273000Y-74940475D01*
X76232979Y-75000372D01*
X76193252Y-75096280D01*
X76173000Y-75198095D01*
X76173000Y-75301905D01*
X76173000Y-76032500D01*
X74459466Y-76032500D01*
X74471987Y-76020577D01*
X74583223Y-75862890D01*
X74661712Y-75686601D01*
X74704464Y-75498425D01*
X74707542Y-75278014D01*
X74670060Y-75088717D01*
X74596524Y-74910305D01*
X74489735Y-74749574D01*
X74353760Y-74612647D01*
X74193779Y-74504738D01*
X74015885Y-74429958D01*
X73826854Y-74391156D01*
X73633886Y-74389808D01*
X73444332Y-74425968D01*
X73296080Y-74485864D01*
X73301770Y-74457262D01*
X73301770Y-74403610D01*
X73301770Y-73786390D01*
X73301770Y-73732738D01*
X73277367Y-73610057D01*
X73229500Y-73494495D01*
X73160007Y-73390491D01*
X73071559Y-73302043D01*
X72967555Y-73232550D01*
X72851993Y-73184683D01*
X72729312Y-73160280D01*
X72604228Y-73160280D01*
X72348750Y-73160280D01*
X72190000Y-73319030D01*
X72190000Y-73945140D01*
X73143020Y-73945140D01*
X73301770Y-73786390D01*
X73301770Y-74403610D01*
X73143020Y-74244860D01*
X72190000Y-74244860D01*
X72190000Y-74338000D01*
X71744000Y-74338000D01*
X71744000Y-74244860D01*
X71744000Y-73945140D01*
X71744000Y-73319030D01*
X71585250Y-73160280D01*
X71329772Y-73160280D01*
X71204688Y-73160280D01*
X71082007Y-73184683D01*
X70966445Y-73232550D01*
X70862441Y-73302043D01*
X70773993Y-73390491D01*
X70704500Y-73494495D01*
X70656633Y-73610057D01*
X70632230Y-73732738D01*
X70632230Y-73786390D01*
X70790980Y-73945140D01*
X71744000Y-73945140D01*
X71744000Y-74244860D01*
X70790980Y-74244860D01*
X70632230Y-74403610D01*
X70632230Y-74457262D01*
X70656633Y-74579943D01*
X70704500Y-74695505D01*
X70773993Y-74799509D01*
X70797258Y-74822774D01*
X70760482Y-74911560D01*
X70740230Y-75013375D01*
X70740230Y-75117185D01*
X70740230Y-75716625D01*
X70760482Y-75818440D01*
X70800209Y-75914348D01*
X70857439Y-76000000D01*
X70800209Y-76085652D01*
X70760482Y-76181560D01*
X70740230Y-76283375D01*
X70740230Y-76387185D01*
X70740230Y-76986625D01*
X70760482Y-77088440D01*
X70800209Y-77184348D01*
X70857439Y-77270000D01*
X70800209Y-77355652D01*
X70760482Y-77451560D01*
X70740230Y-77553375D01*
X70740230Y-77657185D01*
X70740230Y-78256625D01*
X70760482Y-78358440D01*
X70800209Y-78454348D01*
X70857882Y-78540663D01*
X70931287Y-78614068D01*
X71017602Y-78671741D01*
X71113510Y-78711468D01*
X71215325Y-78731720D01*
X71319135Y-78731720D01*
X72718675Y-78731720D01*
X72820490Y-78711468D01*
X72916398Y-78671741D01*
X72990093Y-78622500D01*
X73395000Y-78622500D01*
X73460982Y-78616030D01*
X73526985Y-78610256D01*
X73530609Y-78609203D01*
X73534363Y-78608835D01*
X73597782Y-78589687D01*
X73661457Y-78571189D01*
X73664808Y-78569451D01*
X73668418Y-78568362D01*
X73726928Y-78537251D01*
X73785778Y-78506746D01*
X73788725Y-78504392D01*
X73792058Y-78502621D01*
X73835120Y-78467500D01*
X76173000Y-78467500D01*
X76173000Y-79301905D01*
X76193252Y-79403720D01*
X76232979Y-79499628D01*
X76273000Y-79559524D01*
X76273000Y-80923000D01*
X74948095Y-80923000D01*
X74846280Y-80943252D01*
X74750372Y-80982979D01*
X74664057Y-81040652D01*
X74590652Y-81114057D01*
X74532979Y-81200372D01*
X74493252Y-81296280D01*
X74473000Y-81398095D01*
X74473000Y-81501905D01*
X74473000Y-83601905D01*
X74493252Y-83703720D01*
X74532979Y-83799628D01*
X74590652Y-83885943D01*
X74664057Y-83959348D01*
X74750372Y-84017021D01*
X74846280Y-84056748D01*
X74948095Y-84077000D01*
X75051905Y-84077000D01*
X76273000Y-84077000D01*
X76273000Y-85423000D01*
X74948095Y-85423000D01*
X74846280Y-85443252D01*
X74750372Y-85482979D01*
X74664057Y-85540652D01*
X74590652Y-85614057D01*
X74532979Y-85700372D01*
X74493252Y-85796280D01*
X74473000Y-85898095D01*
X74473000Y-86001905D01*
X74473000Y-88101905D01*
X74493252Y-88203720D01*
X74532979Y-88299628D01*
X74590652Y-88385943D01*
X74664057Y-88459348D01*
X74750372Y-88517021D01*
X74846280Y-88556748D01*
X74948095Y-88577000D01*
X75051905Y-88577000D01*
X76273000Y-88577000D01*
X76273000Y-96000000D01*
X76273000Y-96250000D01*
X76273000Y-98000000D01*
X76296368Y-98238326D01*
X76365582Y-98467573D01*
X76478006Y-98679011D01*
X76629357Y-98864586D01*
X76813870Y-99017229D01*
X77024518Y-99131126D01*
X77253277Y-99201939D01*
X77276470Y-99204376D01*
X77346860Y-99225896D01*
X77426632Y-99251202D01*
X77431367Y-99251733D01*
X77435923Y-99253126D01*
X77519187Y-99261583D01*
X77602350Y-99270912D01*
X77611658Y-99270976D01*
X77611838Y-99270995D01*
X77612005Y-99270979D01*
X77615000Y-99271000D01*
X82197721Y-99271000D01*
X81327221Y-100141500D01*
X78962223Y-100141500D01*
X78908648Y-100061317D01*
X78835243Y-99987912D01*
X78748928Y-99930239D01*
X78653020Y-99890512D01*
X78551205Y-99870260D01*
X78447395Y-99870260D01*
X76948795Y-99870260D01*
X76846980Y-99890512D01*
X76751072Y-99930239D01*
X76664757Y-99987912D01*
X76640168Y-100012500D01*
X72635000Y-100012500D01*
X72635000Y-83612542D01*
X72635000Y-83487458D01*
X72635000Y-82881750D01*
X72635000Y-82118250D01*
X72635000Y-81512542D01*
X72635000Y-81387458D01*
X72610597Y-81264777D01*
X72562730Y-81149215D01*
X72493237Y-81045211D01*
X72404789Y-80956763D01*
X72300785Y-80887270D01*
X72185223Y-80839403D01*
X72062542Y-80815000D01*
X71681750Y-80815000D01*
X71523000Y-80973750D01*
X71523000Y-82277000D01*
X72476250Y-82277000D01*
X72635000Y-82118250D01*
X72635000Y-82881750D01*
X72476250Y-82723000D01*
X71523000Y-82723000D01*
X71523000Y-84026250D01*
X71681750Y-84185000D01*
X72062542Y-84185000D01*
X72185223Y-84160597D01*
X72300785Y-84112730D01*
X72404789Y-84043237D01*
X72493237Y-83954789D01*
X72562730Y-83850785D01*
X72610597Y-83735223D01*
X72635000Y-83612542D01*
X72635000Y-100012500D01*
X70476211Y-100012500D01*
X69627000Y-99163288D01*
X69035000Y-98571288D01*
X69035000Y-89377000D01*
X69627000Y-89377000D01*
X69627000Y-88227000D01*
X70102895Y-88227000D01*
X70132979Y-88299628D01*
X70190652Y-88385943D01*
X70264057Y-88459348D01*
X70350372Y-88517021D01*
X70446280Y-88556748D01*
X70548095Y-88577000D01*
X70651905Y-88577000D01*
X72051905Y-88577000D01*
X72153720Y-88556748D01*
X72249628Y-88517021D01*
X72335943Y-88459348D01*
X72409348Y-88385943D01*
X72467021Y-88299628D01*
X72506748Y-88203720D01*
X72527000Y-88101905D01*
X72527000Y-87998095D01*
X72527000Y-85898095D01*
X72506748Y-85796280D01*
X72467021Y-85700372D01*
X72409348Y-85614057D01*
X72335943Y-85540652D01*
X72249628Y-85482979D01*
X72153720Y-85443252D01*
X72051905Y-85423000D01*
X71948095Y-85423000D01*
X71077000Y-85423000D01*
X71077000Y-84026250D01*
X71077000Y-82723000D01*
X71077000Y-82277000D01*
X71077000Y-80973750D01*
X70918250Y-80815000D01*
X70537458Y-80815000D01*
X70414777Y-80839403D01*
X70299215Y-80887270D01*
X70195211Y-80956763D01*
X70106763Y-81045211D01*
X70037270Y-81149215D01*
X69989403Y-81264777D01*
X69965000Y-81387458D01*
X69965000Y-81512542D01*
X69965000Y-82118250D01*
X70123750Y-82277000D01*
X71077000Y-82277000D01*
X71077000Y-82723000D01*
X70123750Y-82723000D01*
X69965000Y-82881750D01*
X69965000Y-83487458D01*
X69965000Y-83612542D01*
X69989403Y-83735223D01*
X70037270Y-83850785D01*
X70106763Y-83954789D01*
X70195211Y-84043237D01*
X70299215Y-84112730D01*
X70414777Y-84160597D01*
X70537458Y-84185000D01*
X70918250Y-84185000D01*
X71077000Y-84026250D01*
X71077000Y-85423000D01*
X70548095Y-85423000D01*
X70446280Y-85443252D01*
X70350372Y-85482979D01*
X70264057Y-85540652D01*
X70190652Y-85614057D01*
X70132979Y-85700372D01*
X70102895Y-85773000D01*
X69627000Y-85773000D01*
X69627000Y-84623000D01*
X69236420Y-84623000D01*
X69236420Y-80862922D01*
X69236420Y-80737838D01*
X69236420Y-80681750D01*
X69236420Y-79918250D01*
X69236420Y-79862162D01*
X69236420Y-79737078D01*
X69212017Y-79614397D01*
X69164150Y-79498835D01*
X69094657Y-79394831D01*
X69006209Y-79306383D01*
X68902205Y-79236890D01*
X68786643Y-79189023D01*
X68663962Y-79164620D01*
X68533590Y-79164620D01*
X68374840Y-79323370D01*
X68374840Y-80077000D01*
X69077670Y-80077000D01*
X69236420Y-79918250D01*
X69236420Y-80681750D01*
X69077670Y-80523000D01*
X68374840Y-80523000D01*
X68374840Y-81276630D01*
X68533590Y-81435380D01*
X68663962Y-81435380D01*
X68786643Y-81410977D01*
X68902205Y-81363110D01*
X69006209Y-81293617D01*
X69094657Y-81205169D01*
X69164150Y-81101165D01*
X69212017Y-80985603D01*
X69236420Y-80862922D01*
X69236420Y-84623000D01*
X68277158Y-84623000D01*
X68277158Y-66776723D01*
X68190422Y-66338673D01*
X68020253Y-65925812D01*
X67773133Y-65553868D01*
X67458476Y-65237006D01*
X67088265Y-64987295D01*
X66676603Y-64814249D01*
X66239169Y-64724456D01*
X65792626Y-64721339D01*
X65353981Y-64805015D01*
X64939943Y-64972297D01*
X64566282Y-65216814D01*
X64247231Y-65529252D01*
X63994942Y-65897710D01*
X63819025Y-66308154D01*
X63726181Y-66744950D01*
X63719947Y-67191461D01*
X63800558Y-67630680D01*
X63964946Y-68045876D01*
X64206848Y-68421235D01*
X64517051Y-68742459D01*
X64883739Y-68997314D01*
X65292945Y-69176091D01*
X65729082Y-69271983D01*
X66175539Y-69281334D01*
X66615310Y-69203791D01*
X67031643Y-69042306D01*
X67408681Y-68803030D01*
X67732064Y-68495077D01*
X67989472Y-68130178D01*
X68171102Y-67722230D01*
X68270036Y-67286772D01*
X68277158Y-66776723D01*
X68277158Y-84623000D01*
X64873000Y-84623000D01*
X64873000Y-84942062D01*
X61000161Y-84942062D01*
X61043305Y-84937831D01*
X61126660Y-84930539D01*
X61131234Y-84929209D01*
X61135976Y-84928745D01*
X61216101Y-84904554D01*
X61296460Y-84881208D01*
X61300688Y-84879016D01*
X61305250Y-84877639D01*
X61379149Y-84838345D01*
X61453443Y-84799836D01*
X61457166Y-84796863D01*
X61461373Y-84794627D01*
X61526227Y-84741732D01*
X61591632Y-84689521D01*
X61598263Y-84682981D01*
X61598399Y-84682871D01*
X61598502Y-84682745D01*
X61600639Y-84680639D01*
X64940639Y-81340639D01*
X64993754Y-81275973D01*
X65047553Y-81211860D01*
X65049849Y-81207682D01*
X65052871Y-81204004D01*
X65092410Y-81130264D01*
X65132737Y-81056911D01*
X65134176Y-81052372D01*
X65136429Y-81048172D01*
X65160905Y-80968113D01*
X65186202Y-80888368D01*
X65186732Y-80883634D01*
X65188126Y-80879078D01*
X65196579Y-80795852D01*
X65205912Y-80712650D01*
X65205976Y-80703331D01*
X65205994Y-80703162D01*
X65205979Y-80703004D01*
X65206000Y-80700000D01*
X65206000Y-77489812D01*
X65207443Y-77488848D01*
X65280848Y-77415443D01*
X65322904Y-77352500D01*
X65468315Y-77352500D01*
X65466209Y-77355652D01*
X65426482Y-77451560D01*
X65406230Y-77553375D01*
X65406230Y-77657185D01*
X65406230Y-78256625D01*
X65426482Y-78358440D01*
X65466209Y-78454348D01*
X65523882Y-78540663D01*
X65597287Y-78614068D01*
X65683602Y-78671741D01*
X65779510Y-78711468D01*
X65852000Y-78725886D01*
X65852000Y-79400909D01*
X65789232Y-79463677D01*
X65731559Y-79549992D01*
X65691832Y-79645900D01*
X65671580Y-79747715D01*
X65671580Y-79851525D01*
X65671580Y-80852285D01*
X65691832Y-80954100D01*
X65731559Y-81050008D01*
X65742160Y-81065873D01*
X65742160Y-81873000D01*
X65500000Y-81873000D01*
X65281098Y-81894464D01*
X65070534Y-81958037D01*
X64876328Y-82061298D01*
X64705877Y-82200314D01*
X64565675Y-82369790D01*
X64461060Y-82563270D01*
X64396019Y-82773385D01*
X64373027Y-82992132D01*
X64392962Y-83211179D01*
X64455064Y-83422182D01*
X64556967Y-83617104D01*
X64694789Y-83788521D01*
X64863282Y-83929903D01*
X65056027Y-84035866D01*
X65265684Y-84102372D01*
X65484265Y-84126890D01*
X65500000Y-84127000D01*
X66750000Y-84127000D01*
X66968902Y-84105536D01*
X67179466Y-84041963D01*
X67373672Y-83938702D01*
X67544123Y-83799686D01*
X67684325Y-83630210D01*
X67788940Y-83436730D01*
X67853981Y-83226615D01*
X67876973Y-83007868D01*
X67857038Y-82788821D01*
X67794936Y-82577818D01*
X67693033Y-82382896D01*
X67555211Y-82211479D01*
X67554160Y-82210597D01*
X67554160Y-81418361D01*
X67639718Y-81435380D01*
X67770090Y-81435380D01*
X67928840Y-81276630D01*
X67928840Y-80523000D01*
X67908840Y-80523000D01*
X67908840Y-80077000D01*
X67928840Y-80077000D01*
X67928840Y-79323370D01*
X67770090Y-79164620D01*
X67639718Y-79164620D01*
X67517037Y-79189023D01*
X67414000Y-79231702D01*
X67414000Y-78725886D01*
X67486490Y-78711468D01*
X67582398Y-78671741D01*
X67668713Y-78614068D01*
X67742118Y-78540663D01*
X67799791Y-78454348D01*
X67839518Y-78358440D01*
X67859770Y-78256625D01*
X67859770Y-78152815D01*
X67859770Y-77553375D01*
X67839518Y-77451560D01*
X67799791Y-77355652D01*
X67742560Y-77270000D01*
X67799791Y-77184348D01*
X67839518Y-77088440D01*
X67859770Y-76986625D01*
X67859770Y-76882815D01*
X67859770Y-76283375D01*
X67839518Y-76181560D01*
X67799791Y-76085652D01*
X67742560Y-76000000D01*
X67799791Y-75914348D01*
X67839518Y-75818440D01*
X67859770Y-75716625D01*
X67859770Y-75612815D01*
X67859770Y-75013375D01*
X67839518Y-74911560D01*
X67799791Y-74815652D01*
X67742560Y-74730000D01*
X67799791Y-74644348D01*
X67839518Y-74548440D01*
X67859770Y-74446625D01*
X67859770Y-74342815D01*
X67859770Y-73743375D01*
X67839518Y-73641560D01*
X67799791Y-73545652D01*
X67742118Y-73459337D01*
X67668713Y-73385932D01*
X67582398Y-73328259D01*
X67486490Y-73288532D01*
X67384675Y-73268280D01*
X67350500Y-73268280D01*
X67350500Y-72833000D01*
X67344030Y-72767017D01*
X67338256Y-72701015D01*
X67337203Y-72697390D01*
X67336835Y-72693637D01*
X67317687Y-72630217D01*
X67299189Y-72566543D01*
X67297451Y-72563191D01*
X67296362Y-72559582D01*
X67265251Y-72501071D01*
X67234746Y-72442222D01*
X67232392Y-72439274D01*
X67230621Y-72435942D01*
X67188721Y-72384567D01*
X67147383Y-72332784D01*
X67142206Y-72327534D01*
X67142117Y-72327425D01*
X67142015Y-72327341D01*
X67140349Y-72325651D01*
X66545349Y-71730651D01*
X66494143Y-71688590D01*
X66443364Y-71645981D01*
X66440055Y-71644162D01*
X66437142Y-71641769D01*
X66378771Y-71610471D01*
X66320653Y-71578520D01*
X66317054Y-71577378D01*
X66313732Y-71575597D01*
X66250411Y-71556238D01*
X66187177Y-71536179D01*
X66183423Y-71535757D01*
X66179819Y-71534656D01*
X66113895Y-71527959D01*
X66048018Y-71520570D01*
X66040647Y-71520518D01*
X66040505Y-71520504D01*
X66040371Y-71520516D01*
X66038000Y-71520500D01*
X65216791Y-71520500D01*
X65207443Y-71511152D01*
X65121128Y-71453479D01*
X65081000Y-71436857D01*
X65081000Y-71300000D01*
X65073957Y-71228173D01*
X65067672Y-71156333D01*
X65066526Y-71152391D01*
X65066126Y-71148303D01*
X65045283Y-71079270D01*
X65025148Y-71009962D01*
X65023255Y-71006311D01*
X65022070Y-71002384D01*
X64988209Y-70938701D01*
X64955001Y-70874637D01*
X64952439Y-70871428D01*
X64950511Y-70867801D01*
X64904922Y-70811903D01*
X64859907Y-70755513D01*
X64854268Y-70749796D01*
X64854175Y-70749681D01*
X64854068Y-70749592D01*
X64852250Y-70747749D01*
X63802250Y-69697750D01*
X63746518Y-69651970D01*
X63691239Y-69605586D01*
X63687640Y-69603607D01*
X63684467Y-69601001D01*
X63620925Y-69566930D01*
X63619210Y-69565988D01*
X63604332Y-69529889D01*
X63438669Y-69280545D01*
X63227729Y-69068128D01*
X62979549Y-68900728D01*
X62703579Y-68784721D01*
X62410334Y-68724527D01*
X62110981Y-68722437D01*
X61816923Y-68778531D01*
X61539361Y-68890674D01*
X61288867Y-69054592D01*
X61074983Y-69264044D01*
X60905854Y-69511050D01*
X60787924Y-69786202D01*
X60725683Y-70079020D01*
X60721504Y-70378351D01*
X60775544Y-70672794D01*
X60885746Y-70951132D01*
X61047911Y-71202764D01*
X61255864Y-71418105D01*
X61501684Y-71588954D01*
X61776006Y-71708803D01*
X62068383Y-71773086D01*
X62367677Y-71779355D01*
X62662490Y-71727372D01*
X62941590Y-71619116D01*
X63194348Y-71458711D01*
X63276232Y-71380733D01*
X63401005Y-71505506D01*
X63392557Y-71511152D01*
X63319152Y-71584557D01*
X63261479Y-71670872D01*
X63221752Y-71766780D01*
X63201500Y-71868595D01*
X63201500Y-71972405D01*
X63201500Y-72607405D01*
X63221752Y-72709220D01*
X63261479Y-72805128D01*
X63319152Y-72891443D01*
X63392557Y-72964848D01*
X63445166Y-73000000D01*
X63392557Y-73035152D01*
X63319152Y-73108557D01*
X63261479Y-73194872D01*
X63221752Y-73290780D01*
X63201500Y-73392595D01*
X63201500Y-73496405D01*
X63201500Y-74131405D01*
X63221752Y-74233220D01*
X63261479Y-74329128D01*
X63319152Y-74415443D01*
X63392557Y-74488848D01*
X63409247Y-74500000D01*
X63392557Y-74511152D01*
X63319152Y-74584557D01*
X63261479Y-74670872D01*
X63221752Y-74766780D01*
X63201500Y-74868595D01*
X63201500Y-74972405D01*
X63201500Y-75607405D01*
X63221752Y-75709220D01*
X63261479Y-75805128D01*
X63319152Y-75891443D01*
X63392557Y-75964848D01*
X63445166Y-76000000D01*
X63392557Y-76035152D01*
X63319152Y-76108557D01*
X63261479Y-76194872D01*
X63221752Y-76290780D01*
X63201500Y-76392595D01*
X63201500Y-76496405D01*
X63201500Y-77131405D01*
X63221752Y-77233220D01*
X63261479Y-77329128D01*
X63319152Y-77415443D01*
X63392557Y-77488848D01*
X63394000Y-77489812D01*
X63394000Y-80324722D01*
X60584722Y-83134000D01*
X60207242Y-83134000D01*
X60153412Y-83067048D01*
X59945509Y-82892597D01*
X59826370Y-82827099D01*
X59992865Y-82736393D01*
X60217924Y-82548669D01*
X60402035Y-82320646D01*
X60538124Y-82061086D01*
X60581185Y-81952077D01*
X60581185Y-81047923D01*
X60538124Y-80938914D01*
X60402035Y-80679354D01*
X60217924Y-80451331D01*
X60091526Y-80345901D01*
X60169720Y-80330348D01*
X60265628Y-80290621D01*
X60351943Y-80232948D01*
X60425348Y-80159543D01*
X60483021Y-80073228D01*
X60522748Y-79977320D01*
X60543000Y-79875505D01*
X60543000Y-79771695D01*
X60543000Y-78044495D01*
X60522748Y-77942680D01*
X60483021Y-77846772D01*
X60425348Y-77760457D01*
X60351943Y-77687052D01*
X60265628Y-77629379D01*
X60169720Y-77589652D01*
X60067905Y-77569400D01*
X59964095Y-77569400D01*
X57932095Y-77569400D01*
X57830280Y-77589652D01*
X57734372Y-77629379D01*
X57648057Y-77687052D01*
X57574652Y-77760457D01*
X57516979Y-77846772D01*
X57477252Y-77942680D01*
X57457000Y-78044495D01*
X57457000Y-78148305D01*
X57457000Y-79875505D01*
X57477252Y-79977320D01*
X57516979Y-80073228D01*
X57574652Y-80159543D01*
X57648057Y-80232948D01*
X57734372Y-80290621D01*
X57830280Y-80330348D01*
X57908473Y-80345901D01*
X57782076Y-80451331D01*
X57597965Y-80679354D01*
X57461876Y-80938914D01*
X57418815Y-81047923D01*
X57526438Y-81277000D01*
X58777000Y-81277000D01*
X58777000Y-81257000D01*
X59223000Y-81257000D01*
X59223000Y-81277000D01*
X60473562Y-81277000D01*
X60581185Y-81047923D01*
X60581185Y-81952077D01*
X60473562Y-81723000D01*
X59223000Y-81723000D01*
X59223000Y-81743000D01*
X58777000Y-81743000D01*
X58777000Y-81723000D01*
X57526438Y-81723000D01*
X57418815Y-81952077D01*
X57461876Y-82061086D01*
X57597965Y-82320646D01*
X57782076Y-82548669D01*
X58007135Y-82736393D01*
X58173491Y-82827024D01*
X58070588Y-82881740D01*
X57860270Y-83053271D01*
X57687274Y-83262386D01*
X57558191Y-83501121D01*
X57477937Y-83760381D01*
X57449568Y-84030292D01*
X57474165Y-84300572D01*
X57550792Y-84560928D01*
X57676530Y-84801441D01*
X57789591Y-84942062D01*
X57308671Y-84942062D01*
X56664730Y-84298120D01*
X56664730Y-65981528D01*
X56664730Y-65018472D01*
X56574918Y-64749281D01*
X56399159Y-64466209D01*
X56171553Y-64222865D01*
X55900846Y-64028601D01*
X55597442Y-63890882D01*
X55273000Y-63815000D01*
X54223000Y-63815000D01*
X54223000Y-65277000D01*
X56559871Y-65277000D01*
X56664730Y-65018472D01*
X56664730Y-65981528D01*
X56559871Y-65723000D01*
X54223000Y-65723000D01*
X54223000Y-67185000D01*
X55273000Y-67185000D01*
X55597442Y-67109118D01*
X55900846Y-66971399D01*
X56171553Y-66777135D01*
X56399159Y-66533791D01*
X56574918Y-66250719D01*
X56664730Y-65981528D01*
X56664730Y-84298120D01*
X56027000Y-83660390D01*
X56027000Y-71738817D01*
X56173919Y-71618993D01*
X56370103Y-71381847D01*
X56516489Y-71111112D01*
X56607501Y-70817100D01*
X56639673Y-70511009D01*
X56611778Y-70204500D01*
X56524880Y-69909245D01*
X56382288Y-69636493D01*
X56189434Y-69396631D01*
X55953664Y-69198796D01*
X55683957Y-69050524D01*
X55390588Y-68957461D01*
X55084729Y-68923154D01*
X55062711Y-68923000D01*
X53777000Y-68923000D01*
X53777000Y-67185000D01*
X53777000Y-65723000D01*
X53777000Y-65277000D01*
X53777000Y-63815000D01*
X52727000Y-63815000D01*
X52402558Y-63890882D01*
X52099154Y-64028601D01*
X51828447Y-64222865D01*
X51600841Y-64466209D01*
X51425082Y-64749281D01*
X51335270Y-65018472D01*
X51440129Y-65277000D01*
X53777000Y-65277000D01*
X53777000Y-65723000D01*
X51440129Y-65723000D01*
X51335270Y-65981528D01*
X51425082Y-66250719D01*
X51600841Y-66533791D01*
X51828447Y-66777135D01*
X52099154Y-66971399D01*
X52402558Y-67109118D01*
X52727000Y-67185000D01*
X53777000Y-67185000D01*
X53777000Y-68923000D01*
X52937289Y-68923000D01*
X52630981Y-68953034D01*
X52336341Y-69041991D01*
X52064591Y-69186483D01*
X51826081Y-69381007D01*
X51629897Y-69618153D01*
X51483511Y-69888888D01*
X51392499Y-70182900D01*
X51360327Y-70488991D01*
X51388222Y-70795500D01*
X51475120Y-71090755D01*
X51617712Y-71363507D01*
X51810566Y-71603369D01*
X51973000Y-71739667D01*
X51973000Y-84500000D01*
X51991269Y-84686331D01*
X52007590Y-84872869D01*
X52010563Y-84883105D01*
X52011604Y-84893713D01*
X52065733Y-85072999D01*
X52117960Y-85252763D01*
X52122862Y-85262221D01*
X52125945Y-85272430D01*
X52213871Y-85437795D01*
X52300015Y-85603983D01*
X52306664Y-85612312D01*
X52311669Y-85621725D01*
X52430041Y-85766864D01*
X52546823Y-85913154D01*
X52561444Y-85927981D01*
X52561700Y-85928294D01*
X52561989Y-85928533D01*
X52566695Y-85933305D01*
X55035757Y-88402367D01*
X55180395Y-88521174D01*
X55323874Y-88641567D01*
X55333216Y-88646703D01*
X55341451Y-88653467D01*
X55506481Y-88741956D01*
X55670542Y-88832149D01*
X55680697Y-88835370D01*
X55690096Y-88840410D01*
X55869217Y-88895172D01*
X56047625Y-88951767D01*
X56058215Y-88952954D01*
X56068411Y-88956072D01*
X56254748Y-88974999D01*
X56440761Y-88995864D01*
X56461590Y-88996009D01*
X56461987Y-88996050D01*
X56462356Y-88996015D01*
X56469062Y-88996062D01*
X61378310Y-88996062D01*
X61288867Y-89054592D01*
X61074983Y-89264044D01*
X60905854Y-89511050D01*
X60787924Y-89786202D01*
X60725683Y-90079020D01*
X60721504Y-90378351D01*
X60775544Y-90672794D01*
X60885746Y-90951132D01*
X61047911Y-91202764D01*
X61255864Y-91418105D01*
X61344000Y-91479360D01*
X61344000Y-101500000D01*
X61352168Y-101583305D01*
X61359461Y-101666660D01*
X61360790Y-101671234D01*
X61361255Y-101675976D01*
X61385445Y-101756101D01*
X61408792Y-101836460D01*
X61410983Y-101840688D01*
X61412361Y-101845250D01*
X61451654Y-101919149D01*
X61490164Y-101993443D01*
X61493136Y-101997166D01*
X61495373Y-102001373D01*
X61548267Y-102066227D01*
X61600479Y-102131632D01*
X61607018Y-102138263D01*
X61607129Y-102138399D01*
X61607254Y-102138502D01*
X61609361Y-102140639D01*
X69627000Y-110158278D01*
X75284000Y-115815278D01*
X75284000Y-117207000D01*
X75274495Y-117207000D01*
X75172680Y-117227252D01*
X75076772Y-117266979D01*
X74990457Y-117324652D01*
X74917052Y-117398057D01*
X74859379Y-117484372D01*
X74819652Y-117580280D01*
X74799400Y-117682095D01*
X74799400Y-117785905D01*
X74799400Y-119817905D01*
X74819652Y-119919720D01*
X74859379Y-120015628D01*
X74917052Y-120101943D01*
X74990457Y-120175348D01*
X75076772Y-120233021D01*
X75172680Y-120272748D01*
X75274495Y-120293000D01*
X75378305Y-120293000D01*
X77105505Y-120293000D01*
X77207320Y-120272748D01*
X77303228Y-120233021D01*
X77389543Y-120175348D01*
X77462948Y-120101943D01*
X77520621Y-120015628D01*
X77560348Y-119919720D01*
X77580600Y-119817905D01*
X77580600Y-119714095D01*
X77580600Y-119690275D01*
X77743271Y-119889730D01*
X77952386Y-120062726D01*
X78191121Y-120191809D01*
X78450381Y-120272063D01*
X78720292Y-120300432D01*
X78990572Y-120275835D01*
X79250928Y-120199208D01*
X79491441Y-120073470D01*
X79702952Y-119903412D01*
X79877403Y-119695509D01*
X80000877Y-119470910D01*
X80111740Y-119679412D01*
X80283271Y-119889730D01*
X80492386Y-120062726D01*
X80731121Y-120191809D01*
X80990381Y-120272063D01*
X81260292Y-120300432D01*
X81530572Y-120275835D01*
X81790928Y-120199208D01*
X82031441Y-120073470D01*
X82242952Y-119903412D01*
X82417403Y-119695509D01*
X82540877Y-119470910D01*
X82651740Y-119679412D01*
X82823271Y-119889730D01*
X83032386Y-120062726D01*
X83271121Y-120191809D01*
X83530381Y-120272063D01*
X83800292Y-120300432D01*
X84070572Y-120275835D01*
X84330928Y-120199208D01*
X84571441Y-120073470D01*
X84782952Y-119903412D01*
X84957403Y-119695509D01*
X85088150Y-119457682D01*
X85170212Y-119198988D01*
X85200464Y-118929282D01*
X85200600Y-118909866D01*
X85200600Y-118590134D01*
X85174116Y-118320032D01*
X85095674Y-118060218D01*
X84968260Y-117820588D01*
X84796729Y-117610270D01*
X84716000Y-117543484D01*
X84716000Y-106554807D01*
X86787246Y-104483561D01*
X86828820Y-104525135D01*
X87931700Y-104525135D01*
X87931700Y-104472000D01*
X88377700Y-104472000D01*
X88377700Y-104525135D01*
X89480580Y-104525135D01*
X89639330Y-104366385D01*
X89639330Y-105063615D01*
X89480580Y-104904865D01*
X88377700Y-104904865D01*
X88377700Y-105570980D01*
X88536450Y-105729730D01*
X88941788Y-105729730D01*
X89066872Y-105729730D01*
X89189553Y-105705327D01*
X89305115Y-105657460D01*
X89409119Y-105587967D01*
X89497567Y-105499519D01*
X89567060Y-105395515D01*
X89614927Y-105279953D01*
X89639330Y-105157272D01*
X89639330Y-128423000D01*
X87931700Y-128423000D01*
X87931700Y-105570980D01*
X87931700Y-104904865D01*
X86828820Y-104904865D01*
X86670070Y-105063615D01*
X86670070Y-105157272D01*
X86694473Y-105279953D01*
X86742340Y-105395515D01*
X86811833Y-105499519D01*
X86900281Y-105587967D01*
X87004285Y-105657460D01*
X87119847Y-105705327D01*
X87242528Y-105729730D01*
X87367612Y-105729730D01*
X87772950Y-105729730D01*
X87931700Y-105570980D01*
X87931700Y-128423000D01*
X69627000Y-128423000D01*
X68277158Y-128423000D01*
X68277158Y-121776723D01*
X68190422Y-121338673D01*
X68020253Y-120925812D01*
X67773133Y-120553868D01*
X67458476Y-120237006D01*
X67088265Y-119987295D01*
X66676603Y-119814249D01*
X66239169Y-119724456D01*
X65792626Y-119721339D01*
X65353981Y-119805015D01*
X64939943Y-119972297D01*
X64566282Y-120216814D01*
X64247231Y-120529252D01*
X63994942Y-120897710D01*
X63819025Y-121308154D01*
X63726181Y-121744950D01*
X63719947Y-122191461D01*
X63800558Y-122630680D01*
X63964946Y-123045876D01*
X64206848Y-123421235D01*
X64517051Y-123742459D01*
X64883739Y-123997314D01*
X65292945Y-124176091D01*
X65729082Y-124271983D01*
X66175539Y-124281334D01*
X66615310Y-124203791D01*
X67031643Y-124042306D01*
X67408681Y-123803030D01*
X67732064Y-123495077D01*
X67989472Y-123130178D01*
X68171102Y-122722230D01*
X68270036Y-122286772D01*
X68277158Y-121776723D01*
X68277158Y-128423000D01*
X58070428Y-128423000D01*
X58070428Y-118760772D01*
X58043135Y-118460871D01*
X57958111Y-118171982D01*
X57818593Y-117905110D01*
X57629897Y-117670419D01*
X57399210Y-117476850D01*
X57135318Y-117331774D01*
X56848274Y-117240718D01*
X56549010Y-117207150D01*
X56527466Y-117207000D01*
X56512534Y-117207000D01*
X56212830Y-117236386D01*
X55924542Y-117323425D01*
X55658651Y-117464803D01*
X55593741Y-117517741D01*
X55558730Y-117433215D01*
X55489237Y-117329211D01*
X55400789Y-117240763D01*
X55296785Y-117171270D01*
X55181223Y-117123403D01*
X55058542Y-117099000D01*
X54361750Y-117099000D01*
X54203000Y-117257750D01*
X54203000Y-118527000D01*
X54223000Y-118527000D01*
X54223000Y-118973000D01*
X54203000Y-118973000D01*
X54203000Y-120242250D01*
X54361750Y-120401000D01*
X55058542Y-120401000D01*
X55181223Y-120376597D01*
X55296785Y-120328730D01*
X55400789Y-120259237D01*
X55489237Y-120170789D01*
X55558730Y-120066785D01*
X55593307Y-119983307D01*
X55640790Y-120023150D01*
X55904682Y-120168226D01*
X56191726Y-120259282D01*
X56490990Y-120292850D01*
X56512534Y-120293000D01*
X56527466Y-120293000D01*
X56827170Y-120263614D01*
X57115458Y-120176575D01*
X57381349Y-120035197D01*
X57614717Y-119844868D01*
X57806671Y-119612835D01*
X57949901Y-119347937D01*
X58038951Y-119060263D01*
X58070428Y-118760772D01*
X58070428Y-128423000D01*
X53757000Y-128423000D01*
X53757000Y-120242250D01*
X53757000Y-118973000D01*
X53757000Y-118527000D01*
X53757000Y-117257750D01*
X53598250Y-117099000D01*
X52901458Y-117099000D01*
X52778777Y-117123403D01*
X52663215Y-117171270D01*
X52559211Y-117240763D01*
X52470763Y-117329211D01*
X52401270Y-117433215D01*
X52353403Y-117548777D01*
X52329000Y-117671458D01*
X52329000Y-117796542D01*
X52329000Y-118368250D01*
X52487750Y-118527000D01*
X53757000Y-118527000D01*
X53757000Y-118973000D01*
X52487750Y-118973000D01*
X52329000Y-119131750D01*
X52329000Y-119703458D01*
X52329000Y-119828542D01*
X52353403Y-119951223D01*
X52401270Y-120066785D01*
X52470763Y-120170789D01*
X52559211Y-120259237D01*
X52663215Y-120328730D01*
X52778777Y-120376597D01*
X52901458Y-120401000D01*
X53598250Y-120401000D01*
X53757000Y-120242250D01*
X53757000Y-128423000D01*
X51028218Y-128423000D01*
X50724144Y-128393185D01*
X50458793Y-128313071D01*
X50214056Y-128182942D01*
X49999255Y-128007754D01*
X49822574Y-127794185D01*
X49690741Y-127550365D01*
X49608775Y-127285576D01*
X49577000Y-126983258D01*
X49577000Y-63028218D01*
X49606815Y-62724140D01*
X49686928Y-62458792D01*
X49817056Y-62214056D01*
X49992244Y-61999255D01*
X50205817Y-61822572D01*
X50449635Y-61690740D01*
X50714424Y-61608775D01*
X51016741Y-61577000D01*
X138971781Y-61577000D01*
X139275859Y-61606815D01*
X139541207Y-61686928D01*
X139785943Y-61817056D01*
X140000744Y-61992244D01*
X140177427Y-62205817D01*
X140309259Y-62449635D01*
X140391224Y-62714424D01*
X140423000Y-63016741D01*
X140423000Y-126971781D01*
X140423000Y-126971781D01*
G37*
X140423000Y-126971781D02*
X140393185Y-127275855D01*
X140313071Y-127541206D01*
X140182942Y-127785943D01*
X140007754Y-128000744D01*
X139794185Y-128177425D01*
X139550365Y-128309258D01*
X139285576Y-128391224D01*
X138983258Y-128423000D01*
X138664730Y-128423000D01*
X138664730Y-65981528D01*
X138664730Y-65018472D01*
X138574918Y-64749281D01*
X138399159Y-64466209D01*
X138171553Y-64222865D01*
X137900846Y-64028601D01*
X137597442Y-63890882D01*
X137273000Y-63815000D01*
X136223000Y-63815000D01*
X136223000Y-65277000D01*
X138559871Y-65277000D01*
X138664730Y-65018472D01*
X138664730Y-65981528D01*
X138559871Y-65723000D01*
X136223000Y-65723000D01*
X136223000Y-67185000D01*
X137273000Y-67185000D01*
X137597442Y-67109118D01*
X137900846Y-66971399D01*
X138171553Y-66777135D01*
X138399159Y-66533791D01*
X138574918Y-66250719D01*
X138664730Y-65981528D01*
X138664730Y-128423000D01*
X138639673Y-128423000D01*
X138639673Y-70511009D01*
X138611778Y-70204500D01*
X138524880Y-69909245D01*
X138382288Y-69636493D01*
X138189434Y-69396631D01*
X137953664Y-69198796D01*
X137683957Y-69050524D01*
X137390588Y-68957461D01*
X137286023Y-68945732D01*
X137133484Y-68819541D01*
X136785494Y-68631383D01*
X136407585Y-68514401D01*
X136014151Y-68473049D01*
X135777000Y-68494631D01*
X135777000Y-67185000D01*
X135777000Y-65723000D01*
X135777000Y-65277000D01*
X135777000Y-63815000D01*
X134727000Y-63815000D01*
X134402558Y-63890882D01*
X134099154Y-64028601D01*
X133828447Y-64222865D01*
X133600841Y-64466209D01*
X133425082Y-64749281D01*
X133335270Y-65018472D01*
X133440129Y-65277000D01*
X135777000Y-65277000D01*
X135777000Y-65723000D01*
X133440129Y-65723000D01*
X133335270Y-65981528D01*
X133425082Y-66250719D01*
X133600841Y-66533791D01*
X133828447Y-66777135D01*
X134099154Y-66971399D01*
X134402558Y-67109118D01*
X134727000Y-67185000D01*
X135777000Y-67185000D01*
X135777000Y-68494631D01*
X135620178Y-68508904D01*
X135240672Y-68620598D01*
X134890089Y-68803879D01*
X134714799Y-68944815D01*
X134630981Y-68953034D01*
X134336341Y-69041991D01*
X134064591Y-69186483D01*
X133826081Y-69381007D01*
X133629897Y-69618153D01*
X133483511Y-69888888D01*
X133392499Y-70182900D01*
X133360327Y-70488991D01*
X133388222Y-70795500D01*
X133475120Y-71090755D01*
X133617712Y-71363507D01*
X133810566Y-71603369D01*
X133973000Y-71739667D01*
X133973000Y-82910389D01*
X131910389Y-84973000D01*
X127377000Y-84973000D01*
X127377000Y-84623000D01*
X126277158Y-84623000D01*
X126277158Y-66776723D01*
X126190422Y-66338673D01*
X126020253Y-65925812D01*
X125773133Y-65553868D01*
X125458476Y-65237006D01*
X125088265Y-64987295D01*
X124676603Y-64814249D01*
X124239169Y-64724456D01*
X123792626Y-64721339D01*
X123353981Y-64805015D01*
X122939943Y-64972297D01*
X122566282Y-65216814D01*
X122247231Y-65529252D01*
X121994942Y-65897710D01*
X121819025Y-66308154D01*
X121726181Y-66744950D01*
X121719947Y-67191461D01*
X121800558Y-67630680D01*
X121964946Y-68045876D01*
X122206848Y-68421235D01*
X122517051Y-68742459D01*
X122883739Y-68997314D01*
X123292945Y-69176091D01*
X123729082Y-69271983D01*
X124175539Y-69281334D01*
X124615310Y-69203791D01*
X125031643Y-69042306D01*
X125408681Y-68803030D01*
X125732064Y-68495077D01*
X125989472Y-68130178D01*
X126171102Y-67722230D01*
X126270036Y-67286772D01*
X126277158Y-66776723D01*
X126277158Y-84623000D01*
X122623000Y-84623000D01*
X122623000Y-85773000D01*
X122026555Y-85773000D01*
X122026555Y-72750320D01*
X121968409Y-72456661D01*
X121854332Y-72179889D01*
X121688669Y-71930545D01*
X121477729Y-71718128D01*
X121229549Y-71550728D01*
X120953579Y-71434721D01*
X120660334Y-71374527D01*
X120360981Y-71372437D01*
X120066923Y-71428531D01*
X119789361Y-71540674D01*
X119538867Y-71704592D01*
X119324983Y-71914044D01*
X119155854Y-72161050D01*
X119037924Y-72436202D01*
X118975683Y-72729020D01*
X118971504Y-73028351D01*
X119025544Y-73322794D01*
X119135746Y-73601132D01*
X119297911Y-73852764D01*
X119505864Y-74068105D01*
X119751684Y-74238954D01*
X120026006Y-74358803D01*
X120318383Y-74423086D01*
X120617677Y-74429355D01*
X120912490Y-74377372D01*
X121191590Y-74269116D01*
X121444348Y-74108711D01*
X121661137Y-73902266D01*
X121833697Y-73657646D01*
X121955458Y-73384166D01*
X122021781Y-73092246D01*
X122026555Y-72750320D01*
X122026555Y-85773000D01*
X120035000Y-85773000D01*
X120035000Y-83612542D01*
X120035000Y-83487458D01*
X120035000Y-82881750D01*
X120035000Y-82118250D01*
X120035000Y-81512542D01*
X120035000Y-81387458D01*
X120010597Y-81264777D01*
X119962730Y-81149215D01*
X119893237Y-81045211D01*
X119804789Y-80956763D01*
X119700785Y-80887270D01*
X119585223Y-80839403D01*
X119462542Y-80815000D01*
X119081750Y-80815000D01*
X118923000Y-80973750D01*
X118923000Y-82277000D01*
X119876250Y-82277000D01*
X120035000Y-82118250D01*
X120035000Y-82881750D01*
X119876250Y-82723000D01*
X118923000Y-82723000D01*
X118923000Y-84026250D01*
X119081750Y-84185000D01*
X119462542Y-84185000D01*
X119585223Y-84160597D01*
X119700785Y-84112730D01*
X119804789Y-84043237D01*
X119893237Y-83954789D01*
X119962730Y-83850785D01*
X120010597Y-83735223D01*
X120035000Y-83612542D01*
X120035000Y-85773000D01*
X119897104Y-85773000D01*
X119867021Y-85700372D01*
X119809348Y-85614057D01*
X119735943Y-85540652D01*
X119649628Y-85482979D01*
X119553720Y-85443252D01*
X119451905Y-85423000D01*
X119348095Y-85423000D01*
X118477000Y-85423000D01*
X118477000Y-84026250D01*
X118477000Y-82723000D01*
X118477000Y-82277000D01*
X118477000Y-80973750D01*
X118318250Y-80815000D01*
X117937458Y-80815000D01*
X117814777Y-80839403D01*
X117699215Y-80887270D01*
X117595211Y-80956763D01*
X117506763Y-81045211D01*
X117437270Y-81149215D01*
X117389403Y-81264777D01*
X117365000Y-81387458D01*
X117365000Y-81512542D01*
X117365000Y-82118250D01*
X117523750Y-82277000D01*
X118477000Y-82277000D01*
X118477000Y-82723000D01*
X117523750Y-82723000D01*
X117365000Y-82881750D01*
X117365000Y-83487458D01*
X117365000Y-83612542D01*
X117389403Y-83735223D01*
X117437270Y-83850785D01*
X117506763Y-83954789D01*
X117595211Y-84043237D01*
X117699215Y-84112730D01*
X117814777Y-84160597D01*
X117937458Y-84185000D01*
X118318250Y-84185000D01*
X118477000Y-84026250D01*
X118477000Y-85423000D01*
X117948095Y-85423000D01*
X117846280Y-85443252D01*
X117750372Y-85482979D01*
X117664057Y-85540652D01*
X117590652Y-85614057D01*
X117532979Y-85700372D01*
X117493252Y-85796280D01*
X117473000Y-85898095D01*
X117473000Y-86001905D01*
X117473000Y-88101905D01*
X117493252Y-88203720D01*
X117532979Y-88299628D01*
X117590652Y-88385943D01*
X117664057Y-88459348D01*
X117750372Y-88517021D01*
X117846280Y-88556748D01*
X117948095Y-88577000D01*
X118051905Y-88577000D01*
X119451905Y-88577000D01*
X119553720Y-88556748D01*
X119649628Y-88517021D01*
X119735943Y-88459348D01*
X119809348Y-88385943D01*
X119867021Y-88299628D01*
X119897104Y-88227000D01*
X122623000Y-88227000D01*
X122623000Y-89377000D01*
X127377000Y-89377000D01*
X127377000Y-89027000D01*
X132750000Y-89027000D01*
X132936331Y-89008730D01*
X133122869Y-88992410D01*
X133133105Y-88989436D01*
X133143713Y-88988396D01*
X133322999Y-88934266D01*
X133502763Y-88882040D01*
X133512221Y-88877137D01*
X133522430Y-88874055D01*
X133687795Y-88786128D01*
X133853983Y-88699985D01*
X133862312Y-88693335D01*
X133871725Y-88688331D01*
X134016864Y-88569958D01*
X134163154Y-88453177D01*
X134177981Y-88438555D01*
X134178294Y-88438300D01*
X134178533Y-88438010D01*
X134183305Y-88433305D01*
X137433305Y-85183306D01*
X137552132Y-85038642D01*
X137672505Y-84895188D01*
X137677640Y-84885845D01*
X137684405Y-84877611D01*
X137772885Y-84712596D01*
X137863087Y-84548520D01*
X137866309Y-84538362D01*
X137871347Y-84528967D01*
X137926100Y-84349876D01*
X137982705Y-84171437D01*
X137983892Y-84160846D01*
X137987010Y-84150651D01*
X138005937Y-83964313D01*
X138026802Y-83778301D01*
X138026947Y-83757471D01*
X138026988Y-83757075D01*
X138026953Y-83756705D01*
X138027000Y-83750000D01*
X138027000Y-71738817D01*
X138173919Y-71618993D01*
X138370103Y-71381847D01*
X138516489Y-71111112D01*
X138607501Y-70817100D01*
X138639673Y-70511009D01*
X138639673Y-128423000D01*
X137820428Y-128423000D01*
X137820428Y-118760772D01*
X137793135Y-118460871D01*
X137708111Y-118171982D01*
X137568593Y-117905110D01*
X137379897Y-117670419D01*
X137149210Y-117476850D01*
X136885318Y-117331774D01*
X136598274Y-117240718D01*
X136299010Y-117207150D01*
X136277466Y-117207000D01*
X136262534Y-117207000D01*
X135962830Y-117236386D01*
X135674542Y-117323425D01*
X135408651Y-117464803D01*
X135343741Y-117517741D01*
X135308730Y-117433215D01*
X135239237Y-117329211D01*
X135150789Y-117240763D01*
X135046785Y-117171270D01*
X134931223Y-117123403D01*
X134808542Y-117099000D01*
X134111750Y-117099000D01*
X133953000Y-117257750D01*
X133953000Y-118527000D01*
X133973000Y-118527000D01*
X133973000Y-118973000D01*
X133953000Y-118973000D01*
X133953000Y-120242250D01*
X134111750Y-120401000D01*
X134808542Y-120401000D01*
X134931223Y-120376597D01*
X135046785Y-120328730D01*
X135150789Y-120259237D01*
X135239237Y-120170789D01*
X135308730Y-120066785D01*
X135343307Y-119983307D01*
X135390790Y-120023150D01*
X135654682Y-120168226D01*
X135941726Y-120259282D01*
X136240990Y-120292850D01*
X136262534Y-120293000D01*
X136277466Y-120293000D01*
X136577170Y-120263614D01*
X136865458Y-120176575D01*
X137131349Y-120035197D01*
X137364717Y-119844868D01*
X137556671Y-119612835D01*
X137699901Y-119347937D01*
X137788951Y-119060263D01*
X137820428Y-118760772D01*
X137820428Y-128423000D01*
X133507000Y-128423000D01*
X133507000Y-120242250D01*
X133507000Y-118973000D01*
X133507000Y-118527000D01*
X133507000Y-117257750D01*
X133348250Y-117099000D01*
X132651458Y-117099000D01*
X132528777Y-117123403D01*
X132413215Y-117171270D01*
X132309211Y-117240763D01*
X132220763Y-117329211D01*
X132151270Y-117433215D01*
X132103403Y-117548777D01*
X132079000Y-117671458D01*
X132079000Y-117796542D01*
X132079000Y-118368250D01*
X132237750Y-118527000D01*
X133507000Y-118527000D01*
X133507000Y-118973000D01*
X132237750Y-118973000D01*
X132079000Y-119131750D01*
X132079000Y-119703458D01*
X132079000Y-119828542D01*
X132103403Y-119951223D01*
X132151270Y-120066785D01*
X132220763Y-120170789D01*
X132309211Y-120259237D01*
X132413215Y-120328730D01*
X132528777Y-120376597D01*
X132651458Y-120401000D01*
X133348250Y-120401000D01*
X133507000Y-120242250D01*
X133507000Y-128423000D01*
X127377000Y-128423000D01*
X126527158Y-128423000D01*
X126527158Y-121776723D01*
X126440422Y-121338673D01*
X126270253Y-120925812D01*
X126023133Y-120553868D01*
X125708476Y-120237006D01*
X125338265Y-119987295D01*
X124926603Y-119814249D01*
X124489169Y-119724456D01*
X124042626Y-119721339D01*
X123603981Y-119805015D01*
X123189943Y-119972297D01*
X122816282Y-120216814D01*
X122497231Y-120529252D01*
X122244942Y-120897710D01*
X122069025Y-121308154D01*
X122026555Y-121507959D01*
X122026555Y-92850320D01*
X121968409Y-92556661D01*
X121854332Y-92279889D01*
X121688669Y-92030545D01*
X121477729Y-91818128D01*
X121229549Y-91650728D01*
X120953579Y-91534721D01*
X120660334Y-91474527D01*
X120360981Y-91472437D01*
X120066923Y-91528531D01*
X119789361Y-91640674D01*
X119538867Y-91804592D01*
X119324983Y-92014044D01*
X119155854Y-92261050D01*
X119037924Y-92536202D01*
X118975683Y-92829020D01*
X118971504Y-93128351D01*
X119025544Y-93422794D01*
X119135746Y-93701132D01*
X119297911Y-93952764D01*
X119505864Y-94168105D01*
X119594000Y-94229360D01*
X119594000Y-117124722D01*
X118874722Y-117844000D01*
X115230708Y-117844000D01*
X115218260Y-117820588D01*
X115046729Y-117610270D01*
X114837614Y-117437274D01*
X114598879Y-117308191D01*
X114339619Y-117227937D01*
X114069708Y-117199568D01*
X113799428Y-117224165D01*
X113539072Y-117300792D01*
X113298559Y-117426530D01*
X113087048Y-117596588D01*
X112912597Y-117804491D01*
X112789122Y-118029089D01*
X112678260Y-117820588D01*
X112506729Y-117610270D01*
X112426000Y-117543484D01*
X112426000Y-105520000D01*
X112417836Y-105436744D01*
X112410540Y-105353340D01*
X112409209Y-105348760D01*
X112408745Y-105344024D01*
X112384566Y-105263940D01*
X112361208Y-105183540D01*
X112359016Y-105179311D01*
X112357639Y-105174750D01*
X112318345Y-105100850D01*
X112279836Y-105026557D01*
X112276863Y-105022833D01*
X112274627Y-105018627D01*
X112221737Y-104953778D01*
X112169522Y-104888369D01*
X112162981Y-104881736D01*
X112162871Y-104881601D01*
X112162745Y-104881497D01*
X112160639Y-104879361D01*
X106552277Y-99271000D01*
X112365000Y-99271000D01*
X112540976Y-99253745D01*
X112689307Y-99208961D01*
X112729917Y-99205266D01*
X112959642Y-99137655D01*
X113171860Y-99026710D01*
X113358487Y-98876658D01*
X113512414Y-98693215D01*
X113627779Y-98483367D01*
X113700187Y-98255108D01*
X113726880Y-98017132D01*
X113727000Y-98000000D01*
X113727000Y-88577000D01*
X115051905Y-88577000D01*
X115153720Y-88556748D01*
X115249628Y-88517021D01*
X115335943Y-88459348D01*
X115409348Y-88385943D01*
X115467021Y-88299628D01*
X115506748Y-88203720D01*
X115527000Y-88101905D01*
X115527000Y-87998095D01*
X115527000Y-85898095D01*
X115506748Y-85796280D01*
X115467021Y-85700372D01*
X115409348Y-85614057D01*
X115335943Y-85540652D01*
X115249628Y-85482979D01*
X115153720Y-85443252D01*
X115051905Y-85423000D01*
X114948095Y-85423000D01*
X113727000Y-85423000D01*
X113727000Y-84077000D01*
X115051905Y-84077000D01*
X115153720Y-84056748D01*
X115249628Y-84017021D01*
X115335943Y-83959348D01*
X115409348Y-83885943D01*
X115467021Y-83799628D01*
X115506748Y-83703720D01*
X115527000Y-83601905D01*
X115527000Y-83498095D01*
X115527000Y-81398095D01*
X115506748Y-81296280D01*
X115467021Y-81200372D01*
X115409348Y-81114057D01*
X115335943Y-81040652D01*
X115249628Y-80982979D01*
X115153720Y-80943252D01*
X115051905Y-80923000D01*
X114948095Y-80923000D01*
X113727000Y-80923000D01*
X113727000Y-68042096D01*
X113801204Y-67953664D01*
X113949476Y-67683957D01*
X114042539Y-67390588D01*
X114076846Y-67084729D01*
X114077000Y-67062711D01*
X114077000Y-64937289D01*
X114046966Y-64630981D01*
X113958009Y-64336341D01*
X113813517Y-64064591D01*
X113618993Y-63826081D01*
X113381847Y-63629897D01*
X113111112Y-63483511D01*
X112817100Y-63392499D01*
X112511009Y-63360327D01*
X112204500Y-63388222D01*
X111909245Y-63475120D01*
X111636493Y-63617712D01*
X111396631Y-63810566D01*
X111198796Y-64046336D01*
X111050524Y-64316043D01*
X110957461Y-64609412D01*
X110923154Y-64915271D01*
X110923000Y-64937289D01*
X110923000Y-67062711D01*
X110953034Y-67369019D01*
X111041991Y-67663659D01*
X111186483Y-67935409D01*
X111273000Y-68041489D01*
X111273000Y-82204435D01*
X111273000Y-82500000D01*
X111273000Y-85943991D01*
X111273000Y-87000000D01*
X111273000Y-97459000D01*
X108499168Y-97459000D01*
X108512414Y-97443215D01*
X108627779Y-97233367D01*
X108700187Y-97005108D01*
X108726880Y-96767132D01*
X108727000Y-96750000D01*
X108727000Y-87000000D01*
X108727000Y-86047151D01*
X108727000Y-82256015D01*
X108727000Y-79559524D01*
X108767021Y-79499628D01*
X108806748Y-79403720D01*
X108827000Y-79301905D01*
X108827000Y-79198095D01*
X108827000Y-78198095D01*
X108806748Y-78096280D01*
X108767021Y-78000372D01*
X108709348Y-77914057D01*
X108635943Y-77840652D01*
X108549628Y-77782979D01*
X108453720Y-77743252D01*
X108351905Y-77723000D01*
X108248095Y-77723000D01*
X108197000Y-77723000D01*
X108184687Y-77682217D01*
X108166189Y-77618543D01*
X108164451Y-77615191D01*
X108163362Y-77611582D01*
X108132272Y-77553111D01*
X108101747Y-77494222D01*
X108099390Y-77491270D01*
X108097621Y-77487942D01*
X108055768Y-77436625D01*
X108014384Y-77384784D01*
X108009204Y-77379532D01*
X108009117Y-77379425D01*
X108009017Y-77379342D01*
X108007349Y-77377651D01*
X107879698Y-77250000D01*
X108007349Y-77122349D01*
X108049409Y-77071143D01*
X108092019Y-77020364D01*
X108093837Y-77017055D01*
X108096231Y-77014142D01*
X108127548Y-76955736D01*
X108159480Y-76897653D01*
X108160620Y-76894058D01*
X108162404Y-76890732D01*
X108181776Y-76827365D01*
X108197753Y-76777000D01*
X108351905Y-76777000D01*
X108453720Y-76756748D01*
X108549628Y-76717021D01*
X108635943Y-76659348D01*
X108709348Y-76585943D01*
X108767021Y-76499628D01*
X108806748Y-76403720D01*
X108827000Y-76301905D01*
X108827000Y-76198095D01*
X108827000Y-75198095D01*
X108806748Y-75096280D01*
X108767021Y-75000372D01*
X108727000Y-74940475D01*
X108727000Y-68042096D01*
X108801204Y-67953664D01*
X108949476Y-67683957D01*
X109042539Y-67390588D01*
X109076846Y-67084729D01*
X109077000Y-67062711D01*
X109077000Y-64937289D01*
X109046966Y-64630981D01*
X108958009Y-64336341D01*
X108813517Y-64064591D01*
X108618993Y-63826081D01*
X108381847Y-63629897D01*
X108111112Y-63483511D01*
X107817100Y-63392499D01*
X107511009Y-63360327D01*
X107204500Y-63388222D01*
X106909245Y-63475120D01*
X106636493Y-63617712D01*
X106396631Y-63810566D01*
X106198796Y-64046336D01*
X106050524Y-64316043D01*
X105957461Y-64609412D01*
X105923154Y-64915271D01*
X105923000Y-64937289D01*
X105923000Y-67062711D01*
X105953034Y-67369019D01*
X106041991Y-67663659D01*
X106186483Y-67935409D01*
X106273000Y-68041489D01*
X106273000Y-74940475D01*
X106232979Y-75000372D01*
X106193252Y-75096280D01*
X106173000Y-75198095D01*
X106173000Y-75301905D01*
X106173000Y-76032500D01*
X104461491Y-76032500D01*
X104473487Y-76021077D01*
X104584723Y-75863390D01*
X104663212Y-75687101D01*
X104705964Y-75498925D01*
X104709042Y-75278514D01*
X104671560Y-75089217D01*
X104598024Y-74910805D01*
X104491235Y-74750074D01*
X104355260Y-74613147D01*
X104195279Y-74505238D01*
X104017385Y-74430458D01*
X103828354Y-74391656D01*
X103635386Y-74390308D01*
X103445832Y-74426468D01*
X103295841Y-74487067D01*
X103301770Y-74457262D01*
X103301770Y-74403610D01*
X103301770Y-73786390D01*
X103301770Y-73732738D01*
X103277367Y-73610057D01*
X103229500Y-73494495D01*
X103160007Y-73390491D01*
X103071559Y-73302043D01*
X102967555Y-73232550D01*
X102851993Y-73184683D01*
X102729312Y-73160280D01*
X102604228Y-73160280D01*
X102348750Y-73160280D01*
X102190000Y-73319030D01*
X102190000Y-73945140D01*
X103143020Y-73945140D01*
X103301770Y-73786390D01*
X103301770Y-74403610D01*
X103143020Y-74244860D01*
X102190000Y-74244860D01*
X102190000Y-74338000D01*
X101744000Y-74338000D01*
X101744000Y-74244860D01*
X101744000Y-73945140D01*
X101744000Y-73319030D01*
X101585250Y-73160280D01*
X101329772Y-73160280D01*
X101204688Y-73160280D01*
X101082007Y-73184683D01*
X100966445Y-73232550D01*
X100862441Y-73302043D01*
X100773993Y-73390491D01*
X100704500Y-73494495D01*
X100656633Y-73610057D01*
X100632230Y-73732738D01*
X100632230Y-73786390D01*
X100790980Y-73945140D01*
X101744000Y-73945140D01*
X101744000Y-74244860D01*
X100790980Y-74244860D01*
X100632230Y-74403610D01*
X100632230Y-74457262D01*
X100656633Y-74579943D01*
X100704500Y-74695505D01*
X100773993Y-74799509D01*
X100797258Y-74822774D01*
X100760482Y-74911560D01*
X100740230Y-75013375D01*
X100740230Y-75117185D01*
X100740230Y-75716625D01*
X100760482Y-75818440D01*
X100800209Y-75914348D01*
X100857439Y-76000000D01*
X100800209Y-76085652D01*
X100760482Y-76181560D01*
X100740230Y-76283375D01*
X100740230Y-76387185D01*
X100740230Y-76986625D01*
X100760482Y-77088440D01*
X100800209Y-77184348D01*
X100857439Y-77270000D01*
X100800209Y-77355652D01*
X100760482Y-77451560D01*
X100740230Y-77553375D01*
X100740230Y-77657185D01*
X100740230Y-78256625D01*
X100760482Y-78358440D01*
X100800209Y-78454348D01*
X100857882Y-78540663D01*
X100931287Y-78614068D01*
X101017602Y-78671741D01*
X101113510Y-78711468D01*
X101215325Y-78731720D01*
X101319135Y-78731720D01*
X102718675Y-78731720D01*
X102820490Y-78711468D01*
X102916398Y-78671741D01*
X102990093Y-78622500D01*
X103395000Y-78622500D01*
X103460982Y-78616030D01*
X103526985Y-78610256D01*
X103530609Y-78609203D01*
X103534363Y-78608835D01*
X103597782Y-78589687D01*
X103661457Y-78571189D01*
X103664808Y-78569451D01*
X103668418Y-78568362D01*
X103726928Y-78537251D01*
X103785778Y-78506746D01*
X103788725Y-78504392D01*
X103792058Y-78502621D01*
X103835120Y-78467500D01*
X106173000Y-78467500D01*
X106173000Y-79301905D01*
X106193252Y-79403720D01*
X106232979Y-79499628D01*
X106273000Y-79559524D01*
X106273000Y-80923000D01*
X104948095Y-80923000D01*
X104846280Y-80943252D01*
X104750372Y-80982979D01*
X104664057Y-81040652D01*
X104590652Y-81114057D01*
X104532979Y-81200372D01*
X104493252Y-81296280D01*
X104473000Y-81398095D01*
X104473000Y-81501905D01*
X104473000Y-83601905D01*
X104493252Y-83703720D01*
X104532979Y-83799628D01*
X104590652Y-83885943D01*
X104664057Y-83959348D01*
X104750372Y-84017021D01*
X104846280Y-84056748D01*
X104948095Y-84077000D01*
X105051905Y-84077000D01*
X106273000Y-84077000D01*
X106273000Y-85423000D01*
X104948095Y-85423000D01*
X104846280Y-85443252D01*
X104750372Y-85482979D01*
X104664057Y-85540652D01*
X104590652Y-85614057D01*
X104532979Y-85700372D01*
X104493252Y-85796280D01*
X104473000Y-85898095D01*
X104473000Y-86001905D01*
X104473000Y-88101905D01*
X104493252Y-88203720D01*
X104532979Y-88299628D01*
X104590652Y-88385943D01*
X104664057Y-88459348D01*
X104750372Y-88517021D01*
X104846280Y-88556748D01*
X104948095Y-88577000D01*
X105051905Y-88577000D01*
X106273000Y-88577000D01*
X106273000Y-96189000D01*
X103224470Y-96189000D01*
X103224470Y-96152825D01*
X103224470Y-95393365D01*
X103208471Y-95312932D01*
X103260200Y-95235515D01*
X103308067Y-95119953D01*
X103332470Y-94997272D01*
X103332470Y-94903615D01*
X103332470Y-94206385D01*
X103332470Y-94112728D01*
X103308067Y-93990047D01*
X103277782Y-93916933D01*
X103305527Y-93849953D01*
X103329930Y-93727272D01*
X103329930Y-93633615D01*
X103329930Y-92936385D01*
X103329930Y-92842728D01*
X103305527Y-92720047D01*
X103257660Y-92604485D01*
X103188167Y-92500481D01*
X103099719Y-92412033D01*
X102995715Y-92342540D01*
X102880153Y-92294673D01*
X102757472Y-92270270D01*
X102635000Y-92270270D01*
X102635000Y-83612542D01*
X102635000Y-83487458D01*
X102635000Y-82881750D01*
X102635000Y-82118250D01*
X102635000Y-81512542D01*
X102635000Y-81387458D01*
X102610597Y-81264777D01*
X102562730Y-81149215D01*
X102493237Y-81045211D01*
X102404789Y-80956763D01*
X102300785Y-80887270D01*
X102185223Y-80839403D01*
X102062542Y-80815000D01*
X101681750Y-80815000D01*
X101523000Y-80973750D01*
X101523000Y-82277000D01*
X102476250Y-82277000D01*
X102635000Y-82118250D01*
X102635000Y-82881750D01*
X102476250Y-82723000D01*
X101523000Y-82723000D01*
X101523000Y-84026250D01*
X101681750Y-84185000D01*
X102062542Y-84185000D01*
X102185223Y-84160597D01*
X102300785Y-84112730D01*
X102404789Y-84043237D01*
X102493237Y-83954789D01*
X102562730Y-83850785D01*
X102610597Y-83735223D01*
X102635000Y-83612542D01*
X102635000Y-92270270D01*
X102632388Y-92270270D01*
X102527000Y-92270270D01*
X102527000Y-88101905D01*
X102527000Y-87998095D01*
X102527000Y-85898095D01*
X102506748Y-85796280D01*
X102467021Y-85700372D01*
X102409348Y-85614057D01*
X102335943Y-85540652D01*
X102249628Y-85482979D01*
X102153720Y-85443252D01*
X102051905Y-85423000D01*
X101948095Y-85423000D01*
X101077000Y-85423000D01*
X101077000Y-84026250D01*
X101077000Y-82723000D01*
X101077000Y-82277000D01*
X101077000Y-80973750D01*
X100918250Y-80815000D01*
X100537458Y-80815000D01*
X100414777Y-80839403D01*
X100299215Y-80887270D01*
X100195211Y-80956763D01*
X100106763Y-81045211D01*
X100037270Y-81149215D01*
X99989403Y-81264777D01*
X99965000Y-81387458D01*
X99965000Y-81512542D01*
X99965000Y-82118250D01*
X100123750Y-82277000D01*
X101077000Y-82277000D01*
X101077000Y-82723000D01*
X100123750Y-82723000D01*
X99965000Y-82881750D01*
X99965000Y-83487458D01*
X99965000Y-83612542D01*
X99989403Y-83735223D01*
X100037270Y-83850785D01*
X100106763Y-83954789D01*
X100195211Y-84043237D01*
X100299215Y-84112730D01*
X100414777Y-84160597D01*
X100537458Y-84185000D01*
X100918250Y-84185000D01*
X101077000Y-84026250D01*
X101077000Y-85423000D01*
X100548095Y-85423000D01*
X100446280Y-85443252D01*
X100350372Y-85482979D01*
X100264057Y-85540652D01*
X100190652Y-85614057D01*
X100132979Y-85700372D01*
X100102895Y-85773000D01*
X99236420Y-85773000D01*
X99236420Y-80862922D01*
X99236420Y-80737838D01*
X99236420Y-80681750D01*
X99236420Y-79918250D01*
X99236420Y-79862162D01*
X99236420Y-79737078D01*
X99234042Y-79725123D01*
X99234042Y-72153514D01*
X99196560Y-71964217D01*
X99123024Y-71785805D01*
X99016235Y-71625074D01*
X98880260Y-71488147D01*
X98720279Y-71380238D01*
X98542385Y-71305458D01*
X98353354Y-71266656D01*
X98160386Y-71265308D01*
X97970832Y-71301468D01*
X97791911Y-71373756D01*
X97646363Y-71469000D01*
X96608353Y-71469000D01*
X94844357Y-71469000D01*
X94821128Y-71453479D01*
X94725220Y-71413752D01*
X94623405Y-71393500D01*
X94519595Y-71393500D01*
X93376595Y-71393500D01*
X93274780Y-71413752D01*
X93178872Y-71453479D01*
X93092557Y-71511152D01*
X93019152Y-71584557D01*
X92961479Y-71670872D01*
X92921752Y-71766780D01*
X92901500Y-71868595D01*
X92901500Y-71972405D01*
X92901500Y-72607405D01*
X92921752Y-72709220D01*
X92961479Y-72805128D01*
X93019152Y-72891443D01*
X93092557Y-72964848D01*
X93145166Y-73000000D01*
X93092557Y-73035152D01*
X93019152Y-73108557D01*
X92961479Y-73194872D01*
X92921752Y-73290780D01*
X92901500Y-73392595D01*
X92901500Y-73496405D01*
X92901500Y-74131405D01*
X92921752Y-74233220D01*
X92961479Y-74329128D01*
X93019152Y-74415443D01*
X93092557Y-74488848D01*
X93109247Y-74500000D01*
X93092557Y-74511152D01*
X93019152Y-74584557D01*
X92961479Y-74670872D01*
X92921752Y-74766780D01*
X92901500Y-74868595D01*
X92901500Y-74972405D01*
X92901500Y-75607405D01*
X92921752Y-75709220D01*
X92961479Y-75805128D01*
X93019152Y-75891443D01*
X93092557Y-75964848D01*
X93145166Y-76000000D01*
X93092557Y-76035152D01*
X93019152Y-76108557D01*
X92961479Y-76194872D01*
X92921752Y-76290780D01*
X92901500Y-76392595D01*
X92901500Y-76496405D01*
X92901500Y-77131405D01*
X92916325Y-77205937D01*
X92880439Y-77229421D01*
X92742565Y-77364437D01*
X92633542Y-77523661D01*
X92557522Y-77701028D01*
X92517401Y-77889784D01*
X92514707Y-78082737D01*
X92549542Y-78272539D01*
X92620580Y-78451961D01*
X92725114Y-78614167D01*
X92859164Y-78752979D01*
X93017623Y-78863111D01*
X93194456Y-78940368D01*
X93307160Y-78965147D01*
X93126328Y-79061298D01*
X92955877Y-79200314D01*
X92815675Y-79369790D01*
X92711060Y-79563270D01*
X92646019Y-79773385D01*
X92623027Y-79992132D01*
X92642962Y-80211179D01*
X92705064Y-80422182D01*
X92806967Y-80617104D01*
X92944789Y-80788521D01*
X93113282Y-80929903D01*
X93306027Y-81035866D01*
X93515684Y-81102372D01*
X93734265Y-81126890D01*
X93750000Y-81127000D01*
X94932653Y-81127000D01*
X94943089Y-81132737D01*
X94947627Y-81134176D01*
X94951828Y-81136429D01*
X95031886Y-81160905D01*
X95111632Y-81186202D01*
X95116365Y-81186732D01*
X95120922Y-81188126D01*
X95204192Y-81196584D01*
X95287350Y-81205912D01*
X95296658Y-81205976D01*
X95296838Y-81205995D01*
X95297005Y-81205979D01*
X95300000Y-81206000D01*
X95858909Y-81206000D01*
X95862637Y-81209728D01*
X95948952Y-81267401D01*
X96044860Y-81307128D01*
X96146675Y-81327380D01*
X96250485Y-81327380D01*
X97149645Y-81327380D01*
X97251460Y-81307128D01*
X97293548Y-81289694D01*
X97297471Y-81293617D01*
X97401475Y-81363110D01*
X97517037Y-81410977D01*
X97639718Y-81435380D01*
X97770090Y-81435380D01*
X97928840Y-81276630D01*
X97928840Y-80523000D01*
X97908840Y-80523000D01*
X97908840Y-80077000D01*
X97928840Y-80077000D01*
X97928840Y-79323370D01*
X97770090Y-79164620D01*
X97639718Y-79164620D01*
X97517037Y-79189023D01*
X97414000Y-79231702D01*
X97414000Y-78725886D01*
X97486490Y-78711468D01*
X97582398Y-78671741D01*
X97668713Y-78614068D01*
X97742118Y-78540663D01*
X97799791Y-78454348D01*
X97839518Y-78358440D01*
X97859770Y-78256625D01*
X97859770Y-78152815D01*
X97859770Y-77553375D01*
X97839518Y-77451560D01*
X97799791Y-77355652D01*
X97742560Y-77270000D01*
X97799791Y-77184348D01*
X97839518Y-77088440D01*
X97859770Y-76986625D01*
X97859770Y-76882815D01*
X97859770Y-76283375D01*
X97839518Y-76181560D01*
X97799791Y-76085652D01*
X97742560Y-76000000D01*
X97799791Y-75914348D01*
X97839518Y-75818440D01*
X97859770Y-75716625D01*
X97859770Y-75612815D01*
X97859770Y-75013375D01*
X97839518Y-74911560D01*
X97799791Y-74815652D01*
X97742560Y-74730000D01*
X97799791Y-74644348D01*
X97839518Y-74548440D01*
X97859770Y-74446625D01*
X97859770Y-74342815D01*
X97859770Y-73743375D01*
X97839518Y-73641560D01*
X97799791Y-73545652D01*
X97742118Y-73459337D01*
X97668713Y-73385932D01*
X97582398Y-73328259D01*
X97486490Y-73288532D01*
X97414000Y-73274113D01*
X97414000Y-73031000D01*
X97649480Y-73031000D01*
X97767623Y-73113111D01*
X97944456Y-73190368D01*
X98132927Y-73231806D01*
X98325857Y-73235847D01*
X98515897Y-73202338D01*
X98695810Y-73132554D01*
X98858742Y-73029154D01*
X98998487Y-72896077D01*
X99109723Y-72738390D01*
X99188212Y-72562101D01*
X99230964Y-72373925D01*
X99234042Y-72153514D01*
X99234042Y-79725123D01*
X99212017Y-79614397D01*
X99164150Y-79498835D01*
X99094657Y-79394831D01*
X99006209Y-79306383D01*
X98902205Y-79236890D01*
X98786643Y-79189023D01*
X98663962Y-79164620D01*
X98533590Y-79164620D01*
X98374840Y-79323370D01*
X98374840Y-80077000D01*
X99077670Y-80077000D01*
X99236420Y-79918250D01*
X99236420Y-80681750D01*
X99077670Y-80523000D01*
X98374840Y-80523000D01*
X98374840Y-81276630D01*
X98533590Y-81435380D01*
X98663962Y-81435380D01*
X98786643Y-81410977D01*
X98902205Y-81363110D01*
X99006209Y-81293617D01*
X99094657Y-81205169D01*
X99164150Y-81101165D01*
X99212017Y-80985603D01*
X99236420Y-80862922D01*
X99236420Y-85773000D01*
X97377000Y-85773000D01*
X97377000Y-84623000D01*
X92623000Y-84623000D01*
X92623000Y-85773000D01*
X90035000Y-85773000D01*
X90035000Y-83612542D01*
X90035000Y-83487458D01*
X90035000Y-82881750D01*
X90035000Y-82118250D01*
X90035000Y-81512542D01*
X90035000Y-81387458D01*
X90010597Y-81264777D01*
X89962730Y-81149215D01*
X89893237Y-81045211D01*
X89804789Y-80956763D01*
X89700785Y-80887270D01*
X89585223Y-80839403D01*
X89462542Y-80815000D01*
X89081750Y-80815000D01*
X88923000Y-80973750D01*
X88923000Y-82277000D01*
X89876250Y-82277000D01*
X90035000Y-82118250D01*
X90035000Y-82881750D01*
X89876250Y-82723000D01*
X88923000Y-82723000D01*
X88923000Y-84026250D01*
X89081750Y-84185000D01*
X89462542Y-84185000D01*
X89585223Y-84160597D01*
X89700785Y-84112730D01*
X89804789Y-84043237D01*
X89893237Y-83954789D01*
X89962730Y-83850785D01*
X90010597Y-83735223D01*
X90035000Y-83612542D01*
X90035000Y-85773000D01*
X89897104Y-85773000D01*
X89867021Y-85700372D01*
X89809348Y-85614057D01*
X89735943Y-85540652D01*
X89649628Y-85482979D01*
X89553720Y-85443252D01*
X89451905Y-85423000D01*
X89348095Y-85423000D01*
X88477000Y-85423000D01*
X88477000Y-84026250D01*
X88477000Y-82723000D01*
X88477000Y-82277000D01*
X88477000Y-80973750D01*
X88318250Y-80815000D01*
X87937458Y-80815000D01*
X87814777Y-80839403D01*
X87699215Y-80887270D01*
X87595211Y-80956763D01*
X87506763Y-81045211D01*
X87437270Y-81149215D01*
X87389403Y-81264777D01*
X87365000Y-81387458D01*
X87365000Y-81512542D01*
X87365000Y-82118250D01*
X87523750Y-82277000D01*
X88477000Y-82277000D01*
X88477000Y-82723000D01*
X87523750Y-82723000D01*
X87365000Y-82881750D01*
X87365000Y-83487458D01*
X87365000Y-83612542D01*
X87389403Y-83735223D01*
X87437270Y-83850785D01*
X87506763Y-83954789D01*
X87595211Y-84043237D01*
X87699215Y-84112730D01*
X87814777Y-84160597D01*
X87937458Y-84185000D01*
X88318250Y-84185000D01*
X88477000Y-84026250D01*
X88477000Y-85423000D01*
X87948095Y-85423000D01*
X87846280Y-85443252D01*
X87750372Y-85482979D01*
X87664057Y-85540652D01*
X87590652Y-85614057D01*
X87532979Y-85700372D01*
X87493252Y-85796280D01*
X87473000Y-85898095D01*
X87473000Y-86001905D01*
X87473000Y-88101905D01*
X87493252Y-88203720D01*
X87532979Y-88299628D01*
X87590652Y-88385943D01*
X87664057Y-88459348D01*
X87750372Y-88517021D01*
X87846280Y-88556748D01*
X87948095Y-88577000D01*
X88051905Y-88577000D01*
X89451905Y-88577000D01*
X89553720Y-88556748D01*
X89649628Y-88517021D01*
X89735943Y-88459348D01*
X89809348Y-88385943D01*
X89867021Y-88299628D01*
X89897104Y-88227000D01*
X92623000Y-88227000D01*
X92623000Y-89377000D01*
X97377000Y-89377000D01*
X97377000Y-88227000D01*
X100102895Y-88227000D01*
X100132979Y-88299628D01*
X100190652Y-88385943D01*
X100264057Y-88459348D01*
X100350372Y-88517021D01*
X100446280Y-88556748D01*
X100548095Y-88577000D01*
X100651905Y-88577000D01*
X102051905Y-88577000D01*
X102153720Y-88556748D01*
X102249628Y-88517021D01*
X102335943Y-88459348D01*
X102409348Y-88385943D01*
X102467021Y-88299628D01*
X102506748Y-88203720D01*
X102527000Y-88101905D01*
X102527000Y-92270270D01*
X102227050Y-92270270D01*
X102068300Y-92429020D01*
X102068300Y-93095135D01*
X103171180Y-93095135D01*
X103329930Y-92936385D01*
X103329930Y-93633615D01*
X103171180Y-93474865D01*
X102068300Y-93474865D01*
X102068300Y-94140980D01*
X102070840Y-94143520D01*
X102070840Y-94365135D01*
X103173720Y-94365135D01*
X103332470Y-94206385D01*
X103332470Y-94903615D01*
X103173720Y-94744865D01*
X102070840Y-94744865D01*
X102070840Y-94798000D01*
X101624840Y-94798000D01*
X101624840Y-94744865D01*
X101624840Y-94365135D01*
X101624840Y-93699020D01*
X101622300Y-93696480D01*
X101622300Y-93474865D01*
X101622300Y-93095135D01*
X101622300Y-92429020D01*
X101463550Y-92270270D01*
X101058212Y-92270270D01*
X100933128Y-92270270D01*
X100810447Y-92294673D01*
X100694885Y-92342540D01*
X100590881Y-92412033D01*
X100502433Y-92500481D01*
X100432940Y-92604485D01*
X100385073Y-92720047D01*
X100360670Y-92842728D01*
X100360670Y-92936385D01*
X100519420Y-93095135D01*
X101622300Y-93095135D01*
X101622300Y-93474865D01*
X100519420Y-93474865D01*
X100360670Y-93633615D01*
X100360670Y-93727272D01*
X100385073Y-93849953D01*
X100415357Y-93923066D01*
X100387613Y-93990047D01*
X100363210Y-94112728D01*
X100363210Y-94206385D01*
X100521960Y-94365135D01*
X101624840Y-94365135D01*
X101624840Y-94744865D01*
X100521960Y-94744865D01*
X100363210Y-94903615D01*
X100363210Y-94997272D01*
X100387613Y-95119953D01*
X100435480Y-95235515D01*
X100487208Y-95312932D01*
X100471210Y-95393365D01*
X100471210Y-95497175D01*
X100471210Y-96256635D01*
X100491462Y-96358450D01*
X100531189Y-96454358D01*
X100534958Y-96460000D01*
X100531189Y-96465642D01*
X100491462Y-96561550D01*
X100471210Y-96663365D01*
X100471210Y-96767175D01*
X100471210Y-97526635D01*
X100491462Y-97628450D01*
X100531189Y-97724358D01*
X100534958Y-97730000D01*
X100531189Y-97735642D01*
X100491462Y-97831550D01*
X100471210Y-97933365D01*
X100471210Y-98037175D01*
X100471210Y-98796635D01*
X100491462Y-98898450D01*
X100531189Y-98994358D01*
X100534958Y-99000000D01*
X100531189Y-99005642D01*
X100491462Y-99101550D01*
X100471210Y-99203365D01*
X100471210Y-99307175D01*
X100471210Y-100066635D01*
X100491462Y-100168450D01*
X100531189Y-100264358D01*
X100534958Y-100270000D01*
X100531189Y-100275642D01*
X100491462Y-100371550D01*
X100471210Y-100473365D01*
X100471210Y-100577175D01*
X100471210Y-101336635D01*
X100491462Y-101438450D01*
X100531189Y-101534358D01*
X100534958Y-101540000D01*
X100531189Y-101545642D01*
X100491462Y-101641550D01*
X100471210Y-101743365D01*
X100471210Y-101847175D01*
X100471210Y-102606635D01*
X100491462Y-102708450D01*
X100531189Y-102804358D01*
X100534958Y-102810000D01*
X100531189Y-102815642D01*
X100491462Y-102911550D01*
X100471210Y-103013365D01*
X100471210Y-103117175D01*
X100471210Y-103876635D01*
X100487208Y-103957067D01*
X100435480Y-104034485D01*
X100387613Y-104150047D01*
X100363210Y-104272728D01*
X100363210Y-104366385D01*
X100521960Y-104525135D01*
X101624840Y-104525135D01*
X101624840Y-104472000D01*
X102070840Y-104472000D01*
X102070840Y-104525135D01*
X103173720Y-104525135D01*
X103214023Y-104484831D01*
X103344000Y-104614808D01*
X103344000Y-106891746D01*
X103332470Y-106896522D01*
X103332470Y-105157272D01*
X103332470Y-105063615D01*
X103173720Y-104904865D01*
X102070840Y-104904865D01*
X102070840Y-105570980D01*
X102229590Y-105729730D01*
X102634928Y-105729730D01*
X102760012Y-105729730D01*
X102882693Y-105705327D01*
X102998255Y-105657460D01*
X103102259Y-105587967D01*
X103190707Y-105499519D01*
X103260200Y-105395515D01*
X103308067Y-105279953D01*
X103332470Y-105157272D01*
X103332470Y-106896522D01*
X103251072Y-106930239D01*
X103164757Y-106987912D01*
X103091352Y-107061317D01*
X103037776Y-107141500D01*
X102952500Y-107141500D01*
X102869194Y-107149668D01*
X102785840Y-107156961D01*
X102781265Y-107158290D01*
X102776524Y-107158755D01*
X102696398Y-107182945D01*
X102616040Y-107206292D01*
X102611811Y-107208483D01*
X102607250Y-107209861D01*
X102533310Y-107249175D01*
X102459057Y-107287665D01*
X102455337Y-107290634D01*
X102451127Y-107292873D01*
X102386245Y-107345789D01*
X102320868Y-107397979D01*
X102314240Y-107404515D01*
X102314101Y-107404629D01*
X102313993Y-107404758D01*
X102311861Y-107406862D01*
X101624840Y-108093882D01*
X101624840Y-105570980D01*
X101624840Y-104904865D01*
X100521960Y-104904865D01*
X100363210Y-105063615D01*
X100363210Y-105157272D01*
X100387613Y-105279953D01*
X100435480Y-105395515D01*
X100504973Y-105499519D01*
X100593421Y-105587967D01*
X100697425Y-105657460D01*
X100812987Y-105705327D01*
X100935668Y-105729730D01*
X101060752Y-105729730D01*
X101466090Y-105729730D01*
X101624840Y-105570980D01*
X101624840Y-108093882D01*
X101359361Y-108359361D01*
X101306245Y-108424026D01*
X101252447Y-108488140D01*
X101250150Y-108492317D01*
X101247129Y-108495996D01*
X101207589Y-108569735D01*
X101167263Y-108643089D01*
X101165823Y-108647627D01*
X101163571Y-108651828D01*
X101139094Y-108731886D01*
X101113798Y-108811632D01*
X101113267Y-108816365D01*
X101111874Y-108820922D01*
X101103415Y-108904192D01*
X101094088Y-108987350D01*
X101094023Y-108996658D01*
X101094005Y-108996838D01*
X101094020Y-108997005D01*
X101094000Y-109000000D01*
X101094000Y-114615918D01*
X101057522Y-114701028D01*
X101017401Y-114889784D01*
X101014707Y-115082737D01*
X101049542Y-115272539D01*
X101120580Y-115451961D01*
X101225114Y-115614167D01*
X101359164Y-115752979D01*
X101517623Y-115863111D01*
X101694456Y-115940368D01*
X101882927Y-115981806D01*
X102075857Y-115985847D01*
X102265897Y-115952338D01*
X102445810Y-115882554D01*
X102608742Y-115779154D01*
X102748487Y-115646077D01*
X102859723Y-115488390D01*
X102938212Y-115312101D01*
X102980964Y-115123925D01*
X102984042Y-114903514D01*
X102946560Y-114714217D01*
X102906000Y-114615810D01*
X102906000Y-110826342D01*
X102937970Y-110903525D01*
X103007463Y-111007529D01*
X103095911Y-111095977D01*
X103199915Y-111165470D01*
X103315477Y-111213337D01*
X103438158Y-111237740D01*
X103563242Y-111237740D01*
X103868250Y-111237740D01*
X104027000Y-111078990D01*
X104027000Y-110175500D01*
X104007000Y-110175500D01*
X104007000Y-109729500D01*
X104027000Y-109729500D01*
X104027000Y-109709500D01*
X104473000Y-109709500D01*
X104473000Y-109729500D01*
X104493000Y-109729500D01*
X104493000Y-110175500D01*
X104473000Y-110175500D01*
X104473000Y-111078990D01*
X104631750Y-111237740D01*
X104936758Y-111237740D01*
X105061842Y-111237740D01*
X105184523Y-111213337D01*
X105300085Y-111165470D01*
X105404089Y-111095977D01*
X105492537Y-111007529D01*
X105534000Y-110945475D01*
X105534000Y-117207000D01*
X105524495Y-117207000D01*
X105422680Y-117227252D01*
X105326772Y-117266979D01*
X105240457Y-117324652D01*
X105167052Y-117398057D01*
X105109379Y-117484372D01*
X105069652Y-117580280D01*
X105049400Y-117682095D01*
X105049400Y-117785905D01*
X105049400Y-119817905D01*
X105069652Y-119919720D01*
X105109379Y-120015628D01*
X105167052Y-120101943D01*
X105240457Y-120175348D01*
X105326772Y-120233021D01*
X105422680Y-120272748D01*
X105524495Y-120293000D01*
X105628305Y-120293000D01*
X107355505Y-120293000D01*
X107457320Y-120272748D01*
X107553228Y-120233021D01*
X107639543Y-120175348D01*
X107712948Y-120101943D01*
X107770621Y-120015628D01*
X107810348Y-119919720D01*
X107830600Y-119817905D01*
X107830600Y-119714095D01*
X107830600Y-119690275D01*
X107993271Y-119889730D01*
X108202386Y-120062726D01*
X108441121Y-120191809D01*
X108700381Y-120272063D01*
X108970292Y-120300432D01*
X109240572Y-120275835D01*
X109500928Y-120199208D01*
X109741441Y-120073470D01*
X109952952Y-119903412D01*
X110127403Y-119695509D01*
X110250877Y-119470910D01*
X110361740Y-119679412D01*
X110533271Y-119889730D01*
X110742386Y-120062726D01*
X110981121Y-120191809D01*
X111240381Y-120272063D01*
X111510292Y-120300432D01*
X111780572Y-120275835D01*
X112040928Y-120199208D01*
X112281441Y-120073470D01*
X112492952Y-119903412D01*
X112667403Y-119695509D01*
X112790877Y-119470910D01*
X112901740Y-119679412D01*
X113073271Y-119889730D01*
X113282386Y-120062726D01*
X113521121Y-120191809D01*
X113780381Y-120272063D01*
X114050292Y-120300432D01*
X114320572Y-120275835D01*
X114580928Y-120199208D01*
X114821441Y-120073470D01*
X115032952Y-119903412D01*
X115207403Y-119695509D01*
X115229123Y-119656000D01*
X119250000Y-119656000D01*
X119333305Y-119647831D01*
X119416660Y-119640539D01*
X119421234Y-119639209D01*
X119425976Y-119638745D01*
X119506101Y-119614554D01*
X119586460Y-119591208D01*
X119590688Y-119589016D01*
X119595250Y-119587639D01*
X119669149Y-119548345D01*
X119743443Y-119509836D01*
X119747166Y-119506863D01*
X119751373Y-119504627D01*
X119816227Y-119451732D01*
X119881632Y-119399521D01*
X119888263Y-119392981D01*
X119888399Y-119392871D01*
X119888502Y-119392745D01*
X119890639Y-119390639D01*
X121140639Y-118140639D01*
X121193754Y-118075973D01*
X121247553Y-118011860D01*
X121249849Y-118007682D01*
X121252871Y-118004004D01*
X121292410Y-117930264D01*
X121332737Y-117856911D01*
X121334176Y-117852372D01*
X121336429Y-117848172D01*
X121360905Y-117768113D01*
X121386202Y-117688368D01*
X121386732Y-117683634D01*
X121388126Y-117679078D01*
X121396584Y-117595807D01*
X121405912Y-117512650D01*
X121405976Y-117503341D01*
X121405995Y-117503162D01*
X121405979Y-117502994D01*
X121406000Y-117500000D01*
X121406000Y-94233047D01*
X121444348Y-94208711D01*
X121661137Y-94002266D01*
X121833697Y-93757646D01*
X121955458Y-93484166D01*
X122021781Y-93192246D01*
X122026555Y-92850320D01*
X122026555Y-121507959D01*
X121976181Y-121744950D01*
X121969947Y-122191461D01*
X122050558Y-122630680D01*
X122214946Y-123045876D01*
X122456848Y-123421235D01*
X122767051Y-123742459D01*
X123133739Y-123997314D01*
X123542945Y-124176091D01*
X123979082Y-124271983D01*
X124425539Y-124281334D01*
X124865310Y-124203791D01*
X125281643Y-124042306D01*
X125658681Y-123803030D01*
X125982064Y-123495077D01*
X126239472Y-123130178D01*
X126421102Y-122722230D01*
X126520036Y-122286772D01*
X126527158Y-121776723D01*
X126527158Y-128423000D01*
X97377000Y-128423000D01*
X89639330Y-128423000D01*
X89639330Y-105157272D01*
X89639330Y-105063615D01*
X89639330Y-104366385D01*
X89639330Y-104272728D01*
X89639330Y-93727272D01*
X89639330Y-93633615D01*
X89639330Y-92936385D01*
X89639330Y-92842728D01*
X89614927Y-92720047D01*
X89567060Y-92604485D01*
X89497567Y-92500481D01*
X89409119Y-92412033D01*
X89305115Y-92342540D01*
X89189553Y-92294673D01*
X89066872Y-92270270D01*
X88941788Y-92270270D01*
X88536450Y-92270270D01*
X88377700Y-92429020D01*
X88377700Y-93095135D01*
X89480580Y-93095135D01*
X89639330Y-92936385D01*
X89639330Y-93633615D01*
X89480580Y-93474865D01*
X88377700Y-93474865D01*
X88377700Y-93696480D01*
X88375160Y-93699020D01*
X88375160Y-94365135D01*
X89478040Y-94365135D01*
X89636790Y-94206385D01*
X89636790Y-94112728D01*
X89612387Y-93990047D01*
X89584642Y-93923066D01*
X89614927Y-93849953D01*
X89639330Y-93727272D01*
X89639330Y-104272728D01*
X89614927Y-104150047D01*
X89567060Y-104034485D01*
X89513373Y-103954137D01*
X89528790Y-103876635D01*
X89528790Y-103772825D01*
X89528790Y-103013365D01*
X89508538Y-102911550D01*
X89468811Y-102815642D01*
X89465041Y-102810000D01*
X89468811Y-102804358D01*
X89508538Y-102708450D01*
X89528790Y-102606635D01*
X89528790Y-102502825D01*
X89528790Y-101743365D01*
X89508538Y-101641550D01*
X89468811Y-101545642D01*
X89465041Y-101540000D01*
X89468811Y-101534358D01*
X89508538Y-101438450D01*
X89528790Y-101336635D01*
X89528790Y-101232825D01*
X89528790Y-100473365D01*
X89508538Y-100371550D01*
X89468811Y-100275642D01*
X89465041Y-100270000D01*
X89468811Y-100264358D01*
X89508538Y-100168450D01*
X89528790Y-100066635D01*
X89528790Y-99962825D01*
X89528790Y-99203365D01*
X89508538Y-99101550D01*
X89468811Y-99005642D01*
X89465041Y-99000000D01*
X89468811Y-98994358D01*
X89508538Y-98898450D01*
X89528790Y-98796635D01*
X89528790Y-98692825D01*
X89528790Y-97933365D01*
X89508538Y-97831550D01*
X89468811Y-97735642D01*
X89465041Y-97730000D01*
X89468811Y-97724358D01*
X89508538Y-97628450D01*
X89528790Y-97526635D01*
X89528790Y-97422825D01*
X89528790Y-96663365D01*
X89508538Y-96561550D01*
X89468811Y-96465642D01*
X89465041Y-96460000D01*
X89468811Y-96454358D01*
X89508538Y-96358450D01*
X89528790Y-96256635D01*
X89528790Y-96152825D01*
X89528790Y-95393365D01*
X89512791Y-95312932D01*
X89564520Y-95235515D01*
X89612387Y-95119953D01*
X89636790Y-94997272D01*
X89636790Y-94903615D01*
X89478040Y-94744865D01*
X88375160Y-94744865D01*
X88375160Y-94798000D01*
X87931700Y-94798000D01*
X87931700Y-94140980D01*
X87931700Y-93474865D01*
X87931700Y-93095135D01*
X87931700Y-92429020D01*
X87772950Y-92270270D01*
X87367612Y-92270270D01*
X87242528Y-92270270D01*
X87119847Y-92294673D01*
X87004285Y-92342540D01*
X86900281Y-92412033D01*
X86811833Y-92500481D01*
X86742340Y-92604485D01*
X86694473Y-92720047D01*
X86670070Y-92842728D01*
X86670070Y-92936385D01*
X86828820Y-93095135D01*
X87931700Y-93095135D01*
X87931700Y-93474865D01*
X86828820Y-93474865D01*
X86670070Y-93633615D01*
X86670070Y-93727272D01*
X86694473Y-93849953D01*
X86722217Y-93916933D01*
X86691933Y-93990047D01*
X86667530Y-94112728D01*
X86667530Y-94206385D01*
X86826280Y-94365135D01*
X87929160Y-94365135D01*
X87929160Y-94143520D01*
X87931700Y-94140980D01*
X87931700Y-94798000D01*
X87929160Y-94798000D01*
X87929160Y-94744865D01*
X86826280Y-94744865D01*
X86667530Y-94903615D01*
X86667530Y-94997272D01*
X86691933Y-95119953D01*
X86739800Y-95235515D01*
X86791528Y-95312932D01*
X86775530Y-95393365D01*
X86775530Y-95497175D01*
X86775530Y-96189000D01*
X83727000Y-96189000D01*
X83727000Y-88577000D01*
X85051905Y-88577000D01*
X85153720Y-88556748D01*
X85249628Y-88517021D01*
X85335943Y-88459348D01*
X85409348Y-88385943D01*
X85467021Y-88299628D01*
X85506748Y-88203720D01*
X85527000Y-88101905D01*
X85527000Y-87998095D01*
X85527000Y-85898095D01*
X85506748Y-85796280D01*
X85467021Y-85700372D01*
X85409348Y-85614057D01*
X85335943Y-85540652D01*
X85249628Y-85482979D01*
X85153720Y-85443252D01*
X85051905Y-85423000D01*
X84948095Y-85423000D01*
X83727000Y-85423000D01*
X83727000Y-84077000D01*
X85051905Y-84077000D01*
X85153720Y-84056748D01*
X85249628Y-84017021D01*
X85335943Y-83959348D01*
X85409348Y-83885943D01*
X85467021Y-83799628D01*
X85506748Y-83703720D01*
X85527000Y-83601905D01*
X85527000Y-83498095D01*
X85527000Y-81398095D01*
X85506748Y-81296280D01*
X85467021Y-81200372D01*
X85409348Y-81114057D01*
X85335943Y-81040652D01*
X85249628Y-80982979D01*
X85153720Y-80943252D01*
X85051905Y-80923000D01*
X84948095Y-80923000D01*
X83727000Y-80923000D01*
X83727000Y-68042096D01*
X83801204Y-67953664D01*
X83949476Y-67683957D01*
X84042539Y-67390588D01*
X84076846Y-67084729D01*
X84077000Y-67062711D01*
X84077000Y-64937289D01*
X84046966Y-64630981D01*
X83958009Y-64336341D01*
X83813517Y-64064591D01*
X83618993Y-63826081D01*
X83381847Y-63629897D01*
X83111112Y-63483511D01*
X82817100Y-63392499D01*
X82511009Y-63360327D01*
X82204500Y-63388222D01*
X81909245Y-63475120D01*
X81636493Y-63617712D01*
X81396631Y-63810566D01*
X81198796Y-64046336D01*
X81050524Y-64316043D01*
X80957461Y-64609412D01*
X80923154Y-64915271D01*
X80923000Y-64937289D01*
X80923000Y-67062711D01*
X80953034Y-67369019D01*
X81041991Y-67663659D01*
X81186483Y-67935409D01*
X81273000Y-68041489D01*
X81273000Y-82264050D01*
X81273000Y-82300000D01*
X81273000Y-86975309D01*
X81273000Y-87200000D01*
X81273000Y-88350882D01*
X81273000Y-96750000D01*
X81296368Y-96988326D01*
X81365582Y-97217573D01*
X81478006Y-97429011D01*
X81502464Y-97459000D01*
X78727000Y-97459000D01*
X78727000Y-96250000D01*
X78727000Y-96000000D01*
X78727000Y-87083920D01*
X78727000Y-85759207D01*
X78727000Y-82300000D01*
X78727000Y-82142717D01*
X78727000Y-79559524D01*
X78767021Y-79499628D01*
X78806748Y-79403720D01*
X78827000Y-79301905D01*
X78827000Y-79198095D01*
X78827000Y-78198095D01*
X78806748Y-78096280D01*
X78767021Y-78000372D01*
X78709348Y-77914057D01*
X78635943Y-77840652D01*
X78549628Y-77782979D01*
X78453720Y-77743252D01*
X78351905Y-77723000D01*
X78248095Y-77723000D01*
X78197000Y-77723000D01*
X78184687Y-77682217D01*
X78166189Y-77618543D01*
X78164451Y-77615191D01*
X78163362Y-77611582D01*
X78132272Y-77553111D01*
X78101747Y-77494222D01*
X78099390Y-77491270D01*
X78097621Y-77487942D01*
X78055768Y-77436625D01*
X78014384Y-77384784D01*
X78009204Y-77379532D01*
X78009117Y-77379425D01*
X78009017Y-77379342D01*
X78007349Y-77377651D01*
X77879698Y-77250000D01*
X78007349Y-77122349D01*
X78049409Y-77071143D01*
X78092019Y-77020364D01*
X78093837Y-77017055D01*
X78096231Y-77014142D01*
X78127548Y-76955736D01*
X78159480Y-76897653D01*
X78160620Y-76894058D01*
X78162404Y-76890732D01*
X78181776Y-76827365D01*
X78197753Y-76777000D01*
X78351905Y-76777000D01*
X78453720Y-76756748D01*
X78549628Y-76717021D01*
X78635943Y-76659348D01*
X78709348Y-76585943D01*
X78767021Y-76499628D01*
X78806748Y-76403720D01*
X78827000Y-76301905D01*
X78827000Y-76198095D01*
X78827000Y-75198095D01*
X78806748Y-75096280D01*
X78767021Y-75000372D01*
X78727000Y-74940475D01*
X78727000Y-74038369D01*
X78727000Y-73938369D01*
X78727000Y-68042096D01*
X78801204Y-67953664D01*
X78949476Y-67683957D01*
X79042539Y-67390588D01*
X79076846Y-67084729D01*
X79077000Y-67062711D01*
X79077000Y-64937289D01*
X79046966Y-64630981D01*
X78958009Y-64336341D01*
X78813517Y-64064591D01*
X78618993Y-63826081D01*
X78381847Y-63629897D01*
X78111112Y-63483511D01*
X77817100Y-63392499D01*
X77511009Y-63360327D01*
X77204500Y-63388222D01*
X76909245Y-63475120D01*
X76636493Y-63617712D01*
X76396631Y-63810566D01*
X76198796Y-64046336D01*
X76050524Y-64316043D01*
X75957461Y-64609412D01*
X75923154Y-64915271D01*
X75923000Y-64937289D01*
X75923000Y-67062711D01*
X75953034Y-67369019D01*
X76041991Y-67663659D01*
X76186483Y-67935409D01*
X76273000Y-68041489D01*
X76273000Y-73938369D01*
X76273000Y-74038369D01*
X76273000Y-74940475D01*
X76232979Y-75000372D01*
X76193252Y-75096280D01*
X76173000Y-75198095D01*
X76173000Y-75301905D01*
X76173000Y-76032500D01*
X74459466Y-76032500D01*
X74471987Y-76020577D01*
X74583223Y-75862890D01*
X74661712Y-75686601D01*
X74704464Y-75498425D01*
X74707542Y-75278014D01*
X74670060Y-75088717D01*
X74596524Y-74910305D01*
X74489735Y-74749574D01*
X74353760Y-74612647D01*
X74193779Y-74504738D01*
X74015885Y-74429958D01*
X73826854Y-74391156D01*
X73633886Y-74389808D01*
X73444332Y-74425968D01*
X73296080Y-74485864D01*
X73301770Y-74457262D01*
X73301770Y-74403610D01*
X73301770Y-73786390D01*
X73301770Y-73732738D01*
X73277367Y-73610057D01*
X73229500Y-73494495D01*
X73160007Y-73390491D01*
X73071559Y-73302043D01*
X72967555Y-73232550D01*
X72851993Y-73184683D01*
X72729312Y-73160280D01*
X72604228Y-73160280D01*
X72348750Y-73160280D01*
X72190000Y-73319030D01*
X72190000Y-73945140D01*
X73143020Y-73945140D01*
X73301770Y-73786390D01*
X73301770Y-74403610D01*
X73143020Y-74244860D01*
X72190000Y-74244860D01*
X72190000Y-74338000D01*
X71744000Y-74338000D01*
X71744000Y-74244860D01*
X71744000Y-73945140D01*
X71744000Y-73319030D01*
X71585250Y-73160280D01*
X71329772Y-73160280D01*
X71204688Y-73160280D01*
X71082007Y-73184683D01*
X70966445Y-73232550D01*
X70862441Y-73302043D01*
X70773993Y-73390491D01*
X70704500Y-73494495D01*
X70656633Y-73610057D01*
X70632230Y-73732738D01*
X70632230Y-73786390D01*
X70790980Y-73945140D01*
X71744000Y-73945140D01*
X71744000Y-74244860D01*
X70790980Y-74244860D01*
X70632230Y-74403610D01*
X70632230Y-74457262D01*
X70656633Y-74579943D01*
X70704500Y-74695505D01*
X70773993Y-74799509D01*
X70797258Y-74822774D01*
X70760482Y-74911560D01*
X70740230Y-75013375D01*
X70740230Y-75117185D01*
X70740230Y-75716625D01*
X70760482Y-75818440D01*
X70800209Y-75914348D01*
X70857439Y-76000000D01*
X70800209Y-76085652D01*
X70760482Y-76181560D01*
X70740230Y-76283375D01*
X70740230Y-76387185D01*
X70740230Y-76986625D01*
X70760482Y-77088440D01*
X70800209Y-77184348D01*
X70857439Y-77270000D01*
X70800209Y-77355652D01*
X70760482Y-77451560D01*
X70740230Y-77553375D01*
X70740230Y-77657185D01*
X70740230Y-78256625D01*
X70760482Y-78358440D01*
X70800209Y-78454348D01*
X70857882Y-78540663D01*
X70931287Y-78614068D01*
X71017602Y-78671741D01*
X71113510Y-78711468D01*
X71215325Y-78731720D01*
X71319135Y-78731720D01*
X72718675Y-78731720D01*
X72820490Y-78711468D01*
X72916398Y-78671741D01*
X72990093Y-78622500D01*
X73395000Y-78622500D01*
X73460982Y-78616030D01*
X73526985Y-78610256D01*
X73530609Y-78609203D01*
X73534363Y-78608835D01*
X73597782Y-78589687D01*
X73661457Y-78571189D01*
X73664808Y-78569451D01*
X73668418Y-78568362D01*
X73726928Y-78537251D01*
X73785778Y-78506746D01*
X73788725Y-78504392D01*
X73792058Y-78502621D01*
X73835120Y-78467500D01*
X76173000Y-78467500D01*
X76173000Y-79301905D01*
X76193252Y-79403720D01*
X76232979Y-79499628D01*
X76273000Y-79559524D01*
X76273000Y-80923000D01*
X74948095Y-80923000D01*
X74846280Y-80943252D01*
X74750372Y-80982979D01*
X74664057Y-81040652D01*
X74590652Y-81114057D01*
X74532979Y-81200372D01*
X74493252Y-81296280D01*
X74473000Y-81398095D01*
X74473000Y-81501905D01*
X74473000Y-83601905D01*
X74493252Y-83703720D01*
X74532979Y-83799628D01*
X74590652Y-83885943D01*
X74664057Y-83959348D01*
X74750372Y-84017021D01*
X74846280Y-84056748D01*
X74948095Y-84077000D01*
X75051905Y-84077000D01*
X76273000Y-84077000D01*
X76273000Y-85423000D01*
X74948095Y-85423000D01*
X74846280Y-85443252D01*
X74750372Y-85482979D01*
X74664057Y-85540652D01*
X74590652Y-85614057D01*
X74532979Y-85700372D01*
X74493252Y-85796280D01*
X74473000Y-85898095D01*
X74473000Y-86001905D01*
X74473000Y-88101905D01*
X74493252Y-88203720D01*
X74532979Y-88299628D01*
X74590652Y-88385943D01*
X74664057Y-88459348D01*
X74750372Y-88517021D01*
X74846280Y-88556748D01*
X74948095Y-88577000D01*
X75051905Y-88577000D01*
X76273000Y-88577000D01*
X76273000Y-96000000D01*
X76273000Y-96250000D01*
X76273000Y-98000000D01*
X76296368Y-98238326D01*
X76365582Y-98467573D01*
X76478006Y-98679011D01*
X76629357Y-98864586D01*
X76813870Y-99017229D01*
X77024518Y-99131126D01*
X77253277Y-99201939D01*
X77276470Y-99204376D01*
X77346860Y-99225896D01*
X77426632Y-99251202D01*
X77431367Y-99251733D01*
X77435923Y-99253126D01*
X77519187Y-99261583D01*
X77602350Y-99270912D01*
X77611658Y-99270976D01*
X77611838Y-99270995D01*
X77612005Y-99270979D01*
X77615000Y-99271000D01*
X82197721Y-99271000D01*
X81327221Y-100141500D01*
X78962223Y-100141500D01*
X78908648Y-100061317D01*
X78835243Y-99987912D01*
X78748928Y-99930239D01*
X78653020Y-99890512D01*
X78551205Y-99870260D01*
X78447395Y-99870260D01*
X76948795Y-99870260D01*
X76846980Y-99890512D01*
X76751072Y-99930239D01*
X76664757Y-99987912D01*
X76640168Y-100012500D01*
X72635000Y-100012500D01*
X72635000Y-83612542D01*
X72635000Y-83487458D01*
X72635000Y-82881750D01*
X72635000Y-82118250D01*
X72635000Y-81512542D01*
X72635000Y-81387458D01*
X72610597Y-81264777D01*
X72562730Y-81149215D01*
X72493237Y-81045211D01*
X72404789Y-80956763D01*
X72300785Y-80887270D01*
X72185223Y-80839403D01*
X72062542Y-80815000D01*
X71681750Y-80815000D01*
X71523000Y-80973750D01*
X71523000Y-82277000D01*
X72476250Y-82277000D01*
X72635000Y-82118250D01*
X72635000Y-82881750D01*
X72476250Y-82723000D01*
X71523000Y-82723000D01*
X71523000Y-84026250D01*
X71681750Y-84185000D01*
X72062542Y-84185000D01*
X72185223Y-84160597D01*
X72300785Y-84112730D01*
X72404789Y-84043237D01*
X72493237Y-83954789D01*
X72562730Y-83850785D01*
X72610597Y-83735223D01*
X72635000Y-83612542D01*
X72635000Y-100012500D01*
X70476211Y-100012500D01*
X69627000Y-99163288D01*
X69035000Y-98571288D01*
X69035000Y-89377000D01*
X69627000Y-89377000D01*
X69627000Y-88227000D01*
X70102895Y-88227000D01*
X70132979Y-88299628D01*
X70190652Y-88385943D01*
X70264057Y-88459348D01*
X70350372Y-88517021D01*
X70446280Y-88556748D01*
X70548095Y-88577000D01*
X70651905Y-88577000D01*
X72051905Y-88577000D01*
X72153720Y-88556748D01*
X72249628Y-88517021D01*
X72335943Y-88459348D01*
X72409348Y-88385943D01*
X72467021Y-88299628D01*
X72506748Y-88203720D01*
X72527000Y-88101905D01*
X72527000Y-87998095D01*
X72527000Y-85898095D01*
X72506748Y-85796280D01*
X72467021Y-85700372D01*
X72409348Y-85614057D01*
X72335943Y-85540652D01*
X72249628Y-85482979D01*
X72153720Y-85443252D01*
X72051905Y-85423000D01*
X71948095Y-85423000D01*
X71077000Y-85423000D01*
X71077000Y-84026250D01*
X71077000Y-82723000D01*
X71077000Y-82277000D01*
X71077000Y-80973750D01*
X70918250Y-80815000D01*
X70537458Y-80815000D01*
X70414777Y-80839403D01*
X70299215Y-80887270D01*
X70195211Y-80956763D01*
X70106763Y-81045211D01*
X70037270Y-81149215D01*
X69989403Y-81264777D01*
X69965000Y-81387458D01*
X69965000Y-81512542D01*
X69965000Y-82118250D01*
X70123750Y-82277000D01*
X71077000Y-82277000D01*
X71077000Y-82723000D01*
X70123750Y-82723000D01*
X69965000Y-82881750D01*
X69965000Y-83487458D01*
X69965000Y-83612542D01*
X69989403Y-83735223D01*
X70037270Y-83850785D01*
X70106763Y-83954789D01*
X70195211Y-84043237D01*
X70299215Y-84112730D01*
X70414777Y-84160597D01*
X70537458Y-84185000D01*
X70918250Y-84185000D01*
X71077000Y-84026250D01*
X71077000Y-85423000D01*
X70548095Y-85423000D01*
X70446280Y-85443252D01*
X70350372Y-85482979D01*
X70264057Y-85540652D01*
X70190652Y-85614057D01*
X70132979Y-85700372D01*
X70102895Y-85773000D01*
X69627000Y-85773000D01*
X69627000Y-84623000D01*
X69236420Y-84623000D01*
X69236420Y-80862922D01*
X69236420Y-80737838D01*
X69236420Y-80681750D01*
X69236420Y-79918250D01*
X69236420Y-79862162D01*
X69236420Y-79737078D01*
X69212017Y-79614397D01*
X69164150Y-79498835D01*
X69094657Y-79394831D01*
X69006209Y-79306383D01*
X68902205Y-79236890D01*
X68786643Y-79189023D01*
X68663962Y-79164620D01*
X68533590Y-79164620D01*
X68374840Y-79323370D01*
X68374840Y-80077000D01*
X69077670Y-80077000D01*
X69236420Y-79918250D01*
X69236420Y-80681750D01*
X69077670Y-80523000D01*
X68374840Y-80523000D01*
X68374840Y-81276630D01*
X68533590Y-81435380D01*
X68663962Y-81435380D01*
X68786643Y-81410977D01*
X68902205Y-81363110D01*
X69006209Y-81293617D01*
X69094657Y-81205169D01*
X69164150Y-81101165D01*
X69212017Y-80985603D01*
X69236420Y-80862922D01*
X69236420Y-84623000D01*
X68277158Y-84623000D01*
X68277158Y-66776723D01*
X68190422Y-66338673D01*
X68020253Y-65925812D01*
X67773133Y-65553868D01*
X67458476Y-65237006D01*
X67088265Y-64987295D01*
X66676603Y-64814249D01*
X66239169Y-64724456D01*
X65792626Y-64721339D01*
X65353981Y-64805015D01*
X64939943Y-64972297D01*
X64566282Y-65216814D01*
X64247231Y-65529252D01*
X63994942Y-65897710D01*
X63819025Y-66308154D01*
X63726181Y-66744950D01*
X63719947Y-67191461D01*
X63800558Y-67630680D01*
X63964946Y-68045876D01*
X64206848Y-68421235D01*
X64517051Y-68742459D01*
X64883739Y-68997314D01*
X65292945Y-69176091D01*
X65729082Y-69271983D01*
X66175539Y-69281334D01*
X66615310Y-69203791D01*
X67031643Y-69042306D01*
X67408681Y-68803030D01*
X67732064Y-68495077D01*
X67989472Y-68130178D01*
X68171102Y-67722230D01*
X68270036Y-67286772D01*
X68277158Y-66776723D01*
X68277158Y-84623000D01*
X64873000Y-84623000D01*
X64873000Y-84942062D01*
X61000161Y-84942062D01*
X61043305Y-84937831D01*
X61126660Y-84930539D01*
X61131234Y-84929209D01*
X61135976Y-84928745D01*
X61216101Y-84904554D01*
X61296460Y-84881208D01*
X61300688Y-84879016D01*
X61305250Y-84877639D01*
X61379149Y-84838345D01*
X61453443Y-84799836D01*
X61457166Y-84796863D01*
X61461373Y-84794627D01*
X61526227Y-84741732D01*
X61591632Y-84689521D01*
X61598263Y-84682981D01*
X61598399Y-84682871D01*
X61598502Y-84682745D01*
X61600639Y-84680639D01*
X64940639Y-81340639D01*
X64993754Y-81275973D01*
X65047553Y-81211860D01*
X65049849Y-81207682D01*
X65052871Y-81204004D01*
X65092410Y-81130264D01*
X65132737Y-81056911D01*
X65134176Y-81052372D01*
X65136429Y-81048172D01*
X65160905Y-80968113D01*
X65186202Y-80888368D01*
X65186732Y-80883634D01*
X65188126Y-80879078D01*
X65196579Y-80795852D01*
X65205912Y-80712650D01*
X65205976Y-80703331D01*
X65205994Y-80703162D01*
X65205979Y-80703004D01*
X65206000Y-80700000D01*
X65206000Y-77489812D01*
X65207443Y-77488848D01*
X65280848Y-77415443D01*
X65322904Y-77352500D01*
X65468315Y-77352500D01*
X65466209Y-77355652D01*
X65426482Y-77451560D01*
X65406230Y-77553375D01*
X65406230Y-77657185D01*
X65406230Y-78256625D01*
X65426482Y-78358440D01*
X65466209Y-78454348D01*
X65523882Y-78540663D01*
X65597287Y-78614068D01*
X65683602Y-78671741D01*
X65779510Y-78711468D01*
X65852000Y-78725886D01*
X65852000Y-79400909D01*
X65789232Y-79463677D01*
X65731559Y-79549992D01*
X65691832Y-79645900D01*
X65671580Y-79747715D01*
X65671580Y-79851525D01*
X65671580Y-80852285D01*
X65691832Y-80954100D01*
X65731559Y-81050008D01*
X65742160Y-81065873D01*
X65742160Y-81873000D01*
X65500000Y-81873000D01*
X65281098Y-81894464D01*
X65070534Y-81958037D01*
X64876328Y-82061298D01*
X64705877Y-82200314D01*
X64565675Y-82369790D01*
X64461060Y-82563270D01*
X64396019Y-82773385D01*
X64373027Y-82992132D01*
X64392962Y-83211179D01*
X64455064Y-83422182D01*
X64556967Y-83617104D01*
X64694789Y-83788521D01*
X64863282Y-83929903D01*
X65056027Y-84035866D01*
X65265684Y-84102372D01*
X65484265Y-84126890D01*
X65500000Y-84127000D01*
X66750000Y-84127000D01*
X66968902Y-84105536D01*
X67179466Y-84041963D01*
X67373672Y-83938702D01*
X67544123Y-83799686D01*
X67684325Y-83630210D01*
X67788940Y-83436730D01*
X67853981Y-83226615D01*
X67876973Y-83007868D01*
X67857038Y-82788821D01*
X67794936Y-82577818D01*
X67693033Y-82382896D01*
X67555211Y-82211479D01*
X67554160Y-82210597D01*
X67554160Y-81418361D01*
X67639718Y-81435380D01*
X67770090Y-81435380D01*
X67928840Y-81276630D01*
X67928840Y-80523000D01*
X67908840Y-80523000D01*
X67908840Y-80077000D01*
X67928840Y-80077000D01*
X67928840Y-79323370D01*
X67770090Y-79164620D01*
X67639718Y-79164620D01*
X67517037Y-79189023D01*
X67414000Y-79231702D01*
X67414000Y-78725886D01*
X67486490Y-78711468D01*
X67582398Y-78671741D01*
X67668713Y-78614068D01*
X67742118Y-78540663D01*
X67799791Y-78454348D01*
X67839518Y-78358440D01*
X67859770Y-78256625D01*
X67859770Y-78152815D01*
X67859770Y-77553375D01*
X67839518Y-77451560D01*
X67799791Y-77355652D01*
X67742560Y-77270000D01*
X67799791Y-77184348D01*
X67839518Y-77088440D01*
X67859770Y-76986625D01*
X67859770Y-76882815D01*
X67859770Y-76283375D01*
X67839518Y-76181560D01*
X67799791Y-76085652D01*
X67742560Y-76000000D01*
X67799791Y-75914348D01*
X67839518Y-75818440D01*
X67859770Y-75716625D01*
X67859770Y-75612815D01*
X67859770Y-75013375D01*
X67839518Y-74911560D01*
X67799791Y-74815652D01*
X67742560Y-74730000D01*
X67799791Y-74644348D01*
X67839518Y-74548440D01*
X67859770Y-74446625D01*
X67859770Y-74342815D01*
X67859770Y-73743375D01*
X67839518Y-73641560D01*
X67799791Y-73545652D01*
X67742118Y-73459337D01*
X67668713Y-73385932D01*
X67582398Y-73328259D01*
X67486490Y-73288532D01*
X67384675Y-73268280D01*
X67350500Y-73268280D01*
X67350500Y-72833000D01*
X67344030Y-72767017D01*
X67338256Y-72701015D01*
X67337203Y-72697390D01*
X67336835Y-72693637D01*
X67317687Y-72630217D01*
X67299189Y-72566543D01*
X67297451Y-72563191D01*
X67296362Y-72559582D01*
X67265251Y-72501071D01*
X67234746Y-72442222D01*
X67232392Y-72439274D01*
X67230621Y-72435942D01*
X67188721Y-72384567D01*
X67147383Y-72332784D01*
X67142206Y-72327534D01*
X67142117Y-72327425D01*
X67142015Y-72327341D01*
X67140349Y-72325651D01*
X66545349Y-71730651D01*
X66494143Y-71688590D01*
X66443364Y-71645981D01*
X66440055Y-71644162D01*
X66437142Y-71641769D01*
X66378771Y-71610471D01*
X66320653Y-71578520D01*
X66317054Y-71577378D01*
X66313732Y-71575597D01*
X66250411Y-71556238D01*
X66187177Y-71536179D01*
X66183423Y-71535757D01*
X66179819Y-71534656D01*
X66113895Y-71527959D01*
X66048018Y-71520570D01*
X66040647Y-71520518D01*
X66040505Y-71520504D01*
X66040371Y-71520516D01*
X66038000Y-71520500D01*
X65216791Y-71520500D01*
X65207443Y-71511152D01*
X65121128Y-71453479D01*
X65081000Y-71436857D01*
X65081000Y-71300000D01*
X65073957Y-71228173D01*
X65067672Y-71156333D01*
X65066526Y-71152391D01*
X65066126Y-71148303D01*
X65045283Y-71079270D01*
X65025148Y-71009962D01*
X65023255Y-71006311D01*
X65022070Y-71002384D01*
X64988209Y-70938701D01*
X64955001Y-70874637D01*
X64952439Y-70871428D01*
X64950511Y-70867801D01*
X64904922Y-70811903D01*
X64859907Y-70755513D01*
X64854268Y-70749796D01*
X64854175Y-70749681D01*
X64854068Y-70749592D01*
X64852250Y-70747749D01*
X63802250Y-69697750D01*
X63746518Y-69651970D01*
X63691239Y-69605586D01*
X63687640Y-69603607D01*
X63684467Y-69601001D01*
X63620925Y-69566930D01*
X63619210Y-69565988D01*
X63604332Y-69529889D01*
X63438669Y-69280545D01*
X63227729Y-69068128D01*
X62979549Y-68900728D01*
X62703579Y-68784721D01*
X62410334Y-68724527D01*
X62110981Y-68722437D01*
X61816923Y-68778531D01*
X61539361Y-68890674D01*
X61288867Y-69054592D01*
X61074983Y-69264044D01*
X60905854Y-69511050D01*
X60787924Y-69786202D01*
X60725683Y-70079020D01*
X60721504Y-70378351D01*
X60775544Y-70672794D01*
X60885746Y-70951132D01*
X61047911Y-71202764D01*
X61255864Y-71418105D01*
X61501684Y-71588954D01*
X61776006Y-71708803D01*
X62068383Y-71773086D01*
X62367677Y-71779355D01*
X62662490Y-71727372D01*
X62941590Y-71619116D01*
X63194348Y-71458711D01*
X63276232Y-71380733D01*
X63401005Y-71505506D01*
X63392557Y-71511152D01*
X63319152Y-71584557D01*
X63261479Y-71670872D01*
X63221752Y-71766780D01*
X63201500Y-71868595D01*
X63201500Y-71972405D01*
X63201500Y-72607405D01*
X63221752Y-72709220D01*
X63261479Y-72805128D01*
X63319152Y-72891443D01*
X63392557Y-72964848D01*
X63445166Y-73000000D01*
X63392557Y-73035152D01*
X63319152Y-73108557D01*
X63261479Y-73194872D01*
X63221752Y-73290780D01*
X63201500Y-73392595D01*
X63201500Y-73496405D01*
X63201500Y-74131405D01*
X63221752Y-74233220D01*
X63261479Y-74329128D01*
X63319152Y-74415443D01*
X63392557Y-74488848D01*
X63409247Y-74500000D01*
X63392557Y-74511152D01*
X63319152Y-74584557D01*
X63261479Y-74670872D01*
X63221752Y-74766780D01*
X63201500Y-74868595D01*
X63201500Y-74972405D01*
X63201500Y-75607405D01*
X63221752Y-75709220D01*
X63261479Y-75805128D01*
X63319152Y-75891443D01*
X63392557Y-75964848D01*
X63445166Y-76000000D01*
X63392557Y-76035152D01*
X63319152Y-76108557D01*
X63261479Y-76194872D01*
X63221752Y-76290780D01*
X63201500Y-76392595D01*
X63201500Y-76496405D01*
X63201500Y-77131405D01*
X63221752Y-77233220D01*
X63261479Y-77329128D01*
X63319152Y-77415443D01*
X63392557Y-77488848D01*
X63394000Y-77489812D01*
X63394000Y-80324722D01*
X60584722Y-83134000D01*
X60207242Y-83134000D01*
X60153412Y-83067048D01*
X59945509Y-82892597D01*
X59826370Y-82827099D01*
X59992865Y-82736393D01*
X60217924Y-82548669D01*
X60402035Y-82320646D01*
X60538124Y-82061086D01*
X60581185Y-81952077D01*
X60581185Y-81047923D01*
X60538124Y-80938914D01*
X60402035Y-80679354D01*
X60217924Y-80451331D01*
X60091526Y-80345901D01*
X60169720Y-80330348D01*
X60265628Y-80290621D01*
X60351943Y-80232948D01*
X60425348Y-80159543D01*
X60483021Y-80073228D01*
X60522748Y-79977320D01*
X60543000Y-79875505D01*
X60543000Y-79771695D01*
X60543000Y-78044495D01*
X60522748Y-77942680D01*
X60483021Y-77846772D01*
X60425348Y-77760457D01*
X60351943Y-77687052D01*
X60265628Y-77629379D01*
X60169720Y-77589652D01*
X60067905Y-77569400D01*
X59964095Y-77569400D01*
X57932095Y-77569400D01*
X57830280Y-77589652D01*
X57734372Y-77629379D01*
X57648057Y-77687052D01*
X57574652Y-77760457D01*
X57516979Y-77846772D01*
X57477252Y-77942680D01*
X57457000Y-78044495D01*
X57457000Y-78148305D01*
X57457000Y-79875505D01*
X57477252Y-79977320D01*
X57516979Y-80073228D01*
X57574652Y-80159543D01*
X57648057Y-80232948D01*
X57734372Y-80290621D01*
X57830280Y-80330348D01*
X57908473Y-80345901D01*
X57782076Y-80451331D01*
X57597965Y-80679354D01*
X57461876Y-80938914D01*
X57418815Y-81047923D01*
X57526438Y-81277000D01*
X58777000Y-81277000D01*
X58777000Y-81257000D01*
X59223000Y-81257000D01*
X59223000Y-81277000D01*
X60473562Y-81277000D01*
X60581185Y-81047923D01*
X60581185Y-81952077D01*
X60473562Y-81723000D01*
X59223000Y-81723000D01*
X59223000Y-81743000D01*
X58777000Y-81743000D01*
X58777000Y-81723000D01*
X57526438Y-81723000D01*
X57418815Y-81952077D01*
X57461876Y-82061086D01*
X57597965Y-82320646D01*
X57782076Y-82548669D01*
X58007135Y-82736393D01*
X58173491Y-82827024D01*
X58070588Y-82881740D01*
X57860270Y-83053271D01*
X57687274Y-83262386D01*
X57558191Y-83501121D01*
X57477937Y-83760381D01*
X57449568Y-84030292D01*
X57474165Y-84300572D01*
X57550792Y-84560928D01*
X57676530Y-84801441D01*
X57789591Y-84942062D01*
X57308671Y-84942062D01*
X56664730Y-84298120D01*
X56664730Y-65981528D01*
X56664730Y-65018472D01*
X56574918Y-64749281D01*
X56399159Y-64466209D01*
X56171553Y-64222865D01*
X55900846Y-64028601D01*
X55597442Y-63890882D01*
X55273000Y-63815000D01*
X54223000Y-63815000D01*
X54223000Y-65277000D01*
X56559871Y-65277000D01*
X56664730Y-65018472D01*
X56664730Y-65981528D01*
X56559871Y-65723000D01*
X54223000Y-65723000D01*
X54223000Y-67185000D01*
X55273000Y-67185000D01*
X55597442Y-67109118D01*
X55900846Y-66971399D01*
X56171553Y-66777135D01*
X56399159Y-66533791D01*
X56574918Y-66250719D01*
X56664730Y-65981528D01*
X56664730Y-84298120D01*
X56027000Y-83660390D01*
X56027000Y-71738817D01*
X56173919Y-71618993D01*
X56370103Y-71381847D01*
X56516489Y-71111112D01*
X56607501Y-70817100D01*
X56639673Y-70511009D01*
X56611778Y-70204500D01*
X56524880Y-69909245D01*
X56382288Y-69636493D01*
X56189434Y-69396631D01*
X55953664Y-69198796D01*
X55683957Y-69050524D01*
X55390588Y-68957461D01*
X55084729Y-68923154D01*
X55062711Y-68923000D01*
X53777000Y-68923000D01*
X53777000Y-67185000D01*
X53777000Y-65723000D01*
X53777000Y-65277000D01*
X53777000Y-63815000D01*
X52727000Y-63815000D01*
X52402558Y-63890882D01*
X52099154Y-64028601D01*
X51828447Y-64222865D01*
X51600841Y-64466209D01*
X51425082Y-64749281D01*
X51335270Y-65018472D01*
X51440129Y-65277000D01*
X53777000Y-65277000D01*
X53777000Y-65723000D01*
X51440129Y-65723000D01*
X51335270Y-65981528D01*
X51425082Y-66250719D01*
X51600841Y-66533791D01*
X51828447Y-66777135D01*
X52099154Y-66971399D01*
X52402558Y-67109118D01*
X52727000Y-67185000D01*
X53777000Y-67185000D01*
X53777000Y-68923000D01*
X52937289Y-68923000D01*
X52630981Y-68953034D01*
X52336341Y-69041991D01*
X52064591Y-69186483D01*
X51826081Y-69381007D01*
X51629897Y-69618153D01*
X51483511Y-69888888D01*
X51392499Y-70182900D01*
X51360327Y-70488991D01*
X51388222Y-70795500D01*
X51475120Y-71090755D01*
X51617712Y-71363507D01*
X51810566Y-71603369D01*
X51973000Y-71739667D01*
X51973000Y-84500000D01*
X51991269Y-84686331D01*
X52007590Y-84872869D01*
X52010563Y-84883105D01*
X52011604Y-84893713D01*
X52065733Y-85072999D01*
X52117960Y-85252763D01*
X52122862Y-85262221D01*
X52125945Y-85272430D01*
X52213871Y-85437795D01*
X52300015Y-85603983D01*
X52306664Y-85612312D01*
X52311669Y-85621725D01*
X52430041Y-85766864D01*
X52546823Y-85913154D01*
X52561444Y-85927981D01*
X52561700Y-85928294D01*
X52561989Y-85928533D01*
X52566695Y-85933305D01*
X55035757Y-88402367D01*
X55180395Y-88521174D01*
X55323874Y-88641567D01*
X55333216Y-88646703D01*
X55341451Y-88653467D01*
X55506481Y-88741956D01*
X55670542Y-88832149D01*
X55680697Y-88835370D01*
X55690096Y-88840410D01*
X55869217Y-88895172D01*
X56047625Y-88951767D01*
X56058215Y-88952954D01*
X56068411Y-88956072D01*
X56254748Y-88974999D01*
X56440761Y-88995864D01*
X56461590Y-88996009D01*
X56461987Y-88996050D01*
X56462356Y-88996015D01*
X56469062Y-88996062D01*
X61378310Y-88996062D01*
X61288867Y-89054592D01*
X61074983Y-89264044D01*
X60905854Y-89511050D01*
X60787924Y-89786202D01*
X60725683Y-90079020D01*
X60721504Y-90378351D01*
X60775544Y-90672794D01*
X60885746Y-90951132D01*
X61047911Y-91202764D01*
X61255864Y-91418105D01*
X61344000Y-91479360D01*
X61344000Y-101500000D01*
X61352168Y-101583305D01*
X61359461Y-101666660D01*
X61360790Y-101671234D01*
X61361255Y-101675976D01*
X61385445Y-101756101D01*
X61408792Y-101836460D01*
X61410983Y-101840688D01*
X61412361Y-101845250D01*
X61451654Y-101919149D01*
X61490164Y-101993443D01*
X61493136Y-101997166D01*
X61495373Y-102001373D01*
X61548267Y-102066227D01*
X61600479Y-102131632D01*
X61607018Y-102138263D01*
X61607129Y-102138399D01*
X61607254Y-102138502D01*
X61609361Y-102140639D01*
X69627000Y-110158278D01*
X75284000Y-115815278D01*
X75284000Y-117207000D01*
X75274495Y-117207000D01*
X75172680Y-117227252D01*
X75076772Y-117266979D01*
X74990457Y-117324652D01*
X74917052Y-117398057D01*
X74859379Y-117484372D01*
X74819652Y-117580280D01*
X74799400Y-117682095D01*
X74799400Y-117785905D01*
X74799400Y-119817905D01*
X74819652Y-119919720D01*
X74859379Y-120015628D01*
X74917052Y-120101943D01*
X74990457Y-120175348D01*
X75076772Y-120233021D01*
X75172680Y-120272748D01*
X75274495Y-120293000D01*
X75378305Y-120293000D01*
X77105505Y-120293000D01*
X77207320Y-120272748D01*
X77303228Y-120233021D01*
X77389543Y-120175348D01*
X77462948Y-120101943D01*
X77520621Y-120015628D01*
X77560348Y-119919720D01*
X77580600Y-119817905D01*
X77580600Y-119714095D01*
X77580600Y-119690275D01*
X77743271Y-119889730D01*
X77952386Y-120062726D01*
X78191121Y-120191809D01*
X78450381Y-120272063D01*
X78720292Y-120300432D01*
X78990572Y-120275835D01*
X79250928Y-120199208D01*
X79491441Y-120073470D01*
X79702952Y-119903412D01*
X79877403Y-119695509D01*
X80000877Y-119470910D01*
X80111740Y-119679412D01*
X80283271Y-119889730D01*
X80492386Y-120062726D01*
X80731121Y-120191809D01*
X80990381Y-120272063D01*
X81260292Y-120300432D01*
X81530572Y-120275835D01*
X81790928Y-120199208D01*
X82031441Y-120073470D01*
X82242952Y-119903412D01*
X82417403Y-119695509D01*
X82540877Y-119470910D01*
X82651740Y-119679412D01*
X82823271Y-119889730D01*
X83032386Y-120062726D01*
X83271121Y-120191809D01*
X83530381Y-120272063D01*
X83800292Y-120300432D01*
X84070572Y-120275835D01*
X84330928Y-120199208D01*
X84571441Y-120073470D01*
X84782952Y-119903412D01*
X84957403Y-119695509D01*
X85088150Y-119457682D01*
X85170212Y-119198988D01*
X85200464Y-118929282D01*
X85200600Y-118909866D01*
X85200600Y-118590134D01*
X85174116Y-118320032D01*
X85095674Y-118060218D01*
X84968260Y-117820588D01*
X84796729Y-117610270D01*
X84716000Y-117543484D01*
X84716000Y-106554807D01*
X86787246Y-104483561D01*
X86828820Y-104525135D01*
X87931700Y-104525135D01*
X87931700Y-104472000D01*
X88377700Y-104472000D01*
X88377700Y-104525135D01*
X89480580Y-104525135D01*
X89639330Y-104366385D01*
X89639330Y-105063615D01*
X89480580Y-104904865D01*
X88377700Y-104904865D01*
X88377700Y-105570980D01*
X88536450Y-105729730D01*
X88941788Y-105729730D01*
X89066872Y-105729730D01*
X89189553Y-105705327D01*
X89305115Y-105657460D01*
X89409119Y-105587967D01*
X89497567Y-105499519D01*
X89567060Y-105395515D01*
X89614927Y-105279953D01*
X89639330Y-105157272D01*
X89639330Y-128423000D01*
X87931700Y-128423000D01*
X87931700Y-105570980D01*
X87931700Y-104904865D01*
X86828820Y-104904865D01*
X86670070Y-105063615D01*
X86670070Y-105157272D01*
X86694473Y-105279953D01*
X86742340Y-105395515D01*
X86811833Y-105499519D01*
X86900281Y-105587967D01*
X87004285Y-105657460D01*
X87119847Y-105705327D01*
X87242528Y-105729730D01*
X87367612Y-105729730D01*
X87772950Y-105729730D01*
X87931700Y-105570980D01*
X87931700Y-128423000D01*
X69627000Y-128423000D01*
X68277158Y-128423000D01*
X68277158Y-121776723D01*
X68190422Y-121338673D01*
X68020253Y-120925812D01*
X67773133Y-120553868D01*
X67458476Y-120237006D01*
X67088265Y-119987295D01*
X66676603Y-119814249D01*
X66239169Y-119724456D01*
X65792626Y-119721339D01*
X65353981Y-119805015D01*
X64939943Y-119972297D01*
X64566282Y-120216814D01*
X64247231Y-120529252D01*
X63994942Y-120897710D01*
X63819025Y-121308154D01*
X63726181Y-121744950D01*
X63719947Y-122191461D01*
X63800558Y-122630680D01*
X63964946Y-123045876D01*
X64206848Y-123421235D01*
X64517051Y-123742459D01*
X64883739Y-123997314D01*
X65292945Y-124176091D01*
X65729082Y-124271983D01*
X66175539Y-124281334D01*
X66615310Y-124203791D01*
X67031643Y-124042306D01*
X67408681Y-123803030D01*
X67732064Y-123495077D01*
X67989472Y-123130178D01*
X68171102Y-122722230D01*
X68270036Y-122286772D01*
X68277158Y-121776723D01*
X68277158Y-128423000D01*
X58070428Y-128423000D01*
X58070428Y-118760772D01*
X58043135Y-118460871D01*
X57958111Y-118171982D01*
X57818593Y-117905110D01*
X57629897Y-117670419D01*
X57399210Y-117476850D01*
X57135318Y-117331774D01*
X56848274Y-117240718D01*
X56549010Y-117207150D01*
X56527466Y-117207000D01*
X56512534Y-117207000D01*
X56212830Y-117236386D01*
X55924542Y-117323425D01*
X55658651Y-117464803D01*
X55593741Y-117517741D01*
X55558730Y-117433215D01*
X55489237Y-117329211D01*
X55400789Y-117240763D01*
X55296785Y-117171270D01*
X55181223Y-117123403D01*
X55058542Y-117099000D01*
X54361750Y-117099000D01*
X54203000Y-117257750D01*
X54203000Y-118527000D01*
X54223000Y-118527000D01*
X54223000Y-118973000D01*
X54203000Y-118973000D01*
X54203000Y-120242250D01*
X54361750Y-120401000D01*
X55058542Y-120401000D01*
X55181223Y-120376597D01*
X55296785Y-120328730D01*
X55400789Y-120259237D01*
X55489237Y-120170789D01*
X55558730Y-120066785D01*
X55593307Y-119983307D01*
X55640790Y-120023150D01*
X55904682Y-120168226D01*
X56191726Y-120259282D01*
X56490990Y-120292850D01*
X56512534Y-120293000D01*
X56527466Y-120293000D01*
X56827170Y-120263614D01*
X57115458Y-120176575D01*
X57381349Y-120035197D01*
X57614717Y-119844868D01*
X57806671Y-119612835D01*
X57949901Y-119347937D01*
X58038951Y-119060263D01*
X58070428Y-118760772D01*
X58070428Y-128423000D01*
X53757000Y-128423000D01*
X53757000Y-120242250D01*
X53757000Y-118973000D01*
X53757000Y-118527000D01*
X53757000Y-117257750D01*
X53598250Y-117099000D01*
X52901458Y-117099000D01*
X52778777Y-117123403D01*
X52663215Y-117171270D01*
X52559211Y-117240763D01*
X52470763Y-117329211D01*
X52401270Y-117433215D01*
X52353403Y-117548777D01*
X52329000Y-117671458D01*
X52329000Y-117796542D01*
X52329000Y-118368250D01*
X52487750Y-118527000D01*
X53757000Y-118527000D01*
X53757000Y-118973000D01*
X52487750Y-118973000D01*
X52329000Y-119131750D01*
X52329000Y-119703458D01*
X52329000Y-119828542D01*
X52353403Y-119951223D01*
X52401270Y-120066785D01*
X52470763Y-120170789D01*
X52559211Y-120259237D01*
X52663215Y-120328730D01*
X52778777Y-120376597D01*
X52901458Y-120401000D01*
X53598250Y-120401000D01*
X53757000Y-120242250D01*
X53757000Y-128423000D01*
X51028218Y-128423000D01*
X50724144Y-128393185D01*
X50458793Y-128313071D01*
X50214056Y-128182942D01*
X49999255Y-128007754D01*
X49822574Y-127794185D01*
X49690741Y-127550365D01*
X49608775Y-127285576D01*
X49577000Y-126983258D01*
X49577000Y-63028218D01*
X49606815Y-62724140D01*
X49686928Y-62458792D01*
X49817056Y-62214056D01*
X49992244Y-61999255D01*
X50205817Y-61822572D01*
X50449635Y-61690740D01*
X50714424Y-61608775D01*
X51016741Y-61577000D01*
X138971781Y-61577000D01*
X139275859Y-61606815D01*
X139541207Y-61686928D01*
X139785943Y-61817056D01*
X140000744Y-61992244D01*
X140177427Y-62205817D01*
X140309259Y-62449635D01*
X140391224Y-62714424D01*
X140423000Y-63016741D01*
X140423000Y-126971781D01*
M02*
